%TF.GenerationSoftware,KiCad,Pcbnew,7.0.6*%
%TF.CreationDate,2023-12-30T20:12:13-05:00*%
%TF.ProjectId,Dynamo,44796e61-6d6f-42e6-9b69-6361645f7063,rev?*%
%TF.SameCoordinates,Original*%
%TF.FileFunction,Drillmap*%
%TF.FilePolarity,Positive*%
%FSLAX45Y45*%
G04 Gerber Fmt 4.5, Leading zero omitted, Abs format (unit mm)*
G04 Created by KiCad (PCBNEW 7.0.6) date 2023-12-30 20:12:13*
%MOMM*%
%LPD*%
G01*
G04 APERTURE LIST*
%ADD10C,0.050000*%
%ADD11C,0.200000*%
%ADD12C,0.080000*%
%ADD13C,0.320000*%
G04 APERTURE END LIST*
D10*
X18825000Y-10270000D02*
X12165000Y-10270000D01*
X19080000Y-9735000D02*
X18825000Y-9990000D01*
X18825000Y-5060000D02*
X18825000Y-6200000D01*
X18825000Y-6200000D02*
X19080000Y-6455000D01*
X18645000Y-4880000D02*
X18825000Y-5060000D01*
X18825000Y-9990000D02*
X18825000Y-10270000D01*
X12165000Y-10270000D02*
X12165000Y-4880000D01*
X19080000Y-6455000D02*
X19080000Y-9735000D01*
X12165000Y-4880000D02*
X18645000Y-4880000D01*
D11*
D12*
X18510000Y-5610000D02*
X18590000Y-5690000D01*
X18590000Y-5610000D02*
X18510000Y-5690000D01*
X18510000Y-6110000D02*
X18590000Y-6190000D01*
X18590000Y-6110000D02*
X18510000Y-6190000D01*
D13*
X13750500Y-9988000D02*
G75*
G03*
X13750500Y-9988000I-160000J0D01*
G01*
X13877500Y-5162000D02*
G75*
G03*
X13877500Y-5162000I-160000J0D01*
G01*
X18957500Y-6686000D02*
G75*
G03*
X18957500Y-6686000I-160000J0D01*
G01*
X18957500Y-9480000D02*
G75*
G03*
X18957500Y-9480000I-160000J0D01*
G01*
D11*
X12423277Y-10583984D02*
X12423277Y-10383984D01*
X12423277Y-10383984D02*
X12470896Y-10383984D01*
X12470896Y-10383984D02*
X12499467Y-10393508D01*
X12499467Y-10393508D02*
X12518515Y-10412555D01*
X12518515Y-10412555D02*
X12528039Y-10431603D01*
X12528039Y-10431603D02*
X12537562Y-10469698D01*
X12537562Y-10469698D02*
X12537562Y-10498270D01*
X12537562Y-10498270D02*
X12528039Y-10536365D01*
X12528039Y-10536365D02*
X12518515Y-10555412D01*
X12518515Y-10555412D02*
X12499467Y-10574460D01*
X12499467Y-10574460D02*
X12470896Y-10583984D01*
X12470896Y-10583984D02*
X12423277Y-10583984D01*
X12623277Y-10583984D02*
X12623277Y-10450650D01*
X12623277Y-10488746D02*
X12632801Y-10469698D01*
X12632801Y-10469698D02*
X12642324Y-10460174D01*
X12642324Y-10460174D02*
X12661372Y-10450650D01*
X12661372Y-10450650D02*
X12680420Y-10450650D01*
X12747086Y-10583984D02*
X12747086Y-10450650D01*
X12747086Y-10383984D02*
X12737562Y-10393508D01*
X12737562Y-10393508D02*
X12747086Y-10403031D01*
X12747086Y-10403031D02*
X12756610Y-10393508D01*
X12756610Y-10393508D02*
X12747086Y-10383984D01*
X12747086Y-10383984D02*
X12747086Y-10403031D01*
X12870896Y-10583984D02*
X12851848Y-10574460D01*
X12851848Y-10574460D02*
X12842324Y-10555412D01*
X12842324Y-10555412D02*
X12842324Y-10383984D01*
X12975658Y-10583984D02*
X12956610Y-10574460D01*
X12956610Y-10574460D02*
X12947086Y-10555412D01*
X12947086Y-10555412D02*
X12947086Y-10383984D01*
X13204229Y-10583984D02*
X13204229Y-10383984D01*
X13204229Y-10383984D02*
X13270896Y-10526841D01*
X13270896Y-10526841D02*
X13337562Y-10383984D01*
X13337562Y-10383984D02*
X13337562Y-10583984D01*
X13518515Y-10583984D02*
X13518515Y-10479222D01*
X13518515Y-10479222D02*
X13508991Y-10460174D01*
X13508991Y-10460174D02*
X13489943Y-10450650D01*
X13489943Y-10450650D02*
X13451848Y-10450650D01*
X13451848Y-10450650D02*
X13432801Y-10460174D01*
X13518515Y-10574460D02*
X13499467Y-10583984D01*
X13499467Y-10583984D02*
X13451848Y-10583984D01*
X13451848Y-10583984D02*
X13432801Y-10574460D01*
X13432801Y-10574460D02*
X13423277Y-10555412D01*
X13423277Y-10555412D02*
X13423277Y-10536365D01*
X13423277Y-10536365D02*
X13432801Y-10517317D01*
X13432801Y-10517317D02*
X13451848Y-10507793D01*
X13451848Y-10507793D02*
X13499467Y-10507793D01*
X13499467Y-10507793D02*
X13518515Y-10498270D01*
X13613753Y-10450650D02*
X13613753Y-10650650D01*
X13613753Y-10460174D02*
X13632801Y-10450650D01*
X13632801Y-10450650D02*
X13670896Y-10450650D01*
X13670896Y-10450650D02*
X13689943Y-10460174D01*
X13689943Y-10460174D02*
X13699467Y-10469698D01*
X13699467Y-10469698D02*
X13708991Y-10488746D01*
X13708991Y-10488746D02*
X13708991Y-10545889D01*
X13708991Y-10545889D02*
X13699467Y-10564936D01*
X13699467Y-10564936D02*
X13689943Y-10574460D01*
X13689943Y-10574460D02*
X13670896Y-10583984D01*
X13670896Y-10583984D02*
X13632801Y-10583984D01*
X13632801Y-10583984D02*
X13613753Y-10574460D01*
X13794705Y-10564936D02*
X13804229Y-10574460D01*
X13804229Y-10574460D02*
X13794705Y-10583984D01*
X13794705Y-10583984D02*
X13785182Y-10574460D01*
X13785182Y-10574460D02*
X13794705Y-10564936D01*
X13794705Y-10564936D02*
X13794705Y-10583984D01*
X13794705Y-10460174D02*
X13804229Y-10469698D01*
X13804229Y-10469698D02*
X13794705Y-10479222D01*
X13794705Y-10479222D02*
X13785182Y-10469698D01*
X13785182Y-10469698D02*
X13794705Y-10460174D01*
X13794705Y-10460174D02*
X13794705Y-10479222D01*
D12*
X12082500Y-10872500D02*
X12162500Y-10952500D01*
X12162500Y-10872500D02*
X12082500Y-10952500D01*
D11*
X12461372Y-10803984D02*
X12480420Y-10803984D01*
X12480420Y-10803984D02*
X12499467Y-10813508D01*
X12499467Y-10813508D02*
X12508991Y-10823031D01*
X12508991Y-10823031D02*
X12518515Y-10842079D01*
X12518515Y-10842079D02*
X12528039Y-10880174D01*
X12528039Y-10880174D02*
X12528039Y-10927793D01*
X12528039Y-10927793D02*
X12518515Y-10965889D01*
X12518515Y-10965889D02*
X12508991Y-10984936D01*
X12508991Y-10984936D02*
X12499467Y-10994460D01*
X12499467Y-10994460D02*
X12480420Y-11003984D01*
X12480420Y-11003984D02*
X12461372Y-11003984D01*
X12461372Y-11003984D02*
X12442324Y-10994460D01*
X12442324Y-10994460D02*
X12432801Y-10984936D01*
X12432801Y-10984936D02*
X12423277Y-10965889D01*
X12423277Y-10965889D02*
X12413753Y-10927793D01*
X12413753Y-10927793D02*
X12413753Y-10880174D01*
X12413753Y-10880174D02*
X12423277Y-10842079D01*
X12423277Y-10842079D02*
X12432801Y-10823031D01*
X12432801Y-10823031D02*
X12442324Y-10813508D01*
X12442324Y-10813508D02*
X12461372Y-10803984D01*
X12613753Y-10984936D02*
X12623277Y-10994460D01*
X12623277Y-10994460D02*
X12613753Y-11003984D01*
X12613753Y-11003984D02*
X12604229Y-10994460D01*
X12604229Y-10994460D02*
X12613753Y-10984936D01*
X12613753Y-10984936D02*
X12613753Y-11003984D01*
X12737562Y-10889698D02*
X12718515Y-10880174D01*
X12718515Y-10880174D02*
X12708991Y-10870650D01*
X12708991Y-10870650D02*
X12699467Y-10851603D01*
X12699467Y-10851603D02*
X12699467Y-10842079D01*
X12699467Y-10842079D02*
X12708991Y-10823031D01*
X12708991Y-10823031D02*
X12718515Y-10813508D01*
X12718515Y-10813508D02*
X12737562Y-10803984D01*
X12737562Y-10803984D02*
X12775658Y-10803984D01*
X12775658Y-10803984D02*
X12794705Y-10813508D01*
X12794705Y-10813508D02*
X12804229Y-10823031D01*
X12804229Y-10823031D02*
X12813753Y-10842079D01*
X12813753Y-10842079D02*
X12813753Y-10851603D01*
X12813753Y-10851603D02*
X12804229Y-10870650D01*
X12804229Y-10870650D02*
X12794705Y-10880174D01*
X12794705Y-10880174D02*
X12775658Y-10889698D01*
X12775658Y-10889698D02*
X12737562Y-10889698D01*
X12737562Y-10889698D02*
X12718515Y-10899222D01*
X12718515Y-10899222D02*
X12708991Y-10908746D01*
X12708991Y-10908746D02*
X12699467Y-10927793D01*
X12699467Y-10927793D02*
X12699467Y-10965889D01*
X12699467Y-10965889D02*
X12708991Y-10984936D01*
X12708991Y-10984936D02*
X12718515Y-10994460D01*
X12718515Y-10994460D02*
X12737562Y-11003984D01*
X12737562Y-11003984D02*
X12775658Y-11003984D01*
X12775658Y-11003984D02*
X12794705Y-10994460D01*
X12794705Y-10994460D02*
X12804229Y-10984936D01*
X12804229Y-10984936D02*
X12813753Y-10965889D01*
X12813753Y-10965889D02*
X12813753Y-10927793D01*
X12813753Y-10927793D02*
X12804229Y-10908746D01*
X12804229Y-10908746D02*
X12794705Y-10899222D01*
X12794705Y-10899222D02*
X12775658Y-10889698D01*
X12937562Y-10803984D02*
X12956610Y-10803984D01*
X12956610Y-10803984D02*
X12975658Y-10813508D01*
X12975658Y-10813508D02*
X12985182Y-10823031D01*
X12985182Y-10823031D02*
X12994705Y-10842079D01*
X12994705Y-10842079D02*
X13004229Y-10880174D01*
X13004229Y-10880174D02*
X13004229Y-10927793D01*
X13004229Y-10927793D02*
X12994705Y-10965889D01*
X12994705Y-10965889D02*
X12985182Y-10984936D01*
X12985182Y-10984936D02*
X12975658Y-10994460D01*
X12975658Y-10994460D02*
X12956610Y-11003984D01*
X12956610Y-11003984D02*
X12937562Y-11003984D01*
X12937562Y-11003984D02*
X12918515Y-10994460D01*
X12918515Y-10994460D02*
X12908991Y-10984936D01*
X12908991Y-10984936D02*
X12899467Y-10965889D01*
X12899467Y-10965889D02*
X12889943Y-10927793D01*
X12889943Y-10927793D02*
X12889943Y-10880174D01*
X12889943Y-10880174D02*
X12899467Y-10842079D01*
X12899467Y-10842079D02*
X12908991Y-10823031D01*
X12908991Y-10823031D02*
X12918515Y-10813508D01*
X12918515Y-10813508D02*
X12937562Y-10803984D01*
X13128039Y-10803984D02*
X13147086Y-10803984D01*
X13147086Y-10803984D02*
X13166134Y-10813508D01*
X13166134Y-10813508D02*
X13175658Y-10823031D01*
X13175658Y-10823031D02*
X13185182Y-10842079D01*
X13185182Y-10842079D02*
X13194705Y-10880174D01*
X13194705Y-10880174D02*
X13194705Y-10927793D01*
X13194705Y-10927793D02*
X13185182Y-10965889D01*
X13185182Y-10965889D02*
X13175658Y-10984936D01*
X13175658Y-10984936D02*
X13166134Y-10994460D01*
X13166134Y-10994460D02*
X13147086Y-11003984D01*
X13147086Y-11003984D02*
X13128039Y-11003984D01*
X13128039Y-11003984D02*
X13108991Y-10994460D01*
X13108991Y-10994460D02*
X13099467Y-10984936D01*
X13099467Y-10984936D02*
X13089943Y-10965889D01*
X13089943Y-10965889D02*
X13080420Y-10927793D01*
X13080420Y-10927793D02*
X13080420Y-10880174D01*
X13080420Y-10880174D02*
X13089943Y-10842079D01*
X13089943Y-10842079D02*
X13099467Y-10823031D01*
X13099467Y-10823031D02*
X13108991Y-10813508D01*
X13108991Y-10813508D02*
X13128039Y-10803984D01*
X13280420Y-11003984D02*
X13280420Y-10870650D01*
X13280420Y-10889698D02*
X13289943Y-10880174D01*
X13289943Y-10880174D02*
X13308991Y-10870650D01*
X13308991Y-10870650D02*
X13337563Y-10870650D01*
X13337563Y-10870650D02*
X13356610Y-10880174D01*
X13356610Y-10880174D02*
X13366134Y-10899222D01*
X13366134Y-10899222D02*
X13366134Y-11003984D01*
X13366134Y-10899222D02*
X13375658Y-10880174D01*
X13375658Y-10880174D02*
X13394705Y-10870650D01*
X13394705Y-10870650D02*
X13423277Y-10870650D01*
X13423277Y-10870650D02*
X13442324Y-10880174D01*
X13442324Y-10880174D02*
X13451848Y-10899222D01*
X13451848Y-10899222D02*
X13451848Y-11003984D01*
X13547086Y-11003984D02*
X13547086Y-10870650D01*
X13547086Y-10889698D02*
X13556610Y-10880174D01*
X13556610Y-10880174D02*
X13575658Y-10870650D01*
X13575658Y-10870650D02*
X13604229Y-10870650D01*
X13604229Y-10870650D02*
X13623277Y-10880174D01*
X13623277Y-10880174D02*
X13632801Y-10899222D01*
X13632801Y-10899222D02*
X13632801Y-11003984D01*
X13632801Y-10899222D02*
X13642324Y-10880174D01*
X13642324Y-10880174D02*
X13661372Y-10870650D01*
X13661372Y-10870650D02*
X13689943Y-10870650D01*
X13689943Y-10870650D02*
X13708991Y-10880174D01*
X13708991Y-10880174D02*
X13718515Y-10899222D01*
X13718515Y-10899222D02*
X13718515Y-11003984D01*
X14108991Y-10794460D02*
X13937563Y-11051603D01*
X14366134Y-10803984D02*
X14385182Y-10803984D01*
X14385182Y-10803984D02*
X14404229Y-10813508D01*
X14404229Y-10813508D02*
X14413753Y-10823031D01*
X14413753Y-10823031D02*
X14423277Y-10842079D01*
X14423277Y-10842079D02*
X14432801Y-10880174D01*
X14432801Y-10880174D02*
X14432801Y-10927793D01*
X14432801Y-10927793D02*
X14423277Y-10965889D01*
X14423277Y-10965889D02*
X14413753Y-10984936D01*
X14413753Y-10984936D02*
X14404229Y-10994460D01*
X14404229Y-10994460D02*
X14385182Y-11003984D01*
X14385182Y-11003984D02*
X14366134Y-11003984D01*
X14366134Y-11003984D02*
X14347086Y-10994460D01*
X14347086Y-10994460D02*
X14337563Y-10984936D01*
X14337563Y-10984936D02*
X14328039Y-10965889D01*
X14328039Y-10965889D02*
X14318515Y-10927793D01*
X14318515Y-10927793D02*
X14318515Y-10880174D01*
X14318515Y-10880174D02*
X14328039Y-10842079D01*
X14328039Y-10842079D02*
X14337563Y-10823031D01*
X14337563Y-10823031D02*
X14347086Y-10813508D01*
X14347086Y-10813508D02*
X14366134Y-10803984D01*
X14518515Y-10984936D02*
X14528039Y-10994460D01*
X14528039Y-10994460D02*
X14518515Y-11003984D01*
X14518515Y-11003984D02*
X14508991Y-10994460D01*
X14508991Y-10994460D02*
X14518515Y-10984936D01*
X14518515Y-10984936D02*
X14518515Y-11003984D01*
X14651848Y-10803984D02*
X14670896Y-10803984D01*
X14670896Y-10803984D02*
X14689944Y-10813508D01*
X14689944Y-10813508D02*
X14699467Y-10823031D01*
X14699467Y-10823031D02*
X14708991Y-10842079D01*
X14708991Y-10842079D02*
X14718515Y-10880174D01*
X14718515Y-10880174D02*
X14718515Y-10927793D01*
X14718515Y-10927793D02*
X14708991Y-10965889D01*
X14708991Y-10965889D02*
X14699467Y-10984936D01*
X14699467Y-10984936D02*
X14689944Y-10994460D01*
X14689944Y-10994460D02*
X14670896Y-11003984D01*
X14670896Y-11003984D02*
X14651848Y-11003984D01*
X14651848Y-11003984D02*
X14632801Y-10994460D01*
X14632801Y-10994460D02*
X14623277Y-10984936D01*
X14623277Y-10984936D02*
X14613753Y-10965889D01*
X14613753Y-10965889D02*
X14604229Y-10927793D01*
X14604229Y-10927793D02*
X14604229Y-10880174D01*
X14604229Y-10880174D02*
X14613753Y-10842079D01*
X14613753Y-10842079D02*
X14623277Y-10823031D01*
X14623277Y-10823031D02*
X14632801Y-10813508D01*
X14632801Y-10813508D02*
X14651848Y-10803984D01*
X14785182Y-10803984D02*
X14908991Y-10803984D01*
X14908991Y-10803984D02*
X14842325Y-10880174D01*
X14842325Y-10880174D02*
X14870896Y-10880174D01*
X14870896Y-10880174D02*
X14889944Y-10889698D01*
X14889944Y-10889698D02*
X14899467Y-10899222D01*
X14899467Y-10899222D02*
X14908991Y-10918270D01*
X14908991Y-10918270D02*
X14908991Y-10965889D01*
X14908991Y-10965889D02*
X14899467Y-10984936D01*
X14899467Y-10984936D02*
X14889944Y-10994460D01*
X14889944Y-10994460D02*
X14870896Y-11003984D01*
X14870896Y-11003984D02*
X14813753Y-11003984D01*
X14813753Y-11003984D02*
X14794706Y-10994460D01*
X14794706Y-10994460D02*
X14785182Y-10984936D01*
X15099467Y-11003984D02*
X14985182Y-11003984D01*
X15042325Y-11003984D02*
X15042325Y-10803984D01*
X15042325Y-10803984D02*
X15023277Y-10832555D01*
X15023277Y-10832555D02*
X15004229Y-10851603D01*
X15004229Y-10851603D02*
X14985182Y-10861127D01*
X15280420Y-10803984D02*
X15185182Y-10803984D01*
X15185182Y-10803984D02*
X15175658Y-10899222D01*
X15175658Y-10899222D02*
X15185182Y-10889698D01*
X15185182Y-10889698D02*
X15204229Y-10880174D01*
X15204229Y-10880174D02*
X15251848Y-10880174D01*
X15251848Y-10880174D02*
X15270896Y-10889698D01*
X15270896Y-10889698D02*
X15280420Y-10899222D01*
X15280420Y-10899222D02*
X15289944Y-10918270D01*
X15289944Y-10918270D02*
X15289944Y-10965889D01*
X15289944Y-10965889D02*
X15280420Y-10984936D01*
X15280420Y-10984936D02*
X15270896Y-10994460D01*
X15270896Y-10994460D02*
X15251848Y-11003984D01*
X15251848Y-11003984D02*
X15204229Y-11003984D01*
X15204229Y-11003984D02*
X15185182Y-10994460D01*
X15185182Y-10994460D02*
X15175658Y-10984936D01*
X15366134Y-10803984D02*
X15366134Y-10842079D01*
X15442325Y-10803984D02*
X15442325Y-10842079D01*
X15737563Y-11080174D02*
X15728039Y-11070650D01*
X15728039Y-11070650D02*
X15708991Y-11042079D01*
X15708991Y-11042079D02*
X15699468Y-11023031D01*
X15699468Y-11023031D02*
X15689944Y-10994460D01*
X15689944Y-10994460D02*
X15680420Y-10946841D01*
X15680420Y-10946841D02*
X15680420Y-10908746D01*
X15680420Y-10908746D02*
X15689944Y-10861127D01*
X15689944Y-10861127D02*
X15699468Y-10832555D01*
X15699468Y-10832555D02*
X15708991Y-10813508D01*
X15708991Y-10813508D02*
X15728039Y-10784936D01*
X15728039Y-10784936D02*
X15737563Y-10775412D01*
X15804229Y-10823031D02*
X15813753Y-10813508D01*
X15813753Y-10813508D02*
X15832801Y-10803984D01*
X15832801Y-10803984D02*
X15880420Y-10803984D01*
X15880420Y-10803984D02*
X15899468Y-10813508D01*
X15899468Y-10813508D02*
X15908991Y-10823031D01*
X15908991Y-10823031D02*
X15918515Y-10842079D01*
X15918515Y-10842079D02*
X15918515Y-10861127D01*
X15918515Y-10861127D02*
X15908991Y-10889698D01*
X15908991Y-10889698D02*
X15794706Y-11003984D01*
X15794706Y-11003984D02*
X15918515Y-11003984D01*
X16156610Y-11003984D02*
X16156610Y-10803984D01*
X16242325Y-11003984D02*
X16242325Y-10899222D01*
X16242325Y-10899222D02*
X16232801Y-10880174D01*
X16232801Y-10880174D02*
X16213753Y-10870650D01*
X16213753Y-10870650D02*
X16185182Y-10870650D01*
X16185182Y-10870650D02*
X16166134Y-10880174D01*
X16166134Y-10880174D02*
X16156610Y-10889698D01*
X16366134Y-11003984D02*
X16347087Y-10994460D01*
X16347087Y-10994460D02*
X16337563Y-10984936D01*
X16337563Y-10984936D02*
X16328039Y-10965889D01*
X16328039Y-10965889D02*
X16328039Y-10908746D01*
X16328039Y-10908746D02*
X16337563Y-10889698D01*
X16337563Y-10889698D02*
X16347087Y-10880174D01*
X16347087Y-10880174D02*
X16366134Y-10870650D01*
X16366134Y-10870650D02*
X16394706Y-10870650D01*
X16394706Y-10870650D02*
X16413753Y-10880174D01*
X16413753Y-10880174D02*
X16423277Y-10889698D01*
X16423277Y-10889698D02*
X16432801Y-10908746D01*
X16432801Y-10908746D02*
X16432801Y-10965889D01*
X16432801Y-10965889D02*
X16423277Y-10984936D01*
X16423277Y-10984936D02*
X16413753Y-10994460D01*
X16413753Y-10994460D02*
X16394706Y-11003984D01*
X16394706Y-11003984D02*
X16366134Y-11003984D01*
X16547087Y-11003984D02*
X16528039Y-10994460D01*
X16528039Y-10994460D02*
X16518515Y-10975412D01*
X16518515Y-10975412D02*
X16518515Y-10803984D01*
X16699468Y-10994460D02*
X16680420Y-11003984D01*
X16680420Y-11003984D02*
X16642325Y-11003984D01*
X16642325Y-11003984D02*
X16623277Y-10994460D01*
X16623277Y-10994460D02*
X16613753Y-10975412D01*
X16613753Y-10975412D02*
X16613753Y-10899222D01*
X16613753Y-10899222D02*
X16623277Y-10880174D01*
X16623277Y-10880174D02*
X16642325Y-10870650D01*
X16642325Y-10870650D02*
X16680420Y-10870650D01*
X16680420Y-10870650D02*
X16699468Y-10880174D01*
X16699468Y-10880174D02*
X16708991Y-10899222D01*
X16708991Y-10899222D02*
X16708991Y-10918270D01*
X16708991Y-10918270D02*
X16613753Y-10937317D01*
X16785182Y-10994460D02*
X16804230Y-11003984D01*
X16804230Y-11003984D02*
X16842325Y-11003984D01*
X16842325Y-11003984D02*
X16861373Y-10994460D01*
X16861373Y-10994460D02*
X16870896Y-10975412D01*
X16870896Y-10975412D02*
X16870896Y-10965889D01*
X16870896Y-10965889D02*
X16861373Y-10946841D01*
X16861373Y-10946841D02*
X16842325Y-10937317D01*
X16842325Y-10937317D02*
X16813753Y-10937317D01*
X16813753Y-10937317D02*
X16794706Y-10927793D01*
X16794706Y-10927793D02*
X16785182Y-10908746D01*
X16785182Y-10908746D02*
X16785182Y-10899222D01*
X16785182Y-10899222D02*
X16794706Y-10880174D01*
X16794706Y-10880174D02*
X16813753Y-10870650D01*
X16813753Y-10870650D02*
X16842325Y-10870650D01*
X16842325Y-10870650D02*
X16861373Y-10880174D01*
X16937563Y-11080174D02*
X16947087Y-11070650D01*
X16947087Y-11070650D02*
X16966134Y-11042079D01*
X16966134Y-11042079D02*
X16975658Y-11023031D01*
X16975658Y-11023031D02*
X16985182Y-10994460D01*
X16985182Y-10994460D02*
X16994706Y-10946841D01*
X16994706Y-10946841D02*
X16994706Y-10908746D01*
X16994706Y-10908746D02*
X16985182Y-10861127D01*
X16985182Y-10861127D02*
X16975658Y-10832555D01*
X16975658Y-10832555D02*
X16966134Y-10813508D01*
X16966134Y-10813508D02*
X16947087Y-10784936D01*
X16947087Y-10784936D02*
X16937563Y-10775412D01*
X17299468Y-11080174D02*
X17289944Y-11070650D01*
X17289944Y-11070650D02*
X17270896Y-11042079D01*
X17270896Y-11042079D02*
X17261373Y-11023031D01*
X17261373Y-11023031D02*
X17251849Y-10994460D01*
X17251849Y-10994460D02*
X17242325Y-10946841D01*
X17242325Y-10946841D02*
X17242325Y-10908746D01*
X17242325Y-10908746D02*
X17251849Y-10861127D01*
X17251849Y-10861127D02*
X17261373Y-10832555D01*
X17261373Y-10832555D02*
X17270896Y-10813508D01*
X17270896Y-10813508D02*
X17289944Y-10784936D01*
X17289944Y-10784936D02*
X17299468Y-10775412D01*
X17375658Y-10870650D02*
X17375658Y-11003984D01*
X17375658Y-10889698D02*
X17385182Y-10880174D01*
X17385182Y-10880174D02*
X17404230Y-10870650D01*
X17404230Y-10870650D02*
X17432801Y-10870650D01*
X17432801Y-10870650D02*
X17451849Y-10880174D01*
X17451849Y-10880174D02*
X17461373Y-10899222D01*
X17461373Y-10899222D02*
X17461373Y-11003984D01*
X17585182Y-11003984D02*
X17566134Y-10994460D01*
X17566134Y-10994460D02*
X17556611Y-10984936D01*
X17556611Y-10984936D02*
X17547087Y-10965889D01*
X17547087Y-10965889D02*
X17547087Y-10908746D01*
X17547087Y-10908746D02*
X17556611Y-10889698D01*
X17556611Y-10889698D02*
X17566134Y-10880174D01*
X17566134Y-10880174D02*
X17585182Y-10870650D01*
X17585182Y-10870650D02*
X17613754Y-10870650D01*
X17613754Y-10870650D02*
X17632801Y-10880174D01*
X17632801Y-10880174D02*
X17642325Y-10889698D01*
X17642325Y-10889698D02*
X17651849Y-10908746D01*
X17651849Y-10908746D02*
X17651849Y-10965889D01*
X17651849Y-10965889D02*
X17642325Y-10984936D01*
X17642325Y-10984936D02*
X17632801Y-10994460D01*
X17632801Y-10994460D02*
X17613754Y-11003984D01*
X17613754Y-11003984D02*
X17585182Y-11003984D01*
X17708992Y-10870650D02*
X17785182Y-10870650D01*
X17737563Y-10803984D02*
X17737563Y-10975412D01*
X17737563Y-10975412D02*
X17747087Y-10994460D01*
X17747087Y-10994460D02*
X17766134Y-11003984D01*
X17766134Y-11003984D02*
X17785182Y-11003984D01*
X18004230Y-10870650D02*
X18004230Y-11070650D01*
X18004230Y-10880174D02*
X18023277Y-10870650D01*
X18023277Y-10870650D02*
X18061373Y-10870650D01*
X18061373Y-10870650D02*
X18080420Y-10880174D01*
X18080420Y-10880174D02*
X18089944Y-10889698D01*
X18089944Y-10889698D02*
X18099468Y-10908746D01*
X18099468Y-10908746D02*
X18099468Y-10965889D01*
X18099468Y-10965889D02*
X18089944Y-10984936D01*
X18089944Y-10984936D02*
X18080420Y-10994460D01*
X18080420Y-10994460D02*
X18061373Y-11003984D01*
X18061373Y-11003984D02*
X18023277Y-11003984D01*
X18023277Y-11003984D02*
X18004230Y-10994460D01*
X18213754Y-11003984D02*
X18194706Y-10994460D01*
X18194706Y-10994460D02*
X18185182Y-10975412D01*
X18185182Y-10975412D02*
X18185182Y-10803984D01*
X18375658Y-11003984D02*
X18375658Y-10899222D01*
X18375658Y-10899222D02*
X18366135Y-10880174D01*
X18366135Y-10880174D02*
X18347087Y-10870650D01*
X18347087Y-10870650D02*
X18308992Y-10870650D01*
X18308992Y-10870650D02*
X18289944Y-10880174D01*
X18375658Y-10994460D02*
X18356611Y-11003984D01*
X18356611Y-11003984D02*
X18308992Y-11003984D01*
X18308992Y-11003984D02*
X18289944Y-10994460D01*
X18289944Y-10994460D02*
X18280420Y-10975412D01*
X18280420Y-10975412D02*
X18280420Y-10956365D01*
X18280420Y-10956365D02*
X18289944Y-10937317D01*
X18289944Y-10937317D02*
X18308992Y-10927793D01*
X18308992Y-10927793D02*
X18356611Y-10927793D01*
X18356611Y-10927793D02*
X18375658Y-10918270D01*
X18442325Y-10870650D02*
X18518515Y-10870650D01*
X18470896Y-10803984D02*
X18470896Y-10975412D01*
X18470896Y-10975412D02*
X18480420Y-10994460D01*
X18480420Y-10994460D02*
X18499468Y-11003984D01*
X18499468Y-11003984D02*
X18518515Y-11003984D01*
X18661373Y-10994460D02*
X18642325Y-11003984D01*
X18642325Y-11003984D02*
X18604230Y-11003984D01*
X18604230Y-11003984D02*
X18585182Y-10994460D01*
X18585182Y-10994460D02*
X18575658Y-10975412D01*
X18575658Y-10975412D02*
X18575658Y-10899222D01*
X18575658Y-10899222D02*
X18585182Y-10880174D01*
X18585182Y-10880174D02*
X18604230Y-10870650D01*
X18604230Y-10870650D02*
X18642325Y-10870650D01*
X18642325Y-10870650D02*
X18661373Y-10880174D01*
X18661373Y-10880174D02*
X18670896Y-10899222D01*
X18670896Y-10899222D02*
X18670896Y-10918270D01*
X18670896Y-10918270D02*
X18575658Y-10937317D01*
X18842325Y-11003984D02*
X18842325Y-10803984D01*
X18842325Y-10994460D02*
X18823277Y-11003984D01*
X18823277Y-11003984D02*
X18785182Y-11003984D01*
X18785182Y-11003984D02*
X18766135Y-10994460D01*
X18766135Y-10994460D02*
X18756611Y-10984936D01*
X18756611Y-10984936D02*
X18747087Y-10965889D01*
X18747087Y-10965889D02*
X18747087Y-10908746D01*
X18747087Y-10908746D02*
X18756611Y-10889698D01*
X18756611Y-10889698D02*
X18766135Y-10880174D01*
X18766135Y-10880174D02*
X18785182Y-10870650D01*
X18785182Y-10870650D02*
X18823277Y-10870650D01*
X18823277Y-10870650D02*
X18842325Y-10880174D01*
X18918516Y-11080174D02*
X18928039Y-11070650D01*
X18928039Y-11070650D02*
X18947087Y-11042079D01*
X18947087Y-11042079D02*
X18956611Y-11023031D01*
X18956611Y-11023031D02*
X18966135Y-10994460D01*
X18966135Y-10994460D02*
X18975658Y-10946841D01*
X18975658Y-10946841D02*
X18975658Y-10908746D01*
X18975658Y-10908746D02*
X18966135Y-10861127D01*
X18966135Y-10861127D02*
X18956611Y-10832555D01*
X18956611Y-10832555D02*
X18947087Y-10813508D01*
X18947087Y-10813508D02*
X18928039Y-10784936D01*
X18928039Y-10784936D02*
X18918516Y-10775412D01*
X12162500Y-11176500D02*
G75*
G03*
X12162500Y-11176500I-100000J0D01*
G01*
X12404229Y-11067984D02*
X12528039Y-11067984D01*
X12528039Y-11067984D02*
X12461372Y-11144174D01*
X12461372Y-11144174D02*
X12489943Y-11144174D01*
X12489943Y-11144174D02*
X12508991Y-11153698D01*
X12508991Y-11153698D02*
X12518515Y-11163222D01*
X12518515Y-11163222D02*
X12528039Y-11182270D01*
X12528039Y-11182270D02*
X12528039Y-11229888D01*
X12528039Y-11229888D02*
X12518515Y-11248936D01*
X12518515Y-11248936D02*
X12508991Y-11258460D01*
X12508991Y-11258460D02*
X12489943Y-11267984D01*
X12489943Y-11267984D02*
X12432801Y-11267984D01*
X12432801Y-11267984D02*
X12413753Y-11258460D01*
X12413753Y-11258460D02*
X12404229Y-11248936D01*
X12613753Y-11248936D02*
X12623277Y-11258460D01*
X12623277Y-11258460D02*
X12613753Y-11267984D01*
X12613753Y-11267984D02*
X12604229Y-11258460D01*
X12604229Y-11258460D02*
X12613753Y-11248936D01*
X12613753Y-11248936D02*
X12613753Y-11267984D01*
X12699467Y-11087031D02*
X12708991Y-11077508D01*
X12708991Y-11077508D02*
X12728039Y-11067984D01*
X12728039Y-11067984D02*
X12775658Y-11067984D01*
X12775658Y-11067984D02*
X12794705Y-11077508D01*
X12794705Y-11077508D02*
X12804229Y-11087031D01*
X12804229Y-11087031D02*
X12813753Y-11106079D01*
X12813753Y-11106079D02*
X12813753Y-11125127D01*
X12813753Y-11125127D02*
X12804229Y-11153698D01*
X12804229Y-11153698D02*
X12689943Y-11267984D01*
X12689943Y-11267984D02*
X12813753Y-11267984D01*
X12937562Y-11067984D02*
X12956610Y-11067984D01*
X12956610Y-11067984D02*
X12975658Y-11077508D01*
X12975658Y-11077508D02*
X12985182Y-11087031D01*
X12985182Y-11087031D02*
X12994705Y-11106079D01*
X12994705Y-11106079D02*
X13004229Y-11144174D01*
X13004229Y-11144174D02*
X13004229Y-11191793D01*
X13004229Y-11191793D02*
X12994705Y-11229888D01*
X12994705Y-11229888D02*
X12985182Y-11248936D01*
X12985182Y-11248936D02*
X12975658Y-11258460D01*
X12975658Y-11258460D02*
X12956610Y-11267984D01*
X12956610Y-11267984D02*
X12937562Y-11267984D01*
X12937562Y-11267984D02*
X12918515Y-11258460D01*
X12918515Y-11258460D02*
X12908991Y-11248936D01*
X12908991Y-11248936D02*
X12899467Y-11229888D01*
X12899467Y-11229888D02*
X12889943Y-11191793D01*
X12889943Y-11191793D02*
X12889943Y-11144174D01*
X12889943Y-11144174D02*
X12899467Y-11106079D01*
X12899467Y-11106079D02*
X12908991Y-11087031D01*
X12908991Y-11087031D02*
X12918515Y-11077508D01*
X12918515Y-11077508D02*
X12937562Y-11067984D01*
X13128039Y-11067984D02*
X13147086Y-11067984D01*
X13147086Y-11067984D02*
X13166134Y-11077508D01*
X13166134Y-11077508D02*
X13175658Y-11087031D01*
X13175658Y-11087031D02*
X13185182Y-11106079D01*
X13185182Y-11106079D02*
X13194705Y-11144174D01*
X13194705Y-11144174D02*
X13194705Y-11191793D01*
X13194705Y-11191793D02*
X13185182Y-11229888D01*
X13185182Y-11229888D02*
X13175658Y-11248936D01*
X13175658Y-11248936D02*
X13166134Y-11258460D01*
X13166134Y-11258460D02*
X13147086Y-11267984D01*
X13147086Y-11267984D02*
X13128039Y-11267984D01*
X13128039Y-11267984D02*
X13108991Y-11258460D01*
X13108991Y-11258460D02*
X13099467Y-11248936D01*
X13099467Y-11248936D02*
X13089943Y-11229888D01*
X13089943Y-11229888D02*
X13080420Y-11191793D01*
X13080420Y-11191793D02*
X13080420Y-11144174D01*
X13080420Y-11144174D02*
X13089943Y-11106079D01*
X13089943Y-11106079D02*
X13099467Y-11087031D01*
X13099467Y-11087031D02*
X13108991Y-11077508D01*
X13108991Y-11077508D02*
X13128039Y-11067984D01*
X13280420Y-11267984D02*
X13280420Y-11134650D01*
X13280420Y-11153698D02*
X13289943Y-11144174D01*
X13289943Y-11144174D02*
X13308991Y-11134650D01*
X13308991Y-11134650D02*
X13337563Y-11134650D01*
X13337563Y-11134650D02*
X13356610Y-11144174D01*
X13356610Y-11144174D02*
X13366134Y-11163222D01*
X13366134Y-11163222D02*
X13366134Y-11267984D01*
X13366134Y-11163222D02*
X13375658Y-11144174D01*
X13375658Y-11144174D02*
X13394705Y-11134650D01*
X13394705Y-11134650D02*
X13423277Y-11134650D01*
X13423277Y-11134650D02*
X13442324Y-11144174D01*
X13442324Y-11144174D02*
X13451848Y-11163222D01*
X13451848Y-11163222D02*
X13451848Y-11267984D01*
X13547086Y-11267984D02*
X13547086Y-11134650D01*
X13547086Y-11153698D02*
X13556610Y-11144174D01*
X13556610Y-11144174D02*
X13575658Y-11134650D01*
X13575658Y-11134650D02*
X13604229Y-11134650D01*
X13604229Y-11134650D02*
X13623277Y-11144174D01*
X13623277Y-11144174D02*
X13632801Y-11163222D01*
X13632801Y-11163222D02*
X13632801Y-11267984D01*
X13632801Y-11163222D02*
X13642324Y-11144174D01*
X13642324Y-11144174D02*
X13661372Y-11134650D01*
X13661372Y-11134650D02*
X13689943Y-11134650D01*
X13689943Y-11134650D02*
X13708991Y-11144174D01*
X13708991Y-11144174D02*
X13718515Y-11163222D01*
X13718515Y-11163222D02*
X13718515Y-11267984D01*
X14108991Y-11058460D02*
X13937563Y-11315603D01*
X14366134Y-11067984D02*
X14385182Y-11067984D01*
X14385182Y-11067984D02*
X14404229Y-11077508D01*
X14404229Y-11077508D02*
X14413753Y-11087031D01*
X14413753Y-11087031D02*
X14423277Y-11106079D01*
X14423277Y-11106079D02*
X14432801Y-11144174D01*
X14432801Y-11144174D02*
X14432801Y-11191793D01*
X14432801Y-11191793D02*
X14423277Y-11229888D01*
X14423277Y-11229888D02*
X14413753Y-11248936D01*
X14413753Y-11248936D02*
X14404229Y-11258460D01*
X14404229Y-11258460D02*
X14385182Y-11267984D01*
X14385182Y-11267984D02*
X14366134Y-11267984D01*
X14366134Y-11267984D02*
X14347086Y-11258460D01*
X14347086Y-11258460D02*
X14337563Y-11248936D01*
X14337563Y-11248936D02*
X14328039Y-11229888D01*
X14328039Y-11229888D02*
X14318515Y-11191793D01*
X14318515Y-11191793D02*
X14318515Y-11144174D01*
X14318515Y-11144174D02*
X14328039Y-11106079D01*
X14328039Y-11106079D02*
X14337563Y-11087031D01*
X14337563Y-11087031D02*
X14347086Y-11077508D01*
X14347086Y-11077508D02*
X14366134Y-11067984D01*
X14518515Y-11248936D02*
X14528039Y-11258460D01*
X14528039Y-11258460D02*
X14518515Y-11267984D01*
X14518515Y-11267984D02*
X14508991Y-11258460D01*
X14508991Y-11258460D02*
X14518515Y-11248936D01*
X14518515Y-11248936D02*
X14518515Y-11267984D01*
X14718515Y-11267984D02*
X14604229Y-11267984D01*
X14661372Y-11267984D02*
X14661372Y-11067984D01*
X14661372Y-11067984D02*
X14642325Y-11096555D01*
X14642325Y-11096555D02*
X14623277Y-11115603D01*
X14623277Y-11115603D02*
X14604229Y-11125127D01*
X14794706Y-11087031D02*
X14804229Y-11077508D01*
X14804229Y-11077508D02*
X14823277Y-11067984D01*
X14823277Y-11067984D02*
X14870896Y-11067984D01*
X14870896Y-11067984D02*
X14889944Y-11077508D01*
X14889944Y-11077508D02*
X14899467Y-11087031D01*
X14899467Y-11087031D02*
X14908991Y-11106079D01*
X14908991Y-11106079D02*
X14908991Y-11125127D01*
X14908991Y-11125127D02*
X14899467Y-11153698D01*
X14899467Y-11153698D02*
X14785182Y-11267984D01*
X14785182Y-11267984D02*
X14908991Y-11267984D01*
X15080420Y-11067984D02*
X15042325Y-11067984D01*
X15042325Y-11067984D02*
X15023277Y-11077508D01*
X15023277Y-11077508D02*
X15013753Y-11087031D01*
X15013753Y-11087031D02*
X14994706Y-11115603D01*
X14994706Y-11115603D02*
X14985182Y-11153698D01*
X14985182Y-11153698D02*
X14985182Y-11229888D01*
X14985182Y-11229888D02*
X14994706Y-11248936D01*
X14994706Y-11248936D02*
X15004229Y-11258460D01*
X15004229Y-11258460D02*
X15023277Y-11267984D01*
X15023277Y-11267984D02*
X15061372Y-11267984D01*
X15061372Y-11267984D02*
X15080420Y-11258460D01*
X15080420Y-11258460D02*
X15089944Y-11248936D01*
X15089944Y-11248936D02*
X15099467Y-11229888D01*
X15099467Y-11229888D02*
X15099467Y-11182270D01*
X15099467Y-11182270D02*
X15089944Y-11163222D01*
X15089944Y-11163222D02*
X15080420Y-11153698D01*
X15080420Y-11153698D02*
X15061372Y-11144174D01*
X15061372Y-11144174D02*
X15023277Y-11144174D01*
X15023277Y-11144174D02*
X15004229Y-11153698D01*
X15004229Y-11153698D02*
X14994706Y-11163222D01*
X14994706Y-11163222D02*
X14985182Y-11182270D01*
X15223277Y-11067984D02*
X15242325Y-11067984D01*
X15242325Y-11067984D02*
X15261372Y-11077508D01*
X15261372Y-11077508D02*
X15270896Y-11087031D01*
X15270896Y-11087031D02*
X15280420Y-11106079D01*
X15280420Y-11106079D02*
X15289944Y-11144174D01*
X15289944Y-11144174D02*
X15289944Y-11191793D01*
X15289944Y-11191793D02*
X15280420Y-11229888D01*
X15280420Y-11229888D02*
X15270896Y-11248936D01*
X15270896Y-11248936D02*
X15261372Y-11258460D01*
X15261372Y-11258460D02*
X15242325Y-11267984D01*
X15242325Y-11267984D02*
X15223277Y-11267984D01*
X15223277Y-11267984D02*
X15204229Y-11258460D01*
X15204229Y-11258460D02*
X15194706Y-11248936D01*
X15194706Y-11248936D02*
X15185182Y-11229888D01*
X15185182Y-11229888D02*
X15175658Y-11191793D01*
X15175658Y-11191793D02*
X15175658Y-11144174D01*
X15175658Y-11144174D02*
X15185182Y-11106079D01*
X15185182Y-11106079D02*
X15194706Y-11087031D01*
X15194706Y-11087031D02*
X15204229Y-11077508D01*
X15204229Y-11077508D02*
X15223277Y-11067984D01*
X15366134Y-11067984D02*
X15366134Y-11106079D01*
X15442325Y-11067984D02*
X15442325Y-11106079D01*
X15737563Y-11344174D02*
X15728039Y-11334650D01*
X15728039Y-11334650D02*
X15708991Y-11306079D01*
X15708991Y-11306079D02*
X15699468Y-11287031D01*
X15699468Y-11287031D02*
X15689944Y-11258460D01*
X15689944Y-11258460D02*
X15680420Y-11210841D01*
X15680420Y-11210841D02*
X15680420Y-11172746D01*
X15680420Y-11172746D02*
X15689944Y-11125127D01*
X15689944Y-11125127D02*
X15699468Y-11096555D01*
X15699468Y-11096555D02*
X15708991Y-11077508D01*
X15708991Y-11077508D02*
X15728039Y-11048936D01*
X15728039Y-11048936D02*
X15737563Y-11039412D01*
X15899468Y-11134650D02*
X15899468Y-11267984D01*
X15851848Y-11058460D02*
X15804229Y-11201317D01*
X15804229Y-11201317D02*
X15928039Y-11201317D01*
X16156610Y-11267984D02*
X16156610Y-11067984D01*
X16242325Y-11267984D02*
X16242325Y-11163222D01*
X16242325Y-11163222D02*
X16232801Y-11144174D01*
X16232801Y-11144174D02*
X16213753Y-11134650D01*
X16213753Y-11134650D02*
X16185182Y-11134650D01*
X16185182Y-11134650D02*
X16166134Y-11144174D01*
X16166134Y-11144174D02*
X16156610Y-11153698D01*
X16366134Y-11267984D02*
X16347087Y-11258460D01*
X16347087Y-11258460D02*
X16337563Y-11248936D01*
X16337563Y-11248936D02*
X16328039Y-11229888D01*
X16328039Y-11229888D02*
X16328039Y-11172746D01*
X16328039Y-11172746D02*
X16337563Y-11153698D01*
X16337563Y-11153698D02*
X16347087Y-11144174D01*
X16347087Y-11144174D02*
X16366134Y-11134650D01*
X16366134Y-11134650D02*
X16394706Y-11134650D01*
X16394706Y-11134650D02*
X16413753Y-11144174D01*
X16413753Y-11144174D02*
X16423277Y-11153698D01*
X16423277Y-11153698D02*
X16432801Y-11172746D01*
X16432801Y-11172746D02*
X16432801Y-11229888D01*
X16432801Y-11229888D02*
X16423277Y-11248936D01*
X16423277Y-11248936D02*
X16413753Y-11258460D01*
X16413753Y-11258460D02*
X16394706Y-11267984D01*
X16394706Y-11267984D02*
X16366134Y-11267984D01*
X16547087Y-11267984D02*
X16528039Y-11258460D01*
X16528039Y-11258460D02*
X16518515Y-11239412D01*
X16518515Y-11239412D02*
X16518515Y-11067984D01*
X16699468Y-11258460D02*
X16680420Y-11267984D01*
X16680420Y-11267984D02*
X16642325Y-11267984D01*
X16642325Y-11267984D02*
X16623277Y-11258460D01*
X16623277Y-11258460D02*
X16613753Y-11239412D01*
X16613753Y-11239412D02*
X16613753Y-11163222D01*
X16613753Y-11163222D02*
X16623277Y-11144174D01*
X16623277Y-11144174D02*
X16642325Y-11134650D01*
X16642325Y-11134650D02*
X16680420Y-11134650D01*
X16680420Y-11134650D02*
X16699468Y-11144174D01*
X16699468Y-11144174D02*
X16708991Y-11163222D01*
X16708991Y-11163222D02*
X16708991Y-11182270D01*
X16708991Y-11182270D02*
X16613753Y-11201317D01*
X16785182Y-11258460D02*
X16804230Y-11267984D01*
X16804230Y-11267984D02*
X16842325Y-11267984D01*
X16842325Y-11267984D02*
X16861373Y-11258460D01*
X16861373Y-11258460D02*
X16870896Y-11239412D01*
X16870896Y-11239412D02*
X16870896Y-11229888D01*
X16870896Y-11229888D02*
X16861373Y-11210841D01*
X16861373Y-11210841D02*
X16842325Y-11201317D01*
X16842325Y-11201317D02*
X16813753Y-11201317D01*
X16813753Y-11201317D02*
X16794706Y-11191793D01*
X16794706Y-11191793D02*
X16785182Y-11172746D01*
X16785182Y-11172746D02*
X16785182Y-11163222D01*
X16785182Y-11163222D02*
X16794706Y-11144174D01*
X16794706Y-11144174D02*
X16813753Y-11134650D01*
X16813753Y-11134650D02*
X16842325Y-11134650D01*
X16842325Y-11134650D02*
X16861373Y-11144174D01*
X16937563Y-11344174D02*
X16947087Y-11334650D01*
X16947087Y-11334650D02*
X16966134Y-11306079D01*
X16966134Y-11306079D02*
X16975658Y-11287031D01*
X16975658Y-11287031D02*
X16985182Y-11258460D01*
X16985182Y-11258460D02*
X16994706Y-11210841D01*
X16994706Y-11210841D02*
X16994706Y-11172746D01*
X16994706Y-11172746D02*
X16985182Y-11125127D01*
X16985182Y-11125127D02*
X16975658Y-11096555D01*
X16975658Y-11096555D02*
X16966134Y-11077508D01*
X16966134Y-11077508D02*
X16947087Y-11048936D01*
X16947087Y-11048936D02*
X16937563Y-11039412D01*
X17299468Y-11344174D02*
X17289944Y-11334650D01*
X17289944Y-11334650D02*
X17270896Y-11306079D01*
X17270896Y-11306079D02*
X17261373Y-11287031D01*
X17261373Y-11287031D02*
X17251849Y-11258460D01*
X17251849Y-11258460D02*
X17242325Y-11210841D01*
X17242325Y-11210841D02*
X17242325Y-11172746D01*
X17242325Y-11172746D02*
X17251849Y-11125127D01*
X17251849Y-11125127D02*
X17261373Y-11096555D01*
X17261373Y-11096555D02*
X17270896Y-11077508D01*
X17270896Y-11077508D02*
X17289944Y-11048936D01*
X17289944Y-11048936D02*
X17299468Y-11039412D01*
X17375658Y-11134650D02*
X17375658Y-11267984D01*
X17375658Y-11153698D02*
X17385182Y-11144174D01*
X17385182Y-11144174D02*
X17404230Y-11134650D01*
X17404230Y-11134650D02*
X17432801Y-11134650D01*
X17432801Y-11134650D02*
X17451849Y-11144174D01*
X17451849Y-11144174D02*
X17461373Y-11163222D01*
X17461373Y-11163222D02*
X17461373Y-11267984D01*
X17585182Y-11267984D02*
X17566134Y-11258460D01*
X17566134Y-11258460D02*
X17556611Y-11248936D01*
X17556611Y-11248936D02*
X17547087Y-11229888D01*
X17547087Y-11229888D02*
X17547087Y-11172746D01*
X17547087Y-11172746D02*
X17556611Y-11153698D01*
X17556611Y-11153698D02*
X17566134Y-11144174D01*
X17566134Y-11144174D02*
X17585182Y-11134650D01*
X17585182Y-11134650D02*
X17613754Y-11134650D01*
X17613754Y-11134650D02*
X17632801Y-11144174D01*
X17632801Y-11144174D02*
X17642325Y-11153698D01*
X17642325Y-11153698D02*
X17651849Y-11172746D01*
X17651849Y-11172746D02*
X17651849Y-11229888D01*
X17651849Y-11229888D02*
X17642325Y-11248936D01*
X17642325Y-11248936D02*
X17632801Y-11258460D01*
X17632801Y-11258460D02*
X17613754Y-11267984D01*
X17613754Y-11267984D02*
X17585182Y-11267984D01*
X17708992Y-11134650D02*
X17785182Y-11134650D01*
X17737563Y-11067984D02*
X17737563Y-11239412D01*
X17737563Y-11239412D02*
X17747087Y-11258460D01*
X17747087Y-11258460D02*
X17766134Y-11267984D01*
X17766134Y-11267984D02*
X17785182Y-11267984D01*
X18004230Y-11134650D02*
X18004230Y-11334650D01*
X18004230Y-11144174D02*
X18023277Y-11134650D01*
X18023277Y-11134650D02*
X18061373Y-11134650D01*
X18061373Y-11134650D02*
X18080420Y-11144174D01*
X18080420Y-11144174D02*
X18089944Y-11153698D01*
X18089944Y-11153698D02*
X18099468Y-11172746D01*
X18099468Y-11172746D02*
X18099468Y-11229888D01*
X18099468Y-11229888D02*
X18089944Y-11248936D01*
X18089944Y-11248936D02*
X18080420Y-11258460D01*
X18080420Y-11258460D02*
X18061373Y-11267984D01*
X18061373Y-11267984D02*
X18023277Y-11267984D01*
X18023277Y-11267984D02*
X18004230Y-11258460D01*
X18213754Y-11267984D02*
X18194706Y-11258460D01*
X18194706Y-11258460D02*
X18185182Y-11239412D01*
X18185182Y-11239412D02*
X18185182Y-11067984D01*
X18375658Y-11267984D02*
X18375658Y-11163222D01*
X18375658Y-11163222D02*
X18366135Y-11144174D01*
X18366135Y-11144174D02*
X18347087Y-11134650D01*
X18347087Y-11134650D02*
X18308992Y-11134650D01*
X18308992Y-11134650D02*
X18289944Y-11144174D01*
X18375658Y-11258460D02*
X18356611Y-11267984D01*
X18356611Y-11267984D02*
X18308992Y-11267984D01*
X18308992Y-11267984D02*
X18289944Y-11258460D01*
X18289944Y-11258460D02*
X18280420Y-11239412D01*
X18280420Y-11239412D02*
X18280420Y-11220365D01*
X18280420Y-11220365D02*
X18289944Y-11201317D01*
X18289944Y-11201317D02*
X18308992Y-11191793D01*
X18308992Y-11191793D02*
X18356611Y-11191793D01*
X18356611Y-11191793D02*
X18375658Y-11182270D01*
X18442325Y-11134650D02*
X18518515Y-11134650D01*
X18470896Y-11067984D02*
X18470896Y-11239412D01*
X18470896Y-11239412D02*
X18480420Y-11258460D01*
X18480420Y-11258460D02*
X18499468Y-11267984D01*
X18499468Y-11267984D02*
X18518515Y-11267984D01*
X18661373Y-11258460D02*
X18642325Y-11267984D01*
X18642325Y-11267984D02*
X18604230Y-11267984D01*
X18604230Y-11267984D02*
X18585182Y-11258460D01*
X18585182Y-11258460D02*
X18575658Y-11239412D01*
X18575658Y-11239412D02*
X18575658Y-11163222D01*
X18575658Y-11163222D02*
X18585182Y-11144174D01*
X18585182Y-11144174D02*
X18604230Y-11134650D01*
X18604230Y-11134650D02*
X18642325Y-11134650D01*
X18642325Y-11134650D02*
X18661373Y-11144174D01*
X18661373Y-11144174D02*
X18670896Y-11163222D01*
X18670896Y-11163222D02*
X18670896Y-11182270D01*
X18670896Y-11182270D02*
X18575658Y-11201317D01*
X18842325Y-11267984D02*
X18842325Y-11067984D01*
X18842325Y-11258460D02*
X18823277Y-11267984D01*
X18823277Y-11267984D02*
X18785182Y-11267984D01*
X18785182Y-11267984D02*
X18766135Y-11258460D01*
X18766135Y-11258460D02*
X18756611Y-11248936D01*
X18756611Y-11248936D02*
X18747087Y-11229888D01*
X18747087Y-11229888D02*
X18747087Y-11172746D01*
X18747087Y-11172746D02*
X18756611Y-11153698D01*
X18756611Y-11153698D02*
X18766135Y-11144174D01*
X18766135Y-11144174D02*
X18785182Y-11134650D01*
X18785182Y-11134650D02*
X18823277Y-11134650D01*
X18823277Y-11134650D02*
X18842325Y-11144174D01*
X18918516Y-11344174D02*
X18928039Y-11334650D01*
X18928039Y-11334650D02*
X18947087Y-11306079D01*
X18947087Y-11306079D02*
X18956611Y-11287031D01*
X18956611Y-11287031D02*
X18966135Y-11258460D01*
X18966135Y-11258460D02*
X18975658Y-11210841D01*
X18975658Y-11210841D02*
X18975658Y-11172746D01*
X18975658Y-11172746D02*
X18966135Y-11125127D01*
X18966135Y-11125127D02*
X18956611Y-11096555D01*
X18956611Y-11096555D02*
X18947087Y-11077508D01*
X18947087Y-11077508D02*
X18928039Y-11048936D01*
X18928039Y-11048936D02*
X18918516Y-11039412D01*
M02*
