%TF.GenerationSoftware,KiCad,Pcbnew,7.0.6*%
%TF.CreationDate,2023-08-21T22:34:02-04:00*%
%TF.ProjectId,Dynamo,44796e61-6d6f-42e6-9b69-6361645f7063,rev?*%
%TF.SameCoordinates,Original*%
%TF.FileFunction,Paste,Top*%
%TF.FilePolarity,Positive*%
%FSLAX46Y46*%
G04 Gerber Fmt 4.6, Leading zero omitted, Abs format (unit mm)*
G04 Created by KiCad (PCBNEW 7.0.6) date 2023-08-21 22:34:02*
%MOMM*%
%LPD*%
G01*
G04 APERTURE LIST*
G04 Aperture macros list*
%AMRoundRect*
0 Rectangle with rounded corners*
0 $1 Rounding radius*
0 $2 $3 $4 $5 $6 $7 $8 $9 X,Y pos of 4 corners*
0 Add a 4 corners polygon primitive as box body*
4,1,4,$2,$3,$4,$5,$6,$7,$8,$9,$2,$3,0*
0 Add four circle primitives for the rounded corners*
1,1,$1+$1,$2,$3*
1,1,$1+$1,$4,$5*
1,1,$1+$1,$6,$7*
1,1,$1+$1,$8,$9*
0 Add four rect primitives between the rounded corners*
20,1,$1+$1,$2,$3,$4,$5,0*
20,1,$1+$1,$4,$5,$6,$7,0*
20,1,$1+$1,$6,$7,$8,$9,0*
20,1,$1+$1,$8,$9,$2,$3,0*%
G04 Aperture macros list end*
%ADD10R,1.560000X0.650000*%
%ADD11R,1.600000X0.300000*%
%ADD12R,1.700000X0.900000*%
%ADD13RoundRect,0.250000X0.312500X0.625000X-0.312500X0.625000X-0.312500X-0.625000X0.312500X-0.625000X0*%
%ADD14RoundRect,0.250000X0.550000X-1.250000X0.550000X1.250000X-0.550000X1.250000X-0.550000X-1.250000X0*%
%ADD15RoundRect,0.250000X0.650000X-0.325000X0.650000X0.325000X-0.650000X0.325000X-0.650000X-0.325000X0*%
%ADD16RoundRect,0.250000X0.625000X-0.312500X0.625000X0.312500X-0.625000X0.312500X-0.625000X-0.312500X0*%
%ADD17RoundRect,0.250000X0.625000X-0.375000X0.625000X0.375000X-0.625000X0.375000X-0.625000X-0.375000X0*%
%ADD18RoundRect,0.250000X-0.650000X0.325000X-0.650000X-0.325000X0.650000X-0.325000X0.650000X0.325000X0*%
%ADD19R,0.800000X1.300000*%
%ADD20RoundRect,0.250000X-0.312500X-0.625000X0.312500X-0.625000X0.312500X0.625000X-0.312500X0.625000X0*%
%ADD21R,3.300000X1.200000*%
%ADD22RoundRect,0.225000X-0.225000X-0.375000X0.225000X-0.375000X0.225000X0.375000X-0.225000X0.375000X0*%
%ADD23R,0.900000X1.500000*%
%ADD24R,1.500000X0.900000*%
%ADD25RoundRect,0.250000X-0.325000X-0.650000X0.325000X-0.650000X0.325000X0.650000X-0.325000X0.650000X0*%
%ADD26R,1.350000X0.400000*%
%ADD27R,1.900000X1.500000*%
%ADD28R,0.650000X1.560000*%
%ADD29RoundRect,0.150000X0.150000X-0.512500X0.150000X0.512500X-0.150000X0.512500X-0.150000X-0.512500X0*%
%ADD30R,2.000000X1.500000*%
%ADD31R,2.000000X3.800000*%
G04 APERTURE END LIST*
D10*
%TO.C,U6*%
X158350000Y-58950000D03*
X158350000Y-58000000D03*
X158350000Y-57050000D03*
X155650000Y-57050000D03*
X155650000Y-58950000D03*
%TD*%
%TO.C,U7*%
X153350000Y-58950000D03*
X153350000Y-58000000D03*
X153350000Y-57050000D03*
X150650000Y-57050000D03*
X150650000Y-58950000D03*
%TD*%
%TO.C,U8*%
X163350000Y-58950000D03*
X163350000Y-58000000D03*
X163350000Y-57050000D03*
X160650000Y-57050000D03*
X160650000Y-58950000D03*
%TD*%
%TO.C,U9*%
X168350000Y-58950000D03*
X168350000Y-58000000D03*
X168350000Y-57050000D03*
X165650000Y-57050000D03*
X165650000Y-58950000D03*
%TD*%
D11*
%TO.C,U14*%
X138800000Y-55025000D03*
X138800000Y-55675000D03*
X138800000Y-56325000D03*
X138800000Y-56975000D03*
X142200000Y-56975000D03*
X142200000Y-56325000D03*
X142200000Y-55675000D03*
X142200000Y-55025000D03*
%TD*%
D12*
%TO.C,RESET1*%
X188500000Y-75150000D03*
X188500000Y-78550000D03*
%TD*%
D13*
%TO.C,R5*%
X185850000Y-83025000D03*
X182925000Y-83025000D03*
%TD*%
D14*
%TO.C,C2*%
X169975000Y-97575000D03*
X169975000Y-93175000D03*
%TD*%
D15*
%TO.C,CU13*%
X186550000Y-57950000D03*
X186550000Y-55000000D03*
%TD*%
D16*
%TO.C,R8*%
X179600000Y-97800000D03*
X179600000Y-94875000D03*
%TD*%
D17*
%TO.C,D1*%
X186550000Y-62600000D03*
X186550000Y-59800000D03*
%TD*%
D18*
%TO.C,C1*%
X129300000Y-86225000D03*
X129300000Y-89175000D03*
%TD*%
D14*
%TO.C,C4*%
X150000000Y-96350000D03*
X150000000Y-91950000D03*
%TD*%
D19*
%TO.C,U2*%
X124430000Y-89150000D03*
X125700000Y-89150000D03*
X126970000Y-89150000D03*
X126970000Y-79650000D03*
X125700000Y-79650000D03*
X124430000Y-79650000D03*
%TD*%
D11*
%TO.C,U13*%
X180300000Y-55400000D03*
X180300000Y-56050000D03*
X180300000Y-56700000D03*
X180300000Y-57350000D03*
X183700000Y-57350000D03*
X183700000Y-56700000D03*
X183700000Y-56050000D03*
X183700000Y-55400000D03*
%TD*%
D20*
%TO.C,R2*%
X181475000Y-62600000D03*
X184400000Y-62600000D03*
%TD*%
D16*
%TO.C,R7*%
X177100000Y-97800000D03*
X177100000Y-94875000D03*
%TD*%
D21*
%TO.C,L1*%
X156250000Y-93425000D03*
X156250000Y-96525000D03*
%TD*%
D22*
%TO.C,D5*%
X180950000Y-86100000D03*
X184250000Y-86100000D03*
%TD*%
D16*
%TO.C,R9*%
X182100000Y-97800000D03*
X182100000Y-94875000D03*
%TD*%
D23*
%TO.C,U10*%
X178485000Y-72250000D03*
X177215000Y-72250000D03*
X175945000Y-72250000D03*
X174675000Y-72250000D03*
X173405000Y-72250000D03*
X172135000Y-72250000D03*
X170865000Y-72250000D03*
X169595000Y-72250000D03*
X168325000Y-72250000D03*
X167055000Y-72250000D03*
X165785000Y-72250000D03*
X164515000Y-72250000D03*
X163245000Y-72250000D03*
X161975000Y-72250000D03*
D24*
X160725000Y-74015000D03*
X160725000Y-75285000D03*
X160725000Y-76555000D03*
X160725000Y-77825000D03*
X160725000Y-79095000D03*
X160725000Y-80365000D03*
X160725000Y-81635000D03*
X160725000Y-82905000D03*
X160725000Y-84175000D03*
X160725000Y-85445000D03*
X160725000Y-86715000D03*
X160725000Y-87985000D03*
D23*
X161975000Y-89750000D03*
X163245000Y-89750000D03*
X164515000Y-89750000D03*
X165785000Y-89750000D03*
X167055000Y-89750000D03*
X168325000Y-89750000D03*
X169595000Y-89750000D03*
X170865000Y-89750000D03*
X172135000Y-89750000D03*
X173405000Y-89750000D03*
X174675000Y-89750000D03*
X175945000Y-89750000D03*
X177215000Y-89750000D03*
X178485000Y-89750000D03*
%TD*%
D16*
%TO.C,R1*%
X132500000Y-94175000D03*
X132500000Y-91250000D03*
%TD*%
D25*
%TO.C,CU2*%
X124275000Y-77350000D03*
X127225000Y-77350000D03*
%TD*%
D26*
%TO.C,JUSB1*%
X126000000Y-63200000D03*
X126000000Y-63850000D03*
X126000000Y-64500000D03*
X126000000Y-65150000D03*
X126000000Y-65800000D03*
D27*
X123300000Y-63500000D03*
X123300000Y-65500000D03*
%TD*%
D22*
%TO.C,D4*%
X180950000Y-88550000D03*
X184250000Y-88550000D03*
%TD*%
D16*
%TO.C,R6*%
X174600000Y-97800000D03*
X174600000Y-94875000D03*
%TD*%
D15*
%TO.C,CU10*%
X178950000Y-70125000D03*
X178950000Y-67175000D03*
%TD*%
%TO.C,C3*%
X161775000Y-96500000D03*
X161775000Y-93550000D03*
%TD*%
D19*
%TO.C,U3*%
X131630000Y-89150000D03*
X132900000Y-89150000D03*
X134170000Y-89150000D03*
X134170000Y-79650000D03*
X132900000Y-79650000D03*
X131630000Y-79650000D03*
%TD*%
D22*
%TO.C,D3*%
X176000000Y-92250000D03*
X179300000Y-92250000D03*
%TD*%
D13*
%TO.C,R3*%
X183850000Y-59350000D03*
X180925000Y-59350000D03*
%TD*%
D10*
%TO.C,U4*%
X148300000Y-58950000D03*
X148300000Y-58000000D03*
X148300000Y-57050000D03*
X145600000Y-57050000D03*
X145600000Y-58950000D03*
%TD*%
D14*
%TO.C,C6*%
X138050000Y-96300000D03*
X138050000Y-91900000D03*
%TD*%
D28*
%TO.C,U5*%
X128350000Y-74900000D03*
X129300000Y-74900000D03*
X130250000Y-74900000D03*
X130250000Y-72200000D03*
X128350000Y-72200000D03*
%TD*%
D25*
%TO.C,CU3*%
X131550000Y-77450000D03*
X134500000Y-77450000D03*
%TD*%
D15*
%TO.C,C7*%
X185575000Y-76025000D03*
X185575000Y-73075000D03*
%TD*%
D14*
%TO.C,C5*%
X144000000Y-96300000D03*
X144000000Y-91900000D03*
%TD*%
D13*
%TO.C,R10*%
X141912500Y-58900000D03*
X138987500Y-58900000D03*
%TD*%
D25*
%TO.C,CU14*%
X144270000Y-54060000D03*
X147220000Y-54060000D03*
%TD*%
D29*
%TO.C,U1*%
X163950000Y-96987500D03*
X164900000Y-96987500D03*
X165850000Y-96987500D03*
X165850000Y-94712500D03*
X164900000Y-94712500D03*
X163950000Y-94712500D03*
%TD*%
D20*
%TO.C,R4*%
X183037500Y-78100000D03*
X185962500Y-78100000D03*
%TD*%
D22*
%TO.C,D2*%
X180950000Y-91025000D03*
X184250000Y-91025000D03*
%TD*%
D12*
%TO.C,BOOT1*%
X188450000Y-80050000D03*
X188450000Y-83450000D03*
%TD*%
D30*
%TO.C,U11*%
X141750000Y-81200000D03*
X141750000Y-83500000D03*
D31*
X148050000Y-83500000D03*
D30*
X141750000Y-85800000D03*
%TD*%
M02*
