M48
; DRILL file {KiCad 7.0.6} date Mon Aug 21 22:34:04 2023
; FORMAT={-:-/ absolute / inch / decimal}
; #@! TF.CreationDate,2023-08-21T22:34:04-04:00
; #@! TF.GenerationSoftware,Kicad,Pcbnew,7.0.6
; #@! TF.FileFunction,Plated,1,2,PTH
FMAT,2
INCH
; #@! TA.AperFunction,Plated,PTH,ViaDrill
T1C0.0118
; #@! TA.AperFunction,Plated,PTH,ComponentDrill
T2C0.0118
; #@! TA.AperFunction,Plated,PTH,ViaDrill
T3C0.0157
; #@! TA.AperFunction,Plated,PTH,ViaDrill
T4C0.0236
; #@! TA.AperFunction,Plated,PTH,ComponentDrill
T5C0.0236
; #@! TA.AperFunction,Plated,PTH,ComponentDrill
T6C0.0300
; #@! TA.AperFunction,Plated,PTH,ComponentDrill
T7C0.0335
; #@! TA.AperFunction,Plated,PTH,ViaDrill
T8C0.0394
; #@! TA.AperFunction,Plated,PTH,ComponentDrill
T9C0.0394
%
G90
G05
T1
X7.2392Y-3.685
T2
X6.6679Y-3.0748
X6.6679Y-3.1299
X6.6679Y-3.185
X6.723Y-3.0748
X6.723Y-3.1299
X6.723Y-3.185
X6.7781Y-3.0748
X6.7781Y-3.1299
X6.7781Y-3.185
T3
X4.8435Y-3.9961
X4.9291Y-2.9665
X4.9606Y-3.5827
X4.9941Y-2.8307
X5.0315Y-2.5138
X5.0315Y-2.561
X5.0906Y-3.4528
X5.2165Y-2.7559
X5.2165Y-2.7953
X5.252Y-2.9803
X5.4075Y-2.2992
X5.5315Y-2.1949
X5.5512Y-2.6772
X5.5807Y-2.5
X5.6417Y-2.2992
X5.6457Y-3.0768
X5.6457Y-3.4783
X5.6713Y-2.1909
X5.689Y-2.5
X5.7343Y-2.3799
X5.7579Y-3.2283
X5.7579Y-3.2874
X5.7579Y-3.3465
X5.7756Y-2.4094
X5.8169Y-3.937
X5.8386Y-2.185
X5.9055Y-3.2283
X5.9055Y-3.2874
X5.9055Y-3.3465
X5.9311Y-2.3799
X6.0079Y-3.0768
X6.0079Y-3.4783
X6.0138Y-2.4606
X6.0236Y-2.6378
X6.0374Y-2.185
X6.0472Y-2.4094
X6.063Y-3.1693
X6.063Y-3.2874
X6.0925Y-1.9685
X6.1122Y-3.1693
X6.1122Y-3.2874
X6.128Y-2.378
X6.1713Y-2.628
X6.1713Y-2.7953
X6.2323Y-3.3937
X6.2343Y-2.185
X6.2441Y-2.4094
X6.2598Y-3.5876
X6.2677Y-3.314
X6.3248Y-2.3799
X6.3287Y-2.7717
X6.3327Y-3.5335
X6.3386Y-2.6378
X6.3878Y-2.7677
X6.3976Y-3.0138
X6.3976Y-3.063
X6.3976Y-3.1142
X6.3976Y-3.1634
X6.4016Y-2.9488
X6.4114Y-3.4547
X6.4311Y-2.187
X6.4331Y-2.4094
X6.435Y-2.748
X6.4449Y-2.498
X6.4665Y-2.7126
X6.4823Y-2.7854
X6.4862Y-2.5
X6.5217Y-2.1524
X6.5217Y-2.3799
X6.5256Y-2.5
X6.565Y-2.5
X6.624Y-3.6683
X6.6299Y-2.4094
X6.6634Y-2.7559
X6.7126Y-2.6969
X6.7224Y-2.7559
X6.7402Y-2.4173
X6.7569Y-3.6683
X6.7638Y-2.4508
X6.8051Y-2.4508
X6.811Y-2.7451
X6.8248Y-2.4154
X6.8327Y-3.626
X6.8504Y-2.7559
X6.8563Y-2.6969
X6.8799Y-3.6398
X6.8858Y-2.6673
X6.9272Y-2.6673
X6.9291Y-2.313
X6.9587Y-2.5886
X6.9587Y-2.6969
X6.998Y-2.4213
X7.0079Y-3.4469
X7.0374Y-2.2067
X7.0374Y-2.5886
X7.0394Y-2.9429
X7.0516Y-2.0823
X7.126Y-3.1398
X7.1555Y-2.0965
X7.1654Y-2.2067
X7.2096Y-3.3297
X7.2441Y-3.8396
X7.2972Y-3.4862
X7.3209Y-3.1417
X7.3425Y-2.1112
X7.4016Y-3.3465
X7.4193Y-3.2185
X7.4213Y-3.0256
X7.435Y-3.8484
X7.4409Y-3.3465
X7.4705Y-2.7657
X7.4803Y-3.3465
X7.4803Y-3.4843
T4
X5.2795Y-2.872
X5.2953Y-3.7894
X5.435Y-3.5236
X5.4921Y-3.1102
X5.4921Y-3.378
X5.5069Y-3.2874
X5.5807Y-3.1102
X5.6447Y-2.874
X5.6594Y-3.2874
X5.7874Y-3.6181
X6.1368Y-2.8445
X6.7126Y-2.2146
X7.1063Y-2.7608
X7.1457Y-2.8248
X7.2726Y-2.5669
X7.2835Y-2.7559
T6
X5.0945Y-3.6594
X5.0945Y-3.8091
T7
X4.9606Y-2.4409
X4.9606Y-2.6378
T8
X4.9035Y-2.0157
T9
X5.5407Y-2.0323
X5.6407Y-2.0323
X5.7407Y-2.0323
X5.8407Y-2.0323
X5.9006Y-3.9323
X5.9407Y-2.0323
X6.0006Y-3.9323
X6.0407Y-2.0323
X6.1006Y-3.9323
X6.1407Y-2.0323
X6.2006Y-3.9323
X6.2407Y-2.0323
X6.3006Y-3.9323
X6.3407Y-2.0323
X6.4006Y-3.9323
X6.4407Y-2.0323
X6.5006Y-3.9323
X6.6006Y-2.0323
X6.6006Y-3.9323
X6.7006Y-2.0323
X6.8006Y-2.0323
X6.8006Y-3.9323
X6.9006Y-2.0323
X6.9006Y-3.9323
X7.0006Y-2.0323
X7.0006Y-3.9323
X7.1006Y-2.0323
X7.1006Y-3.9323
X7.2006Y-2.0323
X7.2006Y-3.9323
X7.3006Y-2.0323
X7.3006Y-3.9323
T5
G00X4.8406Y-2.4016
M15
G01X4.8681Y-2.4016
M16
G05
G00X4.8681Y-2.6772
M15
G01X4.8406Y-2.6772
M16
G05
T0
M30
