%TF.GenerationSoftware,KiCad,Pcbnew,7.0.6*%
%TF.CreationDate,2024-01-14T01:11:59-05:00*%
%TF.ProjectId,Dynamo,44796e61-6d6f-42e6-9b69-6361645f7063,rev?*%
%TF.SameCoordinates,Original*%
%TF.FileFunction,Legend,Bot*%
%TF.FilePolarity,Positive*%
%FSLAX46Y46*%
G04 Gerber Fmt 4.6, Leading zero omitted, Abs format (unit mm)*
G04 Created by KiCad (PCBNEW 7.0.6) date 2024-01-14 01:11:59*
%MOMM*%
%LPD*%
G01*
G04 APERTURE LIST*
%ADD10C,0.150000*%
%ADD11C,0.200000*%
%ADD12C,0.600000*%
%ADD13C,0.120000*%
G04 APERTURE END LIST*
D10*
X167549999Y-77756200D02*
X167378571Y-77813342D01*
X167378571Y-77813342D02*
X167092856Y-77813342D01*
X167092856Y-77813342D02*
X166978571Y-77756200D01*
X166978571Y-77756200D02*
X166921428Y-77699057D01*
X166921428Y-77699057D02*
X166864285Y-77584771D01*
X166864285Y-77584771D02*
X166864285Y-77470485D01*
X166864285Y-77470485D02*
X166921428Y-77356200D01*
X166921428Y-77356200D02*
X166978571Y-77299057D01*
X166978571Y-77299057D02*
X167092856Y-77241914D01*
X167092856Y-77241914D02*
X167321428Y-77184771D01*
X167321428Y-77184771D02*
X167435713Y-77127628D01*
X167435713Y-77127628D02*
X167492856Y-77070485D01*
X167492856Y-77070485D02*
X167549999Y-76956200D01*
X167549999Y-76956200D02*
X167549999Y-76841914D01*
X167549999Y-76841914D02*
X167492856Y-76727628D01*
X167492856Y-76727628D02*
X167435713Y-76670485D01*
X167435713Y-76670485D02*
X167321428Y-76613342D01*
X167321428Y-76613342D02*
X167035713Y-76613342D01*
X167035713Y-76613342D02*
X166864285Y-76670485D01*
X165892856Y-77756200D02*
X166007142Y-77813342D01*
X166007142Y-77813342D02*
X166235714Y-77813342D01*
X166235714Y-77813342D02*
X166349999Y-77756200D01*
X166349999Y-77756200D02*
X166407142Y-77641914D01*
X166407142Y-77641914D02*
X166407142Y-77184771D01*
X166407142Y-77184771D02*
X166349999Y-77070485D01*
X166349999Y-77070485D02*
X166235714Y-77013342D01*
X166235714Y-77013342D02*
X166007142Y-77013342D01*
X166007142Y-77013342D02*
X165892856Y-77070485D01*
X165892856Y-77070485D02*
X165835714Y-77184771D01*
X165835714Y-77184771D02*
X165835714Y-77299057D01*
X165835714Y-77299057D02*
X166407142Y-77413342D01*
X165321428Y-77813342D02*
X165321428Y-77013342D01*
X165321428Y-77241914D02*
X165264285Y-77127628D01*
X165264285Y-77127628D02*
X165207143Y-77070485D01*
X165207143Y-77070485D02*
X165092857Y-77013342D01*
X165092857Y-77013342D02*
X164978571Y-77013342D01*
X164064286Y-77813342D02*
X164064286Y-77184771D01*
X164064286Y-77184771D02*
X164121428Y-77070485D01*
X164121428Y-77070485D02*
X164235714Y-77013342D01*
X164235714Y-77013342D02*
X164464286Y-77013342D01*
X164464286Y-77013342D02*
X164578571Y-77070485D01*
X164064286Y-77756200D02*
X164178571Y-77813342D01*
X164178571Y-77813342D02*
X164464286Y-77813342D01*
X164464286Y-77813342D02*
X164578571Y-77756200D01*
X164578571Y-77756200D02*
X164635714Y-77641914D01*
X164635714Y-77641914D02*
X164635714Y-77527628D01*
X164635714Y-77527628D02*
X164578571Y-77413342D01*
X164578571Y-77413342D02*
X164464286Y-77356200D01*
X164464286Y-77356200D02*
X164178571Y-77356200D01*
X164178571Y-77356200D02*
X164064286Y-77299057D01*
X163492857Y-77013342D02*
X163492857Y-78213342D01*
X163492857Y-77070485D02*
X163378572Y-77013342D01*
X163378572Y-77013342D02*
X163150000Y-77013342D01*
X163150000Y-77013342D02*
X163035714Y-77070485D01*
X163035714Y-77070485D02*
X162978572Y-77127628D01*
X162978572Y-77127628D02*
X162921429Y-77241914D01*
X162921429Y-77241914D02*
X162921429Y-77584771D01*
X162921429Y-77584771D02*
X162978572Y-77699057D01*
X162978572Y-77699057D02*
X163035714Y-77756200D01*
X163035714Y-77756200D02*
X163150000Y-77813342D01*
X163150000Y-77813342D02*
X163378572Y-77813342D01*
X163378572Y-77813342D02*
X163492857Y-77756200D01*
X162407143Y-77813342D02*
X162407143Y-76613342D01*
X161892858Y-77813342D02*
X161892858Y-77184771D01*
X161892858Y-77184771D02*
X161950000Y-77070485D01*
X161950000Y-77070485D02*
X162064286Y-77013342D01*
X162064286Y-77013342D02*
X162235715Y-77013342D01*
X162235715Y-77013342D02*
X162350000Y-77070485D01*
X162350000Y-77070485D02*
X162407143Y-77127628D01*
X161321429Y-77813342D02*
X161321429Y-77013342D01*
X161321429Y-76613342D02*
X161378572Y-76670485D01*
X161378572Y-76670485D02*
X161321429Y-76727628D01*
X161321429Y-76727628D02*
X161264286Y-76670485D01*
X161264286Y-76670485D02*
X161321429Y-76613342D01*
X161321429Y-76613342D02*
X161321429Y-76727628D01*
X160750000Y-77813342D02*
X160750000Y-77013342D01*
X160750000Y-77127628D02*
X160692857Y-77070485D01*
X160692857Y-77070485D02*
X160578572Y-77013342D01*
X160578572Y-77013342D02*
X160407143Y-77013342D01*
X160407143Y-77013342D02*
X160292857Y-77070485D01*
X160292857Y-77070485D02*
X160235715Y-77184771D01*
X160235715Y-77184771D02*
X160235715Y-77813342D01*
X160235715Y-77184771D02*
X160178572Y-77070485D01*
X160178572Y-77070485D02*
X160064286Y-77013342D01*
X160064286Y-77013342D02*
X159892857Y-77013342D01*
X159892857Y-77013342D02*
X159778572Y-77070485D01*
X159778572Y-77070485D02*
X159721429Y-77184771D01*
X159721429Y-77184771D02*
X159721429Y-77813342D01*
X158978572Y-77813342D02*
X159092857Y-77756200D01*
X159092857Y-77756200D02*
X159150000Y-77641914D01*
X159150000Y-77641914D02*
X159150000Y-76613342D01*
X158007144Y-77813342D02*
X158007144Y-77184771D01*
X158007144Y-77184771D02*
X158064286Y-77070485D01*
X158064286Y-77070485D02*
X158178572Y-77013342D01*
X158178572Y-77013342D02*
X158407144Y-77013342D01*
X158407144Y-77013342D02*
X158521429Y-77070485D01*
X158007144Y-77756200D02*
X158121429Y-77813342D01*
X158121429Y-77813342D02*
X158407144Y-77813342D01*
X158407144Y-77813342D02*
X158521429Y-77756200D01*
X158521429Y-77756200D02*
X158578572Y-77641914D01*
X158578572Y-77641914D02*
X158578572Y-77527628D01*
X158578572Y-77527628D02*
X158521429Y-77413342D01*
X158521429Y-77413342D02*
X158407144Y-77356200D01*
X158407144Y-77356200D02*
X158121429Y-77356200D01*
X158121429Y-77356200D02*
X158007144Y-77299057D01*
X157435715Y-77813342D02*
X157435715Y-76613342D01*
X157435715Y-77070485D02*
X157321430Y-77013342D01*
X157321430Y-77013342D02*
X157092858Y-77013342D01*
X157092858Y-77013342D02*
X156978572Y-77070485D01*
X156978572Y-77070485D02*
X156921430Y-77127628D01*
X156921430Y-77127628D02*
X156864287Y-77241914D01*
X156864287Y-77241914D02*
X156864287Y-77584771D01*
X156864287Y-77584771D02*
X156921430Y-77699057D01*
X156921430Y-77699057D02*
X156978572Y-77756200D01*
X156978572Y-77756200D02*
X157092858Y-77813342D01*
X157092858Y-77813342D02*
X157321430Y-77813342D01*
X157321430Y-77813342D02*
X157435715Y-77756200D01*
X156407144Y-77756200D02*
X156292858Y-77813342D01*
X156292858Y-77813342D02*
X156064287Y-77813342D01*
X156064287Y-77813342D02*
X155950001Y-77756200D01*
X155950001Y-77756200D02*
X155892858Y-77641914D01*
X155892858Y-77641914D02*
X155892858Y-77584771D01*
X155892858Y-77584771D02*
X155950001Y-77470485D01*
X155950001Y-77470485D02*
X156064287Y-77413342D01*
X156064287Y-77413342D02*
X156235716Y-77413342D01*
X156235716Y-77413342D02*
X156350001Y-77356200D01*
X156350001Y-77356200D02*
X156407144Y-77241914D01*
X156407144Y-77241914D02*
X156407144Y-77184771D01*
X156407144Y-77184771D02*
X156350001Y-77070485D01*
X156350001Y-77070485D02*
X156235716Y-77013342D01*
X156235716Y-77013342D02*
X156064287Y-77013342D01*
X156064287Y-77013342D02*
X155950001Y-77070485D01*
X153892858Y-77813342D02*
X154464286Y-77813342D01*
X154464286Y-77813342D02*
X154464286Y-76613342D01*
X152921429Y-77813342D02*
X153492857Y-77813342D01*
X153492857Y-77813342D02*
X153492857Y-76613342D01*
X151835714Y-77699057D02*
X151892857Y-77756200D01*
X151892857Y-77756200D02*
X152064285Y-77813342D01*
X152064285Y-77813342D02*
X152178571Y-77813342D01*
X152178571Y-77813342D02*
X152350000Y-77756200D01*
X152350000Y-77756200D02*
X152464285Y-77641914D01*
X152464285Y-77641914D02*
X152521428Y-77527628D01*
X152521428Y-77527628D02*
X152578571Y-77299057D01*
X152578571Y-77299057D02*
X152578571Y-77127628D01*
X152578571Y-77127628D02*
X152521428Y-76899057D01*
X152521428Y-76899057D02*
X152464285Y-76784771D01*
X152464285Y-76784771D02*
X152350000Y-76670485D01*
X152350000Y-76670485D02*
X152178571Y-76613342D01*
X152178571Y-76613342D02*
X152064285Y-76613342D01*
X152064285Y-76613342D02*
X151892857Y-76670485D01*
X151892857Y-76670485D02*
X151835714Y-76727628D01*
X150464285Y-76727628D02*
X150407142Y-76670485D01*
X150407142Y-76670485D02*
X150292857Y-76613342D01*
X150292857Y-76613342D02*
X150007142Y-76613342D01*
X150007142Y-76613342D02*
X149892857Y-76670485D01*
X149892857Y-76670485D02*
X149835714Y-76727628D01*
X149835714Y-76727628D02*
X149778571Y-76841914D01*
X149778571Y-76841914D02*
X149778571Y-76956200D01*
X149778571Y-76956200D02*
X149835714Y-77127628D01*
X149835714Y-77127628D02*
X150521428Y-77813342D01*
X150521428Y-77813342D02*
X149778571Y-77813342D01*
X149035714Y-76613342D02*
X148921428Y-76613342D01*
X148921428Y-76613342D02*
X148807142Y-76670485D01*
X148807142Y-76670485D02*
X148750000Y-76727628D01*
X148750000Y-76727628D02*
X148692857Y-76841914D01*
X148692857Y-76841914D02*
X148635714Y-77070485D01*
X148635714Y-77070485D02*
X148635714Y-77356200D01*
X148635714Y-77356200D02*
X148692857Y-77584771D01*
X148692857Y-77584771D02*
X148750000Y-77699057D01*
X148750000Y-77699057D02*
X148807142Y-77756200D01*
X148807142Y-77756200D02*
X148921428Y-77813342D01*
X148921428Y-77813342D02*
X149035714Y-77813342D01*
X149035714Y-77813342D02*
X149150000Y-77756200D01*
X149150000Y-77756200D02*
X149207142Y-77699057D01*
X149207142Y-77699057D02*
X149264285Y-77584771D01*
X149264285Y-77584771D02*
X149321428Y-77356200D01*
X149321428Y-77356200D02*
X149321428Y-77070485D01*
X149321428Y-77070485D02*
X149264285Y-76841914D01*
X149264285Y-76841914D02*
X149207142Y-76727628D01*
X149207142Y-76727628D02*
X149150000Y-76670485D01*
X149150000Y-76670485D02*
X149035714Y-76613342D01*
X148178571Y-76727628D02*
X148121428Y-76670485D01*
X148121428Y-76670485D02*
X148007143Y-76613342D01*
X148007143Y-76613342D02*
X147721428Y-76613342D01*
X147721428Y-76613342D02*
X147607143Y-76670485D01*
X147607143Y-76670485D02*
X147550000Y-76727628D01*
X147550000Y-76727628D02*
X147492857Y-76841914D01*
X147492857Y-76841914D02*
X147492857Y-76956200D01*
X147492857Y-76956200D02*
X147550000Y-77127628D01*
X147550000Y-77127628D02*
X148235714Y-77813342D01*
X148235714Y-77813342D02*
X147492857Y-77813342D01*
X147092857Y-76613342D02*
X146350000Y-76613342D01*
X146350000Y-76613342D02*
X146750000Y-77070485D01*
X146750000Y-77070485D02*
X146578571Y-77070485D01*
X146578571Y-77070485D02*
X146464286Y-77127628D01*
X146464286Y-77127628D02*
X146407143Y-77184771D01*
X146407143Y-77184771D02*
X146350000Y-77299057D01*
X146350000Y-77299057D02*
X146350000Y-77584771D01*
X146350000Y-77584771D02*
X146407143Y-77699057D01*
X146407143Y-77699057D02*
X146464286Y-77756200D01*
X146464286Y-77756200D02*
X146578571Y-77813342D01*
X146578571Y-77813342D02*
X146921428Y-77813342D01*
X146921428Y-77813342D02*
X147035714Y-77756200D01*
X147035714Y-77756200D02*
X147092857Y-77699057D01*
X169349999Y-78945342D02*
X169349999Y-79916771D01*
X169349999Y-79916771D02*
X169407141Y-80031057D01*
X169407141Y-80031057D02*
X169464284Y-80088200D01*
X169464284Y-80088200D02*
X169578570Y-80145342D01*
X169578570Y-80145342D02*
X169749999Y-80145342D01*
X169749999Y-80145342D02*
X169864284Y-80088200D01*
X169349999Y-79688200D02*
X169464284Y-79745342D01*
X169464284Y-79745342D02*
X169692856Y-79745342D01*
X169692856Y-79745342D02*
X169807141Y-79688200D01*
X169807141Y-79688200D02*
X169864284Y-79631057D01*
X169864284Y-79631057D02*
X169921427Y-79516771D01*
X169921427Y-79516771D02*
X169921427Y-79173914D01*
X169921427Y-79173914D02*
X169864284Y-79059628D01*
X169864284Y-79059628D02*
X169807141Y-79002485D01*
X169807141Y-79002485D02*
X169692856Y-78945342D01*
X169692856Y-78945342D02*
X169464284Y-78945342D01*
X169464284Y-78945342D02*
X169349999Y-79002485D01*
X168778570Y-79745342D02*
X168778570Y-78945342D01*
X168778570Y-78545342D02*
X168835713Y-78602485D01*
X168835713Y-78602485D02*
X168778570Y-78659628D01*
X168778570Y-78659628D02*
X168721427Y-78602485D01*
X168721427Y-78602485D02*
X168778570Y-78545342D01*
X168778570Y-78545342D02*
X168778570Y-78659628D01*
X168378570Y-78945342D02*
X167921427Y-78945342D01*
X168207141Y-78545342D02*
X168207141Y-79573914D01*
X168207141Y-79573914D02*
X168149998Y-79688200D01*
X168149998Y-79688200D02*
X168035713Y-79745342D01*
X168035713Y-79745342D02*
X167921427Y-79745342D01*
X167521427Y-79745342D02*
X167521427Y-78545342D01*
X167007142Y-79745342D02*
X167007142Y-79116771D01*
X167007142Y-79116771D02*
X167064284Y-79002485D01*
X167064284Y-79002485D02*
X167178570Y-78945342D01*
X167178570Y-78945342D02*
X167349999Y-78945342D01*
X167349999Y-78945342D02*
X167464284Y-79002485D01*
X167464284Y-79002485D02*
X167521427Y-79059628D01*
X165921428Y-78945342D02*
X165921428Y-79745342D01*
X166435713Y-78945342D02*
X166435713Y-79573914D01*
X166435713Y-79573914D02*
X166378570Y-79688200D01*
X166378570Y-79688200D02*
X166264285Y-79745342D01*
X166264285Y-79745342D02*
X166092856Y-79745342D01*
X166092856Y-79745342D02*
X165978570Y-79688200D01*
X165978570Y-79688200D02*
X165921428Y-79631057D01*
X165349999Y-79745342D02*
X165349999Y-78545342D01*
X165349999Y-79002485D02*
X165235714Y-78945342D01*
X165235714Y-78945342D02*
X165007142Y-78945342D01*
X165007142Y-78945342D02*
X164892856Y-79002485D01*
X164892856Y-79002485D02*
X164835714Y-79059628D01*
X164835714Y-79059628D02*
X164778571Y-79173914D01*
X164778571Y-79173914D02*
X164778571Y-79516771D01*
X164778571Y-79516771D02*
X164835714Y-79631057D01*
X164835714Y-79631057D02*
X164892856Y-79688200D01*
X164892856Y-79688200D02*
X165007142Y-79745342D01*
X165007142Y-79745342D02*
X165235714Y-79745342D01*
X165235714Y-79745342D02*
X165349999Y-79688200D01*
X164264285Y-79631057D02*
X164207142Y-79688200D01*
X164207142Y-79688200D02*
X164264285Y-79745342D01*
X164264285Y-79745342D02*
X164321428Y-79688200D01*
X164321428Y-79688200D02*
X164264285Y-79631057D01*
X164264285Y-79631057D02*
X164264285Y-79745342D01*
X163178571Y-79688200D02*
X163292856Y-79745342D01*
X163292856Y-79745342D02*
X163521428Y-79745342D01*
X163521428Y-79745342D02*
X163635713Y-79688200D01*
X163635713Y-79688200D02*
X163692856Y-79631057D01*
X163692856Y-79631057D02*
X163749999Y-79516771D01*
X163749999Y-79516771D02*
X163749999Y-79173914D01*
X163749999Y-79173914D02*
X163692856Y-79059628D01*
X163692856Y-79059628D02*
X163635713Y-79002485D01*
X163635713Y-79002485D02*
X163521428Y-78945342D01*
X163521428Y-78945342D02*
X163292856Y-78945342D01*
X163292856Y-78945342D02*
X163178571Y-79002485D01*
X162492857Y-79745342D02*
X162607142Y-79688200D01*
X162607142Y-79688200D02*
X162664285Y-79631057D01*
X162664285Y-79631057D02*
X162721428Y-79516771D01*
X162721428Y-79516771D02*
X162721428Y-79173914D01*
X162721428Y-79173914D02*
X162664285Y-79059628D01*
X162664285Y-79059628D02*
X162607142Y-79002485D01*
X162607142Y-79002485D02*
X162492857Y-78945342D01*
X162492857Y-78945342D02*
X162321428Y-78945342D01*
X162321428Y-78945342D02*
X162207142Y-79002485D01*
X162207142Y-79002485D02*
X162150000Y-79059628D01*
X162150000Y-79059628D02*
X162092857Y-79173914D01*
X162092857Y-79173914D02*
X162092857Y-79516771D01*
X162092857Y-79516771D02*
X162150000Y-79631057D01*
X162150000Y-79631057D02*
X162207142Y-79688200D01*
X162207142Y-79688200D02*
X162321428Y-79745342D01*
X162321428Y-79745342D02*
X162492857Y-79745342D01*
X161578571Y-79745342D02*
X161578571Y-78945342D01*
X161578571Y-79059628D02*
X161521428Y-79002485D01*
X161521428Y-79002485D02*
X161407143Y-78945342D01*
X161407143Y-78945342D02*
X161235714Y-78945342D01*
X161235714Y-78945342D02*
X161121428Y-79002485D01*
X161121428Y-79002485D02*
X161064286Y-79116771D01*
X161064286Y-79116771D02*
X161064286Y-79745342D01*
X161064286Y-79116771D02*
X161007143Y-79002485D01*
X161007143Y-79002485D02*
X160892857Y-78945342D01*
X160892857Y-78945342D02*
X160721428Y-78945342D01*
X160721428Y-78945342D02*
X160607143Y-79002485D01*
X160607143Y-79002485D02*
X160550000Y-79116771D01*
X160550000Y-79116771D02*
X160550000Y-79745342D01*
X159121428Y-78488200D02*
X160150000Y-80031057D01*
X158778571Y-79688200D02*
X158607143Y-79745342D01*
X158607143Y-79745342D02*
X158321428Y-79745342D01*
X158321428Y-79745342D02*
X158207143Y-79688200D01*
X158207143Y-79688200D02*
X158150000Y-79631057D01*
X158150000Y-79631057D02*
X158092857Y-79516771D01*
X158092857Y-79516771D02*
X158092857Y-79402485D01*
X158092857Y-79402485D02*
X158150000Y-79288200D01*
X158150000Y-79288200D02*
X158207143Y-79231057D01*
X158207143Y-79231057D02*
X158321428Y-79173914D01*
X158321428Y-79173914D02*
X158550000Y-79116771D01*
X158550000Y-79116771D02*
X158664285Y-79059628D01*
X158664285Y-79059628D02*
X158721428Y-79002485D01*
X158721428Y-79002485D02*
X158778571Y-78888200D01*
X158778571Y-78888200D02*
X158778571Y-78773914D01*
X158778571Y-78773914D02*
X158721428Y-78659628D01*
X158721428Y-78659628D02*
X158664285Y-78602485D01*
X158664285Y-78602485D02*
X158550000Y-78545342D01*
X158550000Y-78545342D02*
X158264285Y-78545342D01*
X158264285Y-78545342D02*
X158092857Y-78602485D01*
X157121428Y-79688200D02*
X157235714Y-79745342D01*
X157235714Y-79745342D02*
X157464286Y-79745342D01*
X157464286Y-79745342D02*
X157578571Y-79688200D01*
X157578571Y-79688200D02*
X157635714Y-79573914D01*
X157635714Y-79573914D02*
X157635714Y-79116771D01*
X157635714Y-79116771D02*
X157578571Y-79002485D01*
X157578571Y-79002485D02*
X157464286Y-78945342D01*
X157464286Y-78945342D02*
X157235714Y-78945342D01*
X157235714Y-78945342D02*
X157121428Y-79002485D01*
X157121428Y-79002485D02*
X157064286Y-79116771D01*
X157064286Y-79116771D02*
X157064286Y-79231057D01*
X157064286Y-79231057D02*
X157635714Y-79345342D01*
X156550000Y-79745342D02*
X156550000Y-78945342D01*
X156550000Y-79173914D02*
X156492857Y-79059628D01*
X156492857Y-79059628D02*
X156435715Y-79002485D01*
X156435715Y-79002485D02*
X156321429Y-78945342D01*
X156321429Y-78945342D02*
X156207143Y-78945342D01*
X155292858Y-79745342D02*
X155292858Y-79116771D01*
X155292858Y-79116771D02*
X155350000Y-79002485D01*
X155350000Y-79002485D02*
X155464286Y-78945342D01*
X155464286Y-78945342D02*
X155692858Y-78945342D01*
X155692858Y-78945342D02*
X155807143Y-79002485D01*
X155292858Y-79688200D02*
X155407143Y-79745342D01*
X155407143Y-79745342D02*
X155692858Y-79745342D01*
X155692858Y-79745342D02*
X155807143Y-79688200D01*
X155807143Y-79688200D02*
X155864286Y-79573914D01*
X155864286Y-79573914D02*
X155864286Y-79459628D01*
X155864286Y-79459628D02*
X155807143Y-79345342D01*
X155807143Y-79345342D02*
X155692858Y-79288200D01*
X155692858Y-79288200D02*
X155407143Y-79288200D01*
X155407143Y-79288200D02*
X155292858Y-79231057D01*
X154721429Y-78945342D02*
X154721429Y-80145342D01*
X154721429Y-79002485D02*
X154607144Y-78945342D01*
X154607144Y-78945342D02*
X154378572Y-78945342D01*
X154378572Y-78945342D02*
X154264286Y-79002485D01*
X154264286Y-79002485D02*
X154207144Y-79059628D01*
X154207144Y-79059628D02*
X154150001Y-79173914D01*
X154150001Y-79173914D02*
X154150001Y-79516771D01*
X154150001Y-79516771D02*
X154207144Y-79631057D01*
X154207144Y-79631057D02*
X154264286Y-79688200D01*
X154264286Y-79688200D02*
X154378572Y-79745342D01*
X154378572Y-79745342D02*
X154607144Y-79745342D01*
X154607144Y-79745342D02*
X154721429Y-79688200D01*
X153635715Y-79745342D02*
X153635715Y-78545342D01*
X153121430Y-79745342D02*
X153121430Y-79116771D01*
X153121430Y-79116771D02*
X153178572Y-79002485D01*
X153178572Y-79002485D02*
X153292858Y-78945342D01*
X153292858Y-78945342D02*
X153464287Y-78945342D01*
X153464287Y-78945342D02*
X153578572Y-79002485D01*
X153578572Y-79002485D02*
X153635715Y-79059628D01*
X152550001Y-79745342D02*
X152550001Y-78945342D01*
X152550001Y-78545342D02*
X152607144Y-78602485D01*
X152607144Y-78602485D02*
X152550001Y-78659628D01*
X152550001Y-78659628D02*
X152492858Y-78602485D01*
X152492858Y-78602485D02*
X152550001Y-78545342D01*
X152550001Y-78545342D02*
X152550001Y-78659628D01*
X151978572Y-79745342D02*
X151978572Y-78945342D01*
X151978572Y-79059628D02*
X151921429Y-79002485D01*
X151921429Y-79002485D02*
X151807144Y-78945342D01*
X151807144Y-78945342D02*
X151635715Y-78945342D01*
X151635715Y-78945342D02*
X151521429Y-79002485D01*
X151521429Y-79002485D02*
X151464287Y-79116771D01*
X151464287Y-79116771D02*
X151464287Y-79745342D01*
X151464287Y-79116771D02*
X151407144Y-79002485D01*
X151407144Y-79002485D02*
X151292858Y-78945342D01*
X151292858Y-78945342D02*
X151121429Y-78945342D01*
X151121429Y-78945342D02*
X151007144Y-79002485D01*
X151007144Y-79002485D02*
X150950001Y-79116771D01*
X150950001Y-79116771D02*
X150950001Y-79745342D01*
X150207144Y-79745342D02*
X150321429Y-79688200D01*
X150321429Y-79688200D02*
X150378572Y-79573914D01*
X150378572Y-79573914D02*
X150378572Y-78545342D01*
X149235716Y-79745342D02*
X149235716Y-79116771D01*
X149235716Y-79116771D02*
X149292858Y-79002485D01*
X149292858Y-79002485D02*
X149407144Y-78945342D01*
X149407144Y-78945342D02*
X149635716Y-78945342D01*
X149635716Y-78945342D02*
X149750001Y-79002485D01*
X149235716Y-79688200D02*
X149350001Y-79745342D01*
X149350001Y-79745342D02*
X149635716Y-79745342D01*
X149635716Y-79745342D02*
X149750001Y-79688200D01*
X149750001Y-79688200D02*
X149807144Y-79573914D01*
X149807144Y-79573914D02*
X149807144Y-79459628D01*
X149807144Y-79459628D02*
X149750001Y-79345342D01*
X149750001Y-79345342D02*
X149635716Y-79288200D01*
X149635716Y-79288200D02*
X149350001Y-79288200D01*
X149350001Y-79288200D02*
X149235716Y-79231057D01*
X148664287Y-79745342D02*
X148664287Y-78545342D01*
X148664287Y-79002485D02*
X148550002Y-78945342D01*
X148550002Y-78945342D02*
X148321430Y-78945342D01*
X148321430Y-78945342D02*
X148207144Y-79002485D01*
X148207144Y-79002485D02*
X148150002Y-79059628D01*
X148150002Y-79059628D02*
X148092859Y-79173914D01*
X148092859Y-79173914D02*
X148092859Y-79516771D01*
X148092859Y-79516771D02*
X148150002Y-79631057D01*
X148150002Y-79631057D02*
X148207144Y-79688200D01*
X148207144Y-79688200D02*
X148321430Y-79745342D01*
X148321430Y-79745342D02*
X148550002Y-79745342D01*
X148550002Y-79745342D02*
X148664287Y-79688200D01*
X147635716Y-79688200D02*
X147521430Y-79745342D01*
X147521430Y-79745342D02*
X147292859Y-79745342D01*
X147292859Y-79745342D02*
X147178573Y-79688200D01*
X147178573Y-79688200D02*
X147121430Y-79573914D01*
X147121430Y-79573914D02*
X147121430Y-79516771D01*
X147121430Y-79516771D02*
X147178573Y-79402485D01*
X147178573Y-79402485D02*
X147292859Y-79345342D01*
X147292859Y-79345342D02*
X147464288Y-79345342D01*
X147464288Y-79345342D02*
X147578573Y-79288200D01*
X147578573Y-79288200D02*
X147635716Y-79173914D01*
X147635716Y-79173914D02*
X147635716Y-79116771D01*
X147635716Y-79116771D02*
X147578573Y-79002485D01*
X147578573Y-79002485D02*
X147464288Y-78945342D01*
X147464288Y-78945342D02*
X147292859Y-78945342D01*
X147292859Y-78945342D02*
X147178573Y-79002485D01*
X146035716Y-79745342D02*
X146607144Y-79745342D01*
X146607144Y-79745342D02*
X146607144Y-78545342D01*
X145064287Y-79745342D02*
X145635715Y-79745342D01*
X145635715Y-79745342D02*
X145635715Y-78545342D01*
X143978572Y-79631057D02*
X144035715Y-79688200D01*
X144035715Y-79688200D02*
X144207143Y-79745342D01*
X144207143Y-79745342D02*
X144321429Y-79745342D01*
X144321429Y-79745342D02*
X144492858Y-79688200D01*
X144492858Y-79688200D02*
X144607143Y-79573914D01*
X144607143Y-79573914D02*
X144664286Y-79459628D01*
X144664286Y-79459628D02*
X144721429Y-79231057D01*
X144721429Y-79231057D02*
X144721429Y-79059628D01*
X144721429Y-79059628D02*
X144664286Y-78831057D01*
X144664286Y-78831057D02*
X144607143Y-78716771D01*
X144607143Y-78716771D02*
X144492858Y-78602485D01*
X144492858Y-78602485D02*
X144321429Y-78545342D01*
X144321429Y-78545342D02*
X144207143Y-78545342D01*
X144207143Y-78545342D02*
X144035715Y-78602485D01*
X144035715Y-78602485D02*
X143978572Y-78659628D01*
D11*
X189067219Y-77655387D02*
X189781504Y-77655387D01*
X189781504Y-77655387D02*
X189924361Y-77607768D01*
X189924361Y-77607768D02*
X190019600Y-77512530D01*
X190019600Y-77512530D02*
X190067219Y-77369673D01*
X190067219Y-77369673D02*
X190067219Y-77274435D01*
X190067219Y-78607768D02*
X190067219Y-78131578D01*
X190067219Y-78131578D02*
X189067219Y-78131578D01*
X189971980Y-79512530D02*
X190019600Y-79464911D01*
X190019600Y-79464911D02*
X190067219Y-79322054D01*
X190067219Y-79322054D02*
X190067219Y-79226816D01*
X190067219Y-79226816D02*
X190019600Y-79083959D01*
X190019600Y-79083959D02*
X189924361Y-78988721D01*
X189924361Y-78988721D02*
X189829123Y-78941102D01*
X189829123Y-78941102D02*
X189638647Y-78893483D01*
X189638647Y-78893483D02*
X189495790Y-78893483D01*
X189495790Y-78893483D02*
X189305314Y-78941102D01*
X189305314Y-78941102D02*
X189210076Y-78988721D01*
X189210076Y-78988721D02*
X189114838Y-79083959D01*
X189114838Y-79083959D02*
X189067219Y-79226816D01*
X189067219Y-79226816D02*
X189067219Y-79322054D01*
X189067219Y-79322054D02*
X189114838Y-79464911D01*
X189114838Y-79464911D02*
X189162457Y-79512530D01*
X189067219Y-80226816D02*
X189781504Y-80226816D01*
X189781504Y-80226816D02*
X189924361Y-80179197D01*
X189924361Y-80179197D02*
X190019600Y-80083959D01*
X190019600Y-80083959D02*
X190067219Y-79941102D01*
X190067219Y-79941102D02*
X190067219Y-79845864D01*
X190067219Y-81179197D02*
X190067219Y-80703007D01*
X190067219Y-80703007D02*
X189067219Y-80703007D01*
X189971980Y-82083959D02*
X190019600Y-82036340D01*
X190019600Y-82036340D02*
X190067219Y-81893483D01*
X190067219Y-81893483D02*
X190067219Y-81798245D01*
X190067219Y-81798245D02*
X190019600Y-81655388D01*
X190019600Y-81655388D02*
X189924361Y-81560150D01*
X189924361Y-81560150D02*
X189829123Y-81512531D01*
X189829123Y-81512531D02*
X189638647Y-81464912D01*
X189638647Y-81464912D02*
X189495790Y-81464912D01*
X189495790Y-81464912D02*
X189305314Y-81512531D01*
X189305314Y-81512531D02*
X189210076Y-81560150D01*
X189210076Y-81560150D02*
X189114838Y-81655388D01*
X189114838Y-81655388D02*
X189067219Y-81798245D01*
X189067219Y-81798245D02*
X189067219Y-81893483D01*
X189067219Y-81893483D02*
X189114838Y-82036340D01*
X189114838Y-82036340D02*
X189162457Y-82083959D01*
X189067219Y-82798245D02*
X189781504Y-82798245D01*
X189781504Y-82798245D02*
X189924361Y-82750626D01*
X189924361Y-82750626D02*
X190019600Y-82655388D01*
X190019600Y-82655388D02*
X190067219Y-82512531D01*
X190067219Y-82512531D02*
X190067219Y-82417293D01*
X190067219Y-83750626D02*
X190067219Y-83274436D01*
X190067219Y-83274436D02*
X189067219Y-83274436D01*
X189971980Y-84655388D02*
X190019600Y-84607769D01*
X190019600Y-84607769D02*
X190067219Y-84464912D01*
X190067219Y-84464912D02*
X190067219Y-84369674D01*
X190067219Y-84369674D02*
X190019600Y-84226817D01*
X190019600Y-84226817D02*
X189924361Y-84131579D01*
X189924361Y-84131579D02*
X189829123Y-84083960D01*
X189829123Y-84083960D02*
X189638647Y-84036341D01*
X189638647Y-84036341D02*
X189495790Y-84036341D01*
X189495790Y-84036341D02*
X189305314Y-84083960D01*
X189305314Y-84083960D02*
X189210076Y-84131579D01*
X189210076Y-84131579D02*
X189114838Y-84226817D01*
X189114838Y-84226817D02*
X189067219Y-84369674D01*
X189067219Y-84369674D02*
X189067219Y-84464912D01*
X189067219Y-84464912D02*
X189114838Y-84607769D01*
X189114838Y-84607769D02*
X189162457Y-84655388D01*
X189067219Y-85369674D02*
X189781504Y-85369674D01*
X189781504Y-85369674D02*
X189924361Y-85322055D01*
X189924361Y-85322055D02*
X190019600Y-85226817D01*
X190019600Y-85226817D02*
X190067219Y-85083960D01*
X190067219Y-85083960D02*
X190067219Y-84988722D01*
X190067219Y-86322055D02*
X190067219Y-85845865D01*
X190067219Y-85845865D02*
X189067219Y-85845865D01*
X189971980Y-87226817D02*
X190019600Y-87179198D01*
X190019600Y-87179198D02*
X190067219Y-87036341D01*
X190067219Y-87036341D02*
X190067219Y-86941103D01*
X190067219Y-86941103D02*
X190019600Y-86798246D01*
X190019600Y-86798246D02*
X189924361Y-86703008D01*
X189924361Y-86703008D02*
X189829123Y-86655389D01*
X189829123Y-86655389D02*
X189638647Y-86607770D01*
X189638647Y-86607770D02*
X189495790Y-86607770D01*
X189495790Y-86607770D02*
X189305314Y-86655389D01*
X189305314Y-86655389D02*
X189210076Y-86703008D01*
X189210076Y-86703008D02*
X189114838Y-86798246D01*
X189114838Y-86798246D02*
X189067219Y-86941103D01*
X189067219Y-86941103D02*
X189067219Y-87036341D01*
X189067219Y-87036341D02*
X189114838Y-87179198D01*
X189114838Y-87179198D02*
X189162457Y-87226817D01*
D12*
X164400000Y-70921657D02*
X164400000Y-67921657D01*
X164400000Y-67921657D02*
X163685714Y-67921657D01*
X163685714Y-67921657D02*
X163257143Y-68064514D01*
X163257143Y-68064514D02*
X162971428Y-68350228D01*
X162971428Y-68350228D02*
X162828571Y-68635942D01*
X162828571Y-68635942D02*
X162685714Y-69207371D01*
X162685714Y-69207371D02*
X162685714Y-69635942D01*
X162685714Y-69635942D02*
X162828571Y-70207371D01*
X162828571Y-70207371D02*
X162971428Y-70493085D01*
X162971428Y-70493085D02*
X163257143Y-70778800D01*
X163257143Y-70778800D02*
X163685714Y-70921657D01*
X163685714Y-70921657D02*
X164400000Y-70921657D01*
X161685714Y-68921657D02*
X160971428Y-70921657D01*
X160257143Y-68921657D02*
X160971428Y-70921657D01*
X160971428Y-70921657D02*
X161257143Y-71635942D01*
X161257143Y-71635942D02*
X161400000Y-71778800D01*
X161400000Y-71778800D02*
X161685714Y-71921657D01*
X159114286Y-68921657D02*
X159114286Y-70921657D01*
X159114286Y-69207371D02*
X158971429Y-69064514D01*
X158971429Y-69064514D02*
X158685714Y-68921657D01*
X158685714Y-68921657D02*
X158257143Y-68921657D01*
X158257143Y-68921657D02*
X157971429Y-69064514D01*
X157971429Y-69064514D02*
X157828572Y-69350228D01*
X157828572Y-69350228D02*
X157828572Y-70921657D01*
X155114286Y-70921657D02*
X155114286Y-69350228D01*
X155114286Y-69350228D02*
X155257143Y-69064514D01*
X155257143Y-69064514D02*
X155542857Y-68921657D01*
X155542857Y-68921657D02*
X156114286Y-68921657D01*
X156114286Y-68921657D02*
X156400000Y-69064514D01*
X155114286Y-70778800D02*
X155400000Y-70921657D01*
X155400000Y-70921657D02*
X156114286Y-70921657D01*
X156114286Y-70921657D02*
X156400000Y-70778800D01*
X156400000Y-70778800D02*
X156542857Y-70493085D01*
X156542857Y-70493085D02*
X156542857Y-70207371D01*
X156542857Y-70207371D02*
X156400000Y-69921657D01*
X156400000Y-69921657D02*
X156114286Y-69778800D01*
X156114286Y-69778800D02*
X155400000Y-69778800D01*
X155400000Y-69778800D02*
X155114286Y-69635942D01*
X153685714Y-70921657D02*
X153685714Y-68921657D01*
X153685714Y-69207371D02*
X153542857Y-69064514D01*
X153542857Y-69064514D02*
X153257142Y-68921657D01*
X153257142Y-68921657D02*
X152828571Y-68921657D01*
X152828571Y-68921657D02*
X152542857Y-69064514D01*
X152542857Y-69064514D02*
X152400000Y-69350228D01*
X152400000Y-69350228D02*
X152400000Y-70921657D01*
X152400000Y-69350228D02*
X152257142Y-69064514D01*
X152257142Y-69064514D02*
X151971428Y-68921657D01*
X151971428Y-68921657D02*
X151542857Y-68921657D01*
X151542857Y-68921657D02*
X151257142Y-69064514D01*
X151257142Y-69064514D02*
X151114285Y-69350228D01*
X151114285Y-69350228D02*
X151114285Y-70921657D01*
X149257142Y-70921657D02*
X149542857Y-70778800D01*
X149542857Y-70778800D02*
X149685714Y-70635942D01*
X149685714Y-70635942D02*
X149828571Y-70350228D01*
X149828571Y-70350228D02*
X149828571Y-69493085D01*
X149828571Y-69493085D02*
X149685714Y-69207371D01*
X149685714Y-69207371D02*
X149542857Y-69064514D01*
X149542857Y-69064514D02*
X149257142Y-68921657D01*
X149257142Y-68921657D02*
X148828571Y-68921657D01*
X148828571Y-68921657D02*
X148542857Y-69064514D01*
X148542857Y-69064514D02*
X148400000Y-69207371D01*
X148400000Y-69207371D02*
X148257142Y-69493085D01*
X148257142Y-69493085D02*
X148257142Y-70350228D01*
X148257142Y-70350228D02*
X148400000Y-70635942D01*
X148400000Y-70635942D02*
X148542857Y-70778800D01*
X148542857Y-70778800D02*
X148828571Y-70921657D01*
X148828571Y-70921657D02*
X149257142Y-70921657D01*
X169828571Y-75751657D02*
X169828571Y-72751657D01*
X169828571Y-72751657D02*
X169114285Y-72751657D01*
X169114285Y-72751657D02*
X168685714Y-72894514D01*
X168685714Y-72894514D02*
X168399999Y-73180228D01*
X168399999Y-73180228D02*
X168257142Y-73465942D01*
X168257142Y-73465942D02*
X168114285Y-74037371D01*
X168114285Y-74037371D02*
X168114285Y-74465942D01*
X168114285Y-74465942D02*
X168257142Y-75037371D01*
X168257142Y-75037371D02*
X168399999Y-75323085D01*
X168399999Y-75323085D02*
X168685714Y-75608800D01*
X168685714Y-75608800D02*
X169114285Y-75751657D01*
X169114285Y-75751657D02*
X169828571Y-75751657D01*
X165114285Y-75465942D02*
X165257142Y-75608800D01*
X165257142Y-75608800D02*
X165685714Y-75751657D01*
X165685714Y-75751657D02*
X165971428Y-75751657D01*
X165971428Y-75751657D02*
X166399999Y-75608800D01*
X166399999Y-75608800D02*
X166685714Y-75323085D01*
X166685714Y-75323085D02*
X166828571Y-75037371D01*
X166828571Y-75037371D02*
X166971428Y-74465942D01*
X166971428Y-74465942D02*
X166971428Y-74037371D01*
X166971428Y-74037371D02*
X166828571Y-73465942D01*
X166828571Y-73465942D02*
X166685714Y-73180228D01*
X166685714Y-73180228D02*
X166399999Y-72894514D01*
X166399999Y-72894514D02*
X165971428Y-72751657D01*
X165971428Y-72751657D02*
X165685714Y-72751657D01*
X165685714Y-72751657D02*
X165257142Y-72894514D01*
X165257142Y-72894514D02*
X165114285Y-73037371D01*
X162114285Y-75465942D02*
X162257142Y-75608800D01*
X162257142Y-75608800D02*
X162685714Y-75751657D01*
X162685714Y-75751657D02*
X162971428Y-75751657D01*
X162971428Y-75751657D02*
X163399999Y-75608800D01*
X163399999Y-75608800D02*
X163685714Y-75323085D01*
X163685714Y-75323085D02*
X163828571Y-75037371D01*
X163828571Y-75037371D02*
X163971428Y-74465942D01*
X163971428Y-74465942D02*
X163971428Y-74037371D01*
X163971428Y-74037371D02*
X163828571Y-73465942D01*
X163828571Y-73465942D02*
X163685714Y-73180228D01*
X163685714Y-73180228D02*
X163399999Y-72894514D01*
X163399999Y-72894514D02*
X162971428Y-72751657D01*
X162971428Y-72751657D02*
X162685714Y-72751657D01*
X162685714Y-72751657D02*
X162257142Y-72894514D01*
X162257142Y-72894514D02*
X162114285Y-73037371D01*
X157542857Y-74180228D02*
X157114285Y-74323085D01*
X157114285Y-74323085D02*
X156971428Y-74465942D01*
X156971428Y-74465942D02*
X156828571Y-74751657D01*
X156828571Y-74751657D02*
X156828571Y-75180228D01*
X156828571Y-75180228D02*
X156971428Y-75465942D01*
X156971428Y-75465942D02*
X157114285Y-75608800D01*
X157114285Y-75608800D02*
X157400000Y-75751657D01*
X157400000Y-75751657D02*
X158542857Y-75751657D01*
X158542857Y-75751657D02*
X158542857Y-72751657D01*
X158542857Y-72751657D02*
X157542857Y-72751657D01*
X157542857Y-72751657D02*
X157257143Y-72894514D01*
X157257143Y-72894514D02*
X157114285Y-73037371D01*
X157114285Y-73037371D02*
X156971428Y-73323085D01*
X156971428Y-73323085D02*
X156971428Y-73608800D01*
X156971428Y-73608800D02*
X157114285Y-73894514D01*
X157114285Y-73894514D02*
X157257143Y-74037371D01*
X157257143Y-74037371D02*
X157542857Y-74180228D01*
X157542857Y-74180228D02*
X158542857Y-74180228D01*
X155114285Y-75751657D02*
X155400000Y-75608800D01*
X155400000Y-75608800D02*
X155542857Y-75465942D01*
X155542857Y-75465942D02*
X155685714Y-75180228D01*
X155685714Y-75180228D02*
X155685714Y-74323085D01*
X155685714Y-74323085D02*
X155542857Y-74037371D01*
X155542857Y-74037371D02*
X155400000Y-73894514D01*
X155400000Y-73894514D02*
X155114285Y-73751657D01*
X155114285Y-73751657D02*
X154685714Y-73751657D01*
X154685714Y-73751657D02*
X154400000Y-73894514D01*
X154400000Y-73894514D02*
X154257143Y-74037371D01*
X154257143Y-74037371D02*
X154114285Y-74323085D01*
X154114285Y-74323085D02*
X154114285Y-75180228D01*
X154114285Y-75180228D02*
X154257143Y-75465942D01*
X154257143Y-75465942D02*
X154400000Y-75608800D01*
X154400000Y-75608800D02*
X154685714Y-75751657D01*
X154685714Y-75751657D02*
X155114285Y-75751657D01*
X152399999Y-75751657D02*
X152685714Y-75608800D01*
X152685714Y-75608800D02*
X152828571Y-75465942D01*
X152828571Y-75465942D02*
X152971428Y-75180228D01*
X152971428Y-75180228D02*
X152971428Y-74323085D01*
X152971428Y-74323085D02*
X152828571Y-74037371D01*
X152828571Y-74037371D02*
X152685714Y-73894514D01*
X152685714Y-73894514D02*
X152399999Y-73751657D01*
X152399999Y-73751657D02*
X151971428Y-73751657D01*
X151971428Y-73751657D02*
X151685714Y-73894514D01*
X151685714Y-73894514D02*
X151542857Y-74037371D01*
X151542857Y-74037371D02*
X151399999Y-74323085D01*
X151399999Y-74323085D02*
X151399999Y-75180228D01*
X151399999Y-75180228D02*
X151542857Y-75465942D01*
X151542857Y-75465942D02*
X151685714Y-75608800D01*
X151685714Y-75608800D02*
X151971428Y-75751657D01*
X151971428Y-75751657D02*
X152399999Y-75751657D01*
X150257142Y-75608800D02*
X149971428Y-75751657D01*
X149971428Y-75751657D02*
X149399999Y-75751657D01*
X149399999Y-75751657D02*
X149114285Y-75608800D01*
X149114285Y-75608800D02*
X148971428Y-75323085D01*
X148971428Y-75323085D02*
X148971428Y-75180228D01*
X148971428Y-75180228D02*
X149114285Y-74894514D01*
X149114285Y-74894514D02*
X149399999Y-74751657D01*
X149399999Y-74751657D02*
X149828571Y-74751657D01*
X149828571Y-74751657D02*
X150114285Y-74608800D01*
X150114285Y-74608800D02*
X150257142Y-74323085D01*
X150257142Y-74323085D02*
X150257142Y-74180228D01*
X150257142Y-74180228D02*
X150114285Y-73894514D01*
X150114285Y-73894514D02*
X149828571Y-73751657D01*
X149828571Y-73751657D02*
X149399999Y-73751657D01*
X149399999Y-73751657D02*
X149114285Y-73894514D01*
X148114285Y-73751657D02*
X146971428Y-73751657D01*
X147685714Y-72751657D02*
X147685714Y-75323085D01*
X147685714Y-75323085D02*
X147542857Y-75608800D01*
X147542857Y-75608800D02*
X147257142Y-75751657D01*
X147257142Y-75751657D02*
X146971428Y-75751657D01*
X144828571Y-75608800D02*
X145114285Y-75751657D01*
X145114285Y-75751657D02*
X145685714Y-75751657D01*
X145685714Y-75751657D02*
X145971428Y-75608800D01*
X145971428Y-75608800D02*
X146114285Y-75323085D01*
X146114285Y-75323085D02*
X146114285Y-74180228D01*
X146114285Y-74180228D02*
X145971428Y-73894514D01*
X145971428Y-73894514D02*
X145685714Y-73751657D01*
X145685714Y-73751657D02*
X145114285Y-73751657D01*
X145114285Y-73751657D02*
X144828571Y-73894514D01*
X144828571Y-73894514D02*
X144685714Y-74180228D01*
X144685714Y-74180228D02*
X144685714Y-74465942D01*
X144685714Y-74465942D02*
X146114285Y-74751657D01*
X143399999Y-75751657D02*
X143399999Y-73751657D01*
X143399999Y-74323085D02*
X143257142Y-74037371D01*
X143257142Y-74037371D02*
X143114285Y-73894514D01*
X143114285Y-73894514D02*
X142828570Y-73751657D01*
X142828570Y-73751657D02*
X142542856Y-73751657D01*
D13*
%TO.C,UNO_SHIELD1*%
X190645000Y-97340000D02*
X188105000Y-99880000D01*
X190645000Y-64570000D02*
X190645000Y-97340000D01*
X188105000Y-102550000D02*
X121805000Y-102550000D01*
X188105000Y-99880000D02*
X188105000Y-102550000D01*
X188105000Y-62030000D02*
X190645000Y-64570000D01*
X188105000Y-50600000D02*
X188105000Y-62030000D01*
X186455000Y-48950000D02*
X188105000Y-50600000D01*
X121805000Y-102550000D02*
X121805000Y-99370000D01*
X121805000Y-99370000D02*
X119905000Y-99370000D01*
X121805000Y-90230000D02*
X121805000Y-70160000D01*
X121805000Y-70160000D02*
X115455000Y-70160000D01*
X121805000Y-58480000D02*
X121805000Y-48950000D01*
X121805000Y-48950000D02*
X186455000Y-48950000D01*
X119905000Y-99370000D02*
X119905000Y-90230000D01*
X119905000Y-90230000D02*
X121805000Y-90230000D01*
X115455000Y-70160000D02*
X115455000Y-58480000D01*
X115455000Y-58480000D02*
X121805000Y-58480000D01*
%TD*%
M02*
