%TF.GenerationSoftware,KiCad,Pcbnew,7.0.6*%
%TF.CreationDate,2023-12-30T20:12:10-05:00*%
%TF.ProjectId,Dynamo,44796e61-6d6f-42e6-9b69-6361645f7063,rev?*%
%TF.SameCoordinates,Original*%
%TF.FileFunction,Soldermask,Bot*%
%TF.FilePolarity,Negative*%
%FSLAX46Y46*%
G04 Gerber Fmt 4.6, Leading zero omitted, Abs format (unit mm)*
G04 Created by KiCad (PCBNEW 7.0.6) date 2023-12-30 20:12:10*
%MOMM*%
%LPD*%
G01*
G04 APERTURE LIST*
%ADD10C,3.000000*%
%ADD11C,0.800000*%
%ADD12O,1.900000X1.200000*%
%ADD13C,1.450000*%
%ADD14C,3.200000*%
%ADD15R,1.600000X1.600000*%
%ADD16O,1.600000X1.600000*%
G04 APERTURE END LIST*
D10*
%TO.C,Railsync1*%
X129400000Y-92950000D03*
X129400000Y-96750000D03*
%TD*%
D11*
%TO.C,BOOT1*%
X185500000Y-56500000D03*
%TD*%
D12*
%TO.C,JUSB1*%
X123300000Y-61000000D03*
D13*
X126000000Y-62000000D03*
X126000000Y-67000000D03*
D12*
X123300000Y-68000000D03*
%TD*%
D11*
%TO.C,RESET1*%
X185500000Y-61500000D03*
%TD*%
D14*
%TO.C,UNO_SHIELD1*%
X135905000Y-99880000D03*
X137175000Y-51620000D03*
X187975000Y-66860000D03*
X187975000Y-94800000D03*
D15*
X149875000Y-99880000D03*
D16*
X152415000Y-99880000D03*
X154955000Y-99880000D03*
X157495000Y-99880000D03*
X160035000Y-99880000D03*
X162575000Y-99880000D03*
X165115000Y-99880000D03*
X167655000Y-99880000D03*
X172735000Y-99880000D03*
X175275000Y-99880000D03*
X177815000Y-99880000D03*
X180355000Y-99880000D03*
X182895000Y-99880000D03*
X185435000Y-99880000D03*
X185435000Y-51620000D03*
X182895000Y-51620000D03*
X180355000Y-51620000D03*
X177815000Y-51620000D03*
X175275000Y-51620000D03*
X172735000Y-51620000D03*
X170195000Y-51620000D03*
X167655000Y-51620000D03*
X163595000Y-51620000D03*
X161055000Y-51620000D03*
X158515000Y-51620000D03*
X155975000Y-51620000D03*
X153435000Y-51620000D03*
X150895000Y-51620000D03*
X148355000Y-51620000D03*
X145815000Y-51620000D03*
X143275000Y-51620000D03*
X140735000Y-51620000D03*
%TD*%
M02*
