%TF.GenerationSoftware,KiCad,Pcbnew,7.0.6*%
%TF.CreationDate,2024-01-14T01:12:01-05:00*%
%TF.ProjectId,Dynamo,44796e61-6d6f-42e6-9b69-6361645f7063,rev?*%
%TF.SameCoordinates,Original*%
%TF.FileFunction,Drillmap*%
%TF.FilePolarity,Positive*%
%FSLAX45Y45*%
G04 Gerber Fmt 4.5, Leading zero omitted, Abs format (unit mm)*
G04 Created by KiCad (PCBNEW 7.0.6) date 2024-01-14 01:12:01*
%MOMM*%
%LPD*%
G01*
G04 APERTURE LIST*
%ADD10C,0.050000*%
%ADD11C,0.200000*%
%ADD12C,0.040000*%
%ADD13C,0.060000*%
%ADD14C,0.080000*%
%ADD15C,0.085000*%
%ADD16C,0.100000*%
%ADD17C,0.120000*%
G04 APERTURE END LIST*
D10*
X18825000Y-10270000D02*
X12165000Y-10270000D01*
X19080000Y-9735000D02*
X18825000Y-9990000D01*
X18825000Y-5060000D02*
X18825000Y-6200000D01*
X18825000Y-6200000D02*
X19080000Y-6455000D01*
X18645000Y-4880000D02*
X18825000Y-5060000D01*
X18825000Y-9990000D02*
X18825000Y-10270000D01*
X12165000Y-10270000D02*
X12165000Y-4880000D01*
X19080000Y-6455000D02*
X19080000Y-9735000D01*
X12165000Y-4880000D02*
X18645000Y-4880000D01*
D11*
D12*
X12230000Y-10155000D02*
X12270000Y-10195000D01*
X12270000Y-10155000D02*
X12230000Y-10195000D01*
X12430000Y-7830000D02*
X12470000Y-7870000D01*
X12470000Y-7830000D02*
X12430000Y-7870000D01*
X12480000Y-4980000D02*
X12520000Y-5020000D01*
X12520000Y-4980000D02*
X12480000Y-5020000D01*
X12580000Y-5430000D02*
X12620000Y-5470000D01*
X12620000Y-5430000D02*
X12580000Y-5470000D01*
X12680000Y-5130000D02*
X12720000Y-5170000D01*
X12720000Y-5130000D02*
X12680000Y-5170000D01*
X12730000Y-6130000D02*
X12770000Y-6170000D01*
X12770000Y-6130000D02*
X12730000Y-6170000D01*
X12730000Y-7155000D02*
X12770000Y-7195000D01*
X12770000Y-7155000D02*
X12730000Y-7195000D01*
X12880000Y-6130000D02*
X12920000Y-6170000D01*
X12920000Y-6130000D02*
X12880000Y-6170000D01*
X12905000Y-7830000D02*
X12945000Y-7870000D01*
X12945000Y-7830000D02*
X12905000Y-7870000D01*
X12980000Y-6455000D02*
X13020000Y-6495000D01*
X13020000Y-6455000D02*
X12980000Y-6495000D01*
X12980000Y-6555000D02*
X13020000Y-6595000D01*
X13020000Y-6555000D02*
X12980000Y-6595000D01*
X13005000Y-5605000D02*
X13045000Y-5645000D01*
X13045000Y-5605000D02*
X13005000Y-5645000D01*
X13105000Y-6230000D02*
X13145000Y-6270000D01*
X13145000Y-6230000D02*
X13105000Y-6270000D01*
X13180000Y-6155000D02*
X13220000Y-6195000D01*
X13220000Y-6155000D02*
X13180000Y-6195000D01*
X13230000Y-4980000D02*
X13270000Y-5020000D01*
X13270000Y-4980000D02*
X13230000Y-5020000D01*
X13230000Y-5130000D02*
X13270000Y-5170000D01*
X13270000Y-5130000D02*
X13230000Y-5170000D01*
X13230000Y-5255000D02*
X13270000Y-5295000D01*
X13270000Y-5255000D02*
X13230000Y-5295000D01*
X13230000Y-5980000D02*
X13270000Y-6020000D01*
X13270000Y-5980000D02*
X13230000Y-6020000D01*
X13255000Y-6230000D02*
X13295000Y-6270000D01*
X13295000Y-6230000D02*
X13255000Y-6270000D01*
X13330000Y-6155000D02*
X13370000Y-6195000D01*
X13370000Y-6155000D02*
X13330000Y-6195000D01*
X13380000Y-7830000D02*
X13420000Y-7870000D01*
X13420000Y-7830000D02*
X13380000Y-7870000D01*
X13430000Y-8280000D02*
X13470000Y-8320000D01*
X13470000Y-8280000D02*
X13430000Y-8320000D01*
X13430000Y-8780000D02*
X13470000Y-8820000D01*
X13470000Y-8780000D02*
X13430000Y-8820000D01*
X13555000Y-5580000D02*
X13595000Y-5620000D01*
X13595000Y-5580000D02*
X13555000Y-5620000D01*
X13555000Y-7880000D02*
X13595000Y-7920000D01*
X13595000Y-7880000D02*
X13555000Y-7920000D01*
X13705000Y-6155000D02*
X13745000Y-6195000D01*
X13745000Y-6155000D02*
X13705000Y-6195000D01*
X13705000Y-6855000D02*
X13745000Y-6895000D01*
X13745000Y-6855000D02*
X13705000Y-6895000D01*
X13705000Y-9705000D02*
X13745000Y-9745000D01*
X13745000Y-9705000D02*
X13705000Y-9745000D01*
X13755000Y-8080000D02*
X13795000Y-8120000D01*
X13795000Y-8080000D02*
X13755000Y-8120000D01*
X13755000Y-10155000D02*
X13795000Y-10195000D01*
X13795000Y-10155000D02*
X13755000Y-10195000D01*
X13805000Y-8830000D02*
X13845000Y-8870000D01*
X13845000Y-8830000D02*
X13805000Y-8870000D01*
X13905000Y-5280000D02*
X13945000Y-5320000D01*
X13945000Y-5280000D02*
X13905000Y-5320000D01*
X13905000Y-5455000D02*
X13945000Y-5495000D01*
X13945000Y-5455000D02*
X13905000Y-5495000D01*
X13930000Y-8830000D02*
X13970000Y-8870000D01*
X13970000Y-8830000D02*
X13930000Y-8870000D01*
X13930000Y-9830000D02*
X13970000Y-9870000D01*
X13970000Y-9830000D02*
X13930000Y-9870000D01*
X13980000Y-7600000D02*
X14020000Y-7640000D01*
X14020000Y-7600000D02*
X13980000Y-7640000D01*
X14030000Y-9830000D02*
X14070000Y-9870000D01*
X14070000Y-9830000D02*
X14030000Y-9870000D01*
X14055000Y-5455000D02*
X14095000Y-5495000D01*
X14095000Y-5455000D02*
X14055000Y-5495000D01*
X14055000Y-8830000D02*
X14095000Y-8870000D01*
X14095000Y-8830000D02*
X14055000Y-8870000D01*
X14105000Y-8280000D02*
X14145000Y-8320000D01*
X14145000Y-8280000D02*
X14105000Y-8320000D01*
X14130000Y-9405000D02*
X14170000Y-9445000D01*
X14170000Y-9405000D02*
X14130000Y-9445000D01*
X14130000Y-9530000D02*
X14170000Y-9570000D01*
X14170000Y-9530000D02*
X14130000Y-9570000D01*
X14180000Y-7425000D02*
X14220000Y-7465000D01*
X14220000Y-7425000D02*
X14180000Y-7465000D01*
X14230000Y-9055000D02*
X14270000Y-9095000D01*
X14270000Y-9055000D02*
X14230000Y-9095000D01*
X14330000Y-4955000D02*
X14370000Y-4995000D01*
X14370000Y-4955000D02*
X14330000Y-4995000D01*
X14330000Y-8630000D02*
X14370000Y-8670000D01*
X14370000Y-8630000D02*
X14330000Y-8670000D01*
X14430000Y-9055000D02*
X14470000Y-9095000D01*
X14470000Y-9055000D02*
X14430000Y-9095000D01*
X14505000Y-5630000D02*
X14545000Y-5670000D01*
X14545000Y-5630000D02*
X14505000Y-5670000D01*
X14630000Y-6435000D02*
X14670000Y-6475000D01*
X14670000Y-6435000D02*
X14630000Y-6475000D01*
X14630000Y-8630000D02*
X14670000Y-8670000D01*
X14670000Y-8630000D02*
X14630000Y-8670000D01*
X14640000Y-7655000D02*
X14680000Y-7695000D01*
X14680000Y-7655000D02*
X14640000Y-7695000D01*
X14640000Y-7830000D02*
X14680000Y-7870000D01*
X14680000Y-7830000D02*
X14640000Y-7870000D01*
X14640000Y-8005000D02*
X14680000Y-8045000D01*
X14680000Y-8005000D02*
X14640000Y-8045000D01*
X14680000Y-9880000D02*
X14720000Y-9920000D01*
X14720000Y-9880000D02*
X14680000Y-9920000D01*
X14730000Y-6130000D02*
X14770000Y-6170000D01*
X14770000Y-6130000D02*
X14730000Y-6170000D01*
X14730000Y-6580000D02*
X14770000Y-6620000D01*
X14770000Y-6580000D02*
X14730000Y-6620000D01*
X14755000Y-5635000D02*
X14795000Y-5675000D01*
X14795000Y-5635000D02*
X14755000Y-5675000D01*
X14930000Y-5405000D02*
X14970000Y-5445000D01*
X14970000Y-5405000D02*
X14930000Y-5445000D01*
X14930000Y-6530000D02*
X14970000Y-6570000D01*
X14970000Y-6530000D02*
X14930000Y-6570000D01*
X14930000Y-8855000D02*
X14970000Y-8895000D01*
X14970000Y-8855000D02*
X14930000Y-8895000D01*
X14930000Y-9780000D02*
X14970000Y-9820000D01*
X14970000Y-9780000D02*
X14930000Y-9820000D01*
X14965000Y-7655000D02*
X15005000Y-7695000D01*
X15005000Y-7655000D02*
X14965000Y-7695000D01*
X14965000Y-7830000D02*
X15005000Y-7870000D01*
X15005000Y-7830000D02*
X14965000Y-7870000D01*
X14965000Y-8005000D02*
X15005000Y-8045000D01*
X15005000Y-8005000D02*
X14965000Y-8045000D01*
X15030000Y-6435000D02*
X15070000Y-6475000D01*
X15070000Y-6435000D02*
X15030000Y-6475000D01*
X15130000Y-6130000D02*
X15170000Y-6170000D01*
X15170000Y-6130000D02*
X15130000Y-6170000D01*
X15130000Y-6580000D02*
X15170000Y-6620000D01*
X15170000Y-6580000D02*
X15130000Y-6620000D01*
X15155000Y-5635000D02*
X15195000Y-5675000D01*
X15195000Y-5635000D02*
X15155000Y-5675000D01*
X15280000Y-8530000D02*
X15320000Y-8570000D01*
X15320000Y-8530000D02*
X15280000Y-8570000D01*
X15305000Y-6830000D02*
X15345000Y-6870000D01*
X15345000Y-6830000D02*
X15305000Y-6870000D01*
X15330000Y-5405000D02*
X15370000Y-5445000D01*
X15370000Y-5405000D02*
X15330000Y-5445000D01*
X15330000Y-6580000D02*
X15370000Y-6620000D01*
X15370000Y-6580000D02*
X15330000Y-6620000D01*
X15430000Y-6435000D02*
X15470000Y-6475000D01*
X15470000Y-6435000D02*
X15430000Y-6475000D01*
X15455000Y-4955000D02*
X15495000Y-4995000D01*
X15495000Y-4955000D02*
X15455000Y-4995000D01*
X15480000Y-6780000D02*
X15520000Y-6820000D01*
X15520000Y-6780000D02*
X15480000Y-6820000D01*
X15530000Y-6130000D02*
X15570000Y-6170000D01*
X15570000Y-6130000D02*
X15530000Y-6170000D01*
X15530000Y-8530000D02*
X15570000Y-8570000D01*
X15570000Y-8530000D02*
X15530000Y-8570000D01*
X15555000Y-5635000D02*
X15595000Y-5675000D01*
X15595000Y-5635000D02*
X15555000Y-5675000D01*
X15730000Y-5405000D02*
X15770000Y-5445000D01*
X15770000Y-5405000D02*
X15730000Y-5445000D01*
X15730000Y-6530000D02*
X15770000Y-6570000D01*
X15770000Y-6530000D02*
X15730000Y-6570000D01*
X15780000Y-8530000D02*
X15820000Y-8570000D01*
X15820000Y-8530000D02*
X15780000Y-8570000D01*
X15830000Y-6435000D02*
X15870000Y-6475000D01*
X15870000Y-6435000D02*
X15830000Y-6475000D01*
X15830000Y-9555000D02*
X15870000Y-9595000D01*
X15870000Y-9555000D02*
X15830000Y-9595000D01*
X15930000Y-6130000D02*
X15970000Y-6170000D01*
X15970000Y-6130000D02*
X15930000Y-6170000D01*
X15955000Y-5635000D02*
X15995000Y-5675000D01*
X15995000Y-5635000D02*
X15955000Y-5675000D01*
X15955000Y-7330000D02*
X15995000Y-7370000D01*
X15995000Y-7330000D02*
X15955000Y-7370000D01*
X16030000Y-8530000D02*
X16070000Y-8570000D01*
X16070000Y-8530000D02*
X16030000Y-8570000D01*
X16105000Y-7505000D02*
X16145000Y-7545000D01*
X16145000Y-7505000D02*
X16105000Y-7545000D01*
X16130000Y-5405000D02*
X16170000Y-5445000D01*
X16170000Y-5405000D02*
X16130000Y-5445000D01*
X16130000Y-6430000D02*
X16170000Y-6470000D01*
X16170000Y-6430000D02*
X16130000Y-6470000D01*
X16180000Y-6855000D02*
X16220000Y-6895000D01*
X16220000Y-6855000D02*
X16180000Y-6895000D01*
X16180000Y-7580000D02*
X16220000Y-7620000D01*
X16220000Y-7580000D02*
X16180000Y-7620000D01*
X16180000Y-8830000D02*
X16220000Y-8870000D01*
X16220000Y-8830000D02*
X16180000Y-8870000D01*
X16255000Y-7205000D02*
X16295000Y-7245000D01*
X16295000Y-7205000D02*
X16255000Y-7245000D01*
X16280000Y-9180000D02*
X16320000Y-9220000D01*
X16320000Y-9180000D02*
X16280000Y-9220000D01*
X16330000Y-8380000D02*
X16370000Y-8420000D01*
X16370000Y-8380000D02*
X16330000Y-8420000D01*
X16330000Y-9555000D02*
X16370000Y-9595000D01*
X16370000Y-9555000D02*
X16330000Y-9595000D01*
X16355000Y-6780000D02*
X16395000Y-6820000D01*
X16395000Y-6780000D02*
X16355000Y-6820000D01*
X16380000Y-6655000D02*
X16420000Y-6695000D01*
X16420000Y-6655000D02*
X16380000Y-6695000D01*
X16430000Y-6555000D02*
X16470000Y-6595000D01*
X16470000Y-6555000D02*
X16430000Y-6595000D01*
X16505000Y-8505000D02*
X16545000Y-8545000D01*
X16545000Y-8505000D02*
X16505000Y-8545000D01*
X16555000Y-5155000D02*
X16595000Y-5195000D01*
X16595000Y-5155000D02*
X16555000Y-5195000D01*
X16680000Y-5355000D02*
X16720000Y-5395000D01*
X16720000Y-5355000D02*
X16680000Y-5395000D01*
X16680000Y-8805000D02*
X16720000Y-8845000D01*
X16720000Y-8805000D02*
X16680000Y-8845000D01*
X16780000Y-5455000D02*
X16820000Y-5495000D01*
X16820000Y-5455000D02*
X16780000Y-5495000D01*
X16880000Y-9405000D02*
X16920000Y-9445000D01*
X16920000Y-9405000D02*
X16880000Y-9445000D01*
X16905000Y-9905000D02*
X16945000Y-9945000D01*
X16945000Y-9905000D02*
X16905000Y-9945000D01*
X16955000Y-6155000D02*
X16995000Y-6195000D01*
X16995000Y-6155000D02*
X16955000Y-6195000D01*
X16955000Y-7205000D02*
X16995000Y-7245000D01*
X16995000Y-7205000D02*
X16955000Y-7245000D01*
X16955000Y-8505000D02*
X16995000Y-8545000D01*
X16995000Y-8505000D02*
X16955000Y-8545000D01*
X17005000Y-10155000D02*
X17045000Y-10195000D01*
X17045000Y-10155000D02*
X17005000Y-10195000D01*
X17030000Y-7380000D02*
X17070000Y-7420000D01*
X17070000Y-7380000D02*
X17030000Y-7420000D01*
X17080000Y-9130000D02*
X17120000Y-9170000D01*
X17120000Y-9130000D02*
X17080000Y-9170000D01*
X17130000Y-9455000D02*
X17170000Y-9495000D01*
X17170000Y-9455000D02*
X17130000Y-9495000D01*
X17205000Y-5805000D02*
X17245000Y-5845000D01*
X17245000Y-5805000D02*
X17205000Y-5845000D01*
X17205000Y-6755000D02*
X17245000Y-6795000D01*
X17245000Y-6755000D02*
X17205000Y-6795000D01*
X17230000Y-5305000D02*
X17270000Y-5345000D01*
X17270000Y-5305000D02*
X17230000Y-5345000D01*
X17230000Y-7180000D02*
X17270000Y-7220000D01*
X17270000Y-7180000D02*
X17230000Y-7220000D01*
X17280000Y-7505000D02*
X17320000Y-7545000D01*
X17320000Y-7505000D02*
X17280000Y-7545000D01*
X17280000Y-7630000D02*
X17320000Y-7670000D01*
X17320000Y-7630000D02*
X17280000Y-7670000D01*
X17280000Y-8755000D02*
X17320000Y-8795000D01*
X17320000Y-8755000D02*
X17280000Y-8795000D01*
X17280000Y-8880000D02*
X17320000Y-8920000D01*
X17320000Y-8880000D02*
X17280000Y-8920000D01*
X17355000Y-7180000D02*
X17395000Y-7220000D01*
X17395000Y-7180000D02*
X17355000Y-7220000D01*
X17480000Y-6430000D02*
X17520000Y-6470000D01*
X17520000Y-6430000D02*
X17480000Y-6470000D01*
X17555000Y-5905000D02*
X17595000Y-5945000D01*
X17595000Y-5905000D02*
X17555000Y-5945000D01*
X17555000Y-6055000D02*
X17595000Y-6095000D01*
X17595000Y-6055000D02*
X17555000Y-6095000D01*
X17580000Y-6855000D02*
X17620000Y-6895000D01*
X17620000Y-6855000D02*
X17580000Y-6895000D01*
X17580000Y-6955000D02*
X17620000Y-6995000D01*
X17620000Y-6955000D02*
X17580000Y-6995000D01*
X17630000Y-6430000D02*
X17670000Y-6470000D01*
X17670000Y-6430000D02*
X17630000Y-6470000D01*
X17780000Y-6430000D02*
X17820000Y-6470000D01*
X17820000Y-6430000D02*
X17780000Y-6470000D01*
X17805000Y-6630000D02*
X17845000Y-6670000D01*
X17845000Y-6630000D02*
X17805000Y-6670000D01*
X17805000Y-7155000D02*
X17845000Y-7195000D01*
X17845000Y-7155000D02*
X17805000Y-7195000D01*
X17855000Y-5605000D02*
X17895000Y-5645000D01*
X17895000Y-5605000D02*
X17855000Y-5645000D01*
X17855000Y-7930000D02*
X17895000Y-7970000D01*
X17895000Y-7930000D02*
X17855000Y-7970000D01*
X17855000Y-8065000D02*
X17895000Y-8105000D01*
X17895000Y-8065000D02*
X17855000Y-8105000D01*
X17855000Y-8205000D02*
X17895000Y-8245000D01*
X17895000Y-8205000D02*
X17855000Y-8245000D01*
X17930000Y-6430000D02*
X17970000Y-6470000D01*
X17970000Y-6430000D02*
X17930000Y-6470000D01*
X17955000Y-9730000D02*
X17995000Y-9770000D01*
X17995000Y-9730000D02*
X17955000Y-9770000D01*
X17980000Y-7805000D02*
X18020000Y-7845000D01*
X18020000Y-7805000D02*
X17980000Y-7845000D01*
X17980000Y-8330000D02*
X18020000Y-8370000D01*
X18020000Y-8330000D02*
X17980000Y-8370000D01*
X18105000Y-5880000D02*
X18145000Y-5920000D01*
X18145000Y-5880000D02*
X18105000Y-5920000D01*
X18105000Y-7155000D02*
X18145000Y-7195000D01*
X18145000Y-7155000D02*
X18105000Y-7195000D01*
X18115000Y-7805000D02*
X18155000Y-7845000D01*
X18155000Y-7805000D02*
X18115000Y-7845000D01*
X18115000Y-8330000D02*
X18155000Y-8370000D01*
X18155000Y-8330000D02*
X18115000Y-8370000D01*
X18205000Y-6655000D02*
X18245000Y-6695000D01*
X18245000Y-6655000D02*
X18205000Y-6695000D01*
X18255000Y-7805000D02*
X18295000Y-7845000D01*
X18295000Y-7805000D02*
X18255000Y-7845000D01*
X18255000Y-8330000D02*
X18295000Y-8370000D01*
X18295000Y-8330000D02*
X18255000Y-8370000D01*
X18305000Y-5455000D02*
X18345000Y-5495000D01*
X18345000Y-5455000D02*
X18305000Y-5495000D01*
X18380000Y-7930000D02*
X18420000Y-7970000D01*
X18420000Y-7930000D02*
X18380000Y-7970000D01*
X18380000Y-8065000D02*
X18420000Y-8105000D01*
X18420000Y-8065000D02*
X18380000Y-8105000D01*
X18380000Y-8205000D02*
X18420000Y-8245000D01*
X18420000Y-8205000D02*
X18380000Y-8245000D01*
X18380000Y-9280000D02*
X18420000Y-9320000D01*
X18420000Y-9280000D02*
X18380000Y-9320000D01*
X18555000Y-9580000D02*
X18595000Y-9620000D01*
X18595000Y-9580000D02*
X18555000Y-9620000D01*
X18655000Y-7505000D02*
X18695000Y-7545000D01*
X18695000Y-7505000D02*
X18655000Y-7545000D01*
X18680000Y-5880000D02*
X18720000Y-5920000D01*
X18720000Y-5880000D02*
X18680000Y-5920000D01*
X18755000Y-7180000D02*
X18795000Y-7220000D01*
X18795000Y-7180000D02*
X18755000Y-7220000D01*
X18830000Y-7955000D02*
X18870000Y-7995000D01*
X18870000Y-7955000D02*
X18830000Y-7995000D01*
X18830000Y-8830000D02*
X18870000Y-8870000D01*
X18870000Y-8830000D02*
X18830000Y-8870000D01*
X18855000Y-7705000D02*
X18895000Y-7745000D01*
X18895000Y-7705000D02*
X18855000Y-7745000D01*
X18855000Y-7830000D02*
X18895000Y-7870000D01*
X18895000Y-7830000D02*
X18855000Y-7870000D01*
X18880000Y-7180000D02*
X18920000Y-7220000D01*
X18920000Y-7180000D02*
X18880000Y-7220000D01*
X18955000Y-9255000D02*
X18995000Y-9295000D01*
X18995000Y-9255000D02*
X18955000Y-9295000D01*
D13*
X12480000Y-9100000D02*
G75*
G03*
X12480000Y-9100000I-30000J0D01*
G01*
X12980000Y-6700000D02*
G75*
G03*
X12980000Y-6700000I-30000J0D01*
G01*
X13305000Y-9100000D02*
G75*
G03*
X13305000Y-9100000I-30000J0D01*
G01*
X13330000Y-7050000D02*
G75*
G03*
X13330000Y-7050000I-30000J0D01*
G01*
X13480000Y-7200000D02*
G75*
G03*
X13480000Y-7200000I-30000J0D01*
G01*
X14380000Y-10150000D02*
G75*
G03*
X14380000Y-10150000I-30000J0D01*
G01*
X14630000Y-9475000D02*
G75*
G03*
X14630000Y-9475000I-30000J0D01*
G01*
X15005000Y-9050000D02*
G75*
G03*
X15005000Y-9050000I-30000J0D01*
G01*
X12330000Y-6070000D02*
X12330000Y-6130000D01*
X12300000Y-6100000D02*
X12360000Y-6100000D01*
D11*
X12295000Y-6130000D02*
X12365000Y-6130000D01*
X12365000Y-6130000D02*
G75*
G03*
X12365000Y-6070000I0J30000D01*
G01*
X12365000Y-6070000D02*
X12295000Y-6070000D01*
X12295000Y-6070000D02*
G75*
G03*
X12295000Y-6130000I0J-30000D01*
G01*
D13*
X12330000Y-6770000D02*
X12330000Y-6830000D01*
X12300000Y-6800000D02*
X12360000Y-6800000D01*
D11*
X12365000Y-6770000D02*
X12295000Y-6770000D01*
X12295000Y-6770000D02*
G75*
G03*
X12295000Y-6830000I0J-30000D01*
G01*
X12295000Y-6830000D02*
X12365000Y-6830000D01*
X12365000Y-6830000D02*
G75*
G03*
X12365000Y-6770000I0J30000D01*
G01*
D14*
X13910047Y-7146522D02*
X13910047Y-7089953D01*
X13853478Y-7089953D01*
X13853478Y-7146522D01*
X13910047Y-7146522D01*
X14160047Y-7146522D02*
X14160047Y-7089953D01*
X14103478Y-7089953D01*
X14103478Y-7146522D01*
X14160047Y-7146522D01*
D15*
X12600000Y-6242500D02*
X12642500Y-6200000D01*
X12600000Y-6157500D01*
X12557500Y-6200000D01*
X12600000Y-6242500D01*
X12600000Y-6742500D02*
X12642500Y-6700000D01*
X12600000Y-6657500D01*
X12557500Y-6700000D01*
X12600000Y-6742500D01*
D16*
X14023500Y-5112000D02*
X14123500Y-5212000D01*
X14123500Y-5112000D02*
X14023500Y-5212000D01*
X14123500Y-5162000D02*
G75*
G03*
X14123500Y-5162000I-50000J0D01*
G01*
X14277500Y-5112000D02*
X14377500Y-5212000D01*
X14377500Y-5112000D02*
X14277500Y-5212000D01*
X14377500Y-5162000D02*
G75*
G03*
X14377500Y-5162000I-50000J0D01*
G01*
X14531500Y-5112000D02*
X14631500Y-5212000D01*
X14631500Y-5112000D02*
X14531500Y-5212000D01*
X14631500Y-5162000D02*
G75*
G03*
X14631500Y-5162000I-50000J0D01*
G01*
X14785500Y-5112000D02*
X14885500Y-5212000D01*
X14885500Y-5112000D02*
X14785500Y-5212000D01*
X14885500Y-5162000D02*
G75*
G03*
X14885500Y-5162000I-50000J0D01*
G01*
X14937500Y-9938000D02*
X15037500Y-10038000D01*
X15037500Y-9938000D02*
X14937500Y-10038000D01*
X15037500Y-9988000D02*
G75*
G03*
X15037500Y-9988000I-50000J0D01*
G01*
X15039500Y-5112000D02*
X15139500Y-5212000D01*
X15139500Y-5112000D02*
X15039500Y-5212000D01*
X15139500Y-5162000D02*
G75*
G03*
X15139500Y-5162000I-50000J0D01*
G01*
X15191500Y-9938000D02*
X15291500Y-10038000D01*
X15291500Y-9938000D02*
X15191500Y-10038000D01*
X15291500Y-9988000D02*
G75*
G03*
X15291500Y-9988000I-50000J0D01*
G01*
X15293500Y-5112000D02*
X15393500Y-5212000D01*
X15393500Y-5112000D02*
X15293500Y-5212000D01*
X15393500Y-5162000D02*
G75*
G03*
X15393500Y-5162000I-50000J0D01*
G01*
X15445500Y-9938000D02*
X15545500Y-10038000D01*
X15545500Y-9938000D02*
X15445500Y-10038000D01*
X15545500Y-9988000D02*
G75*
G03*
X15545500Y-9988000I-50000J0D01*
G01*
X15547500Y-5112000D02*
X15647500Y-5212000D01*
X15647500Y-5112000D02*
X15547500Y-5212000D01*
X15647500Y-5162000D02*
G75*
G03*
X15647500Y-5162000I-50000J0D01*
G01*
X15699500Y-9938000D02*
X15799500Y-10038000D01*
X15799500Y-9938000D02*
X15699500Y-10038000D01*
X15799500Y-9988000D02*
G75*
G03*
X15799500Y-9988000I-50000J0D01*
G01*
X15801500Y-5112000D02*
X15901500Y-5212000D01*
X15901500Y-5112000D02*
X15801500Y-5212000D01*
X15901500Y-5162000D02*
G75*
G03*
X15901500Y-5162000I-50000J0D01*
G01*
X15953500Y-9938000D02*
X16053500Y-10038000D01*
X16053500Y-9938000D02*
X15953500Y-10038000D01*
X16053500Y-9988000D02*
G75*
G03*
X16053500Y-9988000I-50000J0D01*
G01*
X16055500Y-5112000D02*
X16155500Y-5212000D01*
X16155500Y-5112000D02*
X16055500Y-5212000D01*
X16155500Y-5162000D02*
G75*
G03*
X16155500Y-5162000I-50000J0D01*
G01*
X16207500Y-9938000D02*
X16307500Y-10038000D01*
X16307500Y-9938000D02*
X16207500Y-10038000D01*
X16307500Y-9988000D02*
G75*
G03*
X16307500Y-9988000I-50000J0D01*
G01*
X16309500Y-5112000D02*
X16409500Y-5212000D01*
X16409500Y-5112000D02*
X16309500Y-5212000D01*
X16409500Y-5162000D02*
G75*
G03*
X16409500Y-5162000I-50000J0D01*
G01*
X16461500Y-9938000D02*
X16561500Y-10038000D01*
X16561500Y-9938000D02*
X16461500Y-10038000D01*
X16561500Y-9988000D02*
G75*
G03*
X16561500Y-9988000I-50000J0D01*
G01*
X16715500Y-5112000D02*
X16815500Y-5212000D01*
X16815500Y-5112000D02*
X16715500Y-5212000D01*
X16815500Y-5162000D02*
G75*
G03*
X16815500Y-5162000I-50000J0D01*
G01*
X16715500Y-9938000D02*
X16815500Y-10038000D01*
X16815500Y-9938000D02*
X16715500Y-10038000D01*
X16815500Y-9988000D02*
G75*
G03*
X16815500Y-9988000I-50000J0D01*
G01*
X16969500Y-5112000D02*
X17069500Y-5212000D01*
X17069500Y-5112000D02*
X16969500Y-5212000D01*
X17069500Y-5162000D02*
G75*
G03*
X17069500Y-5162000I-50000J0D01*
G01*
X17223500Y-5112000D02*
X17323500Y-5212000D01*
X17323500Y-5112000D02*
X17223500Y-5212000D01*
X17323500Y-5162000D02*
G75*
G03*
X17323500Y-5162000I-50000J0D01*
G01*
X17223500Y-9938000D02*
X17323500Y-10038000D01*
X17323500Y-9938000D02*
X17223500Y-10038000D01*
X17323500Y-9988000D02*
G75*
G03*
X17323500Y-9988000I-50000J0D01*
G01*
X17477500Y-5112000D02*
X17577500Y-5212000D01*
X17577500Y-5112000D02*
X17477500Y-5212000D01*
X17577500Y-5162000D02*
G75*
G03*
X17577500Y-5162000I-50000J0D01*
G01*
X17477500Y-9938000D02*
X17577500Y-10038000D01*
X17577500Y-9938000D02*
X17477500Y-10038000D01*
X17577500Y-9988000D02*
G75*
G03*
X17577500Y-9988000I-50000J0D01*
G01*
X17731500Y-5112000D02*
X17831500Y-5212000D01*
X17831500Y-5112000D02*
X17731500Y-5212000D01*
X17831500Y-5162000D02*
G75*
G03*
X17831500Y-5162000I-50000J0D01*
G01*
X17731500Y-9938000D02*
X17831500Y-10038000D01*
X17831500Y-9938000D02*
X17731500Y-10038000D01*
X17831500Y-9988000D02*
G75*
G03*
X17831500Y-9988000I-50000J0D01*
G01*
X17985500Y-5112000D02*
X18085500Y-5212000D01*
X18085500Y-5112000D02*
X17985500Y-5212000D01*
X18085500Y-5162000D02*
G75*
G03*
X18085500Y-5162000I-50000J0D01*
G01*
X17985500Y-9938000D02*
X18085500Y-10038000D01*
X18085500Y-9938000D02*
X17985500Y-10038000D01*
X18085500Y-9988000D02*
G75*
G03*
X18085500Y-9988000I-50000J0D01*
G01*
X18239500Y-5112000D02*
X18339500Y-5212000D01*
X18339500Y-5112000D02*
X18239500Y-5212000D01*
X18339500Y-5162000D02*
G75*
G03*
X18339500Y-5162000I-50000J0D01*
G01*
X18239500Y-9938000D02*
X18339500Y-10038000D01*
X18339500Y-9938000D02*
X18239500Y-10038000D01*
X18339500Y-9988000D02*
G75*
G03*
X18339500Y-9988000I-50000J0D01*
G01*
X18493500Y-5112000D02*
X18593500Y-5212000D01*
X18593500Y-5112000D02*
X18493500Y-5212000D01*
X18593500Y-5162000D02*
G75*
G03*
X18593500Y-5162000I-50000J0D01*
G01*
X18493500Y-9938000D02*
X18593500Y-10038000D01*
X18593500Y-9938000D02*
X18493500Y-10038000D01*
X18593500Y-9988000D02*
G75*
G03*
X18593500Y-9988000I-50000J0D01*
G01*
D17*
X12933250Y-9245500D02*
X13053250Y-9365500D01*
X13053250Y-9245500D02*
X12933250Y-9365500D01*
X12993250Y-9245500D02*
X12993250Y-9365500D01*
X12933250Y-9305500D02*
X13053250Y-9305500D01*
X12933250Y-9595500D02*
X13053250Y-9715500D01*
X13053250Y-9595500D02*
X12933250Y-9715500D01*
X12993250Y-9595500D02*
X12993250Y-9715500D01*
X12933250Y-9655500D02*
X13053250Y-9655500D01*
D11*
X12423277Y-10583984D02*
X12423277Y-10383984D01*
X12423277Y-10383984D02*
X12470896Y-10383984D01*
X12470896Y-10383984D02*
X12499467Y-10393508D01*
X12499467Y-10393508D02*
X12518515Y-10412555D01*
X12518515Y-10412555D02*
X12528039Y-10431603D01*
X12528039Y-10431603D02*
X12537562Y-10469698D01*
X12537562Y-10469698D02*
X12537562Y-10498270D01*
X12537562Y-10498270D02*
X12528039Y-10536365D01*
X12528039Y-10536365D02*
X12518515Y-10555412D01*
X12518515Y-10555412D02*
X12499467Y-10574460D01*
X12499467Y-10574460D02*
X12470896Y-10583984D01*
X12470896Y-10583984D02*
X12423277Y-10583984D01*
X12623277Y-10583984D02*
X12623277Y-10450650D01*
X12623277Y-10488746D02*
X12632801Y-10469698D01*
X12632801Y-10469698D02*
X12642324Y-10460174D01*
X12642324Y-10460174D02*
X12661372Y-10450650D01*
X12661372Y-10450650D02*
X12680420Y-10450650D01*
X12747086Y-10583984D02*
X12747086Y-10450650D01*
X12747086Y-10383984D02*
X12737562Y-10393508D01*
X12737562Y-10393508D02*
X12747086Y-10403031D01*
X12747086Y-10403031D02*
X12756610Y-10393508D01*
X12756610Y-10393508D02*
X12747086Y-10383984D01*
X12747086Y-10383984D02*
X12747086Y-10403031D01*
X12870896Y-10583984D02*
X12851848Y-10574460D01*
X12851848Y-10574460D02*
X12842324Y-10555412D01*
X12842324Y-10555412D02*
X12842324Y-10383984D01*
X12975658Y-10583984D02*
X12956610Y-10574460D01*
X12956610Y-10574460D02*
X12947086Y-10555412D01*
X12947086Y-10555412D02*
X12947086Y-10383984D01*
X13204229Y-10583984D02*
X13204229Y-10383984D01*
X13204229Y-10383984D02*
X13270896Y-10526841D01*
X13270896Y-10526841D02*
X13337562Y-10383984D01*
X13337562Y-10383984D02*
X13337562Y-10583984D01*
X13518515Y-10583984D02*
X13518515Y-10479222D01*
X13518515Y-10479222D02*
X13508991Y-10460174D01*
X13508991Y-10460174D02*
X13489943Y-10450650D01*
X13489943Y-10450650D02*
X13451848Y-10450650D01*
X13451848Y-10450650D02*
X13432801Y-10460174D01*
X13518515Y-10574460D02*
X13499467Y-10583984D01*
X13499467Y-10583984D02*
X13451848Y-10583984D01*
X13451848Y-10583984D02*
X13432801Y-10574460D01*
X13432801Y-10574460D02*
X13423277Y-10555412D01*
X13423277Y-10555412D02*
X13423277Y-10536365D01*
X13423277Y-10536365D02*
X13432801Y-10517317D01*
X13432801Y-10517317D02*
X13451848Y-10507793D01*
X13451848Y-10507793D02*
X13499467Y-10507793D01*
X13499467Y-10507793D02*
X13518515Y-10498270D01*
X13613753Y-10450650D02*
X13613753Y-10650650D01*
X13613753Y-10460174D02*
X13632801Y-10450650D01*
X13632801Y-10450650D02*
X13670896Y-10450650D01*
X13670896Y-10450650D02*
X13689943Y-10460174D01*
X13689943Y-10460174D02*
X13699467Y-10469698D01*
X13699467Y-10469698D02*
X13708991Y-10488746D01*
X13708991Y-10488746D02*
X13708991Y-10545889D01*
X13708991Y-10545889D02*
X13699467Y-10564936D01*
X13699467Y-10564936D02*
X13689943Y-10574460D01*
X13689943Y-10574460D02*
X13670896Y-10583984D01*
X13670896Y-10583984D02*
X13632801Y-10583984D01*
X13632801Y-10583984D02*
X13613753Y-10574460D01*
X13794705Y-10564936D02*
X13804229Y-10574460D01*
X13804229Y-10574460D02*
X13794705Y-10583984D01*
X13794705Y-10583984D02*
X13785182Y-10574460D01*
X13785182Y-10574460D02*
X13794705Y-10564936D01*
X13794705Y-10564936D02*
X13794705Y-10583984D01*
X13794705Y-10460174D02*
X13804229Y-10469698D01*
X13804229Y-10469698D02*
X13794705Y-10479222D01*
X13794705Y-10479222D02*
X13785182Y-10469698D01*
X13785182Y-10469698D02*
X13794705Y-10460174D01*
X13794705Y-10460174D02*
X13794705Y-10479222D01*
D12*
X12122500Y-10892500D02*
X12162500Y-10932500D01*
X12162500Y-10892500D02*
X12122500Y-10932500D01*
D11*
X12461372Y-10803984D02*
X12480420Y-10803984D01*
X12480420Y-10803984D02*
X12499467Y-10813508D01*
X12499467Y-10813508D02*
X12508991Y-10823031D01*
X12508991Y-10823031D02*
X12518515Y-10842079D01*
X12518515Y-10842079D02*
X12528039Y-10880174D01*
X12528039Y-10880174D02*
X12528039Y-10927793D01*
X12528039Y-10927793D02*
X12518515Y-10965889D01*
X12518515Y-10965889D02*
X12508991Y-10984936D01*
X12508991Y-10984936D02*
X12499467Y-10994460D01*
X12499467Y-10994460D02*
X12480420Y-11003984D01*
X12480420Y-11003984D02*
X12461372Y-11003984D01*
X12461372Y-11003984D02*
X12442324Y-10994460D01*
X12442324Y-10994460D02*
X12432801Y-10984936D01*
X12432801Y-10984936D02*
X12423277Y-10965889D01*
X12423277Y-10965889D02*
X12413753Y-10927793D01*
X12413753Y-10927793D02*
X12413753Y-10880174D01*
X12413753Y-10880174D02*
X12423277Y-10842079D01*
X12423277Y-10842079D02*
X12432801Y-10823031D01*
X12432801Y-10823031D02*
X12442324Y-10813508D01*
X12442324Y-10813508D02*
X12461372Y-10803984D01*
X12613753Y-10984936D02*
X12623277Y-10994460D01*
X12623277Y-10994460D02*
X12613753Y-11003984D01*
X12613753Y-11003984D02*
X12604229Y-10994460D01*
X12604229Y-10994460D02*
X12613753Y-10984936D01*
X12613753Y-10984936D02*
X12613753Y-11003984D01*
X12794705Y-10870650D02*
X12794705Y-11003984D01*
X12747086Y-10794460D02*
X12699467Y-10937317D01*
X12699467Y-10937317D02*
X12823277Y-10937317D01*
X12937562Y-10803984D02*
X12956610Y-10803984D01*
X12956610Y-10803984D02*
X12975658Y-10813508D01*
X12975658Y-10813508D02*
X12985182Y-10823031D01*
X12985182Y-10823031D02*
X12994705Y-10842079D01*
X12994705Y-10842079D02*
X13004229Y-10880174D01*
X13004229Y-10880174D02*
X13004229Y-10927793D01*
X13004229Y-10927793D02*
X12994705Y-10965889D01*
X12994705Y-10965889D02*
X12985182Y-10984936D01*
X12985182Y-10984936D02*
X12975658Y-10994460D01*
X12975658Y-10994460D02*
X12956610Y-11003984D01*
X12956610Y-11003984D02*
X12937562Y-11003984D01*
X12937562Y-11003984D02*
X12918515Y-10994460D01*
X12918515Y-10994460D02*
X12908991Y-10984936D01*
X12908991Y-10984936D02*
X12899467Y-10965889D01*
X12899467Y-10965889D02*
X12889943Y-10927793D01*
X12889943Y-10927793D02*
X12889943Y-10880174D01*
X12889943Y-10880174D02*
X12899467Y-10842079D01*
X12899467Y-10842079D02*
X12908991Y-10823031D01*
X12908991Y-10823031D02*
X12918515Y-10813508D01*
X12918515Y-10813508D02*
X12937562Y-10803984D01*
X13128039Y-10803984D02*
X13147086Y-10803984D01*
X13147086Y-10803984D02*
X13166134Y-10813508D01*
X13166134Y-10813508D02*
X13175658Y-10823031D01*
X13175658Y-10823031D02*
X13185182Y-10842079D01*
X13185182Y-10842079D02*
X13194705Y-10880174D01*
X13194705Y-10880174D02*
X13194705Y-10927793D01*
X13194705Y-10927793D02*
X13185182Y-10965889D01*
X13185182Y-10965889D02*
X13175658Y-10984936D01*
X13175658Y-10984936D02*
X13166134Y-10994460D01*
X13166134Y-10994460D02*
X13147086Y-11003984D01*
X13147086Y-11003984D02*
X13128039Y-11003984D01*
X13128039Y-11003984D02*
X13108991Y-10994460D01*
X13108991Y-10994460D02*
X13099467Y-10984936D01*
X13099467Y-10984936D02*
X13089943Y-10965889D01*
X13089943Y-10965889D02*
X13080420Y-10927793D01*
X13080420Y-10927793D02*
X13080420Y-10880174D01*
X13080420Y-10880174D02*
X13089943Y-10842079D01*
X13089943Y-10842079D02*
X13099467Y-10823031D01*
X13099467Y-10823031D02*
X13108991Y-10813508D01*
X13108991Y-10813508D02*
X13128039Y-10803984D01*
X13280420Y-11003984D02*
X13280420Y-10870650D01*
X13280420Y-10889698D02*
X13289943Y-10880174D01*
X13289943Y-10880174D02*
X13308991Y-10870650D01*
X13308991Y-10870650D02*
X13337563Y-10870650D01*
X13337563Y-10870650D02*
X13356610Y-10880174D01*
X13356610Y-10880174D02*
X13366134Y-10899222D01*
X13366134Y-10899222D02*
X13366134Y-11003984D01*
X13366134Y-10899222D02*
X13375658Y-10880174D01*
X13375658Y-10880174D02*
X13394705Y-10870650D01*
X13394705Y-10870650D02*
X13423277Y-10870650D01*
X13423277Y-10870650D02*
X13442324Y-10880174D01*
X13442324Y-10880174D02*
X13451848Y-10899222D01*
X13451848Y-10899222D02*
X13451848Y-11003984D01*
X13547086Y-11003984D02*
X13547086Y-10870650D01*
X13547086Y-10889698D02*
X13556610Y-10880174D01*
X13556610Y-10880174D02*
X13575658Y-10870650D01*
X13575658Y-10870650D02*
X13604229Y-10870650D01*
X13604229Y-10870650D02*
X13623277Y-10880174D01*
X13623277Y-10880174D02*
X13632801Y-10899222D01*
X13632801Y-10899222D02*
X13632801Y-11003984D01*
X13632801Y-10899222D02*
X13642324Y-10880174D01*
X13642324Y-10880174D02*
X13661372Y-10870650D01*
X13661372Y-10870650D02*
X13689943Y-10870650D01*
X13689943Y-10870650D02*
X13708991Y-10880174D01*
X13708991Y-10880174D02*
X13718515Y-10899222D01*
X13718515Y-10899222D02*
X13718515Y-11003984D01*
X14108991Y-10794460D02*
X13937563Y-11051603D01*
X14366134Y-10803984D02*
X14385182Y-10803984D01*
X14385182Y-10803984D02*
X14404229Y-10813508D01*
X14404229Y-10813508D02*
X14413753Y-10823031D01*
X14413753Y-10823031D02*
X14423277Y-10842079D01*
X14423277Y-10842079D02*
X14432801Y-10880174D01*
X14432801Y-10880174D02*
X14432801Y-10927793D01*
X14432801Y-10927793D02*
X14423277Y-10965889D01*
X14423277Y-10965889D02*
X14413753Y-10984936D01*
X14413753Y-10984936D02*
X14404229Y-10994460D01*
X14404229Y-10994460D02*
X14385182Y-11003984D01*
X14385182Y-11003984D02*
X14366134Y-11003984D01*
X14366134Y-11003984D02*
X14347086Y-10994460D01*
X14347086Y-10994460D02*
X14337563Y-10984936D01*
X14337563Y-10984936D02*
X14328039Y-10965889D01*
X14328039Y-10965889D02*
X14318515Y-10927793D01*
X14318515Y-10927793D02*
X14318515Y-10880174D01*
X14318515Y-10880174D02*
X14328039Y-10842079D01*
X14328039Y-10842079D02*
X14337563Y-10823031D01*
X14337563Y-10823031D02*
X14347086Y-10813508D01*
X14347086Y-10813508D02*
X14366134Y-10803984D01*
X14518515Y-10984936D02*
X14528039Y-10994460D01*
X14528039Y-10994460D02*
X14518515Y-11003984D01*
X14518515Y-11003984D02*
X14508991Y-10994460D01*
X14508991Y-10994460D02*
X14518515Y-10984936D01*
X14518515Y-10984936D02*
X14518515Y-11003984D01*
X14651848Y-10803984D02*
X14670896Y-10803984D01*
X14670896Y-10803984D02*
X14689944Y-10813508D01*
X14689944Y-10813508D02*
X14699467Y-10823031D01*
X14699467Y-10823031D02*
X14708991Y-10842079D01*
X14708991Y-10842079D02*
X14718515Y-10880174D01*
X14718515Y-10880174D02*
X14718515Y-10927793D01*
X14718515Y-10927793D02*
X14708991Y-10965889D01*
X14708991Y-10965889D02*
X14699467Y-10984936D01*
X14699467Y-10984936D02*
X14689944Y-10994460D01*
X14689944Y-10994460D02*
X14670896Y-11003984D01*
X14670896Y-11003984D02*
X14651848Y-11003984D01*
X14651848Y-11003984D02*
X14632801Y-10994460D01*
X14632801Y-10994460D02*
X14623277Y-10984936D01*
X14623277Y-10984936D02*
X14613753Y-10965889D01*
X14613753Y-10965889D02*
X14604229Y-10927793D01*
X14604229Y-10927793D02*
X14604229Y-10880174D01*
X14604229Y-10880174D02*
X14613753Y-10842079D01*
X14613753Y-10842079D02*
X14623277Y-10823031D01*
X14623277Y-10823031D02*
X14632801Y-10813508D01*
X14632801Y-10813508D02*
X14651848Y-10803984D01*
X14908991Y-11003984D02*
X14794706Y-11003984D01*
X14851848Y-11003984D02*
X14851848Y-10803984D01*
X14851848Y-10803984D02*
X14832801Y-10832555D01*
X14832801Y-10832555D02*
X14813753Y-10851603D01*
X14813753Y-10851603D02*
X14794706Y-10861127D01*
X15089944Y-10803984D02*
X14994706Y-10803984D01*
X14994706Y-10803984D02*
X14985182Y-10899222D01*
X14985182Y-10899222D02*
X14994706Y-10889698D01*
X14994706Y-10889698D02*
X15013753Y-10880174D01*
X15013753Y-10880174D02*
X15061372Y-10880174D01*
X15061372Y-10880174D02*
X15080420Y-10889698D01*
X15080420Y-10889698D02*
X15089944Y-10899222D01*
X15089944Y-10899222D02*
X15099467Y-10918270D01*
X15099467Y-10918270D02*
X15099467Y-10965889D01*
X15099467Y-10965889D02*
X15089944Y-10984936D01*
X15089944Y-10984936D02*
X15080420Y-10994460D01*
X15080420Y-10994460D02*
X15061372Y-11003984D01*
X15061372Y-11003984D02*
X15013753Y-11003984D01*
X15013753Y-11003984D02*
X14994706Y-10994460D01*
X14994706Y-10994460D02*
X14985182Y-10984936D01*
X15166134Y-10803984D02*
X15299467Y-10803984D01*
X15299467Y-10803984D02*
X15213753Y-11003984D01*
X15366134Y-10803984D02*
X15366134Y-10842079D01*
X15442325Y-10803984D02*
X15442325Y-10842079D01*
X15737563Y-11080174D02*
X15728039Y-11070650D01*
X15728039Y-11070650D02*
X15708991Y-11042079D01*
X15708991Y-11042079D02*
X15699468Y-11023031D01*
X15699468Y-11023031D02*
X15689944Y-10994460D01*
X15689944Y-10994460D02*
X15680420Y-10946841D01*
X15680420Y-10946841D02*
X15680420Y-10908746D01*
X15680420Y-10908746D02*
X15689944Y-10861127D01*
X15689944Y-10861127D02*
X15699468Y-10832555D01*
X15699468Y-10832555D02*
X15708991Y-10813508D01*
X15708991Y-10813508D02*
X15728039Y-10784936D01*
X15728039Y-10784936D02*
X15737563Y-10775412D01*
X15918515Y-11003984D02*
X15804229Y-11003984D01*
X15861372Y-11003984D02*
X15861372Y-10803984D01*
X15861372Y-10803984D02*
X15842325Y-10832555D01*
X15842325Y-10832555D02*
X15823277Y-10851603D01*
X15823277Y-10851603D02*
X15804229Y-10861127D01*
X16089944Y-10803984D02*
X16051848Y-10803984D01*
X16051848Y-10803984D02*
X16032801Y-10813508D01*
X16032801Y-10813508D02*
X16023277Y-10823031D01*
X16023277Y-10823031D02*
X16004229Y-10851603D01*
X16004229Y-10851603D02*
X15994706Y-10889698D01*
X15994706Y-10889698D02*
X15994706Y-10965889D01*
X15994706Y-10965889D02*
X16004229Y-10984936D01*
X16004229Y-10984936D02*
X16013753Y-10994460D01*
X16013753Y-10994460D02*
X16032801Y-11003984D01*
X16032801Y-11003984D02*
X16070896Y-11003984D01*
X16070896Y-11003984D02*
X16089944Y-10994460D01*
X16089944Y-10994460D02*
X16099468Y-10984936D01*
X16099468Y-10984936D02*
X16108991Y-10965889D01*
X16108991Y-10965889D02*
X16108991Y-10918270D01*
X16108991Y-10918270D02*
X16099468Y-10899222D01*
X16099468Y-10899222D02*
X16089944Y-10889698D01*
X16089944Y-10889698D02*
X16070896Y-10880174D01*
X16070896Y-10880174D02*
X16032801Y-10880174D01*
X16032801Y-10880174D02*
X16013753Y-10889698D01*
X16013753Y-10889698D02*
X16004229Y-10899222D01*
X16004229Y-10899222D02*
X15994706Y-10918270D01*
X16185182Y-10823031D02*
X16194706Y-10813508D01*
X16194706Y-10813508D02*
X16213753Y-10803984D01*
X16213753Y-10803984D02*
X16261372Y-10803984D01*
X16261372Y-10803984D02*
X16280420Y-10813508D01*
X16280420Y-10813508D02*
X16289944Y-10823031D01*
X16289944Y-10823031D02*
X16299468Y-10842079D01*
X16299468Y-10842079D02*
X16299468Y-10861127D01*
X16299468Y-10861127D02*
X16289944Y-10889698D01*
X16289944Y-10889698D02*
X16175658Y-11003984D01*
X16175658Y-11003984D02*
X16299468Y-11003984D01*
X16537563Y-11003984D02*
X16537563Y-10803984D01*
X16623277Y-11003984D02*
X16623277Y-10899222D01*
X16623277Y-10899222D02*
X16613753Y-10880174D01*
X16613753Y-10880174D02*
X16594706Y-10870650D01*
X16594706Y-10870650D02*
X16566134Y-10870650D01*
X16566134Y-10870650D02*
X16547087Y-10880174D01*
X16547087Y-10880174D02*
X16537563Y-10889698D01*
X16747087Y-11003984D02*
X16728039Y-10994460D01*
X16728039Y-10994460D02*
X16718515Y-10984936D01*
X16718515Y-10984936D02*
X16708991Y-10965889D01*
X16708991Y-10965889D02*
X16708991Y-10908746D01*
X16708991Y-10908746D02*
X16718515Y-10889698D01*
X16718515Y-10889698D02*
X16728039Y-10880174D01*
X16728039Y-10880174D02*
X16747087Y-10870650D01*
X16747087Y-10870650D02*
X16775658Y-10870650D01*
X16775658Y-10870650D02*
X16794706Y-10880174D01*
X16794706Y-10880174D02*
X16804230Y-10889698D01*
X16804230Y-10889698D02*
X16813753Y-10908746D01*
X16813753Y-10908746D02*
X16813753Y-10965889D01*
X16813753Y-10965889D02*
X16804230Y-10984936D01*
X16804230Y-10984936D02*
X16794706Y-10994460D01*
X16794706Y-10994460D02*
X16775658Y-11003984D01*
X16775658Y-11003984D02*
X16747087Y-11003984D01*
X16928039Y-11003984D02*
X16908992Y-10994460D01*
X16908992Y-10994460D02*
X16899468Y-10975412D01*
X16899468Y-10975412D02*
X16899468Y-10803984D01*
X17080420Y-10994460D02*
X17061373Y-11003984D01*
X17061373Y-11003984D02*
X17023277Y-11003984D01*
X17023277Y-11003984D02*
X17004230Y-10994460D01*
X17004230Y-10994460D02*
X16994706Y-10975412D01*
X16994706Y-10975412D02*
X16994706Y-10899222D01*
X16994706Y-10899222D02*
X17004230Y-10880174D01*
X17004230Y-10880174D02*
X17023277Y-10870650D01*
X17023277Y-10870650D02*
X17061373Y-10870650D01*
X17061373Y-10870650D02*
X17080420Y-10880174D01*
X17080420Y-10880174D02*
X17089944Y-10899222D01*
X17089944Y-10899222D02*
X17089944Y-10918270D01*
X17089944Y-10918270D02*
X16994706Y-10937317D01*
X17166134Y-10994460D02*
X17185182Y-11003984D01*
X17185182Y-11003984D02*
X17223277Y-11003984D01*
X17223277Y-11003984D02*
X17242325Y-10994460D01*
X17242325Y-10994460D02*
X17251849Y-10975412D01*
X17251849Y-10975412D02*
X17251849Y-10965889D01*
X17251849Y-10965889D02*
X17242325Y-10946841D01*
X17242325Y-10946841D02*
X17223277Y-10937317D01*
X17223277Y-10937317D02*
X17194706Y-10937317D01*
X17194706Y-10937317D02*
X17175658Y-10927793D01*
X17175658Y-10927793D02*
X17166134Y-10908746D01*
X17166134Y-10908746D02*
X17166134Y-10899222D01*
X17166134Y-10899222D02*
X17175658Y-10880174D01*
X17175658Y-10880174D02*
X17194706Y-10870650D01*
X17194706Y-10870650D02*
X17223277Y-10870650D01*
X17223277Y-10870650D02*
X17242325Y-10880174D01*
X17318515Y-11080174D02*
X17328039Y-11070650D01*
X17328039Y-11070650D02*
X17347087Y-11042079D01*
X17347087Y-11042079D02*
X17356611Y-11023031D01*
X17356611Y-11023031D02*
X17366134Y-10994460D01*
X17366134Y-10994460D02*
X17375658Y-10946841D01*
X17375658Y-10946841D02*
X17375658Y-10908746D01*
X17375658Y-10908746D02*
X17366134Y-10861127D01*
X17366134Y-10861127D02*
X17356611Y-10832555D01*
X17356611Y-10832555D02*
X17347087Y-10813508D01*
X17347087Y-10813508D02*
X17328039Y-10784936D01*
X17328039Y-10784936D02*
X17318515Y-10775412D01*
D13*
X12162500Y-11176500D02*
G75*
G03*
X12162500Y-11176500I-30000J0D01*
G01*
D11*
X12461372Y-11067984D02*
X12480420Y-11067984D01*
X12480420Y-11067984D02*
X12499467Y-11077508D01*
X12499467Y-11077508D02*
X12508991Y-11087031D01*
X12508991Y-11087031D02*
X12518515Y-11106079D01*
X12518515Y-11106079D02*
X12528039Y-11144174D01*
X12528039Y-11144174D02*
X12528039Y-11191793D01*
X12528039Y-11191793D02*
X12518515Y-11229888D01*
X12518515Y-11229888D02*
X12508991Y-11248936D01*
X12508991Y-11248936D02*
X12499467Y-11258460D01*
X12499467Y-11258460D02*
X12480420Y-11267984D01*
X12480420Y-11267984D02*
X12461372Y-11267984D01*
X12461372Y-11267984D02*
X12442324Y-11258460D01*
X12442324Y-11258460D02*
X12432801Y-11248936D01*
X12432801Y-11248936D02*
X12423277Y-11229888D01*
X12423277Y-11229888D02*
X12413753Y-11191793D01*
X12413753Y-11191793D02*
X12413753Y-11144174D01*
X12413753Y-11144174D02*
X12423277Y-11106079D01*
X12423277Y-11106079D02*
X12432801Y-11087031D01*
X12432801Y-11087031D02*
X12442324Y-11077508D01*
X12442324Y-11077508D02*
X12461372Y-11067984D01*
X12613753Y-11248936D02*
X12623277Y-11258460D01*
X12623277Y-11258460D02*
X12613753Y-11267984D01*
X12613753Y-11267984D02*
X12604229Y-11258460D01*
X12604229Y-11258460D02*
X12613753Y-11248936D01*
X12613753Y-11248936D02*
X12613753Y-11267984D01*
X12794705Y-11067984D02*
X12756610Y-11067984D01*
X12756610Y-11067984D02*
X12737562Y-11077508D01*
X12737562Y-11077508D02*
X12728039Y-11087031D01*
X12728039Y-11087031D02*
X12708991Y-11115603D01*
X12708991Y-11115603D02*
X12699467Y-11153698D01*
X12699467Y-11153698D02*
X12699467Y-11229888D01*
X12699467Y-11229888D02*
X12708991Y-11248936D01*
X12708991Y-11248936D02*
X12718515Y-11258460D01*
X12718515Y-11258460D02*
X12737562Y-11267984D01*
X12737562Y-11267984D02*
X12775658Y-11267984D01*
X12775658Y-11267984D02*
X12794705Y-11258460D01*
X12794705Y-11258460D02*
X12804229Y-11248936D01*
X12804229Y-11248936D02*
X12813753Y-11229888D01*
X12813753Y-11229888D02*
X12813753Y-11182270D01*
X12813753Y-11182270D02*
X12804229Y-11163222D01*
X12804229Y-11163222D02*
X12794705Y-11153698D01*
X12794705Y-11153698D02*
X12775658Y-11144174D01*
X12775658Y-11144174D02*
X12737562Y-11144174D01*
X12737562Y-11144174D02*
X12718515Y-11153698D01*
X12718515Y-11153698D02*
X12708991Y-11163222D01*
X12708991Y-11163222D02*
X12699467Y-11182270D01*
X12937562Y-11067984D02*
X12956610Y-11067984D01*
X12956610Y-11067984D02*
X12975658Y-11077508D01*
X12975658Y-11077508D02*
X12985182Y-11087031D01*
X12985182Y-11087031D02*
X12994705Y-11106079D01*
X12994705Y-11106079D02*
X13004229Y-11144174D01*
X13004229Y-11144174D02*
X13004229Y-11191793D01*
X13004229Y-11191793D02*
X12994705Y-11229888D01*
X12994705Y-11229888D02*
X12985182Y-11248936D01*
X12985182Y-11248936D02*
X12975658Y-11258460D01*
X12975658Y-11258460D02*
X12956610Y-11267984D01*
X12956610Y-11267984D02*
X12937562Y-11267984D01*
X12937562Y-11267984D02*
X12918515Y-11258460D01*
X12918515Y-11258460D02*
X12908991Y-11248936D01*
X12908991Y-11248936D02*
X12899467Y-11229888D01*
X12899467Y-11229888D02*
X12889943Y-11191793D01*
X12889943Y-11191793D02*
X12889943Y-11144174D01*
X12889943Y-11144174D02*
X12899467Y-11106079D01*
X12899467Y-11106079D02*
X12908991Y-11087031D01*
X12908991Y-11087031D02*
X12918515Y-11077508D01*
X12918515Y-11077508D02*
X12937562Y-11067984D01*
X13128039Y-11067984D02*
X13147086Y-11067984D01*
X13147086Y-11067984D02*
X13166134Y-11077508D01*
X13166134Y-11077508D02*
X13175658Y-11087031D01*
X13175658Y-11087031D02*
X13185182Y-11106079D01*
X13185182Y-11106079D02*
X13194705Y-11144174D01*
X13194705Y-11144174D02*
X13194705Y-11191793D01*
X13194705Y-11191793D02*
X13185182Y-11229888D01*
X13185182Y-11229888D02*
X13175658Y-11248936D01*
X13175658Y-11248936D02*
X13166134Y-11258460D01*
X13166134Y-11258460D02*
X13147086Y-11267984D01*
X13147086Y-11267984D02*
X13128039Y-11267984D01*
X13128039Y-11267984D02*
X13108991Y-11258460D01*
X13108991Y-11258460D02*
X13099467Y-11248936D01*
X13099467Y-11248936D02*
X13089943Y-11229888D01*
X13089943Y-11229888D02*
X13080420Y-11191793D01*
X13080420Y-11191793D02*
X13080420Y-11144174D01*
X13080420Y-11144174D02*
X13089943Y-11106079D01*
X13089943Y-11106079D02*
X13099467Y-11087031D01*
X13099467Y-11087031D02*
X13108991Y-11077508D01*
X13108991Y-11077508D02*
X13128039Y-11067984D01*
X13280420Y-11267984D02*
X13280420Y-11134650D01*
X13280420Y-11153698D02*
X13289943Y-11144174D01*
X13289943Y-11144174D02*
X13308991Y-11134650D01*
X13308991Y-11134650D02*
X13337563Y-11134650D01*
X13337563Y-11134650D02*
X13356610Y-11144174D01*
X13356610Y-11144174D02*
X13366134Y-11163222D01*
X13366134Y-11163222D02*
X13366134Y-11267984D01*
X13366134Y-11163222D02*
X13375658Y-11144174D01*
X13375658Y-11144174D02*
X13394705Y-11134650D01*
X13394705Y-11134650D02*
X13423277Y-11134650D01*
X13423277Y-11134650D02*
X13442324Y-11144174D01*
X13442324Y-11144174D02*
X13451848Y-11163222D01*
X13451848Y-11163222D02*
X13451848Y-11267984D01*
X13547086Y-11267984D02*
X13547086Y-11134650D01*
X13547086Y-11153698D02*
X13556610Y-11144174D01*
X13556610Y-11144174D02*
X13575658Y-11134650D01*
X13575658Y-11134650D02*
X13604229Y-11134650D01*
X13604229Y-11134650D02*
X13623277Y-11144174D01*
X13623277Y-11144174D02*
X13632801Y-11163222D01*
X13632801Y-11163222D02*
X13632801Y-11267984D01*
X13632801Y-11163222D02*
X13642324Y-11144174D01*
X13642324Y-11144174D02*
X13661372Y-11134650D01*
X13661372Y-11134650D02*
X13689943Y-11134650D01*
X13689943Y-11134650D02*
X13708991Y-11144174D01*
X13708991Y-11144174D02*
X13718515Y-11163222D01*
X13718515Y-11163222D02*
X13718515Y-11267984D01*
X14108991Y-11058460D02*
X13937563Y-11315603D01*
X14366134Y-11067984D02*
X14385182Y-11067984D01*
X14385182Y-11067984D02*
X14404229Y-11077508D01*
X14404229Y-11077508D02*
X14413753Y-11087031D01*
X14413753Y-11087031D02*
X14423277Y-11106079D01*
X14423277Y-11106079D02*
X14432801Y-11144174D01*
X14432801Y-11144174D02*
X14432801Y-11191793D01*
X14432801Y-11191793D02*
X14423277Y-11229888D01*
X14423277Y-11229888D02*
X14413753Y-11248936D01*
X14413753Y-11248936D02*
X14404229Y-11258460D01*
X14404229Y-11258460D02*
X14385182Y-11267984D01*
X14385182Y-11267984D02*
X14366134Y-11267984D01*
X14366134Y-11267984D02*
X14347086Y-11258460D01*
X14347086Y-11258460D02*
X14337563Y-11248936D01*
X14337563Y-11248936D02*
X14328039Y-11229888D01*
X14328039Y-11229888D02*
X14318515Y-11191793D01*
X14318515Y-11191793D02*
X14318515Y-11144174D01*
X14318515Y-11144174D02*
X14328039Y-11106079D01*
X14328039Y-11106079D02*
X14337563Y-11087031D01*
X14337563Y-11087031D02*
X14347086Y-11077508D01*
X14347086Y-11077508D02*
X14366134Y-11067984D01*
X14518515Y-11248936D02*
X14528039Y-11258460D01*
X14528039Y-11258460D02*
X14518515Y-11267984D01*
X14518515Y-11267984D02*
X14508991Y-11258460D01*
X14508991Y-11258460D02*
X14518515Y-11248936D01*
X14518515Y-11248936D02*
X14518515Y-11267984D01*
X14651848Y-11067984D02*
X14670896Y-11067984D01*
X14670896Y-11067984D02*
X14689944Y-11077508D01*
X14689944Y-11077508D02*
X14699467Y-11087031D01*
X14699467Y-11087031D02*
X14708991Y-11106079D01*
X14708991Y-11106079D02*
X14718515Y-11144174D01*
X14718515Y-11144174D02*
X14718515Y-11191793D01*
X14718515Y-11191793D02*
X14708991Y-11229888D01*
X14708991Y-11229888D02*
X14699467Y-11248936D01*
X14699467Y-11248936D02*
X14689944Y-11258460D01*
X14689944Y-11258460D02*
X14670896Y-11267984D01*
X14670896Y-11267984D02*
X14651848Y-11267984D01*
X14651848Y-11267984D02*
X14632801Y-11258460D01*
X14632801Y-11258460D02*
X14623277Y-11248936D01*
X14623277Y-11248936D02*
X14613753Y-11229888D01*
X14613753Y-11229888D02*
X14604229Y-11191793D01*
X14604229Y-11191793D02*
X14604229Y-11144174D01*
X14604229Y-11144174D02*
X14613753Y-11106079D01*
X14613753Y-11106079D02*
X14623277Y-11087031D01*
X14623277Y-11087031D02*
X14632801Y-11077508D01*
X14632801Y-11077508D02*
X14651848Y-11067984D01*
X14794706Y-11087031D02*
X14804229Y-11077508D01*
X14804229Y-11077508D02*
X14823277Y-11067984D01*
X14823277Y-11067984D02*
X14870896Y-11067984D01*
X14870896Y-11067984D02*
X14889944Y-11077508D01*
X14889944Y-11077508D02*
X14899467Y-11087031D01*
X14899467Y-11087031D02*
X14908991Y-11106079D01*
X14908991Y-11106079D02*
X14908991Y-11125127D01*
X14908991Y-11125127D02*
X14899467Y-11153698D01*
X14899467Y-11153698D02*
X14785182Y-11267984D01*
X14785182Y-11267984D02*
X14908991Y-11267984D01*
X14975658Y-11067984D02*
X15099467Y-11067984D01*
X15099467Y-11067984D02*
X15032801Y-11144174D01*
X15032801Y-11144174D02*
X15061372Y-11144174D01*
X15061372Y-11144174D02*
X15080420Y-11153698D01*
X15080420Y-11153698D02*
X15089944Y-11163222D01*
X15089944Y-11163222D02*
X15099467Y-11182270D01*
X15099467Y-11182270D02*
X15099467Y-11229888D01*
X15099467Y-11229888D02*
X15089944Y-11248936D01*
X15089944Y-11248936D02*
X15080420Y-11258460D01*
X15080420Y-11258460D02*
X15061372Y-11267984D01*
X15061372Y-11267984D02*
X15004229Y-11267984D01*
X15004229Y-11267984D02*
X14985182Y-11258460D01*
X14985182Y-11258460D02*
X14975658Y-11248936D01*
X15270896Y-11067984D02*
X15232801Y-11067984D01*
X15232801Y-11067984D02*
X15213753Y-11077508D01*
X15213753Y-11077508D02*
X15204229Y-11087031D01*
X15204229Y-11087031D02*
X15185182Y-11115603D01*
X15185182Y-11115603D02*
X15175658Y-11153698D01*
X15175658Y-11153698D02*
X15175658Y-11229888D01*
X15175658Y-11229888D02*
X15185182Y-11248936D01*
X15185182Y-11248936D02*
X15194706Y-11258460D01*
X15194706Y-11258460D02*
X15213753Y-11267984D01*
X15213753Y-11267984D02*
X15251848Y-11267984D01*
X15251848Y-11267984D02*
X15270896Y-11258460D01*
X15270896Y-11258460D02*
X15280420Y-11248936D01*
X15280420Y-11248936D02*
X15289944Y-11229888D01*
X15289944Y-11229888D02*
X15289944Y-11182270D01*
X15289944Y-11182270D02*
X15280420Y-11163222D01*
X15280420Y-11163222D02*
X15270896Y-11153698D01*
X15270896Y-11153698D02*
X15251848Y-11144174D01*
X15251848Y-11144174D02*
X15213753Y-11144174D01*
X15213753Y-11144174D02*
X15194706Y-11153698D01*
X15194706Y-11153698D02*
X15185182Y-11163222D01*
X15185182Y-11163222D02*
X15175658Y-11182270D01*
X15366134Y-11067984D02*
X15366134Y-11106079D01*
X15442325Y-11067984D02*
X15442325Y-11106079D01*
X15737563Y-11344174D02*
X15728039Y-11334650D01*
X15728039Y-11334650D02*
X15708991Y-11306079D01*
X15708991Y-11306079D02*
X15699468Y-11287031D01*
X15699468Y-11287031D02*
X15689944Y-11258460D01*
X15689944Y-11258460D02*
X15680420Y-11210841D01*
X15680420Y-11210841D02*
X15680420Y-11172746D01*
X15680420Y-11172746D02*
X15689944Y-11125127D01*
X15689944Y-11125127D02*
X15699468Y-11096555D01*
X15699468Y-11096555D02*
X15708991Y-11077508D01*
X15708991Y-11077508D02*
X15728039Y-11048936D01*
X15728039Y-11048936D02*
X15737563Y-11039412D01*
X15842325Y-11153698D02*
X15823277Y-11144174D01*
X15823277Y-11144174D02*
X15813753Y-11134650D01*
X15813753Y-11134650D02*
X15804229Y-11115603D01*
X15804229Y-11115603D02*
X15804229Y-11106079D01*
X15804229Y-11106079D02*
X15813753Y-11087031D01*
X15813753Y-11087031D02*
X15823277Y-11077508D01*
X15823277Y-11077508D02*
X15842325Y-11067984D01*
X15842325Y-11067984D02*
X15880420Y-11067984D01*
X15880420Y-11067984D02*
X15899468Y-11077508D01*
X15899468Y-11077508D02*
X15908991Y-11087031D01*
X15908991Y-11087031D02*
X15918515Y-11106079D01*
X15918515Y-11106079D02*
X15918515Y-11115603D01*
X15918515Y-11115603D02*
X15908991Y-11134650D01*
X15908991Y-11134650D02*
X15899468Y-11144174D01*
X15899468Y-11144174D02*
X15880420Y-11153698D01*
X15880420Y-11153698D02*
X15842325Y-11153698D01*
X15842325Y-11153698D02*
X15823277Y-11163222D01*
X15823277Y-11163222D02*
X15813753Y-11172746D01*
X15813753Y-11172746D02*
X15804229Y-11191793D01*
X15804229Y-11191793D02*
X15804229Y-11229888D01*
X15804229Y-11229888D02*
X15813753Y-11248936D01*
X15813753Y-11248936D02*
X15823277Y-11258460D01*
X15823277Y-11258460D02*
X15842325Y-11267984D01*
X15842325Y-11267984D02*
X15880420Y-11267984D01*
X15880420Y-11267984D02*
X15899468Y-11258460D01*
X15899468Y-11258460D02*
X15908991Y-11248936D01*
X15908991Y-11248936D02*
X15918515Y-11229888D01*
X15918515Y-11229888D02*
X15918515Y-11191793D01*
X15918515Y-11191793D02*
X15908991Y-11172746D01*
X15908991Y-11172746D02*
X15899468Y-11163222D01*
X15899468Y-11163222D02*
X15880420Y-11153698D01*
X16156610Y-11267984D02*
X16156610Y-11067984D01*
X16242325Y-11267984D02*
X16242325Y-11163222D01*
X16242325Y-11163222D02*
X16232801Y-11144174D01*
X16232801Y-11144174D02*
X16213753Y-11134650D01*
X16213753Y-11134650D02*
X16185182Y-11134650D01*
X16185182Y-11134650D02*
X16166134Y-11144174D01*
X16166134Y-11144174D02*
X16156610Y-11153698D01*
X16366134Y-11267984D02*
X16347087Y-11258460D01*
X16347087Y-11258460D02*
X16337563Y-11248936D01*
X16337563Y-11248936D02*
X16328039Y-11229888D01*
X16328039Y-11229888D02*
X16328039Y-11172746D01*
X16328039Y-11172746D02*
X16337563Y-11153698D01*
X16337563Y-11153698D02*
X16347087Y-11144174D01*
X16347087Y-11144174D02*
X16366134Y-11134650D01*
X16366134Y-11134650D02*
X16394706Y-11134650D01*
X16394706Y-11134650D02*
X16413753Y-11144174D01*
X16413753Y-11144174D02*
X16423277Y-11153698D01*
X16423277Y-11153698D02*
X16432801Y-11172746D01*
X16432801Y-11172746D02*
X16432801Y-11229888D01*
X16432801Y-11229888D02*
X16423277Y-11248936D01*
X16423277Y-11248936D02*
X16413753Y-11258460D01*
X16413753Y-11258460D02*
X16394706Y-11267984D01*
X16394706Y-11267984D02*
X16366134Y-11267984D01*
X16547087Y-11267984D02*
X16528039Y-11258460D01*
X16528039Y-11258460D02*
X16518515Y-11239412D01*
X16518515Y-11239412D02*
X16518515Y-11067984D01*
X16699468Y-11258460D02*
X16680420Y-11267984D01*
X16680420Y-11267984D02*
X16642325Y-11267984D01*
X16642325Y-11267984D02*
X16623277Y-11258460D01*
X16623277Y-11258460D02*
X16613753Y-11239412D01*
X16613753Y-11239412D02*
X16613753Y-11163222D01*
X16613753Y-11163222D02*
X16623277Y-11144174D01*
X16623277Y-11144174D02*
X16642325Y-11134650D01*
X16642325Y-11134650D02*
X16680420Y-11134650D01*
X16680420Y-11134650D02*
X16699468Y-11144174D01*
X16699468Y-11144174D02*
X16708991Y-11163222D01*
X16708991Y-11163222D02*
X16708991Y-11182270D01*
X16708991Y-11182270D02*
X16613753Y-11201317D01*
X16785182Y-11258460D02*
X16804230Y-11267984D01*
X16804230Y-11267984D02*
X16842325Y-11267984D01*
X16842325Y-11267984D02*
X16861373Y-11258460D01*
X16861373Y-11258460D02*
X16870896Y-11239412D01*
X16870896Y-11239412D02*
X16870896Y-11229888D01*
X16870896Y-11229888D02*
X16861373Y-11210841D01*
X16861373Y-11210841D02*
X16842325Y-11201317D01*
X16842325Y-11201317D02*
X16813753Y-11201317D01*
X16813753Y-11201317D02*
X16794706Y-11191793D01*
X16794706Y-11191793D02*
X16785182Y-11172746D01*
X16785182Y-11172746D02*
X16785182Y-11163222D01*
X16785182Y-11163222D02*
X16794706Y-11144174D01*
X16794706Y-11144174D02*
X16813753Y-11134650D01*
X16813753Y-11134650D02*
X16842325Y-11134650D01*
X16842325Y-11134650D02*
X16861373Y-11144174D01*
X16937563Y-11344174D02*
X16947087Y-11334650D01*
X16947087Y-11334650D02*
X16966134Y-11306079D01*
X16966134Y-11306079D02*
X16975658Y-11287031D01*
X16975658Y-11287031D02*
X16985182Y-11258460D01*
X16985182Y-11258460D02*
X16994706Y-11210841D01*
X16994706Y-11210841D02*
X16994706Y-11172746D01*
X16994706Y-11172746D02*
X16985182Y-11125127D01*
X16985182Y-11125127D02*
X16975658Y-11096555D01*
X16975658Y-11096555D02*
X16966134Y-11077508D01*
X16966134Y-11077508D02*
X16947087Y-11048936D01*
X16947087Y-11048936D02*
X16937563Y-11039412D01*
D13*
X12132500Y-11410500D02*
X12132500Y-11470500D01*
X12102500Y-11440500D02*
X12162500Y-11440500D01*
D11*
X12461372Y-11331984D02*
X12480420Y-11331984D01*
X12480420Y-11331984D02*
X12499467Y-11341508D01*
X12499467Y-11341508D02*
X12508991Y-11351031D01*
X12508991Y-11351031D02*
X12518515Y-11370079D01*
X12518515Y-11370079D02*
X12528039Y-11408174D01*
X12528039Y-11408174D02*
X12528039Y-11455793D01*
X12528039Y-11455793D02*
X12518515Y-11493888D01*
X12518515Y-11493888D02*
X12508991Y-11512936D01*
X12508991Y-11512936D02*
X12499467Y-11522460D01*
X12499467Y-11522460D02*
X12480420Y-11531984D01*
X12480420Y-11531984D02*
X12461372Y-11531984D01*
X12461372Y-11531984D02*
X12442324Y-11522460D01*
X12442324Y-11522460D02*
X12432801Y-11512936D01*
X12432801Y-11512936D02*
X12423277Y-11493888D01*
X12423277Y-11493888D02*
X12413753Y-11455793D01*
X12413753Y-11455793D02*
X12413753Y-11408174D01*
X12413753Y-11408174D02*
X12423277Y-11370079D01*
X12423277Y-11370079D02*
X12432801Y-11351031D01*
X12432801Y-11351031D02*
X12442324Y-11341508D01*
X12442324Y-11341508D02*
X12461372Y-11331984D01*
X12613753Y-11512936D02*
X12623277Y-11522460D01*
X12623277Y-11522460D02*
X12613753Y-11531984D01*
X12613753Y-11531984D02*
X12604229Y-11522460D01*
X12604229Y-11522460D02*
X12613753Y-11512936D01*
X12613753Y-11512936D02*
X12613753Y-11531984D01*
X12794705Y-11331984D02*
X12756610Y-11331984D01*
X12756610Y-11331984D02*
X12737562Y-11341508D01*
X12737562Y-11341508D02*
X12728039Y-11351031D01*
X12728039Y-11351031D02*
X12708991Y-11379603D01*
X12708991Y-11379603D02*
X12699467Y-11417698D01*
X12699467Y-11417698D02*
X12699467Y-11493888D01*
X12699467Y-11493888D02*
X12708991Y-11512936D01*
X12708991Y-11512936D02*
X12718515Y-11522460D01*
X12718515Y-11522460D02*
X12737562Y-11531984D01*
X12737562Y-11531984D02*
X12775658Y-11531984D01*
X12775658Y-11531984D02*
X12794705Y-11522460D01*
X12794705Y-11522460D02*
X12804229Y-11512936D01*
X12804229Y-11512936D02*
X12813753Y-11493888D01*
X12813753Y-11493888D02*
X12813753Y-11446269D01*
X12813753Y-11446269D02*
X12804229Y-11427222D01*
X12804229Y-11427222D02*
X12794705Y-11417698D01*
X12794705Y-11417698D02*
X12775658Y-11408174D01*
X12775658Y-11408174D02*
X12737562Y-11408174D01*
X12737562Y-11408174D02*
X12718515Y-11417698D01*
X12718515Y-11417698D02*
X12708991Y-11427222D01*
X12708991Y-11427222D02*
X12699467Y-11446269D01*
X12937562Y-11331984D02*
X12956610Y-11331984D01*
X12956610Y-11331984D02*
X12975658Y-11341508D01*
X12975658Y-11341508D02*
X12985182Y-11351031D01*
X12985182Y-11351031D02*
X12994705Y-11370079D01*
X12994705Y-11370079D02*
X13004229Y-11408174D01*
X13004229Y-11408174D02*
X13004229Y-11455793D01*
X13004229Y-11455793D02*
X12994705Y-11493888D01*
X12994705Y-11493888D02*
X12985182Y-11512936D01*
X12985182Y-11512936D02*
X12975658Y-11522460D01*
X12975658Y-11522460D02*
X12956610Y-11531984D01*
X12956610Y-11531984D02*
X12937562Y-11531984D01*
X12937562Y-11531984D02*
X12918515Y-11522460D01*
X12918515Y-11522460D02*
X12908991Y-11512936D01*
X12908991Y-11512936D02*
X12899467Y-11493888D01*
X12899467Y-11493888D02*
X12889943Y-11455793D01*
X12889943Y-11455793D02*
X12889943Y-11408174D01*
X12889943Y-11408174D02*
X12899467Y-11370079D01*
X12899467Y-11370079D02*
X12908991Y-11351031D01*
X12908991Y-11351031D02*
X12918515Y-11341508D01*
X12918515Y-11341508D02*
X12937562Y-11331984D01*
X13128039Y-11331984D02*
X13147086Y-11331984D01*
X13147086Y-11331984D02*
X13166134Y-11341508D01*
X13166134Y-11341508D02*
X13175658Y-11351031D01*
X13175658Y-11351031D02*
X13185182Y-11370079D01*
X13185182Y-11370079D02*
X13194705Y-11408174D01*
X13194705Y-11408174D02*
X13194705Y-11455793D01*
X13194705Y-11455793D02*
X13185182Y-11493888D01*
X13185182Y-11493888D02*
X13175658Y-11512936D01*
X13175658Y-11512936D02*
X13166134Y-11522460D01*
X13166134Y-11522460D02*
X13147086Y-11531984D01*
X13147086Y-11531984D02*
X13128039Y-11531984D01*
X13128039Y-11531984D02*
X13108991Y-11522460D01*
X13108991Y-11522460D02*
X13099467Y-11512936D01*
X13099467Y-11512936D02*
X13089943Y-11493888D01*
X13089943Y-11493888D02*
X13080420Y-11455793D01*
X13080420Y-11455793D02*
X13080420Y-11408174D01*
X13080420Y-11408174D02*
X13089943Y-11370079D01*
X13089943Y-11370079D02*
X13099467Y-11351031D01*
X13099467Y-11351031D02*
X13108991Y-11341508D01*
X13108991Y-11341508D02*
X13128039Y-11331984D01*
X13280420Y-11531984D02*
X13280420Y-11398650D01*
X13280420Y-11417698D02*
X13289943Y-11408174D01*
X13289943Y-11408174D02*
X13308991Y-11398650D01*
X13308991Y-11398650D02*
X13337563Y-11398650D01*
X13337563Y-11398650D02*
X13356610Y-11408174D01*
X13356610Y-11408174D02*
X13366134Y-11427222D01*
X13366134Y-11427222D02*
X13366134Y-11531984D01*
X13366134Y-11427222D02*
X13375658Y-11408174D01*
X13375658Y-11408174D02*
X13394705Y-11398650D01*
X13394705Y-11398650D02*
X13423277Y-11398650D01*
X13423277Y-11398650D02*
X13442324Y-11408174D01*
X13442324Y-11408174D02*
X13451848Y-11427222D01*
X13451848Y-11427222D02*
X13451848Y-11531984D01*
X13547086Y-11531984D02*
X13547086Y-11398650D01*
X13547086Y-11417698D02*
X13556610Y-11408174D01*
X13556610Y-11408174D02*
X13575658Y-11398650D01*
X13575658Y-11398650D02*
X13604229Y-11398650D01*
X13604229Y-11398650D02*
X13623277Y-11408174D01*
X13623277Y-11408174D02*
X13632801Y-11427222D01*
X13632801Y-11427222D02*
X13632801Y-11531984D01*
X13632801Y-11427222D02*
X13642324Y-11408174D01*
X13642324Y-11408174D02*
X13661372Y-11398650D01*
X13661372Y-11398650D02*
X13689943Y-11398650D01*
X13689943Y-11398650D02*
X13708991Y-11408174D01*
X13708991Y-11408174D02*
X13718515Y-11427222D01*
X13718515Y-11427222D02*
X13718515Y-11531984D01*
X14108991Y-11322460D02*
X13937563Y-11579603D01*
X14366134Y-11331984D02*
X14385182Y-11331984D01*
X14385182Y-11331984D02*
X14404229Y-11341508D01*
X14404229Y-11341508D02*
X14413753Y-11351031D01*
X14413753Y-11351031D02*
X14423277Y-11370079D01*
X14423277Y-11370079D02*
X14432801Y-11408174D01*
X14432801Y-11408174D02*
X14432801Y-11455793D01*
X14432801Y-11455793D02*
X14423277Y-11493888D01*
X14423277Y-11493888D02*
X14413753Y-11512936D01*
X14413753Y-11512936D02*
X14404229Y-11522460D01*
X14404229Y-11522460D02*
X14385182Y-11531984D01*
X14385182Y-11531984D02*
X14366134Y-11531984D01*
X14366134Y-11531984D02*
X14347086Y-11522460D01*
X14347086Y-11522460D02*
X14337563Y-11512936D01*
X14337563Y-11512936D02*
X14328039Y-11493888D01*
X14328039Y-11493888D02*
X14318515Y-11455793D01*
X14318515Y-11455793D02*
X14318515Y-11408174D01*
X14318515Y-11408174D02*
X14328039Y-11370079D01*
X14328039Y-11370079D02*
X14337563Y-11351031D01*
X14337563Y-11351031D02*
X14347086Y-11341508D01*
X14347086Y-11341508D02*
X14366134Y-11331984D01*
X14518515Y-11512936D02*
X14528039Y-11522460D01*
X14528039Y-11522460D02*
X14518515Y-11531984D01*
X14518515Y-11531984D02*
X14508991Y-11522460D01*
X14508991Y-11522460D02*
X14518515Y-11512936D01*
X14518515Y-11512936D02*
X14518515Y-11531984D01*
X14651848Y-11331984D02*
X14670896Y-11331984D01*
X14670896Y-11331984D02*
X14689944Y-11341508D01*
X14689944Y-11341508D02*
X14699467Y-11351031D01*
X14699467Y-11351031D02*
X14708991Y-11370079D01*
X14708991Y-11370079D02*
X14718515Y-11408174D01*
X14718515Y-11408174D02*
X14718515Y-11455793D01*
X14718515Y-11455793D02*
X14708991Y-11493888D01*
X14708991Y-11493888D02*
X14699467Y-11512936D01*
X14699467Y-11512936D02*
X14689944Y-11522460D01*
X14689944Y-11522460D02*
X14670896Y-11531984D01*
X14670896Y-11531984D02*
X14651848Y-11531984D01*
X14651848Y-11531984D02*
X14632801Y-11522460D01*
X14632801Y-11522460D02*
X14623277Y-11512936D01*
X14623277Y-11512936D02*
X14613753Y-11493888D01*
X14613753Y-11493888D02*
X14604229Y-11455793D01*
X14604229Y-11455793D02*
X14604229Y-11408174D01*
X14604229Y-11408174D02*
X14613753Y-11370079D01*
X14613753Y-11370079D02*
X14623277Y-11351031D01*
X14623277Y-11351031D02*
X14632801Y-11341508D01*
X14632801Y-11341508D02*
X14651848Y-11331984D01*
X14794706Y-11351031D02*
X14804229Y-11341508D01*
X14804229Y-11341508D02*
X14823277Y-11331984D01*
X14823277Y-11331984D02*
X14870896Y-11331984D01*
X14870896Y-11331984D02*
X14889944Y-11341508D01*
X14889944Y-11341508D02*
X14899467Y-11351031D01*
X14899467Y-11351031D02*
X14908991Y-11370079D01*
X14908991Y-11370079D02*
X14908991Y-11389127D01*
X14908991Y-11389127D02*
X14899467Y-11417698D01*
X14899467Y-11417698D02*
X14785182Y-11531984D01*
X14785182Y-11531984D02*
X14908991Y-11531984D01*
X14975658Y-11331984D02*
X15099467Y-11331984D01*
X15099467Y-11331984D02*
X15032801Y-11408174D01*
X15032801Y-11408174D02*
X15061372Y-11408174D01*
X15061372Y-11408174D02*
X15080420Y-11417698D01*
X15080420Y-11417698D02*
X15089944Y-11427222D01*
X15089944Y-11427222D02*
X15099467Y-11446269D01*
X15099467Y-11446269D02*
X15099467Y-11493888D01*
X15099467Y-11493888D02*
X15089944Y-11512936D01*
X15089944Y-11512936D02*
X15080420Y-11522460D01*
X15080420Y-11522460D02*
X15061372Y-11531984D01*
X15061372Y-11531984D02*
X15004229Y-11531984D01*
X15004229Y-11531984D02*
X14985182Y-11522460D01*
X14985182Y-11522460D02*
X14975658Y-11512936D01*
X15270896Y-11331984D02*
X15232801Y-11331984D01*
X15232801Y-11331984D02*
X15213753Y-11341508D01*
X15213753Y-11341508D02*
X15204229Y-11351031D01*
X15204229Y-11351031D02*
X15185182Y-11379603D01*
X15185182Y-11379603D02*
X15175658Y-11417698D01*
X15175658Y-11417698D02*
X15175658Y-11493888D01*
X15175658Y-11493888D02*
X15185182Y-11512936D01*
X15185182Y-11512936D02*
X15194706Y-11522460D01*
X15194706Y-11522460D02*
X15213753Y-11531984D01*
X15213753Y-11531984D02*
X15251848Y-11531984D01*
X15251848Y-11531984D02*
X15270896Y-11522460D01*
X15270896Y-11522460D02*
X15280420Y-11512936D01*
X15280420Y-11512936D02*
X15289944Y-11493888D01*
X15289944Y-11493888D02*
X15289944Y-11446269D01*
X15289944Y-11446269D02*
X15280420Y-11427222D01*
X15280420Y-11427222D02*
X15270896Y-11417698D01*
X15270896Y-11417698D02*
X15251848Y-11408174D01*
X15251848Y-11408174D02*
X15213753Y-11408174D01*
X15213753Y-11408174D02*
X15194706Y-11417698D01*
X15194706Y-11417698D02*
X15185182Y-11427222D01*
X15185182Y-11427222D02*
X15175658Y-11446269D01*
X15366134Y-11331984D02*
X15366134Y-11370079D01*
X15442325Y-11331984D02*
X15442325Y-11370079D01*
X15737563Y-11608174D02*
X15728039Y-11598650D01*
X15728039Y-11598650D02*
X15708991Y-11570079D01*
X15708991Y-11570079D02*
X15699468Y-11551031D01*
X15699468Y-11551031D02*
X15689944Y-11522460D01*
X15689944Y-11522460D02*
X15680420Y-11474841D01*
X15680420Y-11474841D02*
X15680420Y-11436746D01*
X15680420Y-11436746D02*
X15689944Y-11389127D01*
X15689944Y-11389127D02*
X15699468Y-11360555D01*
X15699468Y-11360555D02*
X15708991Y-11341508D01*
X15708991Y-11341508D02*
X15728039Y-11312936D01*
X15728039Y-11312936D02*
X15737563Y-11303412D01*
X15851848Y-11331984D02*
X15870896Y-11331984D01*
X15870896Y-11331984D02*
X15889944Y-11341508D01*
X15889944Y-11341508D02*
X15899468Y-11351031D01*
X15899468Y-11351031D02*
X15908991Y-11370079D01*
X15908991Y-11370079D02*
X15918515Y-11408174D01*
X15918515Y-11408174D02*
X15918515Y-11455793D01*
X15918515Y-11455793D02*
X15908991Y-11493888D01*
X15908991Y-11493888D02*
X15899468Y-11512936D01*
X15899468Y-11512936D02*
X15889944Y-11522460D01*
X15889944Y-11522460D02*
X15870896Y-11531984D01*
X15870896Y-11531984D02*
X15851848Y-11531984D01*
X15851848Y-11531984D02*
X15832801Y-11522460D01*
X15832801Y-11522460D02*
X15823277Y-11512936D01*
X15823277Y-11512936D02*
X15813753Y-11493888D01*
X15813753Y-11493888D02*
X15804229Y-11455793D01*
X15804229Y-11455793D02*
X15804229Y-11408174D01*
X15804229Y-11408174D02*
X15813753Y-11370079D01*
X15813753Y-11370079D02*
X15823277Y-11351031D01*
X15823277Y-11351031D02*
X15832801Y-11341508D01*
X15832801Y-11341508D02*
X15851848Y-11331984D01*
X16156610Y-11531984D02*
X16156610Y-11331984D01*
X16242325Y-11531984D02*
X16242325Y-11427222D01*
X16242325Y-11427222D02*
X16232801Y-11408174D01*
X16232801Y-11408174D02*
X16213753Y-11398650D01*
X16213753Y-11398650D02*
X16185182Y-11398650D01*
X16185182Y-11398650D02*
X16166134Y-11408174D01*
X16166134Y-11408174D02*
X16156610Y-11417698D01*
X16366134Y-11531984D02*
X16347087Y-11522460D01*
X16347087Y-11522460D02*
X16337563Y-11512936D01*
X16337563Y-11512936D02*
X16328039Y-11493888D01*
X16328039Y-11493888D02*
X16328039Y-11436746D01*
X16328039Y-11436746D02*
X16337563Y-11417698D01*
X16337563Y-11417698D02*
X16347087Y-11408174D01*
X16347087Y-11408174D02*
X16366134Y-11398650D01*
X16366134Y-11398650D02*
X16394706Y-11398650D01*
X16394706Y-11398650D02*
X16413753Y-11408174D01*
X16413753Y-11408174D02*
X16423277Y-11417698D01*
X16423277Y-11417698D02*
X16432801Y-11436746D01*
X16432801Y-11436746D02*
X16432801Y-11493888D01*
X16432801Y-11493888D02*
X16423277Y-11512936D01*
X16423277Y-11512936D02*
X16413753Y-11522460D01*
X16413753Y-11522460D02*
X16394706Y-11531984D01*
X16394706Y-11531984D02*
X16366134Y-11531984D01*
X16547087Y-11531984D02*
X16528039Y-11522460D01*
X16528039Y-11522460D02*
X16518515Y-11503412D01*
X16518515Y-11503412D02*
X16518515Y-11331984D01*
X16699468Y-11522460D02*
X16680420Y-11531984D01*
X16680420Y-11531984D02*
X16642325Y-11531984D01*
X16642325Y-11531984D02*
X16623277Y-11522460D01*
X16623277Y-11522460D02*
X16613753Y-11503412D01*
X16613753Y-11503412D02*
X16613753Y-11427222D01*
X16613753Y-11427222D02*
X16623277Y-11408174D01*
X16623277Y-11408174D02*
X16642325Y-11398650D01*
X16642325Y-11398650D02*
X16680420Y-11398650D01*
X16680420Y-11398650D02*
X16699468Y-11408174D01*
X16699468Y-11408174D02*
X16708991Y-11427222D01*
X16708991Y-11427222D02*
X16708991Y-11446269D01*
X16708991Y-11446269D02*
X16613753Y-11465317D01*
X16785182Y-11522460D02*
X16804230Y-11531984D01*
X16804230Y-11531984D02*
X16842325Y-11531984D01*
X16842325Y-11531984D02*
X16861373Y-11522460D01*
X16861373Y-11522460D02*
X16870896Y-11503412D01*
X16870896Y-11503412D02*
X16870896Y-11493888D01*
X16870896Y-11493888D02*
X16861373Y-11474841D01*
X16861373Y-11474841D02*
X16842325Y-11465317D01*
X16842325Y-11465317D02*
X16813753Y-11465317D01*
X16813753Y-11465317D02*
X16794706Y-11455793D01*
X16794706Y-11455793D02*
X16785182Y-11436746D01*
X16785182Y-11436746D02*
X16785182Y-11427222D01*
X16785182Y-11427222D02*
X16794706Y-11408174D01*
X16794706Y-11408174D02*
X16813753Y-11398650D01*
X16813753Y-11398650D02*
X16842325Y-11398650D01*
X16842325Y-11398650D02*
X16861373Y-11408174D01*
X17108992Y-11455793D02*
X17261373Y-11455793D01*
X17185182Y-11531984D02*
X17185182Y-11379603D01*
X17499468Y-11351031D02*
X17508992Y-11341508D01*
X17508992Y-11341508D02*
X17528039Y-11331984D01*
X17528039Y-11331984D02*
X17575658Y-11331984D01*
X17575658Y-11331984D02*
X17594706Y-11341508D01*
X17594706Y-11341508D02*
X17604230Y-11351031D01*
X17604230Y-11351031D02*
X17613754Y-11370079D01*
X17613754Y-11370079D02*
X17613754Y-11389127D01*
X17613754Y-11389127D02*
X17604230Y-11417698D01*
X17604230Y-11417698D02*
X17489944Y-11531984D01*
X17489944Y-11531984D02*
X17613754Y-11531984D01*
X17842325Y-11522460D02*
X17861373Y-11531984D01*
X17861373Y-11531984D02*
X17899468Y-11531984D01*
X17899468Y-11531984D02*
X17918516Y-11522460D01*
X17918516Y-11522460D02*
X17928039Y-11503412D01*
X17928039Y-11503412D02*
X17928039Y-11493888D01*
X17928039Y-11493888D02*
X17918516Y-11474841D01*
X17918516Y-11474841D02*
X17899468Y-11465317D01*
X17899468Y-11465317D02*
X17870896Y-11465317D01*
X17870896Y-11465317D02*
X17851849Y-11455793D01*
X17851849Y-11455793D02*
X17842325Y-11436746D01*
X17842325Y-11436746D02*
X17842325Y-11427222D01*
X17842325Y-11427222D02*
X17851849Y-11408174D01*
X17851849Y-11408174D02*
X17870896Y-11398650D01*
X17870896Y-11398650D02*
X17899468Y-11398650D01*
X17899468Y-11398650D02*
X17918516Y-11408174D01*
X18042325Y-11531984D02*
X18023277Y-11522460D01*
X18023277Y-11522460D02*
X18013754Y-11503412D01*
X18013754Y-11503412D02*
X18013754Y-11331984D01*
X18147087Y-11531984D02*
X18128039Y-11522460D01*
X18128039Y-11522460D02*
X18118516Y-11512936D01*
X18118516Y-11512936D02*
X18108992Y-11493888D01*
X18108992Y-11493888D02*
X18108992Y-11436746D01*
X18108992Y-11436746D02*
X18118516Y-11417698D01*
X18118516Y-11417698D02*
X18128039Y-11408174D01*
X18128039Y-11408174D02*
X18147087Y-11398650D01*
X18147087Y-11398650D02*
X18175658Y-11398650D01*
X18175658Y-11398650D02*
X18194706Y-11408174D01*
X18194706Y-11408174D02*
X18204230Y-11417698D01*
X18204230Y-11417698D02*
X18213754Y-11436746D01*
X18213754Y-11436746D02*
X18213754Y-11493888D01*
X18213754Y-11493888D02*
X18204230Y-11512936D01*
X18204230Y-11512936D02*
X18194706Y-11522460D01*
X18194706Y-11522460D02*
X18175658Y-11531984D01*
X18175658Y-11531984D02*
X18147087Y-11531984D01*
X18270897Y-11398650D02*
X18347087Y-11398650D01*
X18299468Y-11331984D02*
X18299468Y-11503412D01*
X18299468Y-11503412D02*
X18308992Y-11522460D01*
X18308992Y-11522460D02*
X18328039Y-11531984D01*
X18328039Y-11531984D02*
X18347087Y-11531984D01*
X18404230Y-11522460D02*
X18423277Y-11531984D01*
X18423277Y-11531984D02*
X18461373Y-11531984D01*
X18461373Y-11531984D02*
X18480420Y-11522460D01*
X18480420Y-11522460D02*
X18489944Y-11503412D01*
X18489944Y-11503412D02*
X18489944Y-11493888D01*
X18489944Y-11493888D02*
X18480420Y-11474841D01*
X18480420Y-11474841D02*
X18461373Y-11465317D01*
X18461373Y-11465317D02*
X18432801Y-11465317D01*
X18432801Y-11465317D02*
X18413754Y-11455793D01*
X18413754Y-11455793D02*
X18404230Y-11436746D01*
X18404230Y-11436746D02*
X18404230Y-11427222D01*
X18404230Y-11427222D02*
X18413754Y-11408174D01*
X18413754Y-11408174D02*
X18432801Y-11398650D01*
X18432801Y-11398650D02*
X18461373Y-11398650D01*
X18461373Y-11398650D02*
X18480420Y-11408174D01*
X18556611Y-11608174D02*
X18566135Y-11598650D01*
X18566135Y-11598650D02*
X18585182Y-11570079D01*
X18585182Y-11570079D02*
X18594706Y-11551031D01*
X18594706Y-11551031D02*
X18604230Y-11522460D01*
X18604230Y-11522460D02*
X18613754Y-11474841D01*
X18613754Y-11474841D02*
X18613754Y-11436746D01*
X18613754Y-11436746D02*
X18604230Y-11389127D01*
X18604230Y-11389127D02*
X18594706Y-11360555D01*
X18594706Y-11360555D02*
X18585182Y-11341508D01*
X18585182Y-11341508D02*
X18566135Y-11312936D01*
X18566135Y-11312936D02*
X18556611Y-11303412D01*
D14*
X12150784Y-11732784D02*
X12150784Y-11676215D01*
X12094215Y-11676215D01*
X12094215Y-11732784D01*
X12150784Y-11732784D01*
D11*
X12461372Y-11595984D02*
X12480420Y-11595984D01*
X12480420Y-11595984D02*
X12499467Y-11605508D01*
X12499467Y-11605508D02*
X12508991Y-11615031D01*
X12508991Y-11615031D02*
X12518515Y-11634079D01*
X12518515Y-11634079D02*
X12528039Y-11672174D01*
X12528039Y-11672174D02*
X12528039Y-11719793D01*
X12528039Y-11719793D02*
X12518515Y-11757888D01*
X12518515Y-11757888D02*
X12508991Y-11776936D01*
X12508991Y-11776936D02*
X12499467Y-11786460D01*
X12499467Y-11786460D02*
X12480420Y-11795984D01*
X12480420Y-11795984D02*
X12461372Y-11795984D01*
X12461372Y-11795984D02*
X12442324Y-11786460D01*
X12442324Y-11786460D02*
X12432801Y-11776936D01*
X12432801Y-11776936D02*
X12423277Y-11757888D01*
X12423277Y-11757888D02*
X12413753Y-11719793D01*
X12413753Y-11719793D02*
X12413753Y-11672174D01*
X12413753Y-11672174D02*
X12423277Y-11634079D01*
X12423277Y-11634079D02*
X12432801Y-11615031D01*
X12432801Y-11615031D02*
X12442324Y-11605508D01*
X12442324Y-11605508D02*
X12461372Y-11595984D01*
X12613753Y-11776936D02*
X12623277Y-11786460D01*
X12623277Y-11786460D02*
X12613753Y-11795984D01*
X12613753Y-11795984D02*
X12604229Y-11786460D01*
X12604229Y-11786460D02*
X12613753Y-11776936D01*
X12613753Y-11776936D02*
X12613753Y-11795984D01*
X12737562Y-11681698D02*
X12718515Y-11672174D01*
X12718515Y-11672174D02*
X12708991Y-11662650D01*
X12708991Y-11662650D02*
X12699467Y-11643603D01*
X12699467Y-11643603D02*
X12699467Y-11634079D01*
X12699467Y-11634079D02*
X12708991Y-11615031D01*
X12708991Y-11615031D02*
X12718515Y-11605508D01*
X12718515Y-11605508D02*
X12737562Y-11595984D01*
X12737562Y-11595984D02*
X12775658Y-11595984D01*
X12775658Y-11595984D02*
X12794705Y-11605508D01*
X12794705Y-11605508D02*
X12804229Y-11615031D01*
X12804229Y-11615031D02*
X12813753Y-11634079D01*
X12813753Y-11634079D02*
X12813753Y-11643603D01*
X12813753Y-11643603D02*
X12804229Y-11662650D01*
X12804229Y-11662650D02*
X12794705Y-11672174D01*
X12794705Y-11672174D02*
X12775658Y-11681698D01*
X12775658Y-11681698D02*
X12737562Y-11681698D01*
X12737562Y-11681698D02*
X12718515Y-11691222D01*
X12718515Y-11691222D02*
X12708991Y-11700746D01*
X12708991Y-11700746D02*
X12699467Y-11719793D01*
X12699467Y-11719793D02*
X12699467Y-11757888D01*
X12699467Y-11757888D02*
X12708991Y-11776936D01*
X12708991Y-11776936D02*
X12718515Y-11786460D01*
X12718515Y-11786460D02*
X12737562Y-11795984D01*
X12737562Y-11795984D02*
X12775658Y-11795984D01*
X12775658Y-11795984D02*
X12794705Y-11786460D01*
X12794705Y-11786460D02*
X12804229Y-11776936D01*
X12804229Y-11776936D02*
X12813753Y-11757888D01*
X12813753Y-11757888D02*
X12813753Y-11719793D01*
X12813753Y-11719793D02*
X12804229Y-11700746D01*
X12804229Y-11700746D02*
X12794705Y-11691222D01*
X12794705Y-11691222D02*
X12775658Y-11681698D01*
X12937562Y-11595984D02*
X12956610Y-11595984D01*
X12956610Y-11595984D02*
X12975658Y-11605508D01*
X12975658Y-11605508D02*
X12985182Y-11615031D01*
X12985182Y-11615031D02*
X12994705Y-11634079D01*
X12994705Y-11634079D02*
X13004229Y-11672174D01*
X13004229Y-11672174D02*
X13004229Y-11719793D01*
X13004229Y-11719793D02*
X12994705Y-11757888D01*
X12994705Y-11757888D02*
X12985182Y-11776936D01*
X12985182Y-11776936D02*
X12975658Y-11786460D01*
X12975658Y-11786460D02*
X12956610Y-11795984D01*
X12956610Y-11795984D02*
X12937562Y-11795984D01*
X12937562Y-11795984D02*
X12918515Y-11786460D01*
X12918515Y-11786460D02*
X12908991Y-11776936D01*
X12908991Y-11776936D02*
X12899467Y-11757888D01*
X12899467Y-11757888D02*
X12889943Y-11719793D01*
X12889943Y-11719793D02*
X12889943Y-11672174D01*
X12889943Y-11672174D02*
X12899467Y-11634079D01*
X12899467Y-11634079D02*
X12908991Y-11615031D01*
X12908991Y-11615031D02*
X12918515Y-11605508D01*
X12918515Y-11605508D02*
X12937562Y-11595984D01*
X13128039Y-11595984D02*
X13147086Y-11595984D01*
X13147086Y-11595984D02*
X13166134Y-11605508D01*
X13166134Y-11605508D02*
X13175658Y-11615031D01*
X13175658Y-11615031D02*
X13185182Y-11634079D01*
X13185182Y-11634079D02*
X13194705Y-11672174D01*
X13194705Y-11672174D02*
X13194705Y-11719793D01*
X13194705Y-11719793D02*
X13185182Y-11757888D01*
X13185182Y-11757888D02*
X13175658Y-11776936D01*
X13175658Y-11776936D02*
X13166134Y-11786460D01*
X13166134Y-11786460D02*
X13147086Y-11795984D01*
X13147086Y-11795984D02*
X13128039Y-11795984D01*
X13128039Y-11795984D02*
X13108991Y-11786460D01*
X13108991Y-11786460D02*
X13099467Y-11776936D01*
X13099467Y-11776936D02*
X13089943Y-11757888D01*
X13089943Y-11757888D02*
X13080420Y-11719793D01*
X13080420Y-11719793D02*
X13080420Y-11672174D01*
X13080420Y-11672174D02*
X13089943Y-11634079D01*
X13089943Y-11634079D02*
X13099467Y-11615031D01*
X13099467Y-11615031D02*
X13108991Y-11605508D01*
X13108991Y-11605508D02*
X13128039Y-11595984D01*
X13280420Y-11795984D02*
X13280420Y-11662650D01*
X13280420Y-11681698D02*
X13289943Y-11672174D01*
X13289943Y-11672174D02*
X13308991Y-11662650D01*
X13308991Y-11662650D02*
X13337563Y-11662650D01*
X13337563Y-11662650D02*
X13356610Y-11672174D01*
X13356610Y-11672174D02*
X13366134Y-11691222D01*
X13366134Y-11691222D02*
X13366134Y-11795984D01*
X13366134Y-11691222D02*
X13375658Y-11672174D01*
X13375658Y-11672174D02*
X13394705Y-11662650D01*
X13394705Y-11662650D02*
X13423277Y-11662650D01*
X13423277Y-11662650D02*
X13442324Y-11672174D01*
X13442324Y-11672174D02*
X13451848Y-11691222D01*
X13451848Y-11691222D02*
X13451848Y-11795984D01*
X13547086Y-11795984D02*
X13547086Y-11662650D01*
X13547086Y-11681698D02*
X13556610Y-11672174D01*
X13556610Y-11672174D02*
X13575658Y-11662650D01*
X13575658Y-11662650D02*
X13604229Y-11662650D01*
X13604229Y-11662650D02*
X13623277Y-11672174D01*
X13623277Y-11672174D02*
X13632801Y-11691222D01*
X13632801Y-11691222D02*
X13632801Y-11795984D01*
X13632801Y-11691222D02*
X13642324Y-11672174D01*
X13642324Y-11672174D02*
X13661372Y-11662650D01*
X13661372Y-11662650D02*
X13689943Y-11662650D01*
X13689943Y-11662650D02*
X13708991Y-11672174D01*
X13708991Y-11672174D02*
X13718515Y-11691222D01*
X13718515Y-11691222D02*
X13718515Y-11795984D01*
X14108991Y-11586460D02*
X13937563Y-11843603D01*
X14366134Y-11595984D02*
X14385182Y-11595984D01*
X14385182Y-11595984D02*
X14404229Y-11605508D01*
X14404229Y-11605508D02*
X14413753Y-11615031D01*
X14413753Y-11615031D02*
X14423277Y-11634079D01*
X14423277Y-11634079D02*
X14432801Y-11672174D01*
X14432801Y-11672174D02*
X14432801Y-11719793D01*
X14432801Y-11719793D02*
X14423277Y-11757888D01*
X14423277Y-11757888D02*
X14413753Y-11776936D01*
X14413753Y-11776936D02*
X14404229Y-11786460D01*
X14404229Y-11786460D02*
X14385182Y-11795984D01*
X14385182Y-11795984D02*
X14366134Y-11795984D01*
X14366134Y-11795984D02*
X14347086Y-11786460D01*
X14347086Y-11786460D02*
X14337563Y-11776936D01*
X14337563Y-11776936D02*
X14328039Y-11757888D01*
X14328039Y-11757888D02*
X14318515Y-11719793D01*
X14318515Y-11719793D02*
X14318515Y-11672174D01*
X14318515Y-11672174D02*
X14328039Y-11634079D01*
X14328039Y-11634079D02*
X14337563Y-11615031D01*
X14337563Y-11615031D02*
X14347086Y-11605508D01*
X14347086Y-11605508D02*
X14366134Y-11595984D01*
X14518515Y-11776936D02*
X14528039Y-11786460D01*
X14528039Y-11786460D02*
X14518515Y-11795984D01*
X14518515Y-11795984D02*
X14508991Y-11786460D01*
X14508991Y-11786460D02*
X14518515Y-11776936D01*
X14518515Y-11776936D02*
X14518515Y-11795984D01*
X14651848Y-11595984D02*
X14670896Y-11595984D01*
X14670896Y-11595984D02*
X14689944Y-11605508D01*
X14689944Y-11605508D02*
X14699467Y-11615031D01*
X14699467Y-11615031D02*
X14708991Y-11634079D01*
X14708991Y-11634079D02*
X14718515Y-11672174D01*
X14718515Y-11672174D02*
X14718515Y-11719793D01*
X14718515Y-11719793D02*
X14708991Y-11757888D01*
X14708991Y-11757888D02*
X14699467Y-11776936D01*
X14699467Y-11776936D02*
X14689944Y-11786460D01*
X14689944Y-11786460D02*
X14670896Y-11795984D01*
X14670896Y-11795984D02*
X14651848Y-11795984D01*
X14651848Y-11795984D02*
X14632801Y-11786460D01*
X14632801Y-11786460D02*
X14623277Y-11776936D01*
X14623277Y-11776936D02*
X14613753Y-11757888D01*
X14613753Y-11757888D02*
X14604229Y-11719793D01*
X14604229Y-11719793D02*
X14604229Y-11672174D01*
X14604229Y-11672174D02*
X14613753Y-11634079D01*
X14613753Y-11634079D02*
X14623277Y-11615031D01*
X14623277Y-11615031D02*
X14632801Y-11605508D01*
X14632801Y-11605508D02*
X14651848Y-11595984D01*
X14785182Y-11595984D02*
X14908991Y-11595984D01*
X14908991Y-11595984D02*
X14842325Y-11672174D01*
X14842325Y-11672174D02*
X14870896Y-11672174D01*
X14870896Y-11672174D02*
X14889944Y-11681698D01*
X14889944Y-11681698D02*
X14899467Y-11691222D01*
X14899467Y-11691222D02*
X14908991Y-11710269D01*
X14908991Y-11710269D02*
X14908991Y-11757888D01*
X14908991Y-11757888D02*
X14899467Y-11776936D01*
X14899467Y-11776936D02*
X14889944Y-11786460D01*
X14889944Y-11786460D02*
X14870896Y-11795984D01*
X14870896Y-11795984D02*
X14813753Y-11795984D01*
X14813753Y-11795984D02*
X14794706Y-11786460D01*
X14794706Y-11786460D02*
X14785182Y-11776936D01*
X15099467Y-11795984D02*
X14985182Y-11795984D01*
X15042325Y-11795984D02*
X15042325Y-11595984D01*
X15042325Y-11595984D02*
X15023277Y-11624555D01*
X15023277Y-11624555D02*
X15004229Y-11643603D01*
X15004229Y-11643603D02*
X14985182Y-11653127D01*
X15280420Y-11595984D02*
X15185182Y-11595984D01*
X15185182Y-11595984D02*
X15175658Y-11691222D01*
X15175658Y-11691222D02*
X15185182Y-11681698D01*
X15185182Y-11681698D02*
X15204229Y-11672174D01*
X15204229Y-11672174D02*
X15251848Y-11672174D01*
X15251848Y-11672174D02*
X15270896Y-11681698D01*
X15270896Y-11681698D02*
X15280420Y-11691222D01*
X15280420Y-11691222D02*
X15289944Y-11710269D01*
X15289944Y-11710269D02*
X15289944Y-11757888D01*
X15289944Y-11757888D02*
X15280420Y-11776936D01*
X15280420Y-11776936D02*
X15270896Y-11786460D01*
X15270896Y-11786460D02*
X15251848Y-11795984D01*
X15251848Y-11795984D02*
X15204229Y-11795984D01*
X15204229Y-11795984D02*
X15185182Y-11786460D01*
X15185182Y-11786460D02*
X15175658Y-11776936D01*
X15366134Y-11595984D02*
X15366134Y-11634079D01*
X15442325Y-11595984D02*
X15442325Y-11634079D01*
X15737563Y-11872174D02*
X15728039Y-11862650D01*
X15728039Y-11862650D02*
X15708991Y-11834079D01*
X15708991Y-11834079D02*
X15699468Y-11815031D01*
X15699468Y-11815031D02*
X15689944Y-11786460D01*
X15689944Y-11786460D02*
X15680420Y-11738841D01*
X15680420Y-11738841D02*
X15680420Y-11700746D01*
X15680420Y-11700746D02*
X15689944Y-11653127D01*
X15689944Y-11653127D02*
X15699468Y-11624555D01*
X15699468Y-11624555D02*
X15708991Y-11605508D01*
X15708991Y-11605508D02*
X15728039Y-11576936D01*
X15728039Y-11576936D02*
X15737563Y-11567412D01*
X15804229Y-11615031D02*
X15813753Y-11605508D01*
X15813753Y-11605508D02*
X15832801Y-11595984D01*
X15832801Y-11595984D02*
X15880420Y-11595984D01*
X15880420Y-11595984D02*
X15899468Y-11605508D01*
X15899468Y-11605508D02*
X15908991Y-11615031D01*
X15908991Y-11615031D02*
X15918515Y-11634079D01*
X15918515Y-11634079D02*
X15918515Y-11653127D01*
X15918515Y-11653127D02*
X15908991Y-11681698D01*
X15908991Y-11681698D02*
X15794706Y-11795984D01*
X15794706Y-11795984D02*
X15918515Y-11795984D01*
X16156610Y-11795984D02*
X16156610Y-11595984D01*
X16242325Y-11795984D02*
X16242325Y-11691222D01*
X16242325Y-11691222D02*
X16232801Y-11672174D01*
X16232801Y-11672174D02*
X16213753Y-11662650D01*
X16213753Y-11662650D02*
X16185182Y-11662650D01*
X16185182Y-11662650D02*
X16166134Y-11672174D01*
X16166134Y-11672174D02*
X16156610Y-11681698D01*
X16366134Y-11795984D02*
X16347087Y-11786460D01*
X16347087Y-11786460D02*
X16337563Y-11776936D01*
X16337563Y-11776936D02*
X16328039Y-11757888D01*
X16328039Y-11757888D02*
X16328039Y-11700746D01*
X16328039Y-11700746D02*
X16337563Y-11681698D01*
X16337563Y-11681698D02*
X16347087Y-11672174D01*
X16347087Y-11672174D02*
X16366134Y-11662650D01*
X16366134Y-11662650D02*
X16394706Y-11662650D01*
X16394706Y-11662650D02*
X16413753Y-11672174D01*
X16413753Y-11672174D02*
X16423277Y-11681698D01*
X16423277Y-11681698D02*
X16432801Y-11700746D01*
X16432801Y-11700746D02*
X16432801Y-11757888D01*
X16432801Y-11757888D02*
X16423277Y-11776936D01*
X16423277Y-11776936D02*
X16413753Y-11786460D01*
X16413753Y-11786460D02*
X16394706Y-11795984D01*
X16394706Y-11795984D02*
X16366134Y-11795984D01*
X16547087Y-11795984D02*
X16528039Y-11786460D01*
X16528039Y-11786460D02*
X16518515Y-11767412D01*
X16518515Y-11767412D02*
X16518515Y-11595984D01*
X16699468Y-11786460D02*
X16680420Y-11795984D01*
X16680420Y-11795984D02*
X16642325Y-11795984D01*
X16642325Y-11795984D02*
X16623277Y-11786460D01*
X16623277Y-11786460D02*
X16613753Y-11767412D01*
X16613753Y-11767412D02*
X16613753Y-11691222D01*
X16613753Y-11691222D02*
X16623277Y-11672174D01*
X16623277Y-11672174D02*
X16642325Y-11662650D01*
X16642325Y-11662650D02*
X16680420Y-11662650D01*
X16680420Y-11662650D02*
X16699468Y-11672174D01*
X16699468Y-11672174D02*
X16708991Y-11691222D01*
X16708991Y-11691222D02*
X16708991Y-11710269D01*
X16708991Y-11710269D02*
X16613753Y-11729317D01*
X16785182Y-11786460D02*
X16804230Y-11795984D01*
X16804230Y-11795984D02*
X16842325Y-11795984D01*
X16842325Y-11795984D02*
X16861373Y-11786460D01*
X16861373Y-11786460D02*
X16870896Y-11767412D01*
X16870896Y-11767412D02*
X16870896Y-11757888D01*
X16870896Y-11757888D02*
X16861373Y-11738841D01*
X16861373Y-11738841D02*
X16842325Y-11729317D01*
X16842325Y-11729317D02*
X16813753Y-11729317D01*
X16813753Y-11729317D02*
X16794706Y-11719793D01*
X16794706Y-11719793D02*
X16785182Y-11700746D01*
X16785182Y-11700746D02*
X16785182Y-11691222D01*
X16785182Y-11691222D02*
X16794706Y-11672174D01*
X16794706Y-11672174D02*
X16813753Y-11662650D01*
X16813753Y-11662650D02*
X16842325Y-11662650D01*
X16842325Y-11662650D02*
X16861373Y-11672174D01*
X16937563Y-11872174D02*
X16947087Y-11862650D01*
X16947087Y-11862650D02*
X16966134Y-11834079D01*
X16966134Y-11834079D02*
X16975658Y-11815031D01*
X16975658Y-11815031D02*
X16985182Y-11786460D01*
X16985182Y-11786460D02*
X16994706Y-11738841D01*
X16994706Y-11738841D02*
X16994706Y-11700746D01*
X16994706Y-11700746D02*
X16985182Y-11653127D01*
X16985182Y-11653127D02*
X16975658Y-11624555D01*
X16975658Y-11624555D02*
X16966134Y-11605508D01*
X16966134Y-11605508D02*
X16947087Y-11576936D01*
X16947087Y-11576936D02*
X16937563Y-11567412D01*
D15*
X12120000Y-12011000D02*
X12162500Y-11968500D01*
X12120000Y-11926000D01*
X12077500Y-11968500D01*
X12120000Y-12011000D01*
D11*
X12461372Y-11859984D02*
X12480420Y-11859984D01*
X12480420Y-11859984D02*
X12499467Y-11869508D01*
X12499467Y-11869508D02*
X12508991Y-11879031D01*
X12508991Y-11879031D02*
X12518515Y-11898079D01*
X12518515Y-11898079D02*
X12528039Y-11936174D01*
X12528039Y-11936174D02*
X12528039Y-11983793D01*
X12528039Y-11983793D02*
X12518515Y-12021888D01*
X12518515Y-12021888D02*
X12508991Y-12040936D01*
X12508991Y-12040936D02*
X12499467Y-12050460D01*
X12499467Y-12050460D02*
X12480420Y-12059984D01*
X12480420Y-12059984D02*
X12461372Y-12059984D01*
X12461372Y-12059984D02*
X12442324Y-12050460D01*
X12442324Y-12050460D02*
X12432801Y-12040936D01*
X12432801Y-12040936D02*
X12423277Y-12021888D01*
X12423277Y-12021888D02*
X12413753Y-11983793D01*
X12413753Y-11983793D02*
X12413753Y-11936174D01*
X12413753Y-11936174D02*
X12423277Y-11898079D01*
X12423277Y-11898079D02*
X12432801Y-11879031D01*
X12432801Y-11879031D02*
X12442324Y-11869508D01*
X12442324Y-11869508D02*
X12461372Y-11859984D01*
X12613753Y-12040936D02*
X12623277Y-12050460D01*
X12623277Y-12050460D02*
X12613753Y-12059984D01*
X12613753Y-12059984D02*
X12604229Y-12050460D01*
X12604229Y-12050460D02*
X12613753Y-12040936D01*
X12613753Y-12040936D02*
X12613753Y-12059984D01*
X12737562Y-11945698D02*
X12718515Y-11936174D01*
X12718515Y-11936174D02*
X12708991Y-11926650D01*
X12708991Y-11926650D02*
X12699467Y-11907603D01*
X12699467Y-11907603D02*
X12699467Y-11898079D01*
X12699467Y-11898079D02*
X12708991Y-11879031D01*
X12708991Y-11879031D02*
X12718515Y-11869508D01*
X12718515Y-11869508D02*
X12737562Y-11859984D01*
X12737562Y-11859984D02*
X12775658Y-11859984D01*
X12775658Y-11859984D02*
X12794705Y-11869508D01*
X12794705Y-11869508D02*
X12804229Y-11879031D01*
X12804229Y-11879031D02*
X12813753Y-11898079D01*
X12813753Y-11898079D02*
X12813753Y-11907603D01*
X12813753Y-11907603D02*
X12804229Y-11926650D01*
X12804229Y-11926650D02*
X12794705Y-11936174D01*
X12794705Y-11936174D02*
X12775658Y-11945698D01*
X12775658Y-11945698D02*
X12737562Y-11945698D01*
X12737562Y-11945698D02*
X12718515Y-11955222D01*
X12718515Y-11955222D02*
X12708991Y-11964746D01*
X12708991Y-11964746D02*
X12699467Y-11983793D01*
X12699467Y-11983793D02*
X12699467Y-12021888D01*
X12699467Y-12021888D02*
X12708991Y-12040936D01*
X12708991Y-12040936D02*
X12718515Y-12050460D01*
X12718515Y-12050460D02*
X12737562Y-12059984D01*
X12737562Y-12059984D02*
X12775658Y-12059984D01*
X12775658Y-12059984D02*
X12794705Y-12050460D01*
X12794705Y-12050460D02*
X12804229Y-12040936D01*
X12804229Y-12040936D02*
X12813753Y-12021888D01*
X12813753Y-12021888D02*
X12813753Y-11983793D01*
X12813753Y-11983793D02*
X12804229Y-11964746D01*
X12804229Y-11964746D02*
X12794705Y-11955222D01*
X12794705Y-11955222D02*
X12775658Y-11945698D01*
X12994705Y-11859984D02*
X12899467Y-11859984D01*
X12899467Y-11859984D02*
X12889943Y-11955222D01*
X12889943Y-11955222D02*
X12899467Y-11945698D01*
X12899467Y-11945698D02*
X12918515Y-11936174D01*
X12918515Y-11936174D02*
X12966134Y-11936174D01*
X12966134Y-11936174D02*
X12985182Y-11945698D01*
X12985182Y-11945698D02*
X12994705Y-11955222D01*
X12994705Y-11955222D02*
X13004229Y-11974269D01*
X13004229Y-11974269D02*
X13004229Y-12021888D01*
X13004229Y-12021888D02*
X12994705Y-12040936D01*
X12994705Y-12040936D02*
X12985182Y-12050460D01*
X12985182Y-12050460D02*
X12966134Y-12059984D01*
X12966134Y-12059984D02*
X12918515Y-12059984D01*
X12918515Y-12059984D02*
X12899467Y-12050460D01*
X12899467Y-12050460D02*
X12889943Y-12040936D01*
X13128039Y-11859984D02*
X13147086Y-11859984D01*
X13147086Y-11859984D02*
X13166134Y-11869508D01*
X13166134Y-11869508D02*
X13175658Y-11879031D01*
X13175658Y-11879031D02*
X13185182Y-11898079D01*
X13185182Y-11898079D02*
X13194705Y-11936174D01*
X13194705Y-11936174D02*
X13194705Y-11983793D01*
X13194705Y-11983793D02*
X13185182Y-12021888D01*
X13185182Y-12021888D02*
X13175658Y-12040936D01*
X13175658Y-12040936D02*
X13166134Y-12050460D01*
X13166134Y-12050460D02*
X13147086Y-12059984D01*
X13147086Y-12059984D02*
X13128039Y-12059984D01*
X13128039Y-12059984D02*
X13108991Y-12050460D01*
X13108991Y-12050460D02*
X13099467Y-12040936D01*
X13099467Y-12040936D02*
X13089943Y-12021888D01*
X13089943Y-12021888D02*
X13080420Y-11983793D01*
X13080420Y-11983793D02*
X13080420Y-11936174D01*
X13080420Y-11936174D02*
X13089943Y-11898079D01*
X13089943Y-11898079D02*
X13099467Y-11879031D01*
X13099467Y-11879031D02*
X13108991Y-11869508D01*
X13108991Y-11869508D02*
X13128039Y-11859984D01*
X13280420Y-12059984D02*
X13280420Y-11926650D01*
X13280420Y-11945698D02*
X13289943Y-11936174D01*
X13289943Y-11936174D02*
X13308991Y-11926650D01*
X13308991Y-11926650D02*
X13337563Y-11926650D01*
X13337563Y-11926650D02*
X13356610Y-11936174D01*
X13356610Y-11936174D02*
X13366134Y-11955222D01*
X13366134Y-11955222D02*
X13366134Y-12059984D01*
X13366134Y-11955222D02*
X13375658Y-11936174D01*
X13375658Y-11936174D02*
X13394705Y-11926650D01*
X13394705Y-11926650D02*
X13423277Y-11926650D01*
X13423277Y-11926650D02*
X13442324Y-11936174D01*
X13442324Y-11936174D02*
X13451848Y-11955222D01*
X13451848Y-11955222D02*
X13451848Y-12059984D01*
X13547086Y-12059984D02*
X13547086Y-11926650D01*
X13547086Y-11945698D02*
X13556610Y-11936174D01*
X13556610Y-11936174D02*
X13575658Y-11926650D01*
X13575658Y-11926650D02*
X13604229Y-11926650D01*
X13604229Y-11926650D02*
X13623277Y-11936174D01*
X13623277Y-11936174D02*
X13632801Y-11955222D01*
X13632801Y-11955222D02*
X13632801Y-12059984D01*
X13632801Y-11955222D02*
X13642324Y-11936174D01*
X13642324Y-11936174D02*
X13661372Y-11926650D01*
X13661372Y-11926650D02*
X13689943Y-11926650D01*
X13689943Y-11926650D02*
X13708991Y-11936174D01*
X13708991Y-11936174D02*
X13718515Y-11955222D01*
X13718515Y-11955222D02*
X13718515Y-12059984D01*
X14108991Y-11850460D02*
X13937563Y-12107603D01*
X14366134Y-11859984D02*
X14385182Y-11859984D01*
X14385182Y-11859984D02*
X14404229Y-11869508D01*
X14404229Y-11869508D02*
X14413753Y-11879031D01*
X14413753Y-11879031D02*
X14423277Y-11898079D01*
X14423277Y-11898079D02*
X14432801Y-11936174D01*
X14432801Y-11936174D02*
X14432801Y-11983793D01*
X14432801Y-11983793D02*
X14423277Y-12021888D01*
X14423277Y-12021888D02*
X14413753Y-12040936D01*
X14413753Y-12040936D02*
X14404229Y-12050460D01*
X14404229Y-12050460D02*
X14385182Y-12059984D01*
X14385182Y-12059984D02*
X14366134Y-12059984D01*
X14366134Y-12059984D02*
X14347086Y-12050460D01*
X14347086Y-12050460D02*
X14337563Y-12040936D01*
X14337563Y-12040936D02*
X14328039Y-12021888D01*
X14328039Y-12021888D02*
X14318515Y-11983793D01*
X14318515Y-11983793D02*
X14318515Y-11936174D01*
X14318515Y-11936174D02*
X14328039Y-11898079D01*
X14328039Y-11898079D02*
X14337563Y-11879031D01*
X14337563Y-11879031D02*
X14347086Y-11869508D01*
X14347086Y-11869508D02*
X14366134Y-11859984D01*
X14518515Y-12040936D02*
X14528039Y-12050460D01*
X14528039Y-12050460D02*
X14518515Y-12059984D01*
X14518515Y-12059984D02*
X14508991Y-12050460D01*
X14508991Y-12050460D02*
X14518515Y-12040936D01*
X14518515Y-12040936D02*
X14518515Y-12059984D01*
X14651848Y-11859984D02*
X14670896Y-11859984D01*
X14670896Y-11859984D02*
X14689944Y-11869508D01*
X14689944Y-11869508D02*
X14699467Y-11879031D01*
X14699467Y-11879031D02*
X14708991Y-11898079D01*
X14708991Y-11898079D02*
X14718515Y-11936174D01*
X14718515Y-11936174D02*
X14718515Y-11983793D01*
X14718515Y-11983793D02*
X14708991Y-12021888D01*
X14708991Y-12021888D02*
X14699467Y-12040936D01*
X14699467Y-12040936D02*
X14689944Y-12050460D01*
X14689944Y-12050460D02*
X14670896Y-12059984D01*
X14670896Y-12059984D02*
X14651848Y-12059984D01*
X14651848Y-12059984D02*
X14632801Y-12050460D01*
X14632801Y-12050460D02*
X14623277Y-12040936D01*
X14623277Y-12040936D02*
X14613753Y-12021888D01*
X14613753Y-12021888D02*
X14604229Y-11983793D01*
X14604229Y-11983793D02*
X14604229Y-11936174D01*
X14604229Y-11936174D02*
X14613753Y-11898079D01*
X14613753Y-11898079D02*
X14623277Y-11879031D01*
X14623277Y-11879031D02*
X14632801Y-11869508D01*
X14632801Y-11869508D02*
X14651848Y-11859984D01*
X14785182Y-11859984D02*
X14908991Y-11859984D01*
X14908991Y-11859984D02*
X14842325Y-11936174D01*
X14842325Y-11936174D02*
X14870896Y-11936174D01*
X14870896Y-11936174D02*
X14889944Y-11945698D01*
X14889944Y-11945698D02*
X14899467Y-11955222D01*
X14899467Y-11955222D02*
X14908991Y-11974269D01*
X14908991Y-11974269D02*
X14908991Y-12021888D01*
X14908991Y-12021888D02*
X14899467Y-12040936D01*
X14899467Y-12040936D02*
X14889944Y-12050460D01*
X14889944Y-12050460D02*
X14870896Y-12059984D01*
X14870896Y-12059984D02*
X14813753Y-12059984D01*
X14813753Y-12059984D02*
X14794706Y-12050460D01*
X14794706Y-12050460D02*
X14785182Y-12040936D01*
X14975658Y-11859984D02*
X15099467Y-11859984D01*
X15099467Y-11859984D02*
X15032801Y-11936174D01*
X15032801Y-11936174D02*
X15061372Y-11936174D01*
X15061372Y-11936174D02*
X15080420Y-11945698D01*
X15080420Y-11945698D02*
X15089944Y-11955222D01*
X15089944Y-11955222D02*
X15099467Y-11974269D01*
X15099467Y-11974269D02*
X15099467Y-12021888D01*
X15099467Y-12021888D02*
X15089944Y-12040936D01*
X15089944Y-12040936D02*
X15080420Y-12050460D01*
X15080420Y-12050460D02*
X15061372Y-12059984D01*
X15061372Y-12059984D02*
X15004229Y-12059984D01*
X15004229Y-12059984D02*
X14985182Y-12050460D01*
X14985182Y-12050460D02*
X14975658Y-12040936D01*
X15280420Y-11859984D02*
X15185182Y-11859984D01*
X15185182Y-11859984D02*
X15175658Y-11955222D01*
X15175658Y-11955222D02*
X15185182Y-11945698D01*
X15185182Y-11945698D02*
X15204229Y-11936174D01*
X15204229Y-11936174D02*
X15251848Y-11936174D01*
X15251848Y-11936174D02*
X15270896Y-11945698D01*
X15270896Y-11945698D02*
X15280420Y-11955222D01*
X15280420Y-11955222D02*
X15289944Y-11974269D01*
X15289944Y-11974269D02*
X15289944Y-12021888D01*
X15289944Y-12021888D02*
X15280420Y-12040936D01*
X15280420Y-12040936D02*
X15270896Y-12050460D01*
X15270896Y-12050460D02*
X15251848Y-12059984D01*
X15251848Y-12059984D02*
X15204229Y-12059984D01*
X15204229Y-12059984D02*
X15185182Y-12050460D01*
X15185182Y-12050460D02*
X15175658Y-12040936D01*
X15366134Y-11859984D02*
X15366134Y-11898079D01*
X15442325Y-11859984D02*
X15442325Y-11898079D01*
X15737563Y-12136174D02*
X15728039Y-12126650D01*
X15728039Y-12126650D02*
X15708991Y-12098079D01*
X15708991Y-12098079D02*
X15699468Y-12079031D01*
X15699468Y-12079031D02*
X15689944Y-12050460D01*
X15689944Y-12050460D02*
X15680420Y-12002841D01*
X15680420Y-12002841D02*
X15680420Y-11964746D01*
X15680420Y-11964746D02*
X15689944Y-11917127D01*
X15689944Y-11917127D02*
X15699468Y-11888555D01*
X15699468Y-11888555D02*
X15708991Y-11869508D01*
X15708991Y-11869508D02*
X15728039Y-11840936D01*
X15728039Y-11840936D02*
X15737563Y-11831412D01*
X15804229Y-11879031D02*
X15813753Y-11869508D01*
X15813753Y-11869508D02*
X15832801Y-11859984D01*
X15832801Y-11859984D02*
X15880420Y-11859984D01*
X15880420Y-11859984D02*
X15899468Y-11869508D01*
X15899468Y-11869508D02*
X15908991Y-11879031D01*
X15908991Y-11879031D02*
X15918515Y-11898079D01*
X15918515Y-11898079D02*
X15918515Y-11917127D01*
X15918515Y-11917127D02*
X15908991Y-11945698D01*
X15908991Y-11945698D02*
X15794706Y-12059984D01*
X15794706Y-12059984D02*
X15918515Y-12059984D01*
X16156610Y-12059984D02*
X16156610Y-11859984D01*
X16242325Y-12059984D02*
X16242325Y-11955222D01*
X16242325Y-11955222D02*
X16232801Y-11936174D01*
X16232801Y-11936174D02*
X16213753Y-11926650D01*
X16213753Y-11926650D02*
X16185182Y-11926650D01*
X16185182Y-11926650D02*
X16166134Y-11936174D01*
X16166134Y-11936174D02*
X16156610Y-11945698D01*
X16366134Y-12059984D02*
X16347087Y-12050460D01*
X16347087Y-12050460D02*
X16337563Y-12040936D01*
X16337563Y-12040936D02*
X16328039Y-12021888D01*
X16328039Y-12021888D02*
X16328039Y-11964746D01*
X16328039Y-11964746D02*
X16337563Y-11945698D01*
X16337563Y-11945698D02*
X16347087Y-11936174D01*
X16347087Y-11936174D02*
X16366134Y-11926650D01*
X16366134Y-11926650D02*
X16394706Y-11926650D01*
X16394706Y-11926650D02*
X16413753Y-11936174D01*
X16413753Y-11936174D02*
X16423277Y-11945698D01*
X16423277Y-11945698D02*
X16432801Y-11964746D01*
X16432801Y-11964746D02*
X16432801Y-12021888D01*
X16432801Y-12021888D02*
X16423277Y-12040936D01*
X16423277Y-12040936D02*
X16413753Y-12050460D01*
X16413753Y-12050460D02*
X16394706Y-12059984D01*
X16394706Y-12059984D02*
X16366134Y-12059984D01*
X16547087Y-12059984D02*
X16528039Y-12050460D01*
X16528039Y-12050460D02*
X16518515Y-12031412D01*
X16518515Y-12031412D02*
X16518515Y-11859984D01*
X16699468Y-12050460D02*
X16680420Y-12059984D01*
X16680420Y-12059984D02*
X16642325Y-12059984D01*
X16642325Y-12059984D02*
X16623277Y-12050460D01*
X16623277Y-12050460D02*
X16613753Y-12031412D01*
X16613753Y-12031412D02*
X16613753Y-11955222D01*
X16613753Y-11955222D02*
X16623277Y-11936174D01*
X16623277Y-11936174D02*
X16642325Y-11926650D01*
X16642325Y-11926650D02*
X16680420Y-11926650D01*
X16680420Y-11926650D02*
X16699468Y-11936174D01*
X16699468Y-11936174D02*
X16708991Y-11955222D01*
X16708991Y-11955222D02*
X16708991Y-11974269D01*
X16708991Y-11974269D02*
X16613753Y-11993317D01*
X16785182Y-12050460D02*
X16804230Y-12059984D01*
X16804230Y-12059984D02*
X16842325Y-12059984D01*
X16842325Y-12059984D02*
X16861373Y-12050460D01*
X16861373Y-12050460D02*
X16870896Y-12031412D01*
X16870896Y-12031412D02*
X16870896Y-12021888D01*
X16870896Y-12021888D02*
X16861373Y-12002841D01*
X16861373Y-12002841D02*
X16842325Y-11993317D01*
X16842325Y-11993317D02*
X16813753Y-11993317D01*
X16813753Y-11993317D02*
X16794706Y-11983793D01*
X16794706Y-11983793D02*
X16785182Y-11964746D01*
X16785182Y-11964746D02*
X16785182Y-11955222D01*
X16785182Y-11955222D02*
X16794706Y-11936174D01*
X16794706Y-11936174D02*
X16813753Y-11926650D01*
X16813753Y-11926650D02*
X16842325Y-11926650D01*
X16842325Y-11926650D02*
X16861373Y-11936174D01*
X16937563Y-12136174D02*
X16947087Y-12126650D01*
X16947087Y-12126650D02*
X16966134Y-12098079D01*
X16966134Y-12098079D02*
X16975658Y-12079031D01*
X16975658Y-12079031D02*
X16985182Y-12050460D01*
X16985182Y-12050460D02*
X16994706Y-12002841D01*
X16994706Y-12002841D02*
X16994706Y-11964746D01*
X16994706Y-11964746D02*
X16985182Y-11917127D01*
X16985182Y-11917127D02*
X16975658Y-11888555D01*
X16975658Y-11888555D02*
X16966134Y-11869508D01*
X16966134Y-11869508D02*
X16947087Y-11840936D01*
X16947087Y-11840936D02*
X16937563Y-11831412D01*
D16*
X12062500Y-12182500D02*
X12162500Y-12282500D01*
X12162500Y-12182500D02*
X12062500Y-12282500D01*
X12162500Y-12232500D02*
G75*
G03*
X12162500Y-12232500I-50000J0D01*
G01*
D11*
X12528039Y-12323984D02*
X12413753Y-12323984D01*
X12470896Y-12323984D02*
X12470896Y-12123984D01*
X12470896Y-12123984D02*
X12451848Y-12152555D01*
X12451848Y-12152555D02*
X12432801Y-12171603D01*
X12432801Y-12171603D02*
X12413753Y-12181127D01*
X12613753Y-12304936D02*
X12623277Y-12314460D01*
X12623277Y-12314460D02*
X12613753Y-12323984D01*
X12613753Y-12323984D02*
X12604229Y-12314460D01*
X12604229Y-12314460D02*
X12613753Y-12304936D01*
X12613753Y-12304936D02*
X12613753Y-12323984D01*
X12747086Y-12123984D02*
X12766134Y-12123984D01*
X12766134Y-12123984D02*
X12785182Y-12133508D01*
X12785182Y-12133508D02*
X12794705Y-12143031D01*
X12794705Y-12143031D02*
X12804229Y-12162079D01*
X12804229Y-12162079D02*
X12813753Y-12200174D01*
X12813753Y-12200174D02*
X12813753Y-12247793D01*
X12813753Y-12247793D02*
X12804229Y-12285888D01*
X12804229Y-12285888D02*
X12794705Y-12304936D01*
X12794705Y-12304936D02*
X12785182Y-12314460D01*
X12785182Y-12314460D02*
X12766134Y-12323984D01*
X12766134Y-12323984D02*
X12747086Y-12323984D01*
X12747086Y-12323984D02*
X12728039Y-12314460D01*
X12728039Y-12314460D02*
X12718515Y-12304936D01*
X12718515Y-12304936D02*
X12708991Y-12285888D01*
X12708991Y-12285888D02*
X12699467Y-12247793D01*
X12699467Y-12247793D02*
X12699467Y-12200174D01*
X12699467Y-12200174D02*
X12708991Y-12162079D01*
X12708991Y-12162079D02*
X12718515Y-12143031D01*
X12718515Y-12143031D02*
X12728039Y-12133508D01*
X12728039Y-12133508D02*
X12747086Y-12123984D01*
X12937562Y-12123984D02*
X12956610Y-12123984D01*
X12956610Y-12123984D02*
X12975658Y-12133508D01*
X12975658Y-12133508D02*
X12985182Y-12143031D01*
X12985182Y-12143031D02*
X12994705Y-12162079D01*
X12994705Y-12162079D02*
X13004229Y-12200174D01*
X13004229Y-12200174D02*
X13004229Y-12247793D01*
X13004229Y-12247793D02*
X12994705Y-12285888D01*
X12994705Y-12285888D02*
X12985182Y-12304936D01*
X12985182Y-12304936D02*
X12975658Y-12314460D01*
X12975658Y-12314460D02*
X12956610Y-12323984D01*
X12956610Y-12323984D02*
X12937562Y-12323984D01*
X12937562Y-12323984D02*
X12918515Y-12314460D01*
X12918515Y-12314460D02*
X12908991Y-12304936D01*
X12908991Y-12304936D02*
X12899467Y-12285888D01*
X12899467Y-12285888D02*
X12889943Y-12247793D01*
X12889943Y-12247793D02*
X12889943Y-12200174D01*
X12889943Y-12200174D02*
X12899467Y-12162079D01*
X12899467Y-12162079D02*
X12908991Y-12143031D01*
X12908991Y-12143031D02*
X12918515Y-12133508D01*
X12918515Y-12133508D02*
X12937562Y-12123984D01*
X13128039Y-12123984D02*
X13147086Y-12123984D01*
X13147086Y-12123984D02*
X13166134Y-12133508D01*
X13166134Y-12133508D02*
X13175658Y-12143031D01*
X13175658Y-12143031D02*
X13185182Y-12162079D01*
X13185182Y-12162079D02*
X13194705Y-12200174D01*
X13194705Y-12200174D02*
X13194705Y-12247793D01*
X13194705Y-12247793D02*
X13185182Y-12285888D01*
X13185182Y-12285888D02*
X13175658Y-12304936D01*
X13175658Y-12304936D02*
X13166134Y-12314460D01*
X13166134Y-12314460D02*
X13147086Y-12323984D01*
X13147086Y-12323984D02*
X13128039Y-12323984D01*
X13128039Y-12323984D02*
X13108991Y-12314460D01*
X13108991Y-12314460D02*
X13099467Y-12304936D01*
X13099467Y-12304936D02*
X13089943Y-12285888D01*
X13089943Y-12285888D02*
X13080420Y-12247793D01*
X13080420Y-12247793D02*
X13080420Y-12200174D01*
X13080420Y-12200174D02*
X13089943Y-12162079D01*
X13089943Y-12162079D02*
X13099467Y-12143031D01*
X13099467Y-12143031D02*
X13108991Y-12133508D01*
X13108991Y-12133508D02*
X13128039Y-12123984D01*
X13280420Y-12323984D02*
X13280420Y-12190650D01*
X13280420Y-12209698D02*
X13289943Y-12200174D01*
X13289943Y-12200174D02*
X13308991Y-12190650D01*
X13308991Y-12190650D02*
X13337563Y-12190650D01*
X13337563Y-12190650D02*
X13356610Y-12200174D01*
X13356610Y-12200174D02*
X13366134Y-12219222D01*
X13366134Y-12219222D02*
X13366134Y-12323984D01*
X13366134Y-12219222D02*
X13375658Y-12200174D01*
X13375658Y-12200174D02*
X13394705Y-12190650D01*
X13394705Y-12190650D02*
X13423277Y-12190650D01*
X13423277Y-12190650D02*
X13442324Y-12200174D01*
X13442324Y-12200174D02*
X13451848Y-12219222D01*
X13451848Y-12219222D02*
X13451848Y-12323984D01*
X13547086Y-12323984D02*
X13547086Y-12190650D01*
X13547086Y-12209698D02*
X13556610Y-12200174D01*
X13556610Y-12200174D02*
X13575658Y-12190650D01*
X13575658Y-12190650D02*
X13604229Y-12190650D01*
X13604229Y-12190650D02*
X13623277Y-12200174D01*
X13623277Y-12200174D02*
X13632801Y-12219222D01*
X13632801Y-12219222D02*
X13632801Y-12323984D01*
X13632801Y-12219222D02*
X13642324Y-12200174D01*
X13642324Y-12200174D02*
X13661372Y-12190650D01*
X13661372Y-12190650D02*
X13689943Y-12190650D01*
X13689943Y-12190650D02*
X13708991Y-12200174D01*
X13708991Y-12200174D02*
X13718515Y-12219222D01*
X13718515Y-12219222D02*
X13718515Y-12323984D01*
X14108991Y-12114460D02*
X13937563Y-12371603D01*
X14366134Y-12123984D02*
X14385182Y-12123984D01*
X14385182Y-12123984D02*
X14404229Y-12133508D01*
X14404229Y-12133508D02*
X14413753Y-12143031D01*
X14413753Y-12143031D02*
X14423277Y-12162079D01*
X14423277Y-12162079D02*
X14432801Y-12200174D01*
X14432801Y-12200174D02*
X14432801Y-12247793D01*
X14432801Y-12247793D02*
X14423277Y-12285888D01*
X14423277Y-12285888D02*
X14413753Y-12304936D01*
X14413753Y-12304936D02*
X14404229Y-12314460D01*
X14404229Y-12314460D02*
X14385182Y-12323984D01*
X14385182Y-12323984D02*
X14366134Y-12323984D01*
X14366134Y-12323984D02*
X14347086Y-12314460D01*
X14347086Y-12314460D02*
X14337563Y-12304936D01*
X14337563Y-12304936D02*
X14328039Y-12285888D01*
X14328039Y-12285888D02*
X14318515Y-12247793D01*
X14318515Y-12247793D02*
X14318515Y-12200174D01*
X14318515Y-12200174D02*
X14328039Y-12162079D01*
X14328039Y-12162079D02*
X14337563Y-12143031D01*
X14337563Y-12143031D02*
X14347086Y-12133508D01*
X14347086Y-12133508D02*
X14366134Y-12123984D01*
X14518515Y-12304936D02*
X14528039Y-12314460D01*
X14528039Y-12314460D02*
X14518515Y-12323984D01*
X14518515Y-12323984D02*
X14508991Y-12314460D01*
X14508991Y-12314460D02*
X14518515Y-12304936D01*
X14518515Y-12304936D02*
X14518515Y-12323984D01*
X14651848Y-12123984D02*
X14670896Y-12123984D01*
X14670896Y-12123984D02*
X14689944Y-12133508D01*
X14689944Y-12133508D02*
X14699467Y-12143031D01*
X14699467Y-12143031D02*
X14708991Y-12162079D01*
X14708991Y-12162079D02*
X14718515Y-12200174D01*
X14718515Y-12200174D02*
X14718515Y-12247793D01*
X14718515Y-12247793D02*
X14708991Y-12285888D01*
X14708991Y-12285888D02*
X14699467Y-12304936D01*
X14699467Y-12304936D02*
X14689944Y-12314460D01*
X14689944Y-12314460D02*
X14670896Y-12323984D01*
X14670896Y-12323984D02*
X14651848Y-12323984D01*
X14651848Y-12323984D02*
X14632801Y-12314460D01*
X14632801Y-12314460D02*
X14623277Y-12304936D01*
X14623277Y-12304936D02*
X14613753Y-12285888D01*
X14613753Y-12285888D02*
X14604229Y-12247793D01*
X14604229Y-12247793D02*
X14604229Y-12200174D01*
X14604229Y-12200174D02*
X14613753Y-12162079D01*
X14613753Y-12162079D02*
X14623277Y-12143031D01*
X14623277Y-12143031D02*
X14632801Y-12133508D01*
X14632801Y-12133508D02*
X14651848Y-12123984D01*
X14785182Y-12123984D02*
X14908991Y-12123984D01*
X14908991Y-12123984D02*
X14842325Y-12200174D01*
X14842325Y-12200174D02*
X14870896Y-12200174D01*
X14870896Y-12200174D02*
X14889944Y-12209698D01*
X14889944Y-12209698D02*
X14899467Y-12219222D01*
X14899467Y-12219222D02*
X14908991Y-12238269D01*
X14908991Y-12238269D02*
X14908991Y-12285888D01*
X14908991Y-12285888D02*
X14899467Y-12304936D01*
X14899467Y-12304936D02*
X14889944Y-12314460D01*
X14889944Y-12314460D02*
X14870896Y-12323984D01*
X14870896Y-12323984D02*
X14813753Y-12323984D01*
X14813753Y-12323984D02*
X14794706Y-12314460D01*
X14794706Y-12314460D02*
X14785182Y-12304936D01*
X15004229Y-12323984D02*
X15042325Y-12323984D01*
X15042325Y-12323984D02*
X15061372Y-12314460D01*
X15061372Y-12314460D02*
X15070896Y-12304936D01*
X15070896Y-12304936D02*
X15089944Y-12276365D01*
X15089944Y-12276365D02*
X15099467Y-12238269D01*
X15099467Y-12238269D02*
X15099467Y-12162079D01*
X15099467Y-12162079D02*
X15089944Y-12143031D01*
X15089944Y-12143031D02*
X15080420Y-12133508D01*
X15080420Y-12133508D02*
X15061372Y-12123984D01*
X15061372Y-12123984D02*
X15023277Y-12123984D01*
X15023277Y-12123984D02*
X15004229Y-12133508D01*
X15004229Y-12133508D02*
X14994706Y-12143031D01*
X14994706Y-12143031D02*
X14985182Y-12162079D01*
X14985182Y-12162079D02*
X14985182Y-12209698D01*
X14985182Y-12209698D02*
X14994706Y-12228746D01*
X14994706Y-12228746D02*
X15004229Y-12238269D01*
X15004229Y-12238269D02*
X15023277Y-12247793D01*
X15023277Y-12247793D02*
X15061372Y-12247793D01*
X15061372Y-12247793D02*
X15080420Y-12238269D01*
X15080420Y-12238269D02*
X15089944Y-12228746D01*
X15089944Y-12228746D02*
X15099467Y-12209698D01*
X15270896Y-12190650D02*
X15270896Y-12323984D01*
X15223277Y-12114460D02*
X15175658Y-12257317D01*
X15175658Y-12257317D02*
X15299467Y-12257317D01*
X15366134Y-12123984D02*
X15366134Y-12162079D01*
X15442325Y-12123984D02*
X15442325Y-12162079D01*
X15737563Y-12400174D02*
X15728039Y-12390650D01*
X15728039Y-12390650D02*
X15708991Y-12362079D01*
X15708991Y-12362079D02*
X15699468Y-12343031D01*
X15699468Y-12343031D02*
X15689944Y-12314460D01*
X15689944Y-12314460D02*
X15680420Y-12266841D01*
X15680420Y-12266841D02*
X15680420Y-12228746D01*
X15680420Y-12228746D02*
X15689944Y-12181127D01*
X15689944Y-12181127D02*
X15699468Y-12152555D01*
X15699468Y-12152555D02*
X15708991Y-12133508D01*
X15708991Y-12133508D02*
X15728039Y-12104936D01*
X15728039Y-12104936D02*
X15737563Y-12095412D01*
X15794706Y-12123984D02*
X15918515Y-12123984D01*
X15918515Y-12123984D02*
X15851848Y-12200174D01*
X15851848Y-12200174D02*
X15880420Y-12200174D01*
X15880420Y-12200174D02*
X15899468Y-12209698D01*
X15899468Y-12209698D02*
X15908991Y-12219222D01*
X15908991Y-12219222D02*
X15918515Y-12238269D01*
X15918515Y-12238269D02*
X15918515Y-12285888D01*
X15918515Y-12285888D02*
X15908991Y-12304936D01*
X15908991Y-12304936D02*
X15899468Y-12314460D01*
X15899468Y-12314460D02*
X15880420Y-12323984D01*
X15880420Y-12323984D02*
X15823277Y-12323984D01*
X15823277Y-12323984D02*
X15804229Y-12314460D01*
X15804229Y-12314460D02*
X15794706Y-12304936D01*
X15994706Y-12143031D02*
X16004229Y-12133508D01*
X16004229Y-12133508D02*
X16023277Y-12123984D01*
X16023277Y-12123984D02*
X16070896Y-12123984D01*
X16070896Y-12123984D02*
X16089944Y-12133508D01*
X16089944Y-12133508D02*
X16099468Y-12143031D01*
X16099468Y-12143031D02*
X16108991Y-12162079D01*
X16108991Y-12162079D02*
X16108991Y-12181127D01*
X16108991Y-12181127D02*
X16099468Y-12209698D01*
X16099468Y-12209698D02*
X15985182Y-12323984D01*
X15985182Y-12323984D02*
X16108991Y-12323984D01*
X16347087Y-12323984D02*
X16347087Y-12123984D01*
X16432801Y-12323984D02*
X16432801Y-12219222D01*
X16432801Y-12219222D02*
X16423277Y-12200174D01*
X16423277Y-12200174D02*
X16404230Y-12190650D01*
X16404230Y-12190650D02*
X16375658Y-12190650D01*
X16375658Y-12190650D02*
X16356610Y-12200174D01*
X16356610Y-12200174D02*
X16347087Y-12209698D01*
X16556610Y-12323984D02*
X16537563Y-12314460D01*
X16537563Y-12314460D02*
X16528039Y-12304936D01*
X16528039Y-12304936D02*
X16518515Y-12285888D01*
X16518515Y-12285888D02*
X16518515Y-12228746D01*
X16518515Y-12228746D02*
X16528039Y-12209698D01*
X16528039Y-12209698D02*
X16537563Y-12200174D01*
X16537563Y-12200174D02*
X16556610Y-12190650D01*
X16556610Y-12190650D02*
X16585182Y-12190650D01*
X16585182Y-12190650D02*
X16604230Y-12200174D01*
X16604230Y-12200174D02*
X16613753Y-12209698D01*
X16613753Y-12209698D02*
X16623277Y-12228746D01*
X16623277Y-12228746D02*
X16623277Y-12285888D01*
X16623277Y-12285888D02*
X16613753Y-12304936D01*
X16613753Y-12304936D02*
X16604230Y-12314460D01*
X16604230Y-12314460D02*
X16585182Y-12323984D01*
X16585182Y-12323984D02*
X16556610Y-12323984D01*
X16737563Y-12323984D02*
X16718515Y-12314460D01*
X16718515Y-12314460D02*
X16708991Y-12295412D01*
X16708991Y-12295412D02*
X16708991Y-12123984D01*
X16889944Y-12314460D02*
X16870896Y-12323984D01*
X16870896Y-12323984D02*
X16832801Y-12323984D01*
X16832801Y-12323984D02*
X16813753Y-12314460D01*
X16813753Y-12314460D02*
X16804230Y-12295412D01*
X16804230Y-12295412D02*
X16804230Y-12219222D01*
X16804230Y-12219222D02*
X16813753Y-12200174D01*
X16813753Y-12200174D02*
X16832801Y-12190650D01*
X16832801Y-12190650D02*
X16870896Y-12190650D01*
X16870896Y-12190650D02*
X16889944Y-12200174D01*
X16889944Y-12200174D02*
X16899468Y-12219222D01*
X16899468Y-12219222D02*
X16899468Y-12238269D01*
X16899468Y-12238269D02*
X16804230Y-12257317D01*
X16975658Y-12314460D02*
X16994706Y-12323984D01*
X16994706Y-12323984D02*
X17032801Y-12323984D01*
X17032801Y-12323984D02*
X17051849Y-12314460D01*
X17051849Y-12314460D02*
X17061373Y-12295412D01*
X17061373Y-12295412D02*
X17061373Y-12285888D01*
X17061373Y-12285888D02*
X17051849Y-12266841D01*
X17051849Y-12266841D02*
X17032801Y-12257317D01*
X17032801Y-12257317D02*
X17004230Y-12257317D01*
X17004230Y-12257317D02*
X16985182Y-12247793D01*
X16985182Y-12247793D02*
X16975658Y-12228746D01*
X16975658Y-12228746D02*
X16975658Y-12219222D01*
X16975658Y-12219222D02*
X16985182Y-12200174D01*
X16985182Y-12200174D02*
X17004230Y-12190650D01*
X17004230Y-12190650D02*
X17032801Y-12190650D01*
X17032801Y-12190650D02*
X17051849Y-12200174D01*
X17128039Y-12400174D02*
X17137563Y-12390650D01*
X17137563Y-12390650D02*
X17156611Y-12362079D01*
X17156611Y-12362079D02*
X17166134Y-12343031D01*
X17166134Y-12343031D02*
X17175658Y-12314460D01*
X17175658Y-12314460D02*
X17185182Y-12266841D01*
X17185182Y-12266841D02*
X17185182Y-12228746D01*
X17185182Y-12228746D02*
X17175658Y-12181127D01*
X17175658Y-12181127D02*
X17166134Y-12152555D01*
X17166134Y-12152555D02*
X17156611Y-12133508D01*
X17156611Y-12133508D02*
X17137563Y-12104936D01*
X17137563Y-12104936D02*
X17128039Y-12095412D01*
D17*
X12042500Y-12436500D02*
X12162500Y-12556500D01*
X12162500Y-12436500D02*
X12042500Y-12556500D01*
X12102500Y-12436500D02*
X12102500Y-12556500D01*
X12042500Y-12496500D02*
X12162500Y-12496500D01*
D11*
X12528039Y-12587984D02*
X12413753Y-12587984D01*
X12470896Y-12587984D02*
X12470896Y-12387984D01*
X12470896Y-12387984D02*
X12451848Y-12416555D01*
X12451848Y-12416555D02*
X12432801Y-12435603D01*
X12432801Y-12435603D02*
X12413753Y-12445127D01*
X12613753Y-12568936D02*
X12623277Y-12578460D01*
X12623277Y-12578460D02*
X12613753Y-12587984D01*
X12613753Y-12587984D02*
X12604229Y-12578460D01*
X12604229Y-12578460D02*
X12613753Y-12568936D01*
X12613753Y-12568936D02*
X12613753Y-12587984D01*
X12699467Y-12407031D02*
X12708991Y-12397508D01*
X12708991Y-12397508D02*
X12728039Y-12387984D01*
X12728039Y-12387984D02*
X12775658Y-12387984D01*
X12775658Y-12387984D02*
X12794705Y-12397508D01*
X12794705Y-12397508D02*
X12804229Y-12407031D01*
X12804229Y-12407031D02*
X12813753Y-12426079D01*
X12813753Y-12426079D02*
X12813753Y-12445127D01*
X12813753Y-12445127D02*
X12804229Y-12473698D01*
X12804229Y-12473698D02*
X12689943Y-12587984D01*
X12689943Y-12587984D02*
X12813753Y-12587984D01*
X12937562Y-12387984D02*
X12956610Y-12387984D01*
X12956610Y-12387984D02*
X12975658Y-12397508D01*
X12975658Y-12397508D02*
X12985182Y-12407031D01*
X12985182Y-12407031D02*
X12994705Y-12426079D01*
X12994705Y-12426079D02*
X13004229Y-12464174D01*
X13004229Y-12464174D02*
X13004229Y-12511793D01*
X13004229Y-12511793D02*
X12994705Y-12549888D01*
X12994705Y-12549888D02*
X12985182Y-12568936D01*
X12985182Y-12568936D02*
X12975658Y-12578460D01*
X12975658Y-12578460D02*
X12956610Y-12587984D01*
X12956610Y-12587984D02*
X12937562Y-12587984D01*
X12937562Y-12587984D02*
X12918515Y-12578460D01*
X12918515Y-12578460D02*
X12908991Y-12568936D01*
X12908991Y-12568936D02*
X12899467Y-12549888D01*
X12899467Y-12549888D02*
X12889943Y-12511793D01*
X12889943Y-12511793D02*
X12889943Y-12464174D01*
X12889943Y-12464174D02*
X12899467Y-12426079D01*
X12899467Y-12426079D02*
X12908991Y-12407031D01*
X12908991Y-12407031D02*
X12918515Y-12397508D01*
X12918515Y-12397508D02*
X12937562Y-12387984D01*
X13128039Y-12387984D02*
X13147086Y-12387984D01*
X13147086Y-12387984D02*
X13166134Y-12397508D01*
X13166134Y-12397508D02*
X13175658Y-12407031D01*
X13175658Y-12407031D02*
X13185182Y-12426079D01*
X13185182Y-12426079D02*
X13194705Y-12464174D01*
X13194705Y-12464174D02*
X13194705Y-12511793D01*
X13194705Y-12511793D02*
X13185182Y-12549888D01*
X13185182Y-12549888D02*
X13175658Y-12568936D01*
X13175658Y-12568936D02*
X13166134Y-12578460D01*
X13166134Y-12578460D02*
X13147086Y-12587984D01*
X13147086Y-12587984D02*
X13128039Y-12587984D01*
X13128039Y-12587984D02*
X13108991Y-12578460D01*
X13108991Y-12578460D02*
X13099467Y-12568936D01*
X13099467Y-12568936D02*
X13089943Y-12549888D01*
X13089943Y-12549888D02*
X13080420Y-12511793D01*
X13080420Y-12511793D02*
X13080420Y-12464174D01*
X13080420Y-12464174D02*
X13089943Y-12426079D01*
X13089943Y-12426079D02*
X13099467Y-12407031D01*
X13099467Y-12407031D02*
X13108991Y-12397508D01*
X13108991Y-12397508D02*
X13128039Y-12387984D01*
X13280420Y-12587984D02*
X13280420Y-12454650D01*
X13280420Y-12473698D02*
X13289943Y-12464174D01*
X13289943Y-12464174D02*
X13308991Y-12454650D01*
X13308991Y-12454650D02*
X13337563Y-12454650D01*
X13337563Y-12454650D02*
X13356610Y-12464174D01*
X13356610Y-12464174D02*
X13366134Y-12483222D01*
X13366134Y-12483222D02*
X13366134Y-12587984D01*
X13366134Y-12483222D02*
X13375658Y-12464174D01*
X13375658Y-12464174D02*
X13394705Y-12454650D01*
X13394705Y-12454650D02*
X13423277Y-12454650D01*
X13423277Y-12454650D02*
X13442324Y-12464174D01*
X13442324Y-12464174D02*
X13451848Y-12483222D01*
X13451848Y-12483222D02*
X13451848Y-12587984D01*
X13547086Y-12587984D02*
X13547086Y-12454650D01*
X13547086Y-12473698D02*
X13556610Y-12464174D01*
X13556610Y-12464174D02*
X13575658Y-12454650D01*
X13575658Y-12454650D02*
X13604229Y-12454650D01*
X13604229Y-12454650D02*
X13623277Y-12464174D01*
X13623277Y-12464174D02*
X13632801Y-12483222D01*
X13632801Y-12483222D02*
X13632801Y-12587984D01*
X13632801Y-12483222D02*
X13642324Y-12464174D01*
X13642324Y-12464174D02*
X13661372Y-12454650D01*
X13661372Y-12454650D02*
X13689943Y-12454650D01*
X13689943Y-12454650D02*
X13708991Y-12464174D01*
X13708991Y-12464174D02*
X13718515Y-12483222D01*
X13718515Y-12483222D02*
X13718515Y-12587984D01*
X14108991Y-12378460D02*
X13937563Y-12635603D01*
X14366134Y-12387984D02*
X14385182Y-12387984D01*
X14385182Y-12387984D02*
X14404229Y-12397508D01*
X14404229Y-12397508D02*
X14413753Y-12407031D01*
X14413753Y-12407031D02*
X14423277Y-12426079D01*
X14423277Y-12426079D02*
X14432801Y-12464174D01*
X14432801Y-12464174D02*
X14432801Y-12511793D01*
X14432801Y-12511793D02*
X14423277Y-12549888D01*
X14423277Y-12549888D02*
X14413753Y-12568936D01*
X14413753Y-12568936D02*
X14404229Y-12578460D01*
X14404229Y-12578460D02*
X14385182Y-12587984D01*
X14385182Y-12587984D02*
X14366134Y-12587984D01*
X14366134Y-12587984D02*
X14347086Y-12578460D01*
X14347086Y-12578460D02*
X14337563Y-12568936D01*
X14337563Y-12568936D02*
X14328039Y-12549888D01*
X14328039Y-12549888D02*
X14318515Y-12511793D01*
X14318515Y-12511793D02*
X14318515Y-12464174D01*
X14318515Y-12464174D02*
X14328039Y-12426079D01*
X14328039Y-12426079D02*
X14337563Y-12407031D01*
X14337563Y-12407031D02*
X14347086Y-12397508D01*
X14347086Y-12397508D02*
X14366134Y-12387984D01*
X14518515Y-12568936D02*
X14528039Y-12578460D01*
X14528039Y-12578460D02*
X14518515Y-12587984D01*
X14518515Y-12587984D02*
X14508991Y-12578460D01*
X14508991Y-12578460D02*
X14518515Y-12568936D01*
X14518515Y-12568936D02*
X14518515Y-12587984D01*
X14651848Y-12387984D02*
X14670896Y-12387984D01*
X14670896Y-12387984D02*
X14689944Y-12397508D01*
X14689944Y-12397508D02*
X14699467Y-12407031D01*
X14699467Y-12407031D02*
X14708991Y-12426079D01*
X14708991Y-12426079D02*
X14718515Y-12464174D01*
X14718515Y-12464174D02*
X14718515Y-12511793D01*
X14718515Y-12511793D02*
X14708991Y-12549888D01*
X14708991Y-12549888D02*
X14699467Y-12568936D01*
X14699467Y-12568936D02*
X14689944Y-12578460D01*
X14689944Y-12578460D02*
X14670896Y-12587984D01*
X14670896Y-12587984D02*
X14651848Y-12587984D01*
X14651848Y-12587984D02*
X14632801Y-12578460D01*
X14632801Y-12578460D02*
X14623277Y-12568936D01*
X14623277Y-12568936D02*
X14613753Y-12549888D01*
X14613753Y-12549888D02*
X14604229Y-12511793D01*
X14604229Y-12511793D02*
X14604229Y-12464174D01*
X14604229Y-12464174D02*
X14613753Y-12426079D01*
X14613753Y-12426079D02*
X14623277Y-12407031D01*
X14623277Y-12407031D02*
X14632801Y-12397508D01*
X14632801Y-12397508D02*
X14651848Y-12387984D01*
X14889944Y-12454650D02*
X14889944Y-12587984D01*
X14842325Y-12378460D02*
X14794706Y-12521317D01*
X14794706Y-12521317D02*
X14918515Y-12521317D01*
X14975658Y-12387984D02*
X15108991Y-12387984D01*
X15108991Y-12387984D02*
X15023277Y-12587984D01*
X15175658Y-12407031D02*
X15185182Y-12397508D01*
X15185182Y-12397508D02*
X15204229Y-12387984D01*
X15204229Y-12387984D02*
X15251848Y-12387984D01*
X15251848Y-12387984D02*
X15270896Y-12397508D01*
X15270896Y-12397508D02*
X15280420Y-12407031D01*
X15280420Y-12407031D02*
X15289944Y-12426079D01*
X15289944Y-12426079D02*
X15289944Y-12445127D01*
X15289944Y-12445127D02*
X15280420Y-12473698D01*
X15280420Y-12473698D02*
X15166134Y-12587984D01*
X15166134Y-12587984D02*
X15289944Y-12587984D01*
X15366134Y-12387984D02*
X15366134Y-12426079D01*
X15442325Y-12387984D02*
X15442325Y-12426079D01*
X15737563Y-12664174D02*
X15728039Y-12654650D01*
X15728039Y-12654650D02*
X15708991Y-12626079D01*
X15708991Y-12626079D02*
X15699468Y-12607031D01*
X15699468Y-12607031D02*
X15689944Y-12578460D01*
X15689944Y-12578460D02*
X15680420Y-12530841D01*
X15680420Y-12530841D02*
X15680420Y-12492746D01*
X15680420Y-12492746D02*
X15689944Y-12445127D01*
X15689944Y-12445127D02*
X15699468Y-12416555D01*
X15699468Y-12416555D02*
X15708991Y-12397508D01*
X15708991Y-12397508D02*
X15728039Y-12368936D01*
X15728039Y-12368936D02*
X15737563Y-12359412D01*
X15804229Y-12407031D02*
X15813753Y-12397508D01*
X15813753Y-12397508D02*
X15832801Y-12387984D01*
X15832801Y-12387984D02*
X15880420Y-12387984D01*
X15880420Y-12387984D02*
X15899468Y-12397508D01*
X15899468Y-12397508D02*
X15908991Y-12407031D01*
X15908991Y-12407031D02*
X15918515Y-12426079D01*
X15918515Y-12426079D02*
X15918515Y-12445127D01*
X15918515Y-12445127D02*
X15908991Y-12473698D01*
X15908991Y-12473698D02*
X15794706Y-12587984D01*
X15794706Y-12587984D02*
X15918515Y-12587984D01*
X16156610Y-12587984D02*
X16156610Y-12387984D01*
X16242325Y-12587984D02*
X16242325Y-12483222D01*
X16242325Y-12483222D02*
X16232801Y-12464174D01*
X16232801Y-12464174D02*
X16213753Y-12454650D01*
X16213753Y-12454650D02*
X16185182Y-12454650D01*
X16185182Y-12454650D02*
X16166134Y-12464174D01*
X16166134Y-12464174D02*
X16156610Y-12473698D01*
X16366134Y-12587984D02*
X16347087Y-12578460D01*
X16347087Y-12578460D02*
X16337563Y-12568936D01*
X16337563Y-12568936D02*
X16328039Y-12549888D01*
X16328039Y-12549888D02*
X16328039Y-12492746D01*
X16328039Y-12492746D02*
X16337563Y-12473698D01*
X16337563Y-12473698D02*
X16347087Y-12464174D01*
X16347087Y-12464174D02*
X16366134Y-12454650D01*
X16366134Y-12454650D02*
X16394706Y-12454650D01*
X16394706Y-12454650D02*
X16413753Y-12464174D01*
X16413753Y-12464174D02*
X16423277Y-12473698D01*
X16423277Y-12473698D02*
X16432801Y-12492746D01*
X16432801Y-12492746D02*
X16432801Y-12549888D01*
X16432801Y-12549888D02*
X16423277Y-12568936D01*
X16423277Y-12568936D02*
X16413753Y-12578460D01*
X16413753Y-12578460D02*
X16394706Y-12587984D01*
X16394706Y-12587984D02*
X16366134Y-12587984D01*
X16547087Y-12587984D02*
X16528039Y-12578460D01*
X16528039Y-12578460D02*
X16518515Y-12559412D01*
X16518515Y-12559412D02*
X16518515Y-12387984D01*
X16699468Y-12578460D02*
X16680420Y-12587984D01*
X16680420Y-12587984D02*
X16642325Y-12587984D01*
X16642325Y-12587984D02*
X16623277Y-12578460D01*
X16623277Y-12578460D02*
X16613753Y-12559412D01*
X16613753Y-12559412D02*
X16613753Y-12483222D01*
X16613753Y-12483222D02*
X16623277Y-12464174D01*
X16623277Y-12464174D02*
X16642325Y-12454650D01*
X16642325Y-12454650D02*
X16680420Y-12454650D01*
X16680420Y-12454650D02*
X16699468Y-12464174D01*
X16699468Y-12464174D02*
X16708991Y-12483222D01*
X16708991Y-12483222D02*
X16708991Y-12502269D01*
X16708991Y-12502269D02*
X16613753Y-12521317D01*
X16785182Y-12578460D02*
X16804230Y-12587984D01*
X16804230Y-12587984D02*
X16842325Y-12587984D01*
X16842325Y-12587984D02*
X16861373Y-12578460D01*
X16861373Y-12578460D02*
X16870896Y-12559412D01*
X16870896Y-12559412D02*
X16870896Y-12549888D01*
X16870896Y-12549888D02*
X16861373Y-12530841D01*
X16861373Y-12530841D02*
X16842325Y-12521317D01*
X16842325Y-12521317D02*
X16813753Y-12521317D01*
X16813753Y-12521317D02*
X16794706Y-12511793D01*
X16794706Y-12511793D02*
X16785182Y-12492746D01*
X16785182Y-12492746D02*
X16785182Y-12483222D01*
X16785182Y-12483222D02*
X16794706Y-12464174D01*
X16794706Y-12464174D02*
X16813753Y-12454650D01*
X16813753Y-12454650D02*
X16842325Y-12454650D01*
X16842325Y-12454650D02*
X16861373Y-12464174D01*
X16937563Y-12664174D02*
X16947087Y-12654650D01*
X16947087Y-12654650D02*
X16966134Y-12626079D01*
X16966134Y-12626079D02*
X16975658Y-12607031D01*
X16975658Y-12607031D02*
X16985182Y-12578460D01*
X16985182Y-12578460D02*
X16994706Y-12530841D01*
X16994706Y-12530841D02*
X16994706Y-12492746D01*
X16994706Y-12492746D02*
X16985182Y-12445127D01*
X16985182Y-12445127D02*
X16975658Y-12416555D01*
X16975658Y-12416555D02*
X16966134Y-12397508D01*
X16966134Y-12397508D02*
X16947087Y-12368936D01*
X16947087Y-12368936D02*
X16937563Y-12359412D01*
M02*
