M48
; DRILL file {KiCad 7.0.6} date Sat Dec 30 20:12:12 2023
; FORMAT={-:-/ absolute / inch / decimal}
; #@! TF.CreationDate,2023-12-30T20:12:12-05:00
; #@! TF.GenerationSoftware,Kicad,Pcbnew,7.0.6
; #@! TF.FileFunction,Plated,1,2,PTH
FMAT,2
INCH
; #@! TA.AperFunction,Plated,PTH,ViaDrill
T1C0.0157
; #@! TA.AperFunction,Plated,PTH,ViaDrill
T2C0.0236
; #@! TA.AperFunction,Plated,PTH,ComponentDrill
T3C0.0236
; #@! TA.AperFunction,Plated,PTH,ComponentDrill
T4C0.0335
; #@! TA.AperFunction,Plated,PTH,ComponentDrill
T5C0.0394
; #@! TA.AperFunction,Plated,PTH,ComponentDrill
T6C0.0591
%
G90
G05
T1
X4.8228Y-4.0059
X4.9016Y-3.0906
X4.9213Y-1.9685
X4.9606Y-2.1457
X5.0Y-2.0276
X5.0197Y-2.8248
X5.0886Y-3.0906
X5.1181Y-2.5
X5.1181Y-2.5492
X5.1181Y-2.5886
X5.128Y-2.2146
X5.1575Y-2.7165
X5.1673Y-2.5
X5.2067Y-2.7756
X5.2165Y-1.9685
X5.2165Y-2.0276
X5.2165Y-2.3622
X5.2165Y-2.4213
X5.2165Y-2.4705
X5.2165Y-2.5197
X5.2657Y-2.8642
X5.2756Y-3.0906
X5.3642Y-2.2047
X5.4035Y-2.4311
X5.4429Y-2.6476
X5.4429Y-3.9961
X5.4724Y-2.2244
X5.4921Y-2.0965
X5.6102Y-3.9272
X5.6496Y-1.9587
X5.7185Y-2.2244
X5.7677Y-2.5413
X5.8071Y-2.4213
X5.8071Y-2.5984
X5.8169Y-2.2264
X5.8169Y-3.8583
X5.8465Y-3.0315
X5.8465Y-3.1004
X5.8465Y-3.1693
X5.8858Y-2.1358
X5.8858Y-2.5787
X5.9252Y-2.5413
X5.9547Y-3.7205
X5.9646Y-2.4213
X5.9646Y-2.5984
X5.9744Y-2.2264
X5.9744Y-3.0315
X5.9744Y-3.1004
X5.9744Y-3.1693
X6.0335Y-2.6969
X6.0433Y-2.1358
X6.0433Y-2.5984
X6.0827Y-2.5413
X6.0925Y-1.9587
X6.1024Y-2.6772
X6.1024Y-3.3465
X6.1024Y-3.7402
X6.122Y-2.4213
X6.1319Y-2.2264
X6.2008Y-2.1358
X6.2008Y-2.5787
X6.2402Y-2.5413
X6.2795Y-2.4213
X6.2894Y-2.2264
X6.2894Y-2.8937
X6.3386Y-2.9331
X6.3484Y-2.8445
X6.3583Y-2.1358
X6.3583Y-2.5394
X6.3681Y-2.9626
X6.3681Y-3.3465
X6.378Y-3.0315
X6.378Y-3.7008
X6.3878Y-3.7795
X6.4075Y-2.8445
X6.4469Y-2.6772
X6.4567Y-2.628
X6.4764Y-2.5886
X6.5059Y-3.3563
X6.5256Y-2.0374
X6.5748Y-2.1161
X6.5748Y-3.4744
X6.5748Y-3.7795
X6.6142Y-2.1555
X6.6831Y-2.4311
X6.6831Y-2.8445
X6.6831Y-3.3563
X6.7126Y-2.9134
X6.7323Y-3.6024
X6.7815Y-2.2933
X6.7815Y-2.6673
X6.7913Y-2.0965
X6.7913Y-2.8346
X6.811Y-2.9626
X6.811Y-3.0118
X6.811Y-3.4547
X6.811Y-3.5039
X6.8406Y-2.8346
X6.8898Y-2.5394
X6.9193Y-2.3327
X6.9193Y-2.3917
X6.9291Y-2.7067
X6.9291Y-2.7461
X6.9488Y-2.5394
X7.0079Y-2.5394
X7.0177Y-2.6181
X7.0177Y-2.8248
X7.0374Y-2.2146
X7.0374Y-3.1299
X7.0374Y-3.2382
X7.0669Y-2.5394
X7.0866Y-3.0807
X7.0866Y-3.2874
X7.1358Y-2.3228
X7.1358Y-2.8248
X7.1752Y-2.628
X7.1949Y-3.0807
X7.1949Y-3.2874
X7.2146Y-2.1555
X7.2441Y-3.1299
X7.2441Y-3.2382
X7.3524Y-2.9626
X7.3622Y-2.3228
X7.3917Y-2.8346
X7.4213Y-3.1398
X7.4213Y-3.4843
X7.4311Y-3.0413
X7.4311Y-3.0906
X7.4409Y-2.8346
T2
X4.9016Y-3.5827
X5.0886Y-2.1555
X5.1969Y-3.5827
X5.3248Y-3.376
X5.3248Y-3.6122
X5.3543Y-3.0217
X5.4724Y-2.1654
X5.4724Y-3.1791
X5.4921Y-3.0906
X5.5512Y-3.376
X5.5512Y-3.6122
X5.5807Y-2.1161
X5.6496Y-3.8091
X5.6594Y-2.9232
X5.876Y-3.3071
T4
X4.9606Y-2.4409
X4.9606Y-2.6378
T5
X5.5407Y-2.0323
X5.6407Y-2.0323
X5.7407Y-2.0323
X5.8407Y-2.0323
X5.9006Y-3.9323
X5.9407Y-2.0323
X6.0006Y-3.9323
X6.0407Y-2.0323
X6.1006Y-3.9323
X6.1407Y-2.0323
X6.2006Y-3.9323
X6.2407Y-2.0323
X6.3006Y-3.9323
X6.3407Y-2.0323
X6.4006Y-3.9323
X6.4407Y-2.0323
X6.5006Y-3.9323
X6.6006Y-2.0323
X6.6006Y-3.9323
X6.7006Y-2.0323
X6.8006Y-2.0323
X6.8006Y-3.9323
X6.9006Y-2.0323
X6.9006Y-3.9323
X7.0006Y-2.0323
X7.0006Y-3.9323
X7.1006Y-2.0323
X7.1006Y-3.9323
X7.2006Y-2.0323
X7.2006Y-3.9323
X7.3006Y-2.0323
X7.3006Y-3.9323
T6
X5.0945Y-3.6594
X5.0945Y-3.8091
T3
G00X4.8406Y-2.4016
M15
G01X4.8681Y-2.4016
M16
G05
G00X4.8681Y-2.6772
M15
G01X4.8406Y-2.6772
M16
G05
T0
M30
