%TF.GenerationSoftware,KiCad,Pcbnew,7.0.6*%
%TF.CreationDate,2023-08-21T22:34:02-04:00*%
%TF.ProjectId,Dynamo,44796e61-6d6f-42e6-9b69-6361645f7063,rev?*%
%TF.SameCoordinates,Original*%
%TF.FileFunction,Legend,Top*%
%TF.FilePolarity,Positive*%
%FSLAX46Y46*%
G04 Gerber Fmt 4.6, Leading zero omitted, Abs format (unit mm)*
G04 Created by KiCad (PCBNEW 7.0.6) date 2023-08-21 22:34:02*
%MOMM*%
%LPD*%
G01*
G04 APERTURE LIST*
%ADD10C,0.150000*%
%ADD11C,0.120000*%
G04 APERTURE END LIST*
D10*
X189540173Y-73251585D02*
X189790173Y-73608728D01*
X189968744Y-73251585D02*
X189968744Y-74001585D01*
X189968744Y-74001585D02*
X189683030Y-74001585D01*
X189683030Y-74001585D02*
X189611601Y-73965871D01*
X189611601Y-73965871D02*
X189575887Y-73930157D01*
X189575887Y-73930157D02*
X189540173Y-73858728D01*
X189540173Y-73858728D02*
X189540173Y-73751585D01*
X189540173Y-73751585D02*
X189575887Y-73680157D01*
X189575887Y-73680157D02*
X189611601Y-73644442D01*
X189611601Y-73644442D02*
X189683030Y-73608728D01*
X189683030Y-73608728D02*
X189968744Y-73608728D01*
X189218744Y-73644442D02*
X188968744Y-73644442D01*
X188861601Y-73251585D02*
X189218744Y-73251585D01*
X189218744Y-73251585D02*
X189218744Y-74001585D01*
X189218744Y-74001585D02*
X188861601Y-74001585D01*
X188575887Y-73287300D02*
X188468745Y-73251585D01*
X188468745Y-73251585D02*
X188290173Y-73251585D01*
X188290173Y-73251585D02*
X188218745Y-73287300D01*
X188218745Y-73287300D02*
X188183030Y-73323014D01*
X188183030Y-73323014D02*
X188147316Y-73394442D01*
X188147316Y-73394442D02*
X188147316Y-73465871D01*
X188147316Y-73465871D02*
X188183030Y-73537300D01*
X188183030Y-73537300D02*
X188218745Y-73573014D01*
X188218745Y-73573014D02*
X188290173Y-73608728D01*
X188290173Y-73608728D02*
X188433030Y-73644442D01*
X188433030Y-73644442D02*
X188504459Y-73680157D01*
X188504459Y-73680157D02*
X188540173Y-73715871D01*
X188540173Y-73715871D02*
X188575887Y-73787300D01*
X188575887Y-73787300D02*
X188575887Y-73858728D01*
X188575887Y-73858728D02*
X188540173Y-73930157D01*
X188540173Y-73930157D02*
X188504459Y-73965871D01*
X188504459Y-73965871D02*
X188433030Y-74001585D01*
X188433030Y-74001585D02*
X188254459Y-74001585D01*
X188254459Y-74001585D02*
X188147316Y-73965871D01*
X187825887Y-73644442D02*
X187575887Y-73644442D01*
X187468744Y-73251585D02*
X187825887Y-73251585D01*
X187825887Y-73251585D02*
X187825887Y-74001585D01*
X187825887Y-74001585D02*
X187468744Y-74001585D01*
X187254459Y-74001585D02*
X186825888Y-74001585D01*
X187040173Y-73251585D02*
X187040173Y-74001585D01*
X172199541Y-101794128D02*
X172556684Y-101794128D01*
X172128112Y-102008414D02*
X172378112Y-101258414D01*
X172378112Y-101258414D02*
X172628112Y-102008414D01*
X173020969Y-101258414D02*
X173092398Y-101258414D01*
X173092398Y-101258414D02*
X173163826Y-101294128D01*
X173163826Y-101294128D02*
X173199541Y-101329842D01*
X173199541Y-101329842D02*
X173235255Y-101401271D01*
X173235255Y-101401271D02*
X173270969Y-101544128D01*
X173270969Y-101544128D02*
X173270969Y-101722700D01*
X173270969Y-101722700D02*
X173235255Y-101865557D01*
X173235255Y-101865557D02*
X173199541Y-101936985D01*
X173199541Y-101936985D02*
X173163826Y-101972700D01*
X173163826Y-101972700D02*
X173092398Y-102008414D01*
X173092398Y-102008414D02*
X173020969Y-102008414D01*
X173020969Y-102008414D02*
X172949541Y-101972700D01*
X172949541Y-101972700D02*
X172913826Y-101936985D01*
X172913826Y-101936985D02*
X172878112Y-101865557D01*
X172878112Y-101865557D02*
X172842398Y-101722700D01*
X172842398Y-101722700D02*
X172842398Y-101544128D01*
X172842398Y-101544128D02*
X172878112Y-101401271D01*
X172878112Y-101401271D02*
X172913826Y-101329842D01*
X172913826Y-101329842D02*
X172949541Y-101294128D01*
X172949541Y-101294128D02*
X173020969Y-101258414D01*
X174699542Y-101794128D02*
X175056685Y-101794128D01*
X174628113Y-102008414D02*
X174878113Y-101258414D01*
X174878113Y-101258414D02*
X175128113Y-102008414D01*
X175770970Y-102008414D02*
X175342399Y-102008414D01*
X175556684Y-102008414D02*
X175556684Y-101258414D01*
X175556684Y-101258414D02*
X175485256Y-101365557D01*
X175485256Y-101365557D02*
X175413827Y-101436985D01*
X175413827Y-101436985D02*
X175342399Y-101472700D01*
X177199543Y-101794128D02*
X177556686Y-101794128D01*
X177128114Y-102008414D02*
X177378114Y-101258414D01*
X177378114Y-101258414D02*
X177628114Y-102008414D01*
X177842400Y-101329842D02*
X177878114Y-101294128D01*
X177878114Y-101294128D02*
X177949543Y-101258414D01*
X177949543Y-101258414D02*
X178128114Y-101258414D01*
X178128114Y-101258414D02*
X178199543Y-101294128D01*
X178199543Y-101294128D02*
X178235257Y-101329842D01*
X178235257Y-101329842D02*
X178270971Y-101401271D01*
X178270971Y-101401271D02*
X178270971Y-101472700D01*
X178270971Y-101472700D02*
X178235257Y-101579842D01*
X178235257Y-101579842D02*
X177806685Y-102008414D01*
X177806685Y-102008414D02*
X178270971Y-102008414D01*
X179699544Y-101794128D02*
X180056687Y-101794128D01*
X179628115Y-102008414D02*
X179878115Y-101258414D01*
X179878115Y-101258414D02*
X180128115Y-102008414D01*
X180306686Y-101258414D02*
X180770972Y-101258414D01*
X180770972Y-101258414D02*
X180520972Y-101544128D01*
X180520972Y-101544128D02*
X180628115Y-101544128D01*
X180628115Y-101544128D02*
X180699544Y-101579842D01*
X180699544Y-101579842D02*
X180735258Y-101615557D01*
X180735258Y-101615557D02*
X180770972Y-101686985D01*
X180770972Y-101686985D02*
X180770972Y-101865557D01*
X180770972Y-101865557D02*
X180735258Y-101936985D01*
X180735258Y-101936985D02*
X180699544Y-101972700D01*
X180699544Y-101972700D02*
X180628115Y-102008414D01*
X180628115Y-102008414D02*
X180413829Y-102008414D01*
X180413829Y-102008414D02*
X180342401Y-101972700D01*
X180342401Y-101972700D02*
X180306686Y-101936985D01*
X185476173Y-49629585D02*
X185726173Y-49986728D01*
X185904744Y-49629585D02*
X185904744Y-50379585D01*
X185904744Y-50379585D02*
X185619030Y-50379585D01*
X185619030Y-50379585D02*
X185547601Y-50343871D01*
X185547601Y-50343871D02*
X185511887Y-50308157D01*
X185511887Y-50308157D02*
X185476173Y-50236728D01*
X185476173Y-50236728D02*
X185476173Y-50129585D01*
X185476173Y-50129585D02*
X185511887Y-50058157D01*
X185511887Y-50058157D02*
X185547601Y-50022442D01*
X185547601Y-50022442D02*
X185619030Y-49986728D01*
X185619030Y-49986728D02*
X185904744Y-49986728D01*
X185226173Y-50379585D02*
X184726173Y-49629585D01*
X184726173Y-50379585D02*
X185226173Y-49629585D01*
X183404743Y-50379585D02*
X182976172Y-50379585D01*
X183190457Y-49629585D02*
X183190457Y-50379585D01*
X182797600Y-50379585D02*
X182297600Y-49629585D01*
X182297600Y-50379585D02*
X182797600Y-49629585D01*
X125053571Y-59150414D02*
X125053571Y-59757557D01*
X125053571Y-59757557D02*
X125089285Y-59828985D01*
X125089285Y-59828985D02*
X125125000Y-59864700D01*
X125125000Y-59864700D02*
X125196428Y-59900414D01*
X125196428Y-59900414D02*
X125339285Y-59900414D01*
X125339285Y-59900414D02*
X125410714Y-59864700D01*
X125410714Y-59864700D02*
X125446428Y-59828985D01*
X125446428Y-59828985D02*
X125482142Y-59757557D01*
X125482142Y-59757557D02*
X125482142Y-59150414D01*
X125803571Y-59864700D02*
X125910714Y-59900414D01*
X125910714Y-59900414D02*
X126089285Y-59900414D01*
X126089285Y-59900414D02*
X126160714Y-59864700D01*
X126160714Y-59864700D02*
X126196428Y-59828985D01*
X126196428Y-59828985D02*
X126232142Y-59757557D01*
X126232142Y-59757557D02*
X126232142Y-59686128D01*
X126232142Y-59686128D02*
X126196428Y-59614700D01*
X126196428Y-59614700D02*
X126160714Y-59578985D01*
X126160714Y-59578985D02*
X126089285Y-59543271D01*
X126089285Y-59543271D02*
X125946428Y-59507557D01*
X125946428Y-59507557D02*
X125874999Y-59471842D01*
X125874999Y-59471842D02*
X125839285Y-59436128D01*
X125839285Y-59436128D02*
X125803571Y-59364700D01*
X125803571Y-59364700D02*
X125803571Y-59293271D01*
X125803571Y-59293271D02*
X125839285Y-59221842D01*
X125839285Y-59221842D02*
X125874999Y-59186128D01*
X125874999Y-59186128D02*
X125946428Y-59150414D01*
X125946428Y-59150414D02*
X126124999Y-59150414D01*
X126124999Y-59150414D02*
X126232142Y-59186128D01*
X126803571Y-59507557D02*
X126910714Y-59543271D01*
X126910714Y-59543271D02*
X126946428Y-59578985D01*
X126946428Y-59578985D02*
X126982142Y-59650414D01*
X126982142Y-59650414D02*
X126982142Y-59757557D01*
X126982142Y-59757557D02*
X126946428Y-59828985D01*
X126946428Y-59828985D02*
X126910714Y-59864700D01*
X126910714Y-59864700D02*
X126839285Y-59900414D01*
X126839285Y-59900414D02*
X126553571Y-59900414D01*
X126553571Y-59900414D02*
X126553571Y-59150414D01*
X126553571Y-59150414D02*
X126803571Y-59150414D01*
X126803571Y-59150414D02*
X126875000Y-59186128D01*
X126875000Y-59186128D02*
X126910714Y-59221842D01*
X126910714Y-59221842D02*
X126946428Y-59293271D01*
X126946428Y-59293271D02*
X126946428Y-59364700D01*
X126946428Y-59364700D02*
X126910714Y-59436128D01*
X126910714Y-59436128D02*
X126875000Y-59471842D01*
X126875000Y-59471842D02*
X126803571Y-59507557D01*
X126803571Y-59507557D02*
X126553571Y-59507557D01*
X124009523Y-100559819D02*
X123676190Y-100083628D01*
X123438095Y-100559819D02*
X123438095Y-99559819D01*
X123438095Y-99559819D02*
X123819047Y-99559819D01*
X123819047Y-99559819D02*
X123914285Y-99607438D01*
X123914285Y-99607438D02*
X123961904Y-99655057D01*
X123961904Y-99655057D02*
X124009523Y-99750295D01*
X124009523Y-99750295D02*
X124009523Y-99893152D01*
X124009523Y-99893152D02*
X123961904Y-99988390D01*
X123961904Y-99988390D02*
X123914285Y-100036009D01*
X123914285Y-100036009D02*
X123819047Y-100083628D01*
X123819047Y-100083628D02*
X123438095Y-100083628D01*
X124390476Y-100274104D02*
X124866666Y-100274104D01*
X124295238Y-100559819D02*
X124628571Y-99559819D01*
X124628571Y-99559819D02*
X124961904Y-100559819D01*
X125295238Y-100559819D02*
X125295238Y-99559819D01*
X126247618Y-100559819D02*
X125771428Y-100559819D01*
X125771428Y-100559819D02*
X125771428Y-99559819D01*
X126533333Y-100512200D02*
X126676190Y-100559819D01*
X126676190Y-100559819D02*
X126914285Y-100559819D01*
X126914285Y-100559819D02*
X127009523Y-100512200D01*
X127009523Y-100512200D02*
X127057142Y-100464580D01*
X127057142Y-100464580D02*
X127104761Y-100369342D01*
X127104761Y-100369342D02*
X127104761Y-100274104D01*
X127104761Y-100274104D02*
X127057142Y-100178866D01*
X127057142Y-100178866D02*
X127009523Y-100131247D01*
X127009523Y-100131247D02*
X126914285Y-100083628D01*
X126914285Y-100083628D02*
X126723809Y-100036009D01*
X126723809Y-100036009D02*
X126628571Y-99988390D01*
X126628571Y-99988390D02*
X126580952Y-99940771D01*
X126580952Y-99940771D02*
X126533333Y-99845533D01*
X126533333Y-99845533D02*
X126533333Y-99750295D01*
X126533333Y-99750295D02*
X126580952Y-99655057D01*
X126580952Y-99655057D02*
X126628571Y-99607438D01*
X126628571Y-99607438D02*
X126723809Y-99559819D01*
X126723809Y-99559819D02*
X126961904Y-99559819D01*
X126961904Y-99559819D02*
X127104761Y-99607438D01*
X127723809Y-100083628D02*
X127723809Y-100559819D01*
X127390476Y-99559819D02*
X127723809Y-100083628D01*
X127723809Y-100083628D02*
X128057142Y-99559819D01*
X128390476Y-100559819D02*
X128390476Y-99559819D01*
X128390476Y-99559819D02*
X128961904Y-100559819D01*
X128961904Y-100559819D02*
X128961904Y-99559819D01*
X130009523Y-100464580D02*
X129961904Y-100512200D01*
X129961904Y-100512200D02*
X129819047Y-100559819D01*
X129819047Y-100559819D02*
X129723809Y-100559819D01*
X129723809Y-100559819D02*
X129580952Y-100512200D01*
X129580952Y-100512200D02*
X129485714Y-100416961D01*
X129485714Y-100416961D02*
X129438095Y-100321723D01*
X129438095Y-100321723D02*
X129390476Y-100131247D01*
X129390476Y-100131247D02*
X129390476Y-99988390D01*
X129390476Y-99988390D02*
X129438095Y-99797914D01*
X129438095Y-99797914D02*
X129485714Y-99702676D01*
X129485714Y-99702676D02*
X129580952Y-99607438D01*
X129580952Y-99607438D02*
X129723809Y-99559819D01*
X129723809Y-99559819D02*
X129819047Y-99559819D01*
X129819047Y-99559819D02*
X129961904Y-99607438D01*
X129961904Y-99607438D02*
X130009523Y-99655057D01*
X124366667Y-101169819D02*
X125033333Y-101169819D01*
X125033333Y-101169819D02*
X124604762Y-102169819D01*
X125414286Y-101788866D02*
X126176191Y-101788866D01*
X126604762Y-101265057D02*
X126652381Y-101217438D01*
X126652381Y-101217438D02*
X126747619Y-101169819D01*
X126747619Y-101169819D02*
X126985714Y-101169819D01*
X126985714Y-101169819D02*
X127080952Y-101217438D01*
X127080952Y-101217438D02*
X127128571Y-101265057D01*
X127128571Y-101265057D02*
X127176190Y-101360295D01*
X127176190Y-101360295D02*
X127176190Y-101455533D01*
X127176190Y-101455533D02*
X127128571Y-101598390D01*
X127128571Y-101598390D02*
X126557143Y-102169819D01*
X126557143Y-102169819D02*
X127176190Y-102169819D01*
X128033333Y-101503152D02*
X128033333Y-102169819D01*
X127795238Y-101122200D02*
X127557143Y-101836485D01*
X127557143Y-101836485D02*
X128176190Y-101836485D01*
X128414286Y-101169819D02*
X128747619Y-102169819D01*
X128747619Y-102169819D02*
X129080952Y-101169819D01*
X144744839Y-49453800D02*
X144601982Y-49406180D01*
X144601982Y-49406180D02*
X144363887Y-49406180D01*
X144363887Y-49406180D02*
X144268649Y-49453800D01*
X144268649Y-49453800D02*
X144221030Y-49501419D01*
X144221030Y-49501419D02*
X144173411Y-49596657D01*
X144173411Y-49596657D02*
X144173411Y-49691895D01*
X144173411Y-49691895D02*
X144221030Y-49787133D01*
X144221030Y-49787133D02*
X144268649Y-49834752D01*
X144268649Y-49834752D02*
X144363887Y-49882371D01*
X144363887Y-49882371D02*
X144554363Y-49929990D01*
X144554363Y-49929990D02*
X144649601Y-49977609D01*
X144649601Y-49977609D02*
X144697220Y-50025228D01*
X144697220Y-50025228D02*
X144744839Y-50120466D01*
X144744839Y-50120466D02*
X144744839Y-50215704D01*
X144744839Y-50215704D02*
X144697220Y-50310942D01*
X144697220Y-50310942D02*
X144649601Y-50358561D01*
X144649601Y-50358561D02*
X144554363Y-50406180D01*
X144554363Y-50406180D02*
X144316268Y-50406180D01*
X144316268Y-50406180D02*
X144173411Y-50358561D01*
X143744839Y-49406180D02*
X143744839Y-50406180D01*
X143744839Y-50406180D02*
X143506744Y-50406180D01*
X143506744Y-50406180D02*
X143363887Y-50358561D01*
X143363887Y-50358561D02*
X143268649Y-50263323D01*
X143268649Y-50263323D02*
X143221030Y-50168085D01*
X143221030Y-50168085D02*
X143173411Y-49977609D01*
X143173411Y-49977609D02*
X143173411Y-49834752D01*
X143173411Y-49834752D02*
X143221030Y-49644276D01*
X143221030Y-49644276D02*
X143268649Y-49549038D01*
X143268649Y-49549038D02*
X143363887Y-49453800D01*
X143363887Y-49453800D02*
X143506744Y-49406180D01*
X143506744Y-49406180D02*
X143744839Y-49406180D01*
X142792458Y-49691895D02*
X142316268Y-49691895D01*
X142887696Y-49406180D02*
X142554363Y-50406180D01*
X142554363Y-50406180D02*
X142221030Y-49406180D01*
X141173410Y-49453800D02*
X141030553Y-49406180D01*
X141030553Y-49406180D02*
X140792458Y-49406180D01*
X140792458Y-49406180D02*
X140697220Y-49453800D01*
X140697220Y-49453800D02*
X140649601Y-49501419D01*
X140649601Y-49501419D02*
X140601982Y-49596657D01*
X140601982Y-49596657D02*
X140601982Y-49691895D01*
X140601982Y-49691895D02*
X140649601Y-49787133D01*
X140649601Y-49787133D02*
X140697220Y-49834752D01*
X140697220Y-49834752D02*
X140792458Y-49882371D01*
X140792458Y-49882371D02*
X140982934Y-49929990D01*
X140982934Y-49929990D02*
X141078172Y-49977609D01*
X141078172Y-49977609D02*
X141125791Y-50025228D01*
X141125791Y-50025228D02*
X141173410Y-50120466D01*
X141173410Y-50120466D02*
X141173410Y-50215704D01*
X141173410Y-50215704D02*
X141125791Y-50310942D01*
X141125791Y-50310942D02*
X141078172Y-50358561D01*
X141078172Y-50358561D02*
X140982934Y-50406180D01*
X140982934Y-50406180D02*
X140744839Y-50406180D01*
X140744839Y-50406180D02*
X140601982Y-50358561D01*
X139601982Y-49501419D02*
X139649601Y-49453800D01*
X139649601Y-49453800D02*
X139792458Y-49406180D01*
X139792458Y-49406180D02*
X139887696Y-49406180D01*
X139887696Y-49406180D02*
X140030553Y-49453800D01*
X140030553Y-49453800D02*
X140125791Y-49549038D01*
X140125791Y-49549038D02*
X140173410Y-49644276D01*
X140173410Y-49644276D02*
X140221029Y-49834752D01*
X140221029Y-49834752D02*
X140221029Y-49977609D01*
X140221029Y-49977609D02*
X140173410Y-50168085D01*
X140173410Y-50168085D02*
X140125791Y-50263323D01*
X140125791Y-50263323D02*
X140030553Y-50358561D01*
X140030553Y-50358561D02*
X139887696Y-50406180D01*
X139887696Y-50406180D02*
X139792458Y-50406180D01*
X139792458Y-50406180D02*
X139649601Y-50358561D01*
X139649601Y-50358561D02*
X139601982Y-50310942D01*
X138697220Y-49406180D02*
X139173410Y-49406180D01*
X139173410Y-49406180D02*
X139173410Y-50406180D01*
X187471255Y-84597557D02*
X187578398Y-84633271D01*
X187578398Y-84633271D02*
X187614112Y-84668985D01*
X187614112Y-84668985D02*
X187649826Y-84740414D01*
X187649826Y-84740414D02*
X187649826Y-84847557D01*
X187649826Y-84847557D02*
X187614112Y-84918985D01*
X187614112Y-84918985D02*
X187578398Y-84954700D01*
X187578398Y-84954700D02*
X187506969Y-84990414D01*
X187506969Y-84990414D02*
X187221255Y-84990414D01*
X187221255Y-84990414D02*
X187221255Y-84240414D01*
X187221255Y-84240414D02*
X187471255Y-84240414D01*
X187471255Y-84240414D02*
X187542684Y-84276128D01*
X187542684Y-84276128D02*
X187578398Y-84311842D01*
X187578398Y-84311842D02*
X187614112Y-84383271D01*
X187614112Y-84383271D02*
X187614112Y-84454700D01*
X187614112Y-84454700D02*
X187578398Y-84526128D01*
X187578398Y-84526128D02*
X187542684Y-84561842D01*
X187542684Y-84561842D02*
X187471255Y-84597557D01*
X187471255Y-84597557D02*
X187221255Y-84597557D01*
X188114112Y-84240414D02*
X188256969Y-84240414D01*
X188256969Y-84240414D02*
X188328398Y-84276128D01*
X188328398Y-84276128D02*
X188399826Y-84347557D01*
X188399826Y-84347557D02*
X188435541Y-84490414D01*
X188435541Y-84490414D02*
X188435541Y-84740414D01*
X188435541Y-84740414D02*
X188399826Y-84883271D01*
X188399826Y-84883271D02*
X188328398Y-84954700D01*
X188328398Y-84954700D02*
X188256969Y-84990414D01*
X188256969Y-84990414D02*
X188114112Y-84990414D01*
X188114112Y-84990414D02*
X188042684Y-84954700D01*
X188042684Y-84954700D02*
X187971255Y-84883271D01*
X187971255Y-84883271D02*
X187935541Y-84740414D01*
X187935541Y-84740414D02*
X187935541Y-84490414D01*
X187935541Y-84490414D02*
X187971255Y-84347557D01*
X187971255Y-84347557D02*
X188042684Y-84276128D01*
X188042684Y-84276128D02*
X188114112Y-84240414D01*
X188899826Y-84240414D02*
X189042683Y-84240414D01*
X189042683Y-84240414D02*
X189114112Y-84276128D01*
X189114112Y-84276128D02*
X189185540Y-84347557D01*
X189185540Y-84347557D02*
X189221255Y-84490414D01*
X189221255Y-84490414D02*
X189221255Y-84740414D01*
X189221255Y-84740414D02*
X189185540Y-84883271D01*
X189185540Y-84883271D02*
X189114112Y-84954700D01*
X189114112Y-84954700D02*
X189042683Y-84990414D01*
X189042683Y-84990414D02*
X188899826Y-84990414D01*
X188899826Y-84990414D02*
X188828398Y-84954700D01*
X188828398Y-84954700D02*
X188756969Y-84883271D01*
X188756969Y-84883271D02*
X188721255Y-84740414D01*
X188721255Y-84740414D02*
X188721255Y-84490414D01*
X188721255Y-84490414D02*
X188756969Y-84347557D01*
X188756969Y-84347557D02*
X188828398Y-84276128D01*
X188828398Y-84276128D02*
X188899826Y-84240414D01*
X189435540Y-84240414D02*
X189864112Y-84240414D01*
X189649826Y-84990414D02*
X189649826Y-84240414D01*
X151955826Y-101950414D02*
X151705826Y-101593271D01*
X151527255Y-101950414D02*
X151527255Y-101200414D01*
X151527255Y-101200414D02*
X151812969Y-101200414D01*
X151812969Y-101200414D02*
X151884398Y-101236128D01*
X151884398Y-101236128D02*
X151920112Y-101271842D01*
X151920112Y-101271842D02*
X151955826Y-101343271D01*
X151955826Y-101343271D02*
X151955826Y-101450414D01*
X151955826Y-101450414D02*
X151920112Y-101521842D01*
X151920112Y-101521842D02*
X151884398Y-101557557D01*
X151884398Y-101557557D02*
X151812969Y-101593271D01*
X151812969Y-101593271D02*
X151527255Y-101593271D01*
X152277255Y-101557557D02*
X152527255Y-101557557D01*
X152634398Y-101950414D02*
X152277255Y-101950414D01*
X152277255Y-101950414D02*
X152277255Y-101200414D01*
X152277255Y-101200414D02*
X152634398Y-101200414D01*
X153205826Y-101557557D02*
X152955826Y-101557557D01*
X152955826Y-101950414D02*
X152955826Y-101200414D01*
X152955826Y-101200414D02*
X153312969Y-101200414D01*
X154598683Y-101950414D02*
X154348683Y-101593271D01*
X154170112Y-101950414D02*
X154170112Y-101200414D01*
X154170112Y-101200414D02*
X154455826Y-101200414D01*
X154455826Y-101200414D02*
X154527255Y-101236128D01*
X154527255Y-101236128D02*
X154562969Y-101271842D01*
X154562969Y-101271842D02*
X154598683Y-101343271D01*
X154598683Y-101343271D02*
X154598683Y-101450414D01*
X154598683Y-101450414D02*
X154562969Y-101521842D01*
X154562969Y-101521842D02*
X154527255Y-101557557D01*
X154527255Y-101557557D02*
X154455826Y-101593271D01*
X154455826Y-101593271D02*
X154170112Y-101593271D01*
X154884398Y-101914700D02*
X154991541Y-101950414D01*
X154991541Y-101950414D02*
X155170112Y-101950414D01*
X155170112Y-101950414D02*
X155241541Y-101914700D01*
X155241541Y-101914700D02*
X155277255Y-101878985D01*
X155277255Y-101878985D02*
X155312969Y-101807557D01*
X155312969Y-101807557D02*
X155312969Y-101736128D01*
X155312969Y-101736128D02*
X155277255Y-101664700D01*
X155277255Y-101664700D02*
X155241541Y-101628985D01*
X155241541Y-101628985D02*
X155170112Y-101593271D01*
X155170112Y-101593271D02*
X155027255Y-101557557D01*
X155027255Y-101557557D02*
X154955826Y-101521842D01*
X154955826Y-101521842D02*
X154920112Y-101486128D01*
X154920112Y-101486128D02*
X154884398Y-101414700D01*
X154884398Y-101414700D02*
X154884398Y-101343271D01*
X154884398Y-101343271D02*
X154920112Y-101271842D01*
X154920112Y-101271842D02*
X154955826Y-101236128D01*
X154955826Y-101236128D02*
X155027255Y-101200414D01*
X155027255Y-101200414D02*
X155205826Y-101200414D01*
X155205826Y-101200414D02*
X155312969Y-101236128D01*
X155527255Y-101200414D02*
X155955827Y-101200414D01*
X155741541Y-101950414D02*
X155741541Y-101200414D01*
X156705827Y-101200414D02*
X157170113Y-101200414D01*
X157170113Y-101200414D02*
X156920113Y-101486128D01*
X156920113Y-101486128D02*
X157027256Y-101486128D01*
X157027256Y-101486128D02*
X157098685Y-101521842D01*
X157098685Y-101521842D02*
X157134399Y-101557557D01*
X157134399Y-101557557D02*
X157170113Y-101628985D01*
X157170113Y-101628985D02*
X157170113Y-101807557D01*
X157170113Y-101807557D02*
X157134399Y-101878985D01*
X157134399Y-101878985D02*
X157098685Y-101914700D01*
X157098685Y-101914700D02*
X157027256Y-101950414D01*
X157027256Y-101950414D02*
X156812970Y-101950414D01*
X156812970Y-101950414D02*
X156741542Y-101914700D01*
X156741542Y-101914700D02*
X156705827Y-101878985D01*
X157384399Y-101200414D02*
X157634399Y-101950414D01*
X157634399Y-101950414D02*
X157884399Y-101200414D01*
X158062970Y-101200414D02*
X158527256Y-101200414D01*
X158527256Y-101200414D02*
X158277256Y-101486128D01*
X158277256Y-101486128D02*
X158384399Y-101486128D01*
X158384399Y-101486128D02*
X158455828Y-101521842D01*
X158455828Y-101521842D02*
X158491542Y-101557557D01*
X158491542Y-101557557D02*
X158527256Y-101628985D01*
X158527256Y-101628985D02*
X158527256Y-101807557D01*
X158527256Y-101807557D02*
X158491542Y-101878985D01*
X158491542Y-101878985D02*
X158455828Y-101914700D01*
X158455828Y-101914700D02*
X158384399Y-101950414D01*
X158384399Y-101950414D02*
X158170113Y-101950414D01*
X158170113Y-101950414D02*
X158098685Y-101914700D01*
X158098685Y-101914700D02*
X158062970Y-101878985D01*
X159777257Y-101200414D02*
X159420114Y-101200414D01*
X159420114Y-101200414D02*
X159384400Y-101557557D01*
X159384400Y-101557557D02*
X159420114Y-101521842D01*
X159420114Y-101521842D02*
X159491543Y-101486128D01*
X159491543Y-101486128D02*
X159670114Y-101486128D01*
X159670114Y-101486128D02*
X159741543Y-101521842D01*
X159741543Y-101521842D02*
X159777257Y-101557557D01*
X159777257Y-101557557D02*
X159812971Y-101628985D01*
X159812971Y-101628985D02*
X159812971Y-101807557D01*
X159812971Y-101807557D02*
X159777257Y-101878985D01*
X159777257Y-101878985D02*
X159741543Y-101914700D01*
X159741543Y-101914700D02*
X159670114Y-101950414D01*
X159670114Y-101950414D02*
X159491543Y-101950414D01*
X159491543Y-101950414D02*
X159420114Y-101914700D01*
X159420114Y-101914700D02*
X159384400Y-101878985D01*
X160027257Y-101200414D02*
X160277257Y-101950414D01*
X160277257Y-101950414D02*
X160527257Y-101200414D01*
X161741543Y-101236128D02*
X161670115Y-101200414D01*
X161670115Y-101200414D02*
X161562972Y-101200414D01*
X161562972Y-101200414D02*
X161455829Y-101236128D01*
X161455829Y-101236128D02*
X161384400Y-101307557D01*
X161384400Y-101307557D02*
X161348686Y-101378985D01*
X161348686Y-101378985D02*
X161312972Y-101521842D01*
X161312972Y-101521842D02*
X161312972Y-101628985D01*
X161312972Y-101628985D02*
X161348686Y-101771842D01*
X161348686Y-101771842D02*
X161384400Y-101843271D01*
X161384400Y-101843271D02*
X161455829Y-101914700D01*
X161455829Y-101914700D02*
X161562972Y-101950414D01*
X161562972Y-101950414D02*
X161634400Y-101950414D01*
X161634400Y-101950414D02*
X161741543Y-101914700D01*
X161741543Y-101914700D02*
X161777257Y-101878985D01*
X161777257Y-101878985D02*
X161777257Y-101628985D01*
X161777257Y-101628985D02*
X161634400Y-101628985D01*
X162098686Y-101950414D02*
X162098686Y-101200414D01*
X162098686Y-101200414D02*
X162527257Y-101950414D01*
X162527257Y-101950414D02*
X162527257Y-101200414D01*
X162884400Y-101950414D02*
X162884400Y-101200414D01*
X162884400Y-101200414D02*
X163062971Y-101200414D01*
X163062971Y-101200414D02*
X163170114Y-101236128D01*
X163170114Y-101236128D02*
X163241543Y-101307557D01*
X163241543Y-101307557D02*
X163277257Y-101378985D01*
X163277257Y-101378985D02*
X163312971Y-101521842D01*
X163312971Y-101521842D02*
X163312971Y-101628985D01*
X163312971Y-101628985D02*
X163277257Y-101771842D01*
X163277257Y-101771842D02*
X163241543Y-101843271D01*
X163241543Y-101843271D02*
X163170114Y-101914700D01*
X163170114Y-101914700D02*
X163062971Y-101950414D01*
X163062971Y-101950414D02*
X162884400Y-101950414D01*
X164598686Y-101236128D02*
X164527258Y-101200414D01*
X164527258Y-101200414D02*
X164420115Y-101200414D01*
X164420115Y-101200414D02*
X164312972Y-101236128D01*
X164312972Y-101236128D02*
X164241543Y-101307557D01*
X164241543Y-101307557D02*
X164205829Y-101378985D01*
X164205829Y-101378985D02*
X164170115Y-101521842D01*
X164170115Y-101521842D02*
X164170115Y-101628985D01*
X164170115Y-101628985D02*
X164205829Y-101771842D01*
X164205829Y-101771842D02*
X164241543Y-101843271D01*
X164241543Y-101843271D02*
X164312972Y-101914700D01*
X164312972Y-101914700D02*
X164420115Y-101950414D01*
X164420115Y-101950414D02*
X164491543Y-101950414D01*
X164491543Y-101950414D02*
X164598686Y-101914700D01*
X164598686Y-101914700D02*
X164634400Y-101878985D01*
X164634400Y-101878985D02*
X164634400Y-101628985D01*
X164634400Y-101628985D02*
X164491543Y-101628985D01*
X164955829Y-101950414D02*
X164955829Y-101200414D01*
X164955829Y-101200414D02*
X165384400Y-101950414D01*
X165384400Y-101950414D02*
X165384400Y-101200414D01*
X165741543Y-101950414D02*
X165741543Y-101200414D01*
X165741543Y-101200414D02*
X165920114Y-101200414D01*
X165920114Y-101200414D02*
X166027257Y-101236128D01*
X166027257Y-101236128D02*
X166098686Y-101307557D01*
X166098686Y-101307557D02*
X166134400Y-101378985D01*
X166134400Y-101378985D02*
X166170114Y-101521842D01*
X166170114Y-101521842D02*
X166170114Y-101628985D01*
X166170114Y-101628985D02*
X166134400Y-101771842D01*
X166134400Y-101771842D02*
X166098686Y-101843271D01*
X166098686Y-101843271D02*
X166027257Y-101914700D01*
X166027257Y-101914700D02*
X165920114Y-101950414D01*
X165920114Y-101950414D02*
X165741543Y-101950414D01*
X166955829Y-101200414D02*
X167205829Y-101950414D01*
X167205829Y-101950414D02*
X167455829Y-101200414D01*
X167705829Y-101950414D02*
X167705829Y-101200414D01*
X168062972Y-101950414D02*
X168062972Y-101200414D01*
X168062972Y-101200414D02*
X168491543Y-101950414D01*
X168491543Y-101950414D02*
X168491543Y-101200414D01*
X156238095Y-60354819D02*
X156238095Y-61164342D01*
X156238095Y-61164342D02*
X156285714Y-61259580D01*
X156285714Y-61259580D02*
X156333333Y-61307200D01*
X156333333Y-61307200D02*
X156428571Y-61354819D01*
X156428571Y-61354819D02*
X156619047Y-61354819D01*
X156619047Y-61354819D02*
X156714285Y-61307200D01*
X156714285Y-61307200D02*
X156761904Y-61259580D01*
X156761904Y-61259580D02*
X156809523Y-61164342D01*
X156809523Y-61164342D02*
X156809523Y-60354819D01*
X157714285Y-60354819D02*
X157523809Y-60354819D01*
X157523809Y-60354819D02*
X157428571Y-60402438D01*
X157428571Y-60402438D02*
X157380952Y-60450057D01*
X157380952Y-60450057D02*
X157285714Y-60592914D01*
X157285714Y-60592914D02*
X157238095Y-60783390D01*
X157238095Y-60783390D02*
X157238095Y-61164342D01*
X157238095Y-61164342D02*
X157285714Y-61259580D01*
X157285714Y-61259580D02*
X157333333Y-61307200D01*
X157333333Y-61307200D02*
X157428571Y-61354819D01*
X157428571Y-61354819D02*
X157619047Y-61354819D01*
X157619047Y-61354819D02*
X157714285Y-61307200D01*
X157714285Y-61307200D02*
X157761904Y-61259580D01*
X157761904Y-61259580D02*
X157809523Y-61164342D01*
X157809523Y-61164342D02*
X157809523Y-60926247D01*
X157809523Y-60926247D02*
X157761904Y-60831009D01*
X157761904Y-60831009D02*
X157714285Y-60783390D01*
X157714285Y-60783390D02*
X157619047Y-60735771D01*
X157619047Y-60735771D02*
X157428571Y-60735771D01*
X157428571Y-60735771D02*
X157333333Y-60783390D01*
X157333333Y-60783390D02*
X157285714Y-60831009D01*
X157285714Y-60831009D02*
X157238095Y-60926247D01*
X151238095Y-60354819D02*
X151238095Y-61164342D01*
X151238095Y-61164342D02*
X151285714Y-61259580D01*
X151285714Y-61259580D02*
X151333333Y-61307200D01*
X151333333Y-61307200D02*
X151428571Y-61354819D01*
X151428571Y-61354819D02*
X151619047Y-61354819D01*
X151619047Y-61354819D02*
X151714285Y-61307200D01*
X151714285Y-61307200D02*
X151761904Y-61259580D01*
X151761904Y-61259580D02*
X151809523Y-61164342D01*
X151809523Y-61164342D02*
X151809523Y-60354819D01*
X152190476Y-60354819D02*
X152857142Y-60354819D01*
X152857142Y-60354819D02*
X152428571Y-61354819D01*
X161238095Y-60354819D02*
X161238095Y-61164342D01*
X161238095Y-61164342D02*
X161285714Y-61259580D01*
X161285714Y-61259580D02*
X161333333Y-61307200D01*
X161333333Y-61307200D02*
X161428571Y-61354819D01*
X161428571Y-61354819D02*
X161619047Y-61354819D01*
X161619047Y-61354819D02*
X161714285Y-61307200D01*
X161714285Y-61307200D02*
X161761904Y-61259580D01*
X161761904Y-61259580D02*
X161809523Y-61164342D01*
X161809523Y-61164342D02*
X161809523Y-60354819D01*
X162428571Y-60783390D02*
X162333333Y-60735771D01*
X162333333Y-60735771D02*
X162285714Y-60688152D01*
X162285714Y-60688152D02*
X162238095Y-60592914D01*
X162238095Y-60592914D02*
X162238095Y-60545295D01*
X162238095Y-60545295D02*
X162285714Y-60450057D01*
X162285714Y-60450057D02*
X162333333Y-60402438D01*
X162333333Y-60402438D02*
X162428571Y-60354819D01*
X162428571Y-60354819D02*
X162619047Y-60354819D01*
X162619047Y-60354819D02*
X162714285Y-60402438D01*
X162714285Y-60402438D02*
X162761904Y-60450057D01*
X162761904Y-60450057D02*
X162809523Y-60545295D01*
X162809523Y-60545295D02*
X162809523Y-60592914D01*
X162809523Y-60592914D02*
X162761904Y-60688152D01*
X162761904Y-60688152D02*
X162714285Y-60735771D01*
X162714285Y-60735771D02*
X162619047Y-60783390D01*
X162619047Y-60783390D02*
X162428571Y-60783390D01*
X162428571Y-60783390D02*
X162333333Y-60831009D01*
X162333333Y-60831009D02*
X162285714Y-60878628D01*
X162285714Y-60878628D02*
X162238095Y-60973866D01*
X162238095Y-60973866D02*
X162238095Y-61164342D01*
X162238095Y-61164342D02*
X162285714Y-61259580D01*
X162285714Y-61259580D02*
X162333333Y-61307200D01*
X162333333Y-61307200D02*
X162428571Y-61354819D01*
X162428571Y-61354819D02*
X162619047Y-61354819D01*
X162619047Y-61354819D02*
X162714285Y-61307200D01*
X162714285Y-61307200D02*
X162761904Y-61259580D01*
X162761904Y-61259580D02*
X162809523Y-61164342D01*
X162809523Y-61164342D02*
X162809523Y-60973866D01*
X162809523Y-60973866D02*
X162761904Y-60878628D01*
X162761904Y-60878628D02*
X162714285Y-60831009D01*
X162714285Y-60831009D02*
X162619047Y-60783390D01*
X166238095Y-60354819D02*
X166238095Y-61164342D01*
X166238095Y-61164342D02*
X166285714Y-61259580D01*
X166285714Y-61259580D02*
X166333333Y-61307200D01*
X166333333Y-61307200D02*
X166428571Y-61354819D01*
X166428571Y-61354819D02*
X166619047Y-61354819D01*
X166619047Y-61354819D02*
X166714285Y-61307200D01*
X166714285Y-61307200D02*
X166761904Y-61259580D01*
X166761904Y-61259580D02*
X166809523Y-61164342D01*
X166809523Y-61164342D02*
X166809523Y-60354819D01*
X167333333Y-61354819D02*
X167523809Y-61354819D01*
X167523809Y-61354819D02*
X167619047Y-61307200D01*
X167619047Y-61307200D02*
X167666666Y-61259580D01*
X167666666Y-61259580D02*
X167761904Y-61116723D01*
X167761904Y-61116723D02*
X167809523Y-60926247D01*
X167809523Y-60926247D02*
X167809523Y-60545295D01*
X167809523Y-60545295D02*
X167761904Y-60450057D01*
X167761904Y-60450057D02*
X167714285Y-60402438D01*
X167714285Y-60402438D02*
X167619047Y-60354819D01*
X167619047Y-60354819D02*
X167428571Y-60354819D01*
X167428571Y-60354819D02*
X167333333Y-60402438D01*
X167333333Y-60402438D02*
X167285714Y-60450057D01*
X167285714Y-60450057D02*
X167238095Y-60545295D01*
X167238095Y-60545295D02*
X167238095Y-60783390D01*
X167238095Y-60783390D02*
X167285714Y-60878628D01*
X167285714Y-60878628D02*
X167333333Y-60926247D01*
X167333333Y-60926247D02*
X167428571Y-60973866D01*
X167428571Y-60973866D02*
X167619047Y-60973866D01*
X167619047Y-60973866D02*
X167714285Y-60926247D01*
X167714285Y-60926247D02*
X167761904Y-60878628D01*
X167761904Y-60878628D02*
X167809523Y-60783390D01*
X139261905Y-53054819D02*
X139261905Y-53864342D01*
X139261905Y-53864342D02*
X139309524Y-53959580D01*
X139309524Y-53959580D02*
X139357143Y-54007200D01*
X139357143Y-54007200D02*
X139452381Y-54054819D01*
X139452381Y-54054819D02*
X139642857Y-54054819D01*
X139642857Y-54054819D02*
X139738095Y-54007200D01*
X139738095Y-54007200D02*
X139785714Y-53959580D01*
X139785714Y-53959580D02*
X139833333Y-53864342D01*
X139833333Y-53864342D02*
X139833333Y-53054819D01*
X140833333Y-54054819D02*
X140261905Y-54054819D01*
X140547619Y-54054819D02*
X140547619Y-53054819D01*
X140547619Y-53054819D02*
X140452381Y-53197676D01*
X140452381Y-53197676D02*
X140357143Y-53292914D01*
X140357143Y-53292914D02*
X140261905Y-53340533D01*
X141690476Y-53388152D02*
X141690476Y-54054819D01*
X141452381Y-53007200D02*
X141214286Y-53721485D01*
X141214286Y-53721485D02*
X141833333Y-53721485D01*
X181917319Y-83141666D02*
X181441128Y-83474999D01*
X181917319Y-83713094D02*
X180917319Y-83713094D01*
X180917319Y-83713094D02*
X180917319Y-83332142D01*
X180917319Y-83332142D02*
X180964938Y-83236904D01*
X180964938Y-83236904D02*
X181012557Y-83189285D01*
X181012557Y-83189285D02*
X181107795Y-83141666D01*
X181107795Y-83141666D02*
X181250652Y-83141666D01*
X181250652Y-83141666D02*
X181345890Y-83189285D01*
X181345890Y-83189285D02*
X181393509Y-83236904D01*
X181393509Y-83236904D02*
X181441128Y-83332142D01*
X181441128Y-83332142D02*
X181441128Y-83713094D01*
X180917319Y-82236904D02*
X180917319Y-82713094D01*
X180917319Y-82713094D02*
X181393509Y-82760713D01*
X181393509Y-82760713D02*
X181345890Y-82713094D01*
X181345890Y-82713094D02*
X181298271Y-82617856D01*
X181298271Y-82617856D02*
X181298271Y-82379761D01*
X181298271Y-82379761D02*
X181345890Y-82284523D01*
X181345890Y-82284523D02*
X181393509Y-82236904D01*
X181393509Y-82236904D02*
X181488747Y-82189285D01*
X181488747Y-82189285D02*
X181726842Y-82189285D01*
X181726842Y-82189285D02*
X181822080Y-82236904D01*
X181822080Y-82236904D02*
X181869700Y-82284523D01*
X181869700Y-82284523D02*
X181917319Y-82379761D01*
X181917319Y-82379761D02*
X181917319Y-82617856D01*
X181917319Y-82617856D02*
X181869700Y-82713094D01*
X181869700Y-82713094D02*
X181822080Y-82760713D01*
X171649999Y-92217735D02*
X171614285Y-92253450D01*
X171614285Y-92253450D02*
X171507142Y-92289164D01*
X171507142Y-92289164D02*
X171435714Y-92289164D01*
X171435714Y-92289164D02*
X171328571Y-92253450D01*
X171328571Y-92253450D02*
X171257142Y-92182021D01*
X171257142Y-92182021D02*
X171221428Y-92110592D01*
X171221428Y-92110592D02*
X171185714Y-91967735D01*
X171185714Y-91967735D02*
X171185714Y-91860592D01*
X171185714Y-91860592D02*
X171221428Y-91717735D01*
X171221428Y-91717735D02*
X171257142Y-91646307D01*
X171257142Y-91646307D02*
X171328571Y-91574878D01*
X171328571Y-91574878D02*
X171435714Y-91539164D01*
X171435714Y-91539164D02*
X171507142Y-91539164D01*
X171507142Y-91539164D02*
X171614285Y-91574878D01*
X171614285Y-91574878D02*
X171649999Y-91610592D01*
X171935714Y-91610592D02*
X171971428Y-91574878D01*
X171971428Y-91574878D02*
X172042857Y-91539164D01*
X172042857Y-91539164D02*
X172221428Y-91539164D01*
X172221428Y-91539164D02*
X172292857Y-91574878D01*
X172292857Y-91574878D02*
X172328571Y-91610592D01*
X172328571Y-91610592D02*
X172364285Y-91682021D01*
X172364285Y-91682021D02*
X172364285Y-91753450D01*
X172364285Y-91753450D02*
X172328571Y-91860592D01*
X172328571Y-91860592D02*
X171899999Y-92289164D01*
X171899999Y-92289164D02*
X172364285Y-92289164D01*
X184783333Y-53984580D02*
X184735714Y-54032200D01*
X184735714Y-54032200D02*
X184592857Y-54079819D01*
X184592857Y-54079819D02*
X184497619Y-54079819D01*
X184497619Y-54079819D02*
X184354762Y-54032200D01*
X184354762Y-54032200D02*
X184259524Y-53936961D01*
X184259524Y-53936961D02*
X184211905Y-53841723D01*
X184211905Y-53841723D02*
X184164286Y-53651247D01*
X184164286Y-53651247D02*
X184164286Y-53508390D01*
X184164286Y-53508390D02*
X184211905Y-53317914D01*
X184211905Y-53317914D02*
X184259524Y-53222676D01*
X184259524Y-53222676D02*
X184354762Y-53127438D01*
X184354762Y-53127438D02*
X184497619Y-53079819D01*
X184497619Y-53079819D02*
X184592857Y-53079819D01*
X184592857Y-53079819D02*
X184735714Y-53127438D01*
X184735714Y-53127438D02*
X184783333Y-53175057D01*
X185211905Y-53079819D02*
X185211905Y-53889342D01*
X185211905Y-53889342D02*
X185259524Y-53984580D01*
X185259524Y-53984580D02*
X185307143Y-54032200D01*
X185307143Y-54032200D02*
X185402381Y-54079819D01*
X185402381Y-54079819D02*
X185592857Y-54079819D01*
X185592857Y-54079819D02*
X185688095Y-54032200D01*
X185688095Y-54032200D02*
X185735714Y-53984580D01*
X185735714Y-53984580D02*
X185783333Y-53889342D01*
X185783333Y-53889342D02*
X185783333Y-53079819D01*
X186783333Y-54079819D02*
X186211905Y-54079819D01*
X186497619Y-54079819D02*
X186497619Y-53079819D01*
X186497619Y-53079819D02*
X186402381Y-53222676D01*
X186402381Y-53222676D02*
X186307143Y-53317914D01*
X186307143Y-53317914D02*
X186211905Y-53365533D01*
X187116667Y-53079819D02*
X187735714Y-53079819D01*
X187735714Y-53079819D02*
X187402381Y-53460771D01*
X187402381Y-53460771D02*
X187545238Y-53460771D01*
X187545238Y-53460771D02*
X187640476Y-53508390D01*
X187640476Y-53508390D02*
X187688095Y-53556009D01*
X187688095Y-53556009D02*
X187735714Y-53651247D01*
X187735714Y-53651247D02*
X187735714Y-53889342D01*
X187735714Y-53889342D02*
X187688095Y-53984580D01*
X187688095Y-53984580D02*
X187640476Y-54032200D01*
X187640476Y-54032200D02*
X187545238Y-54079819D01*
X187545238Y-54079819D02*
X187259524Y-54079819D01*
X187259524Y-54079819D02*
X187164286Y-54032200D01*
X187164286Y-54032200D02*
X187116667Y-53984580D01*
X185801905Y-64694819D02*
X185801905Y-63694819D01*
X185801905Y-63694819D02*
X186040000Y-63694819D01*
X186040000Y-63694819D02*
X186182857Y-63742438D01*
X186182857Y-63742438D02*
X186278095Y-63837676D01*
X186278095Y-63837676D02*
X186325714Y-63932914D01*
X186325714Y-63932914D02*
X186373333Y-64123390D01*
X186373333Y-64123390D02*
X186373333Y-64266247D01*
X186373333Y-64266247D02*
X186325714Y-64456723D01*
X186325714Y-64456723D02*
X186278095Y-64551961D01*
X186278095Y-64551961D02*
X186182857Y-64647200D01*
X186182857Y-64647200D02*
X186040000Y-64694819D01*
X186040000Y-64694819D02*
X185801905Y-64694819D01*
X187325714Y-64694819D02*
X186754286Y-64694819D01*
X187040000Y-64694819D02*
X187040000Y-63694819D01*
X187040000Y-63694819D02*
X186944762Y-63837676D01*
X186944762Y-63837676D02*
X186849524Y-63932914D01*
X186849524Y-63932914D02*
X186754286Y-63980533D01*
X129083333Y-84959580D02*
X129035714Y-85007200D01*
X129035714Y-85007200D02*
X128892857Y-85054819D01*
X128892857Y-85054819D02*
X128797619Y-85054819D01*
X128797619Y-85054819D02*
X128654762Y-85007200D01*
X128654762Y-85007200D02*
X128559524Y-84911961D01*
X128559524Y-84911961D02*
X128511905Y-84816723D01*
X128511905Y-84816723D02*
X128464286Y-84626247D01*
X128464286Y-84626247D02*
X128464286Y-84483390D01*
X128464286Y-84483390D02*
X128511905Y-84292914D01*
X128511905Y-84292914D02*
X128559524Y-84197676D01*
X128559524Y-84197676D02*
X128654762Y-84102438D01*
X128654762Y-84102438D02*
X128797619Y-84054819D01*
X128797619Y-84054819D02*
X128892857Y-84054819D01*
X128892857Y-84054819D02*
X129035714Y-84102438D01*
X129035714Y-84102438D02*
X129083333Y-84150057D01*
X130035714Y-85054819D02*
X129464286Y-85054819D01*
X129750000Y-85054819D02*
X129750000Y-84054819D01*
X129750000Y-84054819D02*
X129654762Y-84197676D01*
X129654762Y-84197676D02*
X129559524Y-84292914D01*
X129559524Y-84292914D02*
X129464286Y-84340533D01*
X152574999Y-97717735D02*
X152539285Y-97753450D01*
X152539285Y-97753450D02*
X152432142Y-97789164D01*
X152432142Y-97789164D02*
X152360714Y-97789164D01*
X152360714Y-97789164D02*
X152253571Y-97753450D01*
X152253571Y-97753450D02*
X152182142Y-97682021D01*
X152182142Y-97682021D02*
X152146428Y-97610592D01*
X152146428Y-97610592D02*
X152110714Y-97467735D01*
X152110714Y-97467735D02*
X152110714Y-97360592D01*
X152110714Y-97360592D02*
X152146428Y-97217735D01*
X152146428Y-97217735D02*
X152182142Y-97146307D01*
X152182142Y-97146307D02*
X152253571Y-97074878D01*
X152253571Y-97074878D02*
X152360714Y-97039164D01*
X152360714Y-97039164D02*
X152432142Y-97039164D01*
X152432142Y-97039164D02*
X152539285Y-97074878D01*
X152539285Y-97074878D02*
X152574999Y-97110592D01*
X153217857Y-97289164D02*
X153217857Y-97789164D01*
X153039285Y-97003450D02*
X152860714Y-97539164D01*
X152860714Y-97539164D02*
X153324999Y-97539164D01*
X122354819Y-85161904D02*
X123164342Y-85161904D01*
X123164342Y-85161904D02*
X123259580Y-85114285D01*
X123259580Y-85114285D02*
X123307200Y-85066666D01*
X123307200Y-85066666D02*
X123354819Y-84971428D01*
X123354819Y-84971428D02*
X123354819Y-84780952D01*
X123354819Y-84780952D02*
X123307200Y-84685714D01*
X123307200Y-84685714D02*
X123259580Y-84638095D01*
X123259580Y-84638095D02*
X123164342Y-84590476D01*
X123164342Y-84590476D02*
X122354819Y-84590476D01*
X122450057Y-84161904D02*
X122402438Y-84114285D01*
X122402438Y-84114285D02*
X122354819Y-84019047D01*
X122354819Y-84019047D02*
X122354819Y-83780952D01*
X122354819Y-83780952D02*
X122402438Y-83685714D01*
X122402438Y-83685714D02*
X122450057Y-83638095D01*
X122450057Y-83638095D02*
X122545295Y-83590476D01*
X122545295Y-83590476D02*
X122640533Y-83590476D01*
X122640533Y-83590476D02*
X122783390Y-83638095D01*
X122783390Y-83638095D02*
X123354819Y-84209523D01*
X123354819Y-84209523D02*
X123354819Y-83590476D01*
X180761905Y-53579819D02*
X180761905Y-54389342D01*
X180761905Y-54389342D02*
X180809524Y-54484580D01*
X180809524Y-54484580D02*
X180857143Y-54532200D01*
X180857143Y-54532200D02*
X180952381Y-54579819D01*
X180952381Y-54579819D02*
X181142857Y-54579819D01*
X181142857Y-54579819D02*
X181238095Y-54532200D01*
X181238095Y-54532200D02*
X181285714Y-54484580D01*
X181285714Y-54484580D02*
X181333333Y-54389342D01*
X181333333Y-54389342D02*
X181333333Y-53579819D01*
X182333333Y-54579819D02*
X181761905Y-54579819D01*
X182047619Y-54579819D02*
X182047619Y-53579819D01*
X182047619Y-53579819D02*
X181952381Y-53722676D01*
X181952381Y-53722676D02*
X181857143Y-53817914D01*
X181857143Y-53817914D02*
X181761905Y-53865533D01*
X182666667Y-53579819D02*
X183285714Y-53579819D01*
X183285714Y-53579819D02*
X182952381Y-53960771D01*
X182952381Y-53960771D02*
X183095238Y-53960771D01*
X183095238Y-53960771D02*
X183190476Y-54008390D01*
X183190476Y-54008390D02*
X183238095Y-54056009D01*
X183238095Y-54056009D02*
X183285714Y-54151247D01*
X183285714Y-54151247D02*
X183285714Y-54389342D01*
X183285714Y-54389342D02*
X183238095Y-54484580D01*
X183238095Y-54484580D02*
X183190476Y-54532200D01*
X183190476Y-54532200D02*
X183095238Y-54579819D01*
X183095238Y-54579819D02*
X182809524Y-54579819D01*
X182809524Y-54579819D02*
X182714286Y-54532200D01*
X182714286Y-54532200D02*
X182666667Y-54484580D01*
X156058333Y-92304819D02*
X155582143Y-92304819D01*
X155582143Y-92304819D02*
X155582143Y-91304819D01*
X156915476Y-92304819D02*
X156344048Y-92304819D01*
X156629762Y-92304819D02*
X156629762Y-91304819D01*
X156629762Y-91304819D02*
X156534524Y-91447676D01*
X156534524Y-91447676D02*
X156439286Y-91542914D01*
X156439286Y-91542914D02*
X156344048Y-91590533D01*
X185136905Y-86604819D02*
X185136905Y-85604819D01*
X185136905Y-85604819D02*
X185375000Y-85604819D01*
X185375000Y-85604819D02*
X185517857Y-85652438D01*
X185517857Y-85652438D02*
X185613095Y-85747676D01*
X185613095Y-85747676D02*
X185660714Y-85842914D01*
X185660714Y-85842914D02*
X185708333Y-86033390D01*
X185708333Y-86033390D02*
X185708333Y-86176247D01*
X185708333Y-86176247D02*
X185660714Y-86366723D01*
X185660714Y-86366723D02*
X185613095Y-86461961D01*
X185613095Y-86461961D02*
X185517857Y-86557200D01*
X185517857Y-86557200D02*
X185375000Y-86604819D01*
X185375000Y-86604819D02*
X185136905Y-86604819D01*
X186613095Y-85604819D02*
X186136905Y-85604819D01*
X186136905Y-85604819D02*
X186089286Y-86081009D01*
X186089286Y-86081009D02*
X186136905Y-86033390D01*
X186136905Y-86033390D02*
X186232143Y-85985771D01*
X186232143Y-85985771D02*
X186470238Y-85985771D01*
X186470238Y-85985771D02*
X186565476Y-86033390D01*
X186565476Y-86033390D02*
X186613095Y-86081009D01*
X186613095Y-86081009D02*
X186660714Y-86176247D01*
X186660714Y-86176247D02*
X186660714Y-86414342D01*
X186660714Y-86414342D02*
X186613095Y-86509580D01*
X186613095Y-86509580D02*
X186565476Y-86557200D01*
X186565476Y-86557200D02*
X186470238Y-86604819D01*
X186470238Y-86604819D02*
X186232143Y-86604819D01*
X186232143Y-86604819D02*
X186136905Y-86557200D01*
X186136905Y-86557200D02*
X186089286Y-86509580D01*
X180629819Y-82238094D02*
X181439342Y-82238094D01*
X181439342Y-82238094D02*
X181534580Y-82190475D01*
X181534580Y-82190475D02*
X181582200Y-82142856D01*
X181582200Y-82142856D02*
X181629819Y-82047618D01*
X181629819Y-82047618D02*
X181629819Y-81857142D01*
X181629819Y-81857142D02*
X181582200Y-81761904D01*
X181582200Y-81761904D02*
X181534580Y-81714285D01*
X181534580Y-81714285D02*
X181439342Y-81666666D01*
X181439342Y-81666666D02*
X180629819Y-81666666D01*
X181629819Y-80666666D02*
X181629819Y-81238094D01*
X181629819Y-80952380D02*
X180629819Y-80952380D01*
X180629819Y-80952380D02*
X180772676Y-81047618D01*
X180772676Y-81047618D02*
X180867914Y-81142856D01*
X180867914Y-81142856D02*
X180915533Y-81238094D01*
X180629819Y-80047618D02*
X180629819Y-79952380D01*
X180629819Y-79952380D02*
X180677438Y-79857142D01*
X180677438Y-79857142D02*
X180725057Y-79809523D01*
X180725057Y-79809523D02*
X180820295Y-79761904D01*
X180820295Y-79761904D02*
X181010771Y-79714285D01*
X181010771Y-79714285D02*
X181248866Y-79714285D01*
X181248866Y-79714285D02*
X181439342Y-79761904D01*
X181439342Y-79761904D02*
X181534580Y-79809523D01*
X181534580Y-79809523D02*
X181582200Y-79857142D01*
X181582200Y-79857142D02*
X181629819Y-79952380D01*
X181629819Y-79952380D02*
X181629819Y-80047618D01*
X181629819Y-80047618D02*
X181582200Y-80142856D01*
X181582200Y-80142856D02*
X181534580Y-80190475D01*
X181534580Y-80190475D02*
X181439342Y-80238094D01*
X181439342Y-80238094D02*
X181248866Y-80285713D01*
X181248866Y-80285713D02*
X181010771Y-80285713D01*
X181010771Y-80285713D02*
X180820295Y-80238094D01*
X180820295Y-80238094D02*
X180725057Y-80190475D01*
X180725057Y-80190475D02*
X180677438Y-80142856D01*
X180677438Y-80142856D02*
X180629819Y-80047618D01*
X132283333Y-96254819D02*
X131950000Y-95778628D01*
X131711905Y-96254819D02*
X131711905Y-95254819D01*
X131711905Y-95254819D02*
X132092857Y-95254819D01*
X132092857Y-95254819D02*
X132188095Y-95302438D01*
X132188095Y-95302438D02*
X132235714Y-95350057D01*
X132235714Y-95350057D02*
X132283333Y-95445295D01*
X132283333Y-95445295D02*
X132283333Y-95588152D01*
X132283333Y-95588152D02*
X132235714Y-95683390D01*
X132235714Y-95683390D02*
X132188095Y-95731009D01*
X132188095Y-95731009D02*
X132092857Y-95778628D01*
X132092857Y-95778628D02*
X131711905Y-95778628D01*
X133235714Y-96254819D02*
X132664286Y-96254819D01*
X132950000Y-96254819D02*
X132950000Y-95254819D01*
X132950000Y-95254819D02*
X132854762Y-95397676D01*
X132854762Y-95397676D02*
X132759524Y-95492914D01*
X132759524Y-95492914D02*
X132664286Y-95540533D01*
X129159580Y-78340476D02*
X129207200Y-78388095D01*
X129207200Y-78388095D02*
X129254819Y-78530952D01*
X129254819Y-78530952D02*
X129254819Y-78626190D01*
X129254819Y-78626190D02*
X129207200Y-78769047D01*
X129207200Y-78769047D02*
X129111961Y-78864285D01*
X129111961Y-78864285D02*
X129016723Y-78911904D01*
X129016723Y-78911904D02*
X128826247Y-78959523D01*
X128826247Y-78959523D02*
X128683390Y-78959523D01*
X128683390Y-78959523D02*
X128492914Y-78911904D01*
X128492914Y-78911904D02*
X128397676Y-78864285D01*
X128397676Y-78864285D02*
X128302438Y-78769047D01*
X128302438Y-78769047D02*
X128254819Y-78626190D01*
X128254819Y-78626190D02*
X128254819Y-78530952D01*
X128254819Y-78530952D02*
X128302438Y-78388095D01*
X128302438Y-78388095D02*
X128350057Y-78340476D01*
X128254819Y-77911904D02*
X129064342Y-77911904D01*
X129064342Y-77911904D02*
X129159580Y-77864285D01*
X129159580Y-77864285D02*
X129207200Y-77816666D01*
X129207200Y-77816666D02*
X129254819Y-77721428D01*
X129254819Y-77721428D02*
X129254819Y-77530952D01*
X129254819Y-77530952D02*
X129207200Y-77435714D01*
X129207200Y-77435714D02*
X129159580Y-77388095D01*
X129159580Y-77388095D02*
X129064342Y-77340476D01*
X129064342Y-77340476D02*
X128254819Y-77340476D01*
X128350057Y-76911904D02*
X128302438Y-76864285D01*
X128302438Y-76864285D02*
X128254819Y-76769047D01*
X128254819Y-76769047D02*
X128254819Y-76530952D01*
X128254819Y-76530952D02*
X128302438Y-76435714D01*
X128302438Y-76435714D02*
X128350057Y-76388095D01*
X128350057Y-76388095D02*
X128445295Y-76340476D01*
X128445295Y-76340476D02*
X128540533Y-76340476D01*
X128540533Y-76340476D02*
X128683390Y-76388095D01*
X128683390Y-76388095D02*
X129254819Y-76959523D01*
X129254819Y-76959523D02*
X129254819Y-76340476D01*
X185136905Y-88954819D02*
X185136905Y-87954819D01*
X185136905Y-87954819D02*
X185375000Y-87954819D01*
X185375000Y-87954819D02*
X185517857Y-88002438D01*
X185517857Y-88002438D02*
X185613095Y-88097676D01*
X185613095Y-88097676D02*
X185660714Y-88192914D01*
X185660714Y-88192914D02*
X185708333Y-88383390D01*
X185708333Y-88383390D02*
X185708333Y-88526247D01*
X185708333Y-88526247D02*
X185660714Y-88716723D01*
X185660714Y-88716723D02*
X185613095Y-88811961D01*
X185613095Y-88811961D02*
X185517857Y-88907200D01*
X185517857Y-88907200D02*
X185375000Y-88954819D01*
X185375000Y-88954819D02*
X185136905Y-88954819D01*
X186565476Y-88288152D02*
X186565476Y-88954819D01*
X186327381Y-87907200D02*
X186089286Y-88621485D01*
X186089286Y-88621485D02*
X186708333Y-88621485D01*
X177459580Y-69816666D02*
X177507200Y-69864285D01*
X177507200Y-69864285D02*
X177554819Y-70007142D01*
X177554819Y-70007142D02*
X177554819Y-70102380D01*
X177554819Y-70102380D02*
X177507200Y-70245237D01*
X177507200Y-70245237D02*
X177411961Y-70340475D01*
X177411961Y-70340475D02*
X177316723Y-70388094D01*
X177316723Y-70388094D02*
X177126247Y-70435713D01*
X177126247Y-70435713D02*
X176983390Y-70435713D01*
X176983390Y-70435713D02*
X176792914Y-70388094D01*
X176792914Y-70388094D02*
X176697676Y-70340475D01*
X176697676Y-70340475D02*
X176602438Y-70245237D01*
X176602438Y-70245237D02*
X176554819Y-70102380D01*
X176554819Y-70102380D02*
X176554819Y-70007142D01*
X176554819Y-70007142D02*
X176602438Y-69864285D01*
X176602438Y-69864285D02*
X176650057Y-69816666D01*
X176554819Y-69388094D02*
X177364342Y-69388094D01*
X177364342Y-69388094D02*
X177459580Y-69340475D01*
X177459580Y-69340475D02*
X177507200Y-69292856D01*
X177507200Y-69292856D02*
X177554819Y-69197618D01*
X177554819Y-69197618D02*
X177554819Y-69007142D01*
X177554819Y-69007142D02*
X177507200Y-68911904D01*
X177507200Y-68911904D02*
X177459580Y-68864285D01*
X177459580Y-68864285D02*
X177364342Y-68816666D01*
X177364342Y-68816666D02*
X176554819Y-68816666D01*
X177554819Y-67816666D02*
X177554819Y-68388094D01*
X177554819Y-68102380D02*
X176554819Y-68102380D01*
X176554819Y-68102380D02*
X176697676Y-68197618D01*
X176697676Y-68197618D02*
X176792914Y-68292856D01*
X176792914Y-68292856D02*
X176840533Y-68388094D01*
X176554819Y-67197618D02*
X176554819Y-67102380D01*
X176554819Y-67102380D02*
X176602438Y-67007142D01*
X176602438Y-67007142D02*
X176650057Y-66959523D01*
X176650057Y-66959523D02*
X176745295Y-66911904D01*
X176745295Y-66911904D02*
X176935771Y-66864285D01*
X176935771Y-66864285D02*
X177173866Y-66864285D01*
X177173866Y-66864285D02*
X177364342Y-66911904D01*
X177364342Y-66911904D02*
X177459580Y-66959523D01*
X177459580Y-66959523D02*
X177507200Y-67007142D01*
X177507200Y-67007142D02*
X177554819Y-67102380D01*
X177554819Y-67102380D02*
X177554819Y-67197618D01*
X177554819Y-67197618D02*
X177507200Y-67292856D01*
X177507200Y-67292856D02*
X177459580Y-67340475D01*
X177459580Y-67340475D02*
X177364342Y-67388094D01*
X177364342Y-67388094D02*
X177173866Y-67435713D01*
X177173866Y-67435713D02*
X176935771Y-67435713D01*
X176935771Y-67435713D02*
X176745295Y-67388094D01*
X176745295Y-67388094D02*
X176650057Y-67340475D01*
X176650057Y-67340475D02*
X176602438Y-67292856D01*
X176602438Y-67292856D02*
X176554819Y-67197618D01*
X161749999Y-98367735D02*
X161714285Y-98403450D01*
X161714285Y-98403450D02*
X161607142Y-98439164D01*
X161607142Y-98439164D02*
X161535714Y-98439164D01*
X161535714Y-98439164D02*
X161428571Y-98403450D01*
X161428571Y-98403450D02*
X161357142Y-98332021D01*
X161357142Y-98332021D02*
X161321428Y-98260592D01*
X161321428Y-98260592D02*
X161285714Y-98117735D01*
X161285714Y-98117735D02*
X161285714Y-98010592D01*
X161285714Y-98010592D02*
X161321428Y-97867735D01*
X161321428Y-97867735D02*
X161357142Y-97796307D01*
X161357142Y-97796307D02*
X161428571Y-97724878D01*
X161428571Y-97724878D02*
X161535714Y-97689164D01*
X161535714Y-97689164D02*
X161607142Y-97689164D01*
X161607142Y-97689164D02*
X161714285Y-97724878D01*
X161714285Y-97724878D02*
X161749999Y-97760592D01*
X161999999Y-97689164D02*
X162464285Y-97689164D01*
X162464285Y-97689164D02*
X162214285Y-97974878D01*
X162214285Y-97974878D02*
X162321428Y-97974878D01*
X162321428Y-97974878D02*
X162392857Y-98010592D01*
X162392857Y-98010592D02*
X162428571Y-98046307D01*
X162428571Y-98046307D02*
X162464285Y-98117735D01*
X162464285Y-98117735D02*
X162464285Y-98296307D01*
X162464285Y-98296307D02*
X162428571Y-98367735D01*
X162428571Y-98367735D02*
X162392857Y-98403450D01*
X162392857Y-98403450D02*
X162321428Y-98439164D01*
X162321428Y-98439164D02*
X162107142Y-98439164D01*
X162107142Y-98439164D02*
X162035714Y-98403450D01*
X162035714Y-98403450D02*
X161999999Y-98367735D01*
X135254819Y-85161904D02*
X136064342Y-85161904D01*
X136064342Y-85161904D02*
X136159580Y-85114285D01*
X136159580Y-85114285D02*
X136207200Y-85066666D01*
X136207200Y-85066666D02*
X136254819Y-84971428D01*
X136254819Y-84971428D02*
X136254819Y-84780952D01*
X136254819Y-84780952D02*
X136207200Y-84685714D01*
X136207200Y-84685714D02*
X136159580Y-84638095D01*
X136159580Y-84638095D02*
X136064342Y-84590476D01*
X136064342Y-84590476D02*
X135254819Y-84590476D01*
X135254819Y-84209523D02*
X135254819Y-83590476D01*
X135254819Y-83590476D02*
X135635771Y-83923809D01*
X135635771Y-83923809D02*
X135635771Y-83780952D01*
X135635771Y-83780952D02*
X135683390Y-83685714D01*
X135683390Y-83685714D02*
X135731009Y-83638095D01*
X135731009Y-83638095D02*
X135826247Y-83590476D01*
X135826247Y-83590476D02*
X136064342Y-83590476D01*
X136064342Y-83590476D02*
X136159580Y-83638095D01*
X136159580Y-83638095D02*
X136207200Y-83685714D01*
X136207200Y-83685714D02*
X136254819Y-83780952D01*
X136254819Y-83780952D02*
X136254819Y-84066666D01*
X136254819Y-84066666D02*
X136207200Y-84161904D01*
X136207200Y-84161904D02*
X136159580Y-84209523D01*
X173561905Y-92754819D02*
X173561905Y-91754819D01*
X173561905Y-91754819D02*
X173800000Y-91754819D01*
X173800000Y-91754819D02*
X173942857Y-91802438D01*
X173942857Y-91802438D02*
X174038095Y-91897676D01*
X174038095Y-91897676D02*
X174085714Y-91992914D01*
X174085714Y-91992914D02*
X174133333Y-92183390D01*
X174133333Y-92183390D02*
X174133333Y-92326247D01*
X174133333Y-92326247D02*
X174085714Y-92516723D01*
X174085714Y-92516723D02*
X174038095Y-92611961D01*
X174038095Y-92611961D02*
X173942857Y-92707200D01*
X173942857Y-92707200D02*
X173800000Y-92754819D01*
X173800000Y-92754819D02*
X173561905Y-92754819D01*
X174466667Y-91754819D02*
X175085714Y-91754819D01*
X175085714Y-91754819D02*
X174752381Y-92135771D01*
X174752381Y-92135771D02*
X174895238Y-92135771D01*
X174895238Y-92135771D02*
X174990476Y-92183390D01*
X174990476Y-92183390D02*
X175038095Y-92231009D01*
X175038095Y-92231009D02*
X175085714Y-92326247D01*
X175085714Y-92326247D02*
X175085714Y-92564342D01*
X175085714Y-92564342D02*
X175038095Y-92659580D01*
X175038095Y-92659580D02*
X174990476Y-92707200D01*
X174990476Y-92707200D02*
X174895238Y-92754819D01*
X174895238Y-92754819D02*
X174609524Y-92754819D01*
X174609524Y-92754819D02*
X174514286Y-92707200D01*
X174514286Y-92707200D02*
X174466667Y-92659580D01*
X146188095Y-60354819D02*
X146188095Y-61164342D01*
X146188095Y-61164342D02*
X146235714Y-61259580D01*
X146235714Y-61259580D02*
X146283333Y-61307200D01*
X146283333Y-61307200D02*
X146378571Y-61354819D01*
X146378571Y-61354819D02*
X146569047Y-61354819D01*
X146569047Y-61354819D02*
X146664285Y-61307200D01*
X146664285Y-61307200D02*
X146711904Y-61259580D01*
X146711904Y-61259580D02*
X146759523Y-61164342D01*
X146759523Y-61164342D02*
X146759523Y-60354819D01*
X147664285Y-60688152D02*
X147664285Y-61354819D01*
X147426190Y-60307200D02*
X147188095Y-61021485D01*
X147188095Y-61021485D02*
X147807142Y-61021485D01*
X139924999Y-97967735D02*
X139889285Y-98003450D01*
X139889285Y-98003450D02*
X139782142Y-98039164D01*
X139782142Y-98039164D02*
X139710714Y-98039164D01*
X139710714Y-98039164D02*
X139603571Y-98003450D01*
X139603571Y-98003450D02*
X139532142Y-97932021D01*
X139532142Y-97932021D02*
X139496428Y-97860592D01*
X139496428Y-97860592D02*
X139460714Y-97717735D01*
X139460714Y-97717735D02*
X139460714Y-97610592D01*
X139460714Y-97610592D02*
X139496428Y-97467735D01*
X139496428Y-97467735D02*
X139532142Y-97396307D01*
X139532142Y-97396307D02*
X139603571Y-97324878D01*
X139603571Y-97324878D02*
X139710714Y-97289164D01*
X139710714Y-97289164D02*
X139782142Y-97289164D01*
X139782142Y-97289164D02*
X139889285Y-97324878D01*
X139889285Y-97324878D02*
X139924999Y-97360592D01*
X140567857Y-97289164D02*
X140424999Y-97289164D01*
X140424999Y-97289164D02*
X140353571Y-97324878D01*
X140353571Y-97324878D02*
X140317857Y-97360592D01*
X140317857Y-97360592D02*
X140246428Y-97467735D01*
X140246428Y-97467735D02*
X140210714Y-97610592D01*
X140210714Y-97610592D02*
X140210714Y-97896307D01*
X140210714Y-97896307D02*
X140246428Y-97967735D01*
X140246428Y-97967735D02*
X140282142Y-98003450D01*
X140282142Y-98003450D02*
X140353571Y-98039164D01*
X140353571Y-98039164D02*
X140496428Y-98039164D01*
X140496428Y-98039164D02*
X140567857Y-98003450D01*
X140567857Y-98003450D02*
X140603571Y-97967735D01*
X140603571Y-97967735D02*
X140639285Y-97896307D01*
X140639285Y-97896307D02*
X140639285Y-97717735D01*
X140639285Y-97717735D02*
X140603571Y-97646307D01*
X140603571Y-97646307D02*
X140567857Y-97610592D01*
X140567857Y-97610592D02*
X140496428Y-97574878D01*
X140496428Y-97574878D02*
X140353571Y-97574878D01*
X140353571Y-97574878D02*
X140282142Y-97610592D01*
X140282142Y-97610592D02*
X140246428Y-97646307D01*
X140246428Y-97646307D02*
X140210714Y-97717735D01*
X131354819Y-74311904D02*
X132164342Y-74311904D01*
X132164342Y-74311904D02*
X132259580Y-74264285D01*
X132259580Y-74264285D02*
X132307200Y-74216666D01*
X132307200Y-74216666D02*
X132354819Y-74121428D01*
X132354819Y-74121428D02*
X132354819Y-73930952D01*
X132354819Y-73930952D02*
X132307200Y-73835714D01*
X132307200Y-73835714D02*
X132259580Y-73788095D01*
X132259580Y-73788095D02*
X132164342Y-73740476D01*
X132164342Y-73740476D02*
X131354819Y-73740476D01*
X131354819Y-72788095D02*
X131354819Y-73264285D01*
X131354819Y-73264285D02*
X131831009Y-73311904D01*
X131831009Y-73311904D02*
X131783390Y-73264285D01*
X131783390Y-73264285D02*
X131735771Y-73169047D01*
X131735771Y-73169047D02*
X131735771Y-72930952D01*
X131735771Y-72930952D02*
X131783390Y-72835714D01*
X131783390Y-72835714D02*
X131831009Y-72788095D01*
X131831009Y-72788095D02*
X131926247Y-72740476D01*
X131926247Y-72740476D02*
X132164342Y-72740476D01*
X132164342Y-72740476D02*
X132259580Y-72788095D01*
X132259580Y-72788095D02*
X132307200Y-72835714D01*
X132307200Y-72835714D02*
X132354819Y-72930952D01*
X132354819Y-72930952D02*
X132354819Y-73169047D01*
X132354819Y-73169047D02*
X132307200Y-73264285D01*
X132307200Y-73264285D02*
X132259580Y-73311904D01*
X130459580Y-78340476D02*
X130507200Y-78388095D01*
X130507200Y-78388095D02*
X130554819Y-78530952D01*
X130554819Y-78530952D02*
X130554819Y-78626190D01*
X130554819Y-78626190D02*
X130507200Y-78769047D01*
X130507200Y-78769047D02*
X130411961Y-78864285D01*
X130411961Y-78864285D02*
X130316723Y-78911904D01*
X130316723Y-78911904D02*
X130126247Y-78959523D01*
X130126247Y-78959523D02*
X129983390Y-78959523D01*
X129983390Y-78959523D02*
X129792914Y-78911904D01*
X129792914Y-78911904D02*
X129697676Y-78864285D01*
X129697676Y-78864285D02*
X129602438Y-78769047D01*
X129602438Y-78769047D02*
X129554819Y-78626190D01*
X129554819Y-78626190D02*
X129554819Y-78530952D01*
X129554819Y-78530952D02*
X129602438Y-78388095D01*
X129602438Y-78388095D02*
X129650057Y-78340476D01*
X129554819Y-77911904D02*
X130364342Y-77911904D01*
X130364342Y-77911904D02*
X130459580Y-77864285D01*
X130459580Y-77864285D02*
X130507200Y-77816666D01*
X130507200Y-77816666D02*
X130554819Y-77721428D01*
X130554819Y-77721428D02*
X130554819Y-77530952D01*
X130554819Y-77530952D02*
X130507200Y-77435714D01*
X130507200Y-77435714D02*
X130459580Y-77388095D01*
X130459580Y-77388095D02*
X130364342Y-77340476D01*
X130364342Y-77340476D02*
X129554819Y-77340476D01*
X129554819Y-76959523D02*
X129554819Y-76340476D01*
X129554819Y-76340476D02*
X129935771Y-76673809D01*
X129935771Y-76673809D02*
X129935771Y-76530952D01*
X129935771Y-76530952D02*
X129983390Y-76435714D01*
X129983390Y-76435714D02*
X130031009Y-76388095D01*
X130031009Y-76388095D02*
X130126247Y-76340476D01*
X130126247Y-76340476D02*
X130364342Y-76340476D01*
X130364342Y-76340476D02*
X130459580Y-76388095D01*
X130459580Y-76388095D02*
X130507200Y-76435714D01*
X130507200Y-76435714D02*
X130554819Y-76530952D01*
X130554819Y-76530952D02*
X130554819Y-76816666D01*
X130554819Y-76816666D02*
X130507200Y-76911904D01*
X130507200Y-76911904D02*
X130459580Y-76959523D01*
X184084580Y-74641666D02*
X184132200Y-74689285D01*
X184132200Y-74689285D02*
X184179819Y-74832142D01*
X184179819Y-74832142D02*
X184179819Y-74927380D01*
X184179819Y-74927380D02*
X184132200Y-75070237D01*
X184132200Y-75070237D02*
X184036961Y-75165475D01*
X184036961Y-75165475D02*
X183941723Y-75213094D01*
X183941723Y-75213094D02*
X183751247Y-75260713D01*
X183751247Y-75260713D02*
X183608390Y-75260713D01*
X183608390Y-75260713D02*
X183417914Y-75213094D01*
X183417914Y-75213094D02*
X183322676Y-75165475D01*
X183322676Y-75165475D02*
X183227438Y-75070237D01*
X183227438Y-75070237D02*
X183179819Y-74927380D01*
X183179819Y-74927380D02*
X183179819Y-74832142D01*
X183179819Y-74832142D02*
X183227438Y-74689285D01*
X183227438Y-74689285D02*
X183275057Y-74641666D01*
X183179819Y-74308332D02*
X183179819Y-73641666D01*
X183179819Y-73641666D02*
X184179819Y-74070237D01*
X145724999Y-97967735D02*
X145689285Y-98003450D01*
X145689285Y-98003450D02*
X145582142Y-98039164D01*
X145582142Y-98039164D02*
X145510714Y-98039164D01*
X145510714Y-98039164D02*
X145403571Y-98003450D01*
X145403571Y-98003450D02*
X145332142Y-97932021D01*
X145332142Y-97932021D02*
X145296428Y-97860592D01*
X145296428Y-97860592D02*
X145260714Y-97717735D01*
X145260714Y-97717735D02*
X145260714Y-97610592D01*
X145260714Y-97610592D02*
X145296428Y-97467735D01*
X145296428Y-97467735D02*
X145332142Y-97396307D01*
X145332142Y-97396307D02*
X145403571Y-97324878D01*
X145403571Y-97324878D02*
X145510714Y-97289164D01*
X145510714Y-97289164D02*
X145582142Y-97289164D01*
X145582142Y-97289164D02*
X145689285Y-97324878D01*
X145689285Y-97324878D02*
X145724999Y-97360592D01*
X146403571Y-97289164D02*
X146046428Y-97289164D01*
X146046428Y-97289164D02*
X146010714Y-97646307D01*
X146010714Y-97646307D02*
X146046428Y-97610592D01*
X146046428Y-97610592D02*
X146117857Y-97574878D01*
X146117857Y-97574878D02*
X146296428Y-97574878D01*
X146296428Y-97574878D02*
X146367857Y-97610592D01*
X146367857Y-97610592D02*
X146403571Y-97646307D01*
X146403571Y-97646307D02*
X146439285Y-97717735D01*
X146439285Y-97717735D02*
X146439285Y-97896307D01*
X146439285Y-97896307D02*
X146403571Y-97967735D01*
X146403571Y-97967735D02*
X146367857Y-98003450D01*
X146367857Y-98003450D02*
X146296428Y-98039164D01*
X146296428Y-98039164D02*
X146117857Y-98039164D01*
X146117857Y-98039164D02*
X146046428Y-98003450D01*
X146046428Y-98003450D02*
X146010714Y-97967735D01*
X139807142Y-61174819D02*
X139473809Y-60698628D01*
X139235714Y-61174819D02*
X139235714Y-60174819D01*
X139235714Y-60174819D02*
X139616666Y-60174819D01*
X139616666Y-60174819D02*
X139711904Y-60222438D01*
X139711904Y-60222438D02*
X139759523Y-60270057D01*
X139759523Y-60270057D02*
X139807142Y-60365295D01*
X139807142Y-60365295D02*
X139807142Y-60508152D01*
X139807142Y-60508152D02*
X139759523Y-60603390D01*
X139759523Y-60603390D02*
X139711904Y-60651009D01*
X139711904Y-60651009D02*
X139616666Y-60698628D01*
X139616666Y-60698628D02*
X139235714Y-60698628D01*
X140759523Y-61174819D02*
X140188095Y-61174819D01*
X140473809Y-61174819D02*
X140473809Y-60174819D01*
X140473809Y-60174819D02*
X140378571Y-60317676D01*
X140378571Y-60317676D02*
X140283333Y-60412914D01*
X140283333Y-60412914D02*
X140188095Y-60460533D01*
X141378571Y-60174819D02*
X141473809Y-60174819D01*
X141473809Y-60174819D02*
X141569047Y-60222438D01*
X141569047Y-60222438D02*
X141616666Y-60270057D01*
X141616666Y-60270057D02*
X141664285Y-60365295D01*
X141664285Y-60365295D02*
X141711904Y-60555771D01*
X141711904Y-60555771D02*
X141711904Y-60793866D01*
X141711904Y-60793866D02*
X141664285Y-60984342D01*
X141664285Y-60984342D02*
X141616666Y-61079580D01*
X141616666Y-61079580D02*
X141569047Y-61127200D01*
X141569047Y-61127200D02*
X141473809Y-61174819D01*
X141473809Y-61174819D02*
X141378571Y-61174819D01*
X141378571Y-61174819D02*
X141283333Y-61127200D01*
X141283333Y-61127200D02*
X141235714Y-61079580D01*
X141235714Y-61079580D02*
X141188095Y-60984342D01*
X141188095Y-60984342D02*
X141140476Y-60793866D01*
X141140476Y-60793866D02*
X141140476Y-60555771D01*
X141140476Y-60555771D02*
X141188095Y-60365295D01*
X141188095Y-60365295D02*
X141235714Y-60270057D01*
X141235714Y-60270057D02*
X141283333Y-60222438D01*
X141283333Y-60222438D02*
X141378571Y-60174819D01*
X164328571Y-92839164D02*
X164328571Y-93446307D01*
X164328571Y-93446307D02*
X164364285Y-93517735D01*
X164364285Y-93517735D02*
X164400000Y-93553450D01*
X164400000Y-93553450D02*
X164471428Y-93589164D01*
X164471428Y-93589164D02*
X164614285Y-93589164D01*
X164614285Y-93589164D02*
X164685714Y-93553450D01*
X164685714Y-93553450D02*
X164721428Y-93517735D01*
X164721428Y-93517735D02*
X164757142Y-93446307D01*
X164757142Y-93446307D02*
X164757142Y-92839164D01*
X165507142Y-93589164D02*
X165078571Y-93589164D01*
X165292856Y-93589164D02*
X165292856Y-92839164D01*
X165292856Y-92839164D02*
X165221428Y-92946307D01*
X165221428Y-92946307D02*
X165149999Y-93017735D01*
X165149999Y-93017735D02*
X165078571Y-93053450D01*
X181854819Y-78216666D02*
X181378628Y-78549999D01*
X181854819Y-78788094D02*
X180854819Y-78788094D01*
X180854819Y-78788094D02*
X180854819Y-78407142D01*
X180854819Y-78407142D02*
X180902438Y-78311904D01*
X180902438Y-78311904D02*
X180950057Y-78264285D01*
X180950057Y-78264285D02*
X181045295Y-78216666D01*
X181045295Y-78216666D02*
X181188152Y-78216666D01*
X181188152Y-78216666D02*
X181283390Y-78264285D01*
X181283390Y-78264285D02*
X181331009Y-78311904D01*
X181331009Y-78311904D02*
X181378628Y-78407142D01*
X181378628Y-78407142D02*
X181378628Y-78788094D01*
X181188152Y-77359523D02*
X181854819Y-77359523D01*
X180807200Y-77597618D02*
X181521485Y-77835713D01*
X181521485Y-77835713D02*
X181521485Y-77216666D01*
X185186905Y-91504819D02*
X185186905Y-90504819D01*
X185186905Y-90504819D02*
X185425000Y-90504819D01*
X185425000Y-90504819D02*
X185567857Y-90552438D01*
X185567857Y-90552438D02*
X185663095Y-90647676D01*
X185663095Y-90647676D02*
X185710714Y-90742914D01*
X185710714Y-90742914D02*
X185758333Y-90933390D01*
X185758333Y-90933390D02*
X185758333Y-91076247D01*
X185758333Y-91076247D02*
X185710714Y-91266723D01*
X185710714Y-91266723D02*
X185663095Y-91361961D01*
X185663095Y-91361961D02*
X185567857Y-91457200D01*
X185567857Y-91457200D02*
X185425000Y-91504819D01*
X185425000Y-91504819D02*
X185186905Y-91504819D01*
X186139286Y-90600057D02*
X186186905Y-90552438D01*
X186186905Y-90552438D02*
X186282143Y-90504819D01*
X186282143Y-90504819D02*
X186520238Y-90504819D01*
X186520238Y-90504819D02*
X186615476Y-90552438D01*
X186615476Y-90552438D02*
X186663095Y-90600057D01*
X186663095Y-90600057D02*
X186710714Y-90695295D01*
X186710714Y-90695295D02*
X186710714Y-90790533D01*
X186710714Y-90790533D02*
X186663095Y-90933390D01*
X186663095Y-90933390D02*
X186091667Y-91504819D01*
X186091667Y-91504819D02*
X186710714Y-91504819D01*
X143971428Y-78589164D02*
X143971428Y-79196307D01*
X143971428Y-79196307D02*
X144007142Y-79267735D01*
X144007142Y-79267735D02*
X144042857Y-79303450D01*
X144042857Y-79303450D02*
X144114285Y-79339164D01*
X144114285Y-79339164D02*
X144257142Y-79339164D01*
X144257142Y-79339164D02*
X144328571Y-79303450D01*
X144328571Y-79303450D02*
X144364285Y-79267735D01*
X144364285Y-79267735D02*
X144399999Y-79196307D01*
X144399999Y-79196307D02*
X144399999Y-78589164D01*
X145149999Y-79339164D02*
X144721428Y-79339164D01*
X144935713Y-79339164D02*
X144935713Y-78589164D01*
X144935713Y-78589164D02*
X144864285Y-78696307D01*
X144864285Y-78696307D02*
X144792856Y-78767735D01*
X144792856Y-78767735D02*
X144721428Y-78803450D01*
X145864285Y-79339164D02*
X145435714Y-79339164D01*
X145649999Y-79339164D02*
X145649999Y-78589164D01*
X145649999Y-78589164D02*
X145578571Y-78696307D01*
X145578571Y-78696307D02*
X145507142Y-78767735D01*
X145507142Y-78767735D02*
X145435714Y-78803450D01*
D11*
%TO.C,Railsync1*%
X131000000Y-90450000D02*
X131000000Y-99250000D01*
X121800000Y-90450000D02*
X131000000Y-90450000D01*
X131000000Y-99250000D02*
X121800000Y-99250000D01*
X121800000Y-99250000D02*
X121800000Y-90450000D01*
%TO.C,U6*%
X157900000Y-56390000D02*
X156100000Y-56390000D01*
X156100000Y-59610000D02*
X158550000Y-59610000D01*
%TO.C,U7*%
X152900000Y-56390000D02*
X151100000Y-56390000D01*
X151100000Y-59610000D02*
X153550000Y-59610000D01*
%TO.C,U8*%
X162900000Y-56390000D02*
X161100000Y-56390000D01*
X161100000Y-59610000D02*
X163550000Y-59610000D01*
%TO.C,U9*%
X167900000Y-56390000D02*
X166100000Y-56390000D01*
X166100000Y-59610000D02*
X168550000Y-59610000D01*
%TO.C,U14*%
X142000000Y-54500000D02*
X138000000Y-54500000D01*
X142000000Y-57500000D02*
X139000000Y-57500000D01*
%TO.C,RESET1*%
X189900000Y-75200000D02*
X189900000Y-78500000D01*
X189600000Y-75200000D02*
X189900000Y-75200000D01*
X187400000Y-75200000D02*
X187100000Y-75200000D01*
X187100000Y-75200000D02*
X187100000Y-78500000D01*
X190220000Y-75850000D02*
X189900000Y-75850000D01*
X190600000Y-76350000D02*
X190220000Y-75850000D01*
X190600000Y-76350000D02*
X190600000Y-77350000D01*
X190600000Y-77350000D02*
X190220000Y-77850000D01*
X190220000Y-77850000D02*
X189900000Y-77850000D01*
X189900000Y-78500000D02*
X189600000Y-78500000D01*
X187100000Y-78500000D02*
X187400000Y-78500000D01*
%TO.C,R5*%
X185114564Y-83935000D02*
X183660436Y-83935000D01*
X185114564Y-82115000D02*
X183660436Y-82115000D01*
%TO.C,C2*%
X168290000Y-99000000D02*
X168290000Y-98375000D01*
X167977500Y-98687500D02*
X168602500Y-98687500D01*
X168279437Y-98135000D02*
X168915000Y-98135000D01*
X168279437Y-98135000D02*
X167215000Y-97070563D01*
X171670563Y-98135000D02*
X171035000Y-98135000D01*
X171670563Y-98135000D02*
X172735000Y-97070563D01*
X167215000Y-97070563D02*
X167215000Y-92615000D01*
X172735000Y-97070563D02*
X172735000Y-92615000D01*
X167215000Y-92615000D02*
X168915000Y-92615000D01*
X172735000Y-92615000D02*
X171035000Y-92615000D01*
%TO.C,CU13*%
X185640000Y-57186252D02*
X185640000Y-55763748D01*
X187460000Y-57186252D02*
X187460000Y-55763748D01*
%TO.C,R8*%
X178690000Y-97064564D02*
X178690000Y-95610436D01*
X180510000Y-97064564D02*
X180510000Y-95610436D01*
%TO.C,D1*%
X185415000Y-63485000D02*
X187685000Y-63485000D01*
X187685000Y-63485000D02*
X187685000Y-59600000D01*
X185415000Y-59600000D02*
X185415000Y-63485000D01*
%TO.C,C1*%
X130210000Y-86988748D02*
X130210000Y-88411252D01*
X128390000Y-86988748D02*
X128390000Y-88411252D01*
%TO.C,C4*%
X148315000Y-97775000D02*
X148315000Y-97150000D01*
X148002500Y-97462500D02*
X148627500Y-97462500D01*
X148304437Y-96910000D02*
X148940000Y-96910000D01*
X148304437Y-96910000D02*
X147240000Y-95845563D01*
X151695563Y-96910000D02*
X151060000Y-96910000D01*
X151695563Y-96910000D02*
X152760000Y-95845563D01*
X147240000Y-95845563D02*
X147240000Y-91390000D01*
X152760000Y-95845563D02*
X152760000Y-91390000D01*
X147240000Y-91390000D02*
X148940000Y-91390000D01*
X152760000Y-91390000D02*
X151060000Y-91390000D01*
%TO.C,U2*%
X123650000Y-89900000D02*
X123650000Y-80700000D01*
X127750000Y-88100000D02*
X127750000Y-80700000D01*
%TO.C,U13*%
X183500000Y-54875000D02*
X179500000Y-54875000D01*
X183500000Y-57875000D02*
X180500000Y-57875000D01*
%TO.C,R2*%
X182210436Y-61690000D02*
X183664564Y-61690000D01*
X182210436Y-63510000D02*
X183664564Y-63510000D01*
%TO.C,R7*%
X176190000Y-97064564D02*
X176190000Y-95610436D01*
X178010000Y-97064564D02*
X178010000Y-95610436D01*
%TO.C,L1*%
X154140000Y-92975000D02*
X154140000Y-96975000D01*
X158360000Y-94975000D02*
X158360000Y-96975000D01*
%TO.C,D5*%
X180240000Y-85100000D02*
X180240000Y-87100000D01*
X180240000Y-85100000D02*
X184250000Y-85100000D01*
X180240000Y-87100000D02*
X184250000Y-87100000D01*
%TO.C,R9*%
X181190000Y-97064564D02*
X181190000Y-95610436D01*
X183010000Y-97064564D02*
X183010000Y-95610436D01*
%TO.C,U10*%
X179825000Y-71800000D02*
X179825000Y-72900000D01*
X160325000Y-71850000D02*
X161325000Y-71850000D01*
X160325000Y-71850000D02*
X160325000Y-72850000D01*
X179675000Y-72000000D02*
X179175000Y-72000000D01*
X161325000Y-72000000D02*
X160475000Y-72000000D01*
X160475000Y-72000000D02*
X160475000Y-73300000D01*
X179675000Y-90000000D02*
X179675000Y-72000000D01*
X179675000Y-90000000D02*
X179175000Y-90000000D01*
X161225000Y-90000000D02*
X160475000Y-90000000D01*
X160475000Y-90000000D02*
X160475000Y-88650000D01*
X179825000Y-90150000D02*
X179825000Y-89150000D01*
X179175000Y-90150000D02*
X179825000Y-90150000D01*
X161225000Y-90150000D02*
X160325000Y-90150000D01*
X160325000Y-90150000D02*
X160325000Y-89150000D01*
%TO.C,R1*%
X131590000Y-93439564D02*
X131590000Y-91985436D01*
X133410000Y-93439564D02*
X133410000Y-91985436D01*
%TO.C,CU2*%
X125038748Y-76440000D02*
X126461252Y-76440000D01*
X125038748Y-78260000D02*
X126461252Y-78260000D01*
%TO.C,JUSB1*%
X126300000Y-60600000D02*
X126300000Y-61050000D01*
X124450000Y-60600000D02*
X126300000Y-60600000D01*
X121900000Y-60600000D02*
X122150000Y-60600000D01*
X126850000Y-62800000D02*
X126400000Y-62800000D01*
X126850000Y-62800000D02*
X126850000Y-63250000D01*
X126300000Y-68400000D02*
X126300000Y-67950000D01*
X124450000Y-68400000D02*
X126300000Y-68400000D01*
X121900000Y-68400000D02*
X122150000Y-68400000D01*
%TO.C,D4*%
X180240000Y-87550000D02*
X180240000Y-89550000D01*
X180240000Y-87550000D02*
X184250000Y-87550000D01*
X180240000Y-89550000D02*
X184250000Y-89550000D01*
%TO.C,R6*%
X173690000Y-97064564D02*
X173690000Y-95610436D01*
X175510000Y-97064564D02*
X175510000Y-95610436D01*
%TO.C,CU10*%
X178040000Y-69361252D02*
X178040000Y-67938748D01*
X179860000Y-69361252D02*
X179860000Y-67938748D01*
%TO.C,C3*%
X160865000Y-95736252D02*
X160865000Y-94313748D01*
X162685000Y-95736252D02*
X162685000Y-94313748D01*
%TO.C,U3*%
X130850000Y-89900000D02*
X130850000Y-80700000D01*
X134950000Y-88100000D02*
X134950000Y-80700000D01*
%TO.C,D3*%
X175290000Y-91250000D02*
X175290000Y-93250000D01*
X175290000Y-91250000D02*
X179300000Y-91250000D01*
X175290000Y-93250000D02*
X179300000Y-93250000D01*
%TO.C,R3*%
X183114564Y-60260000D02*
X181660436Y-60260000D01*
X183114564Y-58440000D02*
X181660436Y-58440000D01*
%TO.C,U4*%
X147850000Y-56390000D02*
X146050000Y-56390000D01*
X146050000Y-59610000D02*
X148500000Y-59610000D01*
%TO.C,C6*%
X136365000Y-97725000D02*
X136365000Y-97100000D01*
X136052500Y-97412500D02*
X136677500Y-97412500D01*
X136354437Y-96860000D02*
X136990000Y-96860000D01*
X136354437Y-96860000D02*
X135290000Y-95795563D01*
X139745563Y-96860000D02*
X139110000Y-96860000D01*
X139745563Y-96860000D02*
X140810000Y-95795563D01*
X135290000Y-95795563D02*
X135290000Y-91340000D01*
X140810000Y-95795563D02*
X140810000Y-91340000D01*
X135290000Y-91340000D02*
X136990000Y-91340000D01*
X140810000Y-91340000D02*
X139110000Y-91340000D01*
%TO.C,U5*%
X130910000Y-74450000D02*
X130910000Y-72650000D01*
X127690000Y-72650000D02*
X127690000Y-75100000D01*
%TO.C,CU3*%
X132313748Y-76540000D02*
X133736252Y-76540000D01*
X132313748Y-78360000D02*
X133736252Y-78360000D01*
%TO.C,C7*%
X184665000Y-75261252D02*
X184665000Y-73838748D01*
X186485000Y-75261252D02*
X186485000Y-73838748D01*
%TO.C,C5*%
X142315000Y-97725000D02*
X142315000Y-97100000D01*
X142002500Y-97412500D02*
X142627500Y-97412500D01*
X142304437Y-96860000D02*
X142940000Y-96860000D01*
X142304437Y-96860000D02*
X141240000Y-95795563D01*
X145695563Y-96860000D02*
X145060000Y-96860000D01*
X145695563Y-96860000D02*
X146760000Y-95795563D01*
X141240000Y-95795563D02*
X141240000Y-91340000D01*
X146760000Y-95795563D02*
X146760000Y-91340000D01*
X141240000Y-91340000D02*
X142940000Y-91340000D01*
X146760000Y-91340000D02*
X145060000Y-91340000D01*
%TO.C,R10*%
X141177064Y-59810000D02*
X139722936Y-59810000D01*
X141177064Y-57990000D02*
X139722936Y-57990000D01*
%TO.C,CU14*%
X145033748Y-53150000D02*
X146456252Y-53150000D01*
X145033748Y-54970000D02*
X146456252Y-54970000D01*
%TO.C,U1*%
X163340000Y-95850000D02*
X163340000Y-97650000D01*
X163340000Y-95850000D02*
X163340000Y-95050000D01*
X166460000Y-95850000D02*
X166460000Y-96650000D01*
X166460000Y-95850000D02*
X166460000Y-95050000D01*
%TO.C,R4*%
X183772936Y-77190000D02*
X185227064Y-77190000D01*
X183772936Y-79010000D02*
X185227064Y-79010000D01*
%TO.C,D2*%
X180240000Y-90025000D02*
X180240000Y-92025000D01*
X180240000Y-90025000D02*
X184250000Y-90025000D01*
X180240000Y-92025000D02*
X184250000Y-92025000D01*
%TO.C,BOOT1*%
X189850000Y-80100000D02*
X189850000Y-83400000D01*
X189550000Y-80100000D02*
X189850000Y-80100000D01*
X187350000Y-80100000D02*
X187050000Y-80100000D01*
X187050000Y-80100000D02*
X187050000Y-83400000D01*
X190170000Y-80750000D02*
X189850000Y-80750000D01*
X190550000Y-81250000D02*
X190170000Y-80750000D01*
X190550000Y-81250000D02*
X190550000Y-82250000D01*
X190550000Y-82250000D02*
X190170000Y-82750000D01*
X190170000Y-82750000D02*
X189850000Y-82750000D01*
X189850000Y-83400000D02*
X189550000Y-83400000D01*
X187050000Y-83400000D02*
X187350000Y-83400000D01*
%TO.C,U11*%
X140800000Y-80090000D02*
X146810000Y-80090000D01*
X143050000Y-86910000D02*
X146810000Y-86910000D01*
X146810000Y-80090000D02*
X146810000Y-81350000D01*
X146810000Y-86910000D02*
X146810000Y-85650000D01*
%TD*%
M02*
