%TF.GenerationSoftware,KiCad,Pcbnew,7.0.6*%
%TF.CreationDate,2024-01-14T01:11:59-05:00*%
%TF.ProjectId,Dynamo,44796e61-6d6f-42e6-9b69-6361645f7063,rev?*%
%TF.SameCoordinates,Original*%
%TF.FileFunction,Soldermask,Bot*%
%TF.FilePolarity,Negative*%
%FSLAX46Y46*%
G04 Gerber Fmt 4.6, Leading zero omitted, Abs format (unit mm)*
G04 Created by KiCad (PCBNEW 7.0.6) date 2024-01-14 01:11:59*
%MOMM*%
%LPD*%
G01*
G04 APERTURE LIST*
G04 Aperture macros list*
%AMRoundRect*
0 Rectangle with rounded corners*
0 $1 Rounding radius*
0 $2 $3 $4 $5 $6 $7 $8 $9 X,Y pos of 4 corners*
0 Add a 4 corners polygon primitive as box body*
4,1,4,$2,$3,$4,$5,$6,$7,$8,$9,$2,$3,0*
0 Add four circle primitives for the rounded corners*
1,1,$1+$1,$2,$3*
1,1,$1+$1,$4,$5*
1,1,$1+$1,$6,$7*
1,1,$1+$1,$8,$9*
0 Add four rect primitives between the rounded corners*
20,1,$1+$1,$2,$3,$4,$5,0*
20,1,$1+$1,$4,$5,$6,$7,0*
20,1,$1+$1,$6,$7,$8,$9,0*
20,1,$1+$1,$8,$9,$2,$3,0*%
G04 Aperture macros list end*
%ADD10O,1.600000X1.600000*%
%ADD11R,1.600000X1.600000*%
%ADD12C,3.200000*%
%ADD13C,1.600000*%
%ADD14RoundRect,0.250000X-1.550000X0.650000X-1.550000X-0.650000X1.550000X-0.650000X1.550000X0.650000X0*%
%ADD15O,3.600000X1.800000*%
%ADD16C,0.800000*%
%ADD17O,1.900000X1.200000*%
%ADD18C,1.450000*%
G04 APERTURE END LIST*
D10*
%TO.C,UNO_SHIELD1*%
X140735000Y-51620000D03*
X143275000Y-51620000D03*
X145815000Y-51620000D03*
X148355000Y-51620000D03*
X150895000Y-51620000D03*
X153435000Y-51620000D03*
X155975000Y-51620000D03*
X158515000Y-51620000D03*
X161055000Y-51620000D03*
X163595000Y-51620000D03*
X167655000Y-51620000D03*
X170195000Y-51620000D03*
X172735000Y-51620000D03*
X175275000Y-51620000D03*
X177815000Y-51620000D03*
X180355000Y-51620000D03*
X182895000Y-51620000D03*
X185435000Y-51620000D03*
X185435000Y-99880000D03*
X182895000Y-99880000D03*
X180355000Y-99880000D03*
X177815000Y-99880000D03*
X175275000Y-99880000D03*
X172735000Y-99880000D03*
X167655000Y-99880000D03*
X165115000Y-99880000D03*
X162575000Y-99880000D03*
X160035000Y-99880000D03*
X157495000Y-99880000D03*
X154955000Y-99880000D03*
X152415000Y-99880000D03*
D11*
X149875000Y-99880000D03*
D12*
X187975000Y-94800000D03*
X187975000Y-66860000D03*
X137175000Y-51620000D03*
X135905000Y-99880000D03*
%TD*%
D13*
%TO.C,CB1*%
X141317621Y-71182379D03*
D11*
X138817621Y-71182379D03*
%TD*%
D14*
%TO.C,Railsync1*%
X129932500Y-93055000D03*
D15*
X129932500Y-96555000D03*
%TD*%
D16*
%TO.C,BOOT1*%
X185500000Y-56500000D03*
%TD*%
D17*
%TO.C,JUSB1*%
X123300000Y-61000000D03*
D18*
X126000000Y-62000000D03*
X126000000Y-67000000D03*
D17*
X123300000Y-68000000D03*
%TD*%
D16*
%TO.C,RESET1*%
X185500000Y-61500000D03*
%TD*%
M02*
