%TF.GenerationSoftware,KiCad,Pcbnew,7.0.6*%
%TF.CreationDate,2023-08-21T22:34:02-04:00*%
%TF.ProjectId,Dynamo,44796e61-6d6f-42e6-9b69-6361645f7063,rev?*%
%TF.SameCoordinates,Original*%
%TF.FileFunction,Legend,Bot*%
%TF.FilePolarity,Positive*%
%FSLAX46Y46*%
G04 Gerber Fmt 4.6, Leading zero omitted, Abs format (unit mm)*
G04 Created by KiCad (PCBNEW 7.0.6) date 2023-08-21 22:34:02*
%MOMM*%
%LPD*%
G01*
G04 APERTURE LIST*
%ADD10C,0.150000*%
%ADD11C,0.600000*%
%ADD12C,0.120000*%
G04 APERTURE END LIST*
D10*
X158124999Y-72056200D02*
X157953571Y-72113342D01*
X157953571Y-72113342D02*
X157667856Y-72113342D01*
X157667856Y-72113342D02*
X157553571Y-72056200D01*
X157553571Y-72056200D02*
X157496428Y-71999057D01*
X157496428Y-71999057D02*
X157439285Y-71884771D01*
X157439285Y-71884771D02*
X157439285Y-71770485D01*
X157439285Y-71770485D02*
X157496428Y-71656200D01*
X157496428Y-71656200D02*
X157553571Y-71599057D01*
X157553571Y-71599057D02*
X157667856Y-71541914D01*
X157667856Y-71541914D02*
X157896428Y-71484771D01*
X157896428Y-71484771D02*
X158010713Y-71427628D01*
X158010713Y-71427628D02*
X158067856Y-71370485D01*
X158067856Y-71370485D02*
X158124999Y-71256200D01*
X158124999Y-71256200D02*
X158124999Y-71141914D01*
X158124999Y-71141914D02*
X158067856Y-71027628D01*
X158067856Y-71027628D02*
X158010713Y-70970485D01*
X158010713Y-70970485D02*
X157896428Y-70913342D01*
X157896428Y-70913342D02*
X157610713Y-70913342D01*
X157610713Y-70913342D02*
X157439285Y-70970485D01*
X156467856Y-72056200D02*
X156582142Y-72113342D01*
X156582142Y-72113342D02*
X156810714Y-72113342D01*
X156810714Y-72113342D02*
X156924999Y-72056200D01*
X156924999Y-72056200D02*
X156982142Y-71941914D01*
X156982142Y-71941914D02*
X156982142Y-71484771D01*
X156982142Y-71484771D02*
X156924999Y-71370485D01*
X156924999Y-71370485D02*
X156810714Y-71313342D01*
X156810714Y-71313342D02*
X156582142Y-71313342D01*
X156582142Y-71313342D02*
X156467856Y-71370485D01*
X156467856Y-71370485D02*
X156410714Y-71484771D01*
X156410714Y-71484771D02*
X156410714Y-71599057D01*
X156410714Y-71599057D02*
X156982142Y-71713342D01*
X155896428Y-72113342D02*
X155896428Y-71313342D01*
X155896428Y-71541914D02*
X155839285Y-71427628D01*
X155839285Y-71427628D02*
X155782143Y-71370485D01*
X155782143Y-71370485D02*
X155667857Y-71313342D01*
X155667857Y-71313342D02*
X155553571Y-71313342D01*
X154639286Y-72113342D02*
X154639286Y-71484771D01*
X154639286Y-71484771D02*
X154696428Y-71370485D01*
X154696428Y-71370485D02*
X154810714Y-71313342D01*
X154810714Y-71313342D02*
X155039286Y-71313342D01*
X155039286Y-71313342D02*
X155153571Y-71370485D01*
X154639286Y-72056200D02*
X154753571Y-72113342D01*
X154753571Y-72113342D02*
X155039286Y-72113342D01*
X155039286Y-72113342D02*
X155153571Y-72056200D01*
X155153571Y-72056200D02*
X155210714Y-71941914D01*
X155210714Y-71941914D02*
X155210714Y-71827628D01*
X155210714Y-71827628D02*
X155153571Y-71713342D01*
X155153571Y-71713342D02*
X155039286Y-71656200D01*
X155039286Y-71656200D02*
X154753571Y-71656200D01*
X154753571Y-71656200D02*
X154639286Y-71599057D01*
X154067857Y-71313342D02*
X154067857Y-72513342D01*
X154067857Y-71370485D02*
X153953572Y-71313342D01*
X153953572Y-71313342D02*
X153725000Y-71313342D01*
X153725000Y-71313342D02*
X153610714Y-71370485D01*
X153610714Y-71370485D02*
X153553572Y-71427628D01*
X153553572Y-71427628D02*
X153496429Y-71541914D01*
X153496429Y-71541914D02*
X153496429Y-71884771D01*
X153496429Y-71884771D02*
X153553572Y-71999057D01*
X153553572Y-71999057D02*
X153610714Y-72056200D01*
X153610714Y-72056200D02*
X153725000Y-72113342D01*
X153725000Y-72113342D02*
X153953572Y-72113342D01*
X153953572Y-72113342D02*
X154067857Y-72056200D01*
X152982143Y-72113342D02*
X152982143Y-70913342D01*
X152467858Y-72113342D02*
X152467858Y-71484771D01*
X152467858Y-71484771D02*
X152525000Y-71370485D01*
X152525000Y-71370485D02*
X152639286Y-71313342D01*
X152639286Y-71313342D02*
X152810715Y-71313342D01*
X152810715Y-71313342D02*
X152925000Y-71370485D01*
X152925000Y-71370485D02*
X152982143Y-71427628D01*
X151896429Y-72113342D02*
X151896429Y-71313342D01*
X151896429Y-70913342D02*
X151953572Y-70970485D01*
X151953572Y-70970485D02*
X151896429Y-71027628D01*
X151896429Y-71027628D02*
X151839286Y-70970485D01*
X151839286Y-70970485D02*
X151896429Y-70913342D01*
X151896429Y-70913342D02*
X151896429Y-71027628D01*
X151325000Y-72113342D02*
X151325000Y-71313342D01*
X151325000Y-71427628D02*
X151267857Y-71370485D01*
X151267857Y-71370485D02*
X151153572Y-71313342D01*
X151153572Y-71313342D02*
X150982143Y-71313342D01*
X150982143Y-71313342D02*
X150867857Y-71370485D01*
X150867857Y-71370485D02*
X150810715Y-71484771D01*
X150810715Y-71484771D02*
X150810715Y-72113342D01*
X150810715Y-71484771D02*
X150753572Y-71370485D01*
X150753572Y-71370485D02*
X150639286Y-71313342D01*
X150639286Y-71313342D02*
X150467857Y-71313342D01*
X150467857Y-71313342D02*
X150353572Y-71370485D01*
X150353572Y-71370485D02*
X150296429Y-71484771D01*
X150296429Y-71484771D02*
X150296429Y-72113342D01*
X149553572Y-72113342D02*
X149667857Y-72056200D01*
X149667857Y-72056200D02*
X149725000Y-71941914D01*
X149725000Y-71941914D02*
X149725000Y-70913342D01*
X148582144Y-72113342D02*
X148582144Y-71484771D01*
X148582144Y-71484771D02*
X148639286Y-71370485D01*
X148639286Y-71370485D02*
X148753572Y-71313342D01*
X148753572Y-71313342D02*
X148982144Y-71313342D01*
X148982144Y-71313342D02*
X149096429Y-71370485D01*
X148582144Y-72056200D02*
X148696429Y-72113342D01*
X148696429Y-72113342D02*
X148982144Y-72113342D01*
X148982144Y-72113342D02*
X149096429Y-72056200D01*
X149096429Y-72056200D02*
X149153572Y-71941914D01*
X149153572Y-71941914D02*
X149153572Y-71827628D01*
X149153572Y-71827628D02*
X149096429Y-71713342D01*
X149096429Y-71713342D02*
X148982144Y-71656200D01*
X148982144Y-71656200D02*
X148696429Y-71656200D01*
X148696429Y-71656200D02*
X148582144Y-71599057D01*
X148010715Y-72113342D02*
X148010715Y-70913342D01*
X148010715Y-71370485D02*
X147896430Y-71313342D01*
X147896430Y-71313342D02*
X147667858Y-71313342D01*
X147667858Y-71313342D02*
X147553572Y-71370485D01*
X147553572Y-71370485D02*
X147496430Y-71427628D01*
X147496430Y-71427628D02*
X147439287Y-71541914D01*
X147439287Y-71541914D02*
X147439287Y-71884771D01*
X147439287Y-71884771D02*
X147496430Y-71999057D01*
X147496430Y-71999057D02*
X147553572Y-72056200D01*
X147553572Y-72056200D02*
X147667858Y-72113342D01*
X147667858Y-72113342D02*
X147896430Y-72113342D01*
X147896430Y-72113342D02*
X148010715Y-72056200D01*
X146982144Y-72056200D02*
X146867858Y-72113342D01*
X146867858Y-72113342D02*
X146639287Y-72113342D01*
X146639287Y-72113342D02*
X146525001Y-72056200D01*
X146525001Y-72056200D02*
X146467858Y-71941914D01*
X146467858Y-71941914D02*
X146467858Y-71884771D01*
X146467858Y-71884771D02*
X146525001Y-71770485D01*
X146525001Y-71770485D02*
X146639287Y-71713342D01*
X146639287Y-71713342D02*
X146810716Y-71713342D01*
X146810716Y-71713342D02*
X146925001Y-71656200D01*
X146925001Y-71656200D02*
X146982144Y-71541914D01*
X146982144Y-71541914D02*
X146982144Y-71484771D01*
X146982144Y-71484771D02*
X146925001Y-71370485D01*
X146925001Y-71370485D02*
X146810716Y-71313342D01*
X146810716Y-71313342D02*
X146639287Y-71313342D01*
X146639287Y-71313342D02*
X146525001Y-71370485D01*
X144467858Y-72113342D02*
X145039286Y-72113342D01*
X145039286Y-72113342D02*
X145039286Y-70913342D01*
X143496429Y-72113342D02*
X144067857Y-72113342D01*
X144067857Y-72113342D02*
X144067857Y-70913342D01*
X142410714Y-71999057D02*
X142467857Y-72056200D01*
X142467857Y-72056200D02*
X142639285Y-72113342D01*
X142639285Y-72113342D02*
X142753571Y-72113342D01*
X142753571Y-72113342D02*
X142925000Y-72056200D01*
X142925000Y-72056200D02*
X143039285Y-71941914D01*
X143039285Y-71941914D02*
X143096428Y-71827628D01*
X143096428Y-71827628D02*
X143153571Y-71599057D01*
X143153571Y-71599057D02*
X143153571Y-71427628D01*
X143153571Y-71427628D02*
X143096428Y-71199057D01*
X143096428Y-71199057D02*
X143039285Y-71084771D01*
X143039285Y-71084771D02*
X142925000Y-70970485D01*
X142925000Y-70970485D02*
X142753571Y-70913342D01*
X142753571Y-70913342D02*
X142639285Y-70913342D01*
X142639285Y-70913342D02*
X142467857Y-70970485D01*
X142467857Y-70970485D02*
X142410714Y-71027628D01*
X141039285Y-71027628D02*
X140982142Y-70970485D01*
X140982142Y-70970485D02*
X140867857Y-70913342D01*
X140867857Y-70913342D02*
X140582142Y-70913342D01*
X140582142Y-70913342D02*
X140467857Y-70970485D01*
X140467857Y-70970485D02*
X140410714Y-71027628D01*
X140410714Y-71027628D02*
X140353571Y-71141914D01*
X140353571Y-71141914D02*
X140353571Y-71256200D01*
X140353571Y-71256200D02*
X140410714Y-71427628D01*
X140410714Y-71427628D02*
X141096428Y-72113342D01*
X141096428Y-72113342D02*
X140353571Y-72113342D01*
X139610714Y-70913342D02*
X139496428Y-70913342D01*
X139496428Y-70913342D02*
X139382142Y-70970485D01*
X139382142Y-70970485D02*
X139325000Y-71027628D01*
X139325000Y-71027628D02*
X139267857Y-71141914D01*
X139267857Y-71141914D02*
X139210714Y-71370485D01*
X139210714Y-71370485D02*
X139210714Y-71656200D01*
X139210714Y-71656200D02*
X139267857Y-71884771D01*
X139267857Y-71884771D02*
X139325000Y-71999057D01*
X139325000Y-71999057D02*
X139382142Y-72056200D01*
X139382142Y-72056200D02*
X139496428Y-72113342D01*
X139496428Y-72113342D02*
X139610714Y-72113342D01*
X139610714Y-72113342D02*
X139725000Y-72056200D01*
X139725000Y-72056200D02*
X139782142Y-71999057D01*
X139782142Y-71999057D02*
X139839285Y-71884771D01*
X139839285Y-71884771D02*
X139896428Y-71656200D01*
X139896428Y-71656200D02*
X139896428Y-71370485D01*
X139896428Y-71370485D02*
X139839285Y-71141914D01*
X139839285Y-71141914D02*
X139782142Y-71027628D01*
X139782142Y-71027628D02*
X139725000Y-70970485D01*
X139725000Y-70970485D02*
X139610714Y-70913342D01*
X138753571Y-71027628D02*
X138696428Y-70970485D01*
X138696428Y-70970485D02*
X138582143Y-70913342D01*
X138582143Y-70913342D02*
X138296428Y-70913342D01*
X138296428Y-70913342D02*
X138182143Y-70970485D01*
X138182143Y-70970485D02*
X138125000Y-71027628D01*
X138125000Y-71027628D02*
X138067857Y-71141914D01*
X138067857Y-71141914D02*
X138067857Y-71256200D01*
X138067857Y-71256200D02*
X138125000Y-71427628D01*
X138125000Y-71427628D02*
X138810714Y-72113342D01*
X138810714Y-72113342D02*
X138067857Y-72113342D01*
X137667857Y-70913342D02*
X136925000Y-70913342D01*
X136925000Y-70913342D02*
X137325000Y-71370485D01*
X137325000Y-71370485D02*
X137153571Y-71370485D01*
X137153571Y-71370485D02*
X137039286Y-71427628D01*
X137039286Y-71427628D02*
X136982143Y-71484771D01*
X136982143Y-71484771D02*
X136925000Y-71599057D01*
X136925000Y-71599057D02*
X136925000Y-71884771D01*
X136925000Y-71884771D02*
X136982143Y-71999057D01*
X136982143Y-71999057D02*
X137039286Y-72056200D01*
X137039286Y-72056200D02*
X137153571Y-72113342D01*
X137153571Y-72113342D02*
X137496428Y-72113342D01*
X137496428Y-72113342D02*
X137610714Y-72056200D01*
X137610714Y-72056200D02*
X137667857Y-71999057D01*
X159924999Y-73245342D02*
X159924999Y-74216771D01*
X159924999Y-74216771D02*
X159982141Y-74331057D01*
X159982141Y-74331057D02*
X160039284Y-74388200D01*
X160039284Y-74388200D02*
X160153570Y-74445342D01*
X160153570Y-74445342D02*
X160324999Y-74445342D01*
X160324999Y-74445342D02*
X160439284Y-74388200D01*
X159924999Y-73988200D02*
X160039284Y-74045342D01*
X160039284Y-74045342D02*
X160267856Y-74045342D01*
X160267856Y-74045342D02*
X160382141Y-73988200D01*
X160382141Y-73988200D02*
X160439284Y-73931057D01*
X160439284Y-73931057D02*
X160496427Y-73816771D01*
X160496427Y-73816771D02*
X160496427Y-73473914D01*
X160496427Y-73473914D02*
X160439284Y-73359628D01*
X160439284Y-73359628D02*
X160382141Y-73302485D01*
X160382141Y-73302485D02*
X160267856Y-73245342D01*
X160267856Y-73245342D02*
X160039284Y-73245342D01*
X160039284Y-73245342D02*
X159924999Y-73302485D01*
X159353570Y-74045342D02*
X159353570Y-73245342D01*
X159353570Y-72845342D02*
X159410713Y-72902485D01*
X159410713Y-72902485D02*
X159353570Y-72959628D01*
X159353570Y-72959628D02*
X159296427Y-72902485D01*
X159296427Y-72902485D02*
X159353570Y-72845342D01*
X159353570Y-72845342D02*
X159353570Y-72959628D01*
X158953570Y-73245342D02*
X158496427Y-73245342D01*
X158782141Y-72845342D02*
X158782141Y-73873914D01*
X158782141Y-73873914D02*
X158724998Y-73988200D01*
X158724998Y-73988200D02*
X158610713Y-74045342D01*
X158610713Y-74045342D02*
X158496427Y-74045342D01*
X158096427Y-74045342D02*
X158096427Y-72845342D01*
X157582142Y-74045342D02*
X157582142Y-73416771D01*
X157582142Y-73416771D02*
X157639284Y-73302485D01*
X157639284Y-73302485D02*
X157753570Y-73245342D01*
X157753570Y-73245342D02*
X157924999Y-73245342D01*
X157924999Y-73245342D02*
X158039284Y-73302485D01*
X158039284Y-73302485D02*
X158096427Y-73359628D01*
X156496428Y-73245342D02*
X156496428Y-74045342D01*
X157010713Y-73245342D02*
X157010713Y-73873914D01*
X157010713Y-73873914D02*
X156953570Y-73988200D01*
X156953570Y-73988200D02*
X156839285Y-74045342D01*
X156839285Y-74045342D02*
X156667856Y-74045342D01*
X156667856Y-74045342D02*
X156553570Y-73988200D01*
X156553570Y-73988200D02*
X156496428Y-73931057D01*
X155924999Y-74045342D02*
X155924999Y-72845342D01*
X155924999Y-73302485D02*
X155810714Y-73245342D01*
X155810714Y-73245342D02*
X155582142Y-73245342D01*
X155582142Y-73245342D02*
X155467856Y-73302485D01*
X155467856Y-73302485D02*
X155410714Y-73359628D01*
X155410714Y-73359628D02*
X155353571Y-73473914D01*
X155353571Y-73473914D02*
X155353571Y-73816771D01*
X155353571Y-73816771D02*
X155410714Y-73931057D01*
X155410714Y-73931057D02*
X155467856Y-73988200D01*
X155467856Y-73988200D02*
X155582142Y-74045342D01*
X155582142Y-74045342D02*
X155810714Y-74045342D01*
X155810714Y-74045342D02*
X155924999Y-73988200D01*
X154839285Y-73931057D02*
X154782142Y-73988200D01*
X154782142Y-73988200D02*
X154839285Y-74045342D01*
X154839285Y-74045342D02*
X154896428Y-73988200D01*
X154896428Y-73988200D02*
X154839285Y-73931057D01*
X154839285Y-73931057D02*
X154839285Y-74045342D01*
X153753571Y-73988200D02*
X153867856Y-74045342D01*
X153867856Y-74045342D02*
X154096428Y-74045342D01*
X154096428Y-74045342D02*
X154210713Y-73988200D01*
X154210713Y-73988200D02*
X154267856Y-73931057D01*
X154267856Y-73931057D02*
X154324999Y-73816771D01*
X154324999Y-73816771D02*
X154324999Y-73473914D01*
X154324999Y-73473914D02*
X154267856Y-73359628D01*
X154267856Y-73359628D02*
X154210713Y-73302485D01*
X154210713Y-73302485D02*
X154096428Y-73245342D01*
X154096428Y-73245342D02*
X153867856Y-73245342D01*
X153867856Y-73245342D02*
X153753571Y-73302485D01*
X153067857Y-74045342D02*
X153182142Y-73988200D01*
X153182142Y-73988200D02*
X153239285Y-73931057D01*
X153239285Y-73931057D02*
X153296428Y-73816771D01*
X153296428Y-73816771D02*
X153296428Y-73473914D01*
X153296428Y-73473914D02*
X153239285Y-73359628D01*
X153239285Y-73359628D02*
X153182142Y-73302485D01*
X153182142Y-73302485D02*
X153067857Y-73245342D01*
X153067857Y-73245342D02*
X152896428Y-73245342D01*
X152896428Y-73245342D02*
X152782142Y-73302485D01*
X152782142Y-73302485D02*
X152725000Y-73359628D01*
X152725000Y-73359628D02*
X152667857Y-73473914D01*
X152667857Y-73473914D02*
X152667857Y-73816771D01*
X152667857Y-73816771D02*
X152725000Y-73931057D01*
X152725000Y-73931057D02*
X152782142Y-73988200D01*
X152782142Y-73988200D02*
X152896428Y-74045342D01*
X152896428Y-74045342D02*
X153067857Y-74045342D01*
X152153571Y-74045342D02*
X152153571Y-73245342D01*
X152153571Y-73359628D02*
X152096428Y-73302485D01*
X152096428Y-73302485D02*
X151982143Y-73245342D01*
X151982143Y-73245342D02*
X151810714Y-73245342D01*
X151810714Y-73245342D02*
X151696428Y-73302485D01*
X151696428Y-73302485D02*
X151639286Y-73416771D01*
X151639286Y-73416771D02*
X151639286Y-74045342D01*
X151639286Y-73416771D02*
X151582143Y-73302485D01*
X151582143Y-73302485D02*
X151467857Y-73245342D01*
X151467857Y-73245342D02*
X151296428Y-73245342D01*
X151296428Y-73245342D02*
X151182143Y-73302485D01*
X151182143Y-73302485D02*
X151125000Y-73416771D01*
X151125000Y-73416771D02*
X151125000Y-74045342D01*
X149696428Y-72788200D02*
X150725000Y-74331057D01*
X149353571Y-73988200D02*
X149182143Y-74045342D01*
X149182143Y-74045342D02*
X148896428Y-74045342D01*
X148896428Y-74045342D02*
X148782143Y-73988200D01*
X148782143Y-73988200D02*
X148725000Y-73931057D01*
X148725000Y-73931057D02*
X148667857Y-73816771D01*
X148667857Y-73816771D02*
X148667857Y-73702485D01*
X148667857Y-73702485D02*
X148725000Y-73588200D01*
X148725000Y-73588200D02*
X148782143Y-73531057D01*
X148782143Y-73531057D02*
X148896428Y-73473914D01*
X148896428Y-73473914D02*
X149125000Y-73416771D01*
X149125000Y-73416771D02*
X149239285Y-73359628D01*
X149239285Y-73359628D02*
X149296428Y-73302485D01*
X149296428Y-73302485D02*
X149353571Y-73188200D01*
X149353571Y-73188200D02*
X149353571Y-73073914D01*
X149353571Y-73073914D02*
X149296428Y-72959628D01*
X149296428Y-72959628D02*
X149239285Y-72902485D01*
X149239285Y-72902485D02*
X149125000Y-72845342D01*
X149125000Y-72845342D02*
X148839285Y-72845342D01*
X148839285Y-72845342D02*
X148667857Y-72902485D01*
X147696428Y-73988200D02*
X147810714Y-74045342D01*
X147810714Y-74045342D02*
X148039286Y-74045342D01*
X148039286Y-74045342D02*
X148153571Y-73988200D01*
X148153571Y-73988200D02*
X148210714Y-73873914D01*
X148210714Y-73873914D02*
X148210714Y-73416771D01*
X148210714Y-73416771D02*
X148153571Y-73302485D01*
X148153571Y-73302485D02*
X148039286Y-73245342D01*
X148039286Y-73245342D02*
X147810714Y-73245342D01*
X147810714Y-73245342D02*
X147696428Y-73302485D01*
X147696428Y-73302485D02*
X147639286Y-73416771D01*
X147639286Y-73416771D02*
X147639286Y-73531057D01*
X147639286Y-73531057D02*
X148210714Y-73645342D01*
X147125000Y-74045342D02*
X147125000Y-73245342D01*
X147125000Y-73473914D02*
X147067857Y-73359628D01*
X147067857Y-73359628D02*
X147010715Y-73302485D01*
X147010715Y-73302485D02*
X146896429Y-73245342D01*
X146896429Y-73245342D02*
X146782143Y-73245342D01*
X145867858Y-74045342D02*
X145867858Y-73416771D01*
X145867858Y-73416771D02*
X145925000Y-73302485D01*
X145925000Y-73302485D02*
X146039286Y-73245342D01*
X146039286Y-73245342D02*
X146267858Y-73245342D01*
X146267858Y-73245342D02*
X146382143Y-73302485D01*
X145867858Y-73988200D02*
X145982143Y-74045342D01*
X145982143Y-74045342D02*
X146267858Y-74045342D01*
X146267858Y-74045342D02*
X146382143Y-73988200D01*
X146382143Y-73988200D02*
X146439286Y-73873914D01*
X146439286Y-73873914D02*
X146439286Y-73759628D01*
X146439286Y-73759628D02*
X146382143Y-73645342D01*
X146382143Y-73645342D02*
X146267858Y-73588200D01*
X146267858Y-73588200D02*
X145982143Y-73588200D01*
X145982143Y-73588200D02*
X145867858Y-73531057D01*
X145296429Y-73245342D02*
X145296429Y-74445342D01*
X145296429Y-73302485D02*
X145182144Y-73245342D01*
X145182144Y-73245342D02*
X144953572Y-73245342D01*
X144953572Y-73245342D02*
X144839286Y-73302485D01*
X144839286Y-73302485D02*
X144782144Y-73359628D01*
X144782144Y-73359628D02*
X144725001Y-73473914D01*
X144725001Y-73473914D02*
X144725001Y-73816771D01*
X144725001Y-73816771D02*
X144782144Y-73931057D01*
X144782144Y-73931057D02*
X144839286Y-73988200D01*
X144839286Y-73988200D02*
X144953572Y-74045342D01*
X144953572Y-74045342D02*
X145182144Y-74045342D01*
X145182144Y-74045342D02*
X145296429Y-73988200D01*
X144210715Y-74045342D02*
X144210715Y-72845342D01*
X143696430Y-74045342D02*
X143696430Y-73416771D01*
X143696430Y-73416771D02*
X143753572Y-73302485D01*
X143753572Y-73302485D02*
X143867858Y-73245342D01*
X143867858Y-73245342D02*
X144039287Y-73245342D01*
X144039287Y-73245342D02*
X144153572Y-73302485D01*
X144153572Y-73302485D02*
X144210715Y-73359628D01*
X143125001Y-74045342D02*
X143125001Y-73245342D01*
X143125001Y-72845342D02*
X143182144Y-72902485D01*
X143182144Y-72902485D02*
X143125001Y-72959628D01*
X143125001Y-72959628D02*
X143067858Y-72902485D01*
X143067858Y-72902485D02*
X143125001Y-72845342D01*
X143125001Y-72845342D02*
X143125001Y-72959628D01*
X142553572Y-74045342D02*
X142553572Y-73245342D01*
X142553572Y-73359628D02*
X142496429Y-73302485D01*
X142496429Y-73302485D02*
X142382144Y-73245342D01*
X142382144Y-73245342D02*
X142210715Y-73245342D01*
X142210715Y-73245342D02*
X142096429Y-73302485D01*
X142096429Y-73302485D02*
X142039287Y-73416771D01*
X142039287Y-73416771D02*
X142039287Y-74045342D01*
X142039287Y-73416771D02*
X141982144Y-73302485D01*
X141982144Y-73302485D02*
X141867858Y-73245342D01*
X141867858Y-73245342D02*
X141696429Y-73245342D01*
X141696429Y-73245342D02*
X141582144Y-73302485D01*
X141582144Y-73302485D02*
X141525001Y-73416771D01*
X141525001Y-73416771D02*
X141525001Y-74045342D01*
X140782144Y-74045342D02*
X140896429Y-73988200D01*
X140896429Y-73988200D02*
X140953572Y-73873914D01*
X140953572Y-73873914D02*
X140953572Y-72845342D01*
X139810716Y-74045342D02*
X139810716Y-73416771D01*
X139810716Y-73416771D02*
X139867858Y-73302485D01*
X139867858Y-73302485D02*
X139982144Y-73245342D01*
X139982144Y-73245342D02*
X140210716Y-73245342D01*
X140210716Y-73245342D02*
X140325001Y-73302485D01*
X139810716Y-73988200D02*
X139925001Y-74045342D01*
X139925001Y-74045342D02*
X140210716Y-74045342D01*
X140210716Y-74045342D02*
X140325001Y-73988200D01*
X140325001Y-73988200D02*
X140382144Y-73873914D01*
X140382144Y-73873914D02*
X140382144Y-73759628D01*
X140382144Y-73759628D02*
X140325001Y-73645342D01*
X140325001Y-73645342D02*
X140210716Y-73588200D01*
X140210716Y-73588200D02*
X139925001Y-73588200D01*
X139925001Y-73588200D02*
X139810716Y-73531057D01*
X139239287Y-74045342D02*
X139239287Y-72845342D01*
X139239287Y-73302485D02*
X139125002Y-73245342D01*
X139125002Y-73245342D02*
X138896430Y-73245342D01*
X138896430Y-73245342D02*
X138782144Y-73302485D01*
X138782144Y-73302485D02*
X138725002Y-73359628D01*
X138725002Y-73359628D02*
X138667859Y-73473914D01*
X138667859Y-73473914D02*
X138667859Y-73816771D01*
X138667859Y-73816771D02*
X138725002Y-73931057D01*
X138725002Y-73931057D02*
X138782144Y-73988200D01*
X138782144Y-73988200D02*
X138896430Y-74045342D01*
X138896430Y-74045342D02*
X139125002Y-74045342D01*
X139125002Y-74045342D02*
X139239287Y-73988200D01*
X138210716Y-73988200D02*
X138096430Y-74045342D01*
X138096430Y-74045342D02*
X137867859Y-74045342D01*
X137867859Y-74045342D02*
X137753573Y-73988200D01*
X137753573Y-73988200D02*
X137696430Y-73873914D01*
X137696430Y-73873914D02*
X137696430Y-73816771D01*
X137696430Y-73816771D02*
X137753573Y-73702485D01*
X137753573Y-73702485D02*
X137867859Y-73645342D01*
X137867859Y-73645342D02*
X138039288Y-73645342D01*
X138039288Y-73645342D02*
X138153573Y-73588200D01*
X138153573Y-73588200D02*
X138210716Y-73473914D01*
X138210716Y-73473914D02*
X138210716Y-73416771D01*
X138210716Y-73416771D02*
X138153573Y-73302485D01*
X138153573Y-73302485D02*
X138039288Y-73245342D01*
X138039288Y-73245342D02*
X137867859Y-73245342D01*
X137867859Y-73245342D02*
X137753573Y-73302485D01*
X136610716Y-74045342D02*
X137182144Y-74045342D01*
X137182144Y-74045342D02*
X137182144Y-72845342D01*
X135639287Y-74045342D02*
X136210715Y-74045342D01*
X136210715Y-74045342D02*
X136210715Y-72845342D01*
X134553572Y-73931057D02*
X134610715Y-73988200D01*
X134610715Y-73988200D02*
X134782143Y-74045342D01*
X134782143Y-74045342D02*
X134896429Y-74045342D01*
X134896429Y-74045342D02*
X135067858Y-73988200D01*
X135067858Y-73988200D02*
X135182143Y-73873914D01*
X135182143Y-73873914D02*
X135239286Y-73759628D01*
X135239286Y-73759628D02*
X135296429Y-73531057D01*
X135296429Y-73531057D02*
X135296429Y-73359628D01*
X135296429Y-73359628D02*
X135239286Y-73131057D01*
X135239286Y-73131057D02*
X135182143Y-73016771D01*
X135182143Y-73016771D02*
X135067858Y-72902485D01*
X135067858Y-72902485D02*
X134896429Y-72845342D01*
X134896429Y-72845342D02*
X134782143Y-72845342D01*
X134782143Y-72845342D02*
X134610715Y-72902485D01*
X134610715Y-72902485D02*
X134553572Y-72959628D01*
D11*
X154975000Y-65221657D02*
X154975000Y-62221657D01*
X154975000Y-62221657D02*
X154260714Y-62221657D01*
X154260714Y-62221657D02*
X153832143Y-62364514D01*
X153832143Y-62364514D02*
X153546428Y-62650228D01*
X153546428Y-62650228D02*
X153403571Y-62935942D01*
X153403571Y-62935942D02*
X153260714Y-63507371D01*
X153260714Y-63507371D02*
X153260714Y-63935942D01*
X153260714Y-63935942D02*
X153403571Y-64507371D01*
X153403571Y-64507371D02*
X153546428Y-64793085D01*
X153546428Y-64793085D02*
X153832143Y-65078800D01*
X153832143Y-65078800D02*
X154260714Y-65221657D01*
X154260714Y-65221657D02*
X154975000Y-65221657D01*
X152260714Y-63221657D02*
X151546428Y-65221657D01*
X150832143Y-63221657D02*
X151546428Y-65221657D01*
X151546428Y-65221657D02*
X151832143Y-65935942D01*
X151832143Y-65935942D02*
X151975000Y-66078800D01*
X151975000Y-66078800D02*
X152260714Y-66221657D01*
X149689286Y-63221657D02*
X149689286Y-65221657D01*
X149689286Y-63507371D02*
X149546429Y-63364514D01*
X149546429Y-63364514D02*
X149260714Y-63221657D01*
X149260714Y-63221657D02*
X148832143Y-63221657D01*
X148832143Y-63221657D02*
X148546429Y-63364514D01*
X148546429Y-63364514D02*
X148403572Y-63650228D01*
X148403572Y-63650228D02*
X148403572Y-65221657D01*
X145689286Y-65221657D02*
X145689286Y-63650228D01*
X145689286Y-63650228D02*
X145832143Y-63364514D01*
X145832143Y-63364514D02*
X146117857Y-63221657D01*
X146117857Y-63221657D02*
X146689286Y-63221657D01*
X146689286Y-63221657D02*
X146975000Y-63364514D01*
X145689286Y-65078800D02*
X145975000Y-65221657D01*
X145975000Y-65221657D02*
X146689286Y-65221657D01*
X146689286Y-65221657D02*
X146975000Y-65078800D01*
X146975000Y-65078800D02*
X147117857Y-64793085D01*
X147117857Y-64793085D02*
X147117857Y-64507371D01*
X147117857Y-64507371D02*
X146975000Y-64221657D01*
X146975000Y-64221657D02*
X146689286Y-64078800D01*
X146689286Y-64078800D02*
X145975000Y-64078800D01*
X145975000Y-64078800D02*
X145689286Y-63935942D01*
X144260714Y-65221657D02*
X144260714Y-63221657D01*
X144260714Y-63507371D02*
X144117857Y-63364514D01*
X144117857Y-63364514D02*
X143832142Y-63221657D01*
X143832142Y-63221657D02*
X143403571Y-63221657D01*
X143403571Y-63221657D02*
X143117857Y-63364514D01*
X143117857Y-63364514D02*
X142975000Y-63650228D01*
X142975000Y-63650228D02*
X142975000Y-65221657D01*
X142975000Y-63650228D02*
X142832142Y-63364514D01*
X142832142Y-63364514D02*
X142546428Y-63221657D01*
X142546428Y-63221657D02*
X142117857Y-63221657D01*
X142117857Y-63221657D02*
X141832142Y-63364514D01*
X141832142Y-63364514D02*
X141689285Y-63650228D01*
X141689285Y-63650228D02*
X141689285Y-65221657D01*
X139832142Y-65221657D02*
X140117857Y-65078800D01*
X140117857Y-65078800D02*
X140260714Y-64935942D01*
X140260714Y-64935942D02*
X140403571Y-64650228D01*
X140403571Y-64650228D02*
X140403571Y-63793085D01*
X140403571Y-63793085D02*
X140260714Y-63507371D01*
X140260714Y-63507371D02*
X140117857Y-63364514D01*
X140117857Y-63364514D02*
X139832142Y-63221657D01*
X139832142Y-63221657D02*
X139403571Y-63221657D01*
X139403571Y-63221657D02*
X139117857Y-63364514D01*
X139117857Y-63364514D02*
X138975000Y-63507371D01*
X138975000Y-63507371D02*
X138832142Y-63793085D01*
X138832142Y-63793085D02*
X138832142Y-64650228D01*
X138832142Y-64650228D02*
X138975000Y-64935942D01*
X138975000Y-64935942D02*
X139117857Y-65078800D01*
X139117857Y-65078800D02*
X139403571Y-65221657D01*
X139403571Y-65221657D02*
X139832142Y-65221657D01*
X160403571Y-70051657D02*
X160403571Y-67051657D01*
X160403571Y-67051657D02*
X159689285Y-67051657D01*
X159689285Y-67051657D02*
X159260714Y-67194514D01*
X159260714Y-67194514D02*
X158974999Y-67480228D01*
X158974999Y-67480228D02*
X158832142Y-67765942D01*
X158832142Y-67765942D02*
X158689285Y-68337371D01*
X158689285Y-68337371D02*
X158689285Y-68765942D01*
X158689285Y-68765942D02*
X158832142Y-69337371D01*
X158832142Y-69337371D02*
X158974999Y-69623085D01*
X158974999Y-69623085D02*
X159260714Y-69908800D01*
X159260714Y-69908800D02*
X159689285Y-70051657D01*
X159689285Y-70051657D02*
X160403571Y-70051657D01*
X155689285Y-69765942D02*
X155832142Y-69908800D01*
X155832142Y-69908800D02*
X156260714Y-70051657D01*
X156260714Y-70051657D02*
X156546428Y-70051657D01*
X156546428Y-70051657D02*
X156974999Y-69908800D01*
X156974999Y-69908800D02*
X157260714Y-69623085D01*
X157260714Y-69623085D02*
X157403571Y-69337371D01*
X157403571Y-69337371D02*
X157546428Y-68765942D01*
X157546428Y-68765942D02*
X157546428Y-68337371D01*
X157546428Y-68337371D02*
X157403571Y-67765942D01*
X157403571Y-67765942D02*
X157260714Y-67480228D01*
X157260714Y-67480228D02*
X156974999Y-67194514D01*
X156974999Y-67194514D02*
X156546428Y-67051657D01*
X156546428Y-67051657D02*
X156260714Y-67051657D01*
X156260714Y-67051657D02*
X155832142Y-67194514D01*
X155832142Y-67194514D02*
X155689285Y-67337371D01*
X152689285Y-69765942D02*
X152832142Y-69908800D01*
X152832142Y-69908800D02*
X153260714Y-70051657D01*
X153260714Y-70051657D02*
X153546428Y-70051657D01*
X153546428Y-70051657D02*
X153974999Y-69908800D01*
X153974999Y-69908800D02*
X154260714Y-69623085D01*
X154260714Y-69623085D02*
X154403571Y-69337371D01*
X154403571Y-69337371D02*
X154546428Y-68765942D01*
X154546428Y-68765942D02*
X154546428Y-68337371D01*
X154546428Y-68337371D02*
X154403571Y-67765942D01*
X154403571Y-67765942D02*
X154260714Y-67480228D01*
X154260714Y-67480228D02*
X153974999Y-67194514D01*
X153974999Y-67194514D02*
X153546428Y-67051657D01*
X153546428Y-67051657D02*
X153260714Y-67051657D01*
X153260714Y-67051657D02*
X152832142Y-67194514D01*
X152832142Y-67194514D02*
X152689285Y-67337371D01*
X148117857Y-68480228D02*
X147689285Y-68623085D01*
X147689285Y-68623085D02*
X147546428Y-68765942D01*
X147546428Y-68765942D02*
X147403571Y-69051657D01*
X147403571Y-69051657D02*
X147403571Y-69480228D01*
X147403571Y-69480228D02*
X147546428Y-69765942D01*
X147546428Y-69765942D02*
X147689285Y-69908800D01*
X147689285Y-69908800D02*
X147975000Y-70051657D01*
X147975000Y-70051657D02*
X149117857Y-70051657D01*
X149117857Y-70051657D02*
X149117857Y-67051657D01*
X149117857Y-67051657D02*
X148117857Y-67051657D01*
X148117857Y-67051657D02*
X147832143Y-67194514D01*
X147832143Y-67194514D02*
X147689285Y-67337371D01*
X147689285Y-67337371D02*
X147546428Y-67623085D01*
X147546428Y-67623085D02*
X147546428Y-67908800D01*
X147546428Y-67908800D02*
X147689285Y-68194514D01*
X147689285Y-68194514D02*
X147832143Y-68337371D01*
X147832143Y-68337371D02*
X148117857Y-68480228D01*
X148117857Y-68480228D02*
X149117857Y-68480228D01*
X145689285Y-70051657D02*
X145975000Y-69908800D01*
X145975000Y-69908800D02*
X146117857Y-69765942D01*
X146117857Y-69765942D02*
X146260714Y-69480228D01*
X146260714Y-69480228D02*
X146260714Y-68623085D01*
X146260714Y-68623085D02*
X146117857Y-68337371D01*
X146117857Y-68337371D02*
X145975000Y-68194514D01*
X145975000Y-68194514D02*
X145689285Y-68051657D01*
X145689285Y-68051657D02*
X145260714Y-68051657D01*
X145260714Y-68051657D02*
X144975000Y-68194514D01*
X144975000Y-68194514D02*
X144832143Y-68337371D01*
X144832143Y-68337371D02*
X144689285Y-68623085D01*
X144689285Y-68623085D02*
X144689285Y-69480228D01*
X144689285Y-69480228D02*
X144832143Y-69765942D01*
X144832143Y-69765942D02*
X144975000Y-69908800D01*
X144975000Y-69908800D02*
X145260714Y-70051657D01*
X145260714Y-70051657D02*
X145689285Y-70051657D01*
X142974999Y-70051657D02*
X143260714Y-69908800D01*
X143260714Y-69908800D02*
X143403571Y-69765942D01*
X143403571Y-69765942D02*
X143546428Y-69480228D01*
X143546428Y-69480228D02*
X143546428Y-68623085D01*
X143546428Y-68623085D02*
X143403571Y-68337371D01*
X143403571Y-68337371D02*
X143260714Y-68194514D01*
X143260714Y-68194514D02*
X142974999Y-68051657D01*
X142974999Y-68051657D02*
X142546428Y-68051657D01*
X142546428Y-68051657D02*
X142260714Y-68194514D01*
X142260714Y-68194514D02*
X142117857Y-68337371D01*
X142117857Y-68337371D02*
X141974999Y-68623085D01*
X141974999Y-68623085D02*
X141974999Y-69480228D01*
X141974999Y-69480228D02*
X142117857Y-69765942D01*
X142117857Y-69765942D02*
X142260714Y-69908800D01*
X142260714Y-69908800D02*
X142546428Y-70051657D01*
X142546428Y-70051657D02*
X142974999Y-70051657D01*
X140832142Y-69908800D02*
X140546428Y-70051657D01*
X140546428Y-70051657D02*
X139974999Y-70051657D01*
X139974999Y-70051657D02*
X139689285Y-69908800D01*
X139689285Y-69908800D02*
X139546428Y-69623085D01*
X139546428Y-69623085D02*
X139546428Y-69480228D01*
X139546428Y-69480228D02*
X139689285Y-69194514D01*
X139689285Y-69194514D02*
X139974999Y-69051657D01*
X139974999Y-69051657D02*
X140403571Y-69051657D01*
X140403571Y-69051657D02*
X140689285Y-68908800D01*
X140689285Y-68908800D02*
X140832142Y-68623085D01*
X140832142Y-68623085D02*
X140832142Y-68480228D01*
X140832142Y-68480228D02*
X140689285Y-68194514D01*
X140689285Y-68194514D02*
X140403571Y-68051657D01*
X140403571Y-68051657D02*
X139974999Y-68051657D01*
X139974999Y-68051657D02*
X139689285Y-68194514D01*
X138689285Y-68051657D02*
X137546428Y-68051657D01*
X138260714Y-67051657D02*
X138260714Y-69623085D01*
X138260714Y-69623085D02*
X138117857Y-69908800D01*
X138117857Y-69908800D02*
X137832142Y-70051657D01*
X137832142Y-70051657D02*
X137546428Y-70051657D01*
X135403571Y-69908800D02*
X135689285Y-70051657D01*
X135689285Y-70051657D02*
X136260714Y-70051657D01*
X136260714Y-70051657D02*
X136546428Y-69908800D01*
X136546428Y-69908800D02*
X136689285Y-69623085D01*
X136689285Y-69623085D02*
X136689285Y-68480228D01*
X136689285Y-68480228D02*
X136546428Y-68194514D01*
X136546428Y-68194514D02*
X136260714Y-68051657D01*
X136260714Y-68051657D02*
X135689285Y-68051657D01*
X135689285Y-68051657D02*
X135403571Y-68194514D01*
X135403571Y-68194514D02*
X135260714Y-68480228D01*
X135260714Y-68480228D02*
X135260714Y-68765942D01*
X135260714Y-68765942D02*
X136689285Y-69051657D01*
X133974999Y-70051657D02*
X133974999Y-68051657D01*
X133974999Y-68623085D02*
X133832142Y-68337371D01*
X133832142Y-68337371D02*
X133689285Y-68194514D01*
X133689285Y-68194514D02*
X133403570Y-68051657D01*
X133403570Y-68051657D02*
X133117856Y-68051657D01*
D12*
%TO.C,UNO_SHIELD1*%
X115455000Y-58480000D02*
X121805000Y-58480000D01*
X115455000Y-70160000D02*
X115455000Y-58480000D01*
X119905000Y-90230000D02*
X121805000Y-90230000D01*
X119905000Y-99370000D02*
X119905000Y-90230000D01*
X121805000Y-48950000D02*
X186455000Y-48950000D01*
X121805000Y-58480000D02*
X121805000Y-48950000D01*
X121805000Y-70160000D02*
X115455000Y-70160000D01*
X121805000Y-90230000D02*
X121805000Y-70160000D01*
X121805000Y-99370000D02*
X119905000Y-99370000D01*
X121805000Y-102550000D02*
X121805000Y-99370000D01*
X186455000Y-48950000D02*
X188105000Y-50600000D01*
X188105000Y-50600000D02*
X188105000Y-62030000D01*
X188105000Y-62030000D02*
X190645000Y-64570000D01*
X188105000Y-99880000D02*
X188105000Y-102550000D01*
X188105000Y-102550000D02*
X121805000Y-102550000D01*
X190645000Y-64570000D02*
X190645000Y-97340000D01*
X190645000Y-97340000D02*
X188105000Y-99880000D01*
%TD*%
M02*
