%TF.GenerationSoftware,KiCad,Pcbnew,7.0.6*%
%TF.CreationDate,2024-01-10T01:37:03-05:00*%
%TF.ProjectId,Dynamo,44796e61-6d6f-42e6-9b69-6361645f7063,rev?*%
%TF.SameCoordinates,Original*%
%TF.FileFunction,Paste,Top*%
%TF.FilePolarity,Positive*%
%FSLAX46Y46*%
G04 Gerber Fmt 4.6, Leading zero omitted, Abs format (unit mm)*
G04 Created by KiCad (PCBNEW 7.0.6) date 2024-01-10 01:37:03*
%MOMM*%
%LPD*%
G01*
G04 APERTURE LIST*
G04 Aperture macros list*
%AMRoundRect*
0 Rectangle with rounded corners*
0 $1 Rounding radius*
0 $2 $3 $4 $5 $6 $7 $8 $9 X,Y pos of 4 corners*
0 Add a 4 corners polygon primitive as box body*
4,1,4,$2,$3,$4,$5,$6,$7,$8,$9,$2,$3,0*
0 Add four circle primitives for the rounded corners*
1,1,$1+$1,$2,$3*
1,1,$1+$1,$4,$5*
1,1,$1+$1,$6,$7*
1,1,$1+$1,$8,$9*
0 Add four rect primitives between the rounded corners*
20,1,$1+$1,$2,$3,$4,$5,0*
20,1,$1+$1,$4,$5,$6,$7,0*
20,1,$1+$1,$6,$7,$8,$9,0*
20,1,$1+$1,$8,$9,$2,$3,0*%
G04 Aperture macros list end*
%ADD10R,0.650000X1.560000*%
%ADD11RoundRect,0.250000X0.312500X0.625000X-0.312500X0.625000X-0.312500X-0.625000X0.312500X-0.625000X0*%
%ADD12RoundRect,0.250000X0.625000X-0.312500X0.625000X0.312500X-0.625000X0.312500X-0.625000X-0.312500X0*%
%ADD13RoundRect,0.250000X1.250000X0.550000X-1.250000X0.550000X-1.250000X-0.550000X1.250000X-0.550000X0*%
%ADD14R,1.600000X0.300000*%
%ADD15RoundRect,0.250000X-0.325000X-0.650000X0.325000X-0.650000X0.325000X0.650000X-0.325000X0.650000X0*%
%ADD16R,1.700000X0.900000*%
%ADD17R,0.800000X1.300000*%
%ADD18RoundRect,0.250000X-0.625000X0.312500X-0.625000X-0.312500X0.625000X-0.312500X0.625000X0.312500X0*%
%ADD19R,1.200000X3.300000*%
%ADD20RoundRect,0.250000X0.325000X0.650000X-0.325000X0.650000X-0.325000X-0.650000X0.325000X-0.650000X0*%
%ADD21RoundRect,0.250000X-0.625000X0.375000X-0.625000X-0.375000X0.625000X-0.375000X0.625000X0.375000X0*%
%ADD22RoundRect,0.250000X0.650000X-0.325000X0.650000X0.325000X-0.650000X0.325000X-0.650000X-0.325000X0*%
%ADD23RoundRect,0.225000X0.375000X-0.225000X0.375000X0.225000X-0.375000X0.225000X-0.375000X-0.225000X0*%
%ADD24R,1.350000X0.400000*%
%ADD25R,1.900000X1.500000*%
%ADD26R,1.560000X0.650000*%
%ADD27RoundRect,0.150000X-0.512500X-0.150000X0.512500X-0.150000X0.512500X0.150000X-0.512500X0.150000X0*%
%ADD28R,0.900000X1.500000*%
%ADD29R,1.500000X0.900000*%
%ADD30R,0.900000X0.900000*%
%ADD31R,2.000000X1.500000*%
%ADD32R,2.000000X3.800000*%
%ADD33RoundRect,0.225000X0.225000X0.375000X-0.225000X0.375000X-0.225000X-0.375000X0.225000X-0.375000X0*%
G04 APERTURE END LIST*
D10*
%TO.C,U6*%
X152600000Y-58050000D03*
X153550000Y-58050000D03*
X154500000Y-58050000D03*
X154500000Y-55350000D03*
X152600000Y-55350000D03*
%TD*%
D11*
%TO.C,R3*%
X177262500Y-62000000D03*
X174337500Y-62000000D03*
%TD*%
%TO.C,R10*%
X133712500Y-54750000D03*
X130787500Y-54750000D03*
%TD*%
D12*
%TO.C,R7*%
X156500000Y-92925000D03*
X156500000Y-90000000D03*
%TD*%
%TO.C,R9*%
X163500000Y-92925000D03*
X163500000Y-90000000D03*
%TD*%
D13*
%TO.C,C5*%
X140500000Y-82750000D03*
X136100000Y-82750000D03*
%TD*%
D12*
%TO.C,R8*%
X160000000Y-92925000D03*
X160000000Y-90000000D03*
%TD*%
D13*
%TO.C,C2*%
X140500000Y-94750000D03*
X136100000Y-94750000D03*
%TD*%
D14*
%TO.C,U14*%
X130550000Y-50775000D03*
X130550000Y-51425000D03*
X130550000Y-52075000D03*
X130550000Y-52725000D03*
X133950000Y-52725000D03*
X133950000Y-52075000D03*
X133950000Y-51425000D03*
X133950000Y-50775000D03*
%TD*%
D15*
%TO.C,C1*%
X124295000Y-88750000D03*
X127245000Y-88750000D03*
%TD*%
D16*
%TO.C,BOOT1*%
X185500000Y-54800000D03*
X185500000Y-58200000D03*
%TD*%
D17*
%TO.C,U2*%
X124500000Y-86500000D03*
X125770000Y-86500000D03*
X127040000Y-86500000D03*
X127040000Y-77000000D03*
X125770000Y-77000000D03*
X124500000Y-77000000D03*
%TD*%
D18*
%TO.C,R4*%
X181250000Y-60037500D03*
X181250000Y-62962500D03*
%TD*%
D10*
%TO.C,U17*%
X158650000Y-63050000D03*
X159600000Y-63050000D03*
X160550000Y-63050000D03*
X160550000Y-60350000D03*
X158650000Y-60350000D03*
%TD*%
D18*
%TO.C,R2*%
X123250000Y-50037500D03*
X123250000Y-52962500D03*
%TD*%
D19*
%TO.C,L1*%
X146350000Y-87500000D03*
X143250000Y-87500000D03*
%TD*%
D10*
%TO.C,U7*%
X148600000Y-58050000D03*
X149550000Y-58050000D03*
X150500000Y-58050000D03*
X150500000Y-55350000D03*
X148600000Y-55350000D03*
%TD*%
D20*
%TO.C,C7*%
X185225000Y-65250000D03*
X182275000Y-65250000D03*
%TD*%
D10*
%TO.C,U15*%
X146650000Y-63050000D03*
X147600000Y-63050000D03*
X148550000Y-63050000D03*
X148550000Y-60350000D03*
X146650000Y-60350000D03*
%TD*%
D21*
%TO.C,D1*%
X123250000Y-54850000D03*
X123250000Y-57650000D03*
%TD*%
D10*
%TO.C,U16*%
X154650000Y-63050000D03*
X155600000Y-63050000D03*
X156550000Y-63050000D03*
X156550000Y-60350000D03*
X154650000Y-60350000D03*
%TD*%
D11*
%TO.C,R1*%
X131982500Y-88750000D03*
X129057500Y-88750000D03*
%TD*%
D22*
%TO.C,CU14*%
X127000000Y-52975000D03*
X127000000Y-50025000D03*
%TD*%
%TO.C,CU2*%
X134000000Y-79725000D03*
X134000000Y-76775000D03*
%TD*%
D23*
%TO.C,D5*%
X163500000Y-88250000D03*
X163500000Y-84950000D03*
%TD*%
D24*
%TO.C,JUSB1*%
X126000000Y-63200000D03*
X126000000Y-63850000D03*
X126000000Y-64500000D03*
X126000000Y-65150000D03*
X126000000Y-65800000D03*
D25*
X123300000Y-63500000D03*
X123300000Y-65500000D03*
%TD*%
D13*
%TO.C,C4*%
X140500000Y-88750000D03*
X136100000Y-88750000D03*
%TD*%
%TO.C,C6*%
X140450000Y-74500000D03*
X136050000Y-74500000D03*
%TD*%
D14*
%TO.C,U13*%
X174100000Y-58025000D03*
X174100000Y-58675000D03*
X174100000Y-59325000D03*
X174100000Y-59975000D03*
X177500000Y-59975000D03*
X177500000Y-59325000D03*
X177500000Y-58675000D03*
X177500000Y-58025000D03*
%TD*%
D15*
%TO.C,C3*%
X143325000Y-91000000D03*
X146275000Y-91000000D03*
%TD*%
D10*
%TO.C,U12*%
X150600000Y-63050000D03*
X151550000Y-63050000D03*
X152500000Y-63050000D03*
X152500000Y-60350000D03*
X150600000Y-60350000D03*
%TD*%
D17*
%TO.C,U3*%
X129250000Y-86500000D03*
X130520000Y-86500000D03*
X131790000Y-86500000D03*
X131790000Y-77000000D03*
X130520000Y-77000000D03*
X129250000Y-77000000D03*
%TD*%
D12*
%TO.C,R6*%
X153250000Y-92925000D03*
X153250000Y-90000000D03*
%TD*%
D23*
%TO.C,D2*%
X153300000Y-88250000D03*
X153300000Y-84950000D03*
%TD*%
D15*
%TO.C,CU10*%
X186775000Y-70000000D03*
X189725000Y-70000000D03*
%TD*%
D26*
%TO.C,U5*%
X129650000Y-73050000D03*
X129650000Y-74000000D03*
X129650000Y-74950000D03*
X132350000Y-74950000D03*
X132350000Y-73050000D03*
%TD*%
D10*
%TO.C,U9*%
X160600000Y-58050000D03*
X161550000Y-58050000D03*
X162500000Y-58050000D03*
X162500000Y-55350000D03*
X160600000Y-55350000D03*
%TD*%
D16*
%TO.C,RESET1*%
X185500000Y-59800000D03*
X185500000Y-63200000D03*
%TD*%
D27*
%TO.C,U1*%
X143550000Y-93250000D03*
X143550000Y-94200000D03*
X143550000Y-95150000D03*
X145825000Y-95150000D03*
X145825000Y-94200000D03*
X145825000Y-93250000D03*
%TD*%
D28*
%TO.C,U10*%
X189070000Y-73600000D03*
X187800000Y-73600000D03*
X186530000Y-73600000D03*
X185260000Y-73600000D03*
X183990000Y-73600000D03*
X182720000Y-73600000D03*
X181450000Y-73600000D03*
X180180000Y-73600000D03*
X178910000Y-73600000D03*
X177640000Y-73600000D03*
X176370000Y-73600000D03*
X175100000Y-73600000D03*
X173830000Y-73600000D03*
X172560000Y-73600000D03*
D29*
X171310000Y-75365000D03*
X171310000Y-76635000D03*
X171310000Y-77905000D03*
X171310000Y-79175000D03*
X171310000Y-80445000D03*
X171310000Y-81715000D03*
X171310000Y-82985000D03*
X171310000Y-84255000D03*
X171310000Y-85525000D03*
X171310000Y-86795000D03*
X171310000Y-88065000D03*
X171310000Y-89335000D03*
D28*
X172560000Y-91100000D03*
X173830000Y-91100000D03*
X175100000Y-91100000D03*
X176370000Y-91100000D03*
X177640000Y-91100000D03*
X178910000Y-91100000D03*
X180180000Y-91100000D03*
X181450000Y-91100000D03*
X182720000Y-91100000D03*
X183990000Y-91100000D03*
X185260000Y-91100000D03*
X186530000Y-91100000D03*
X187800000Y-91100000D03*
X189070000Y-91100000D03*
D30*
X182750000Y-79450000D03*
X181350000Y-79450000D03*
X179950000Y-79450000D03*
X182750000Y-80850000D03*
X181350000Y-80850000D03*
X179950000Y-80850000D03*
X182750000Y-82250000D03*
X181350000Y-82250000D03*
X179950000Y-82250000D03*
%TD*%
D23*
%TO.C,D4*%
X160000000Y-88250000D03*
X160000000Y-84950000D03*
%TD*%
D31*
%TO.C,U11*%
X143750000Y-76450000D03*
X143750000Y-78750000D03*
D32*
X150050000Y-78750000D03*
D31*
X143750000Y-81050000D03*
%TD*%
D20*
%TO.C,CU13*%
X177275000Y-56000000D03*
X174325000Y-56000000D03*
%TD*%
D18*
%TO.C,R5*%
X181250000Y-55037500D03*
X181250000Y-57962500D03*
%TD*%
D26*
%TO.C,U4*%
X126850000Y-74950000D03*
X126850000Y-74000000D03*
X126850000Y-73050000D03*
X124150000Y-73050000D03*
X124150000Y-74950000D03*
%TD*%
D23*
%TO.C,D3*%
X156500000Y-88250000D03*
X156500000Y-84950000D03*
%TD*%
D10*
%TO.C,U8*%
X156600000Y-58050000D03*
X157550000Y-58050000D03*
X158500000Y-58050000D03*
X158500000Y-55350000D03*
X156600000Y-55350000D03*
%TD*%
D33*
%TO.C,D6*%
X131900000Y-58750000D03*
X128600000Y-58750000D03*
%TD*%
M02*
