%TF.GenerationSoftware,KiCad,Pcbnew,7.0.6*%
%TF.CreationDate,2024-01-14T01:11:59-05:00*%
%TF.ProjectId,Dynamo,44796e61-6d6f-42e6-9b69-6361645f7063,rev?*%
%TF.SameCoordinates,Original*%
%TF.FileFunction,Legend,Top*%
%TF.FilePolarity,Positive*%
%FSLAX46Y46*%
G04 Gerber Fmt 4.6, Leading zero omitted, Abs format (unit mm)*
G04 Created by KiCad (PCBNEW 7.0.6) date 2024-01-14 01:11:59*
%MOMM*%
%LPD*%
G01*
G04 APERTURE LIST*
%ADD10C,0.300000*%
%ADD11C,0.150000*%
%ADD12C,0.200000*%
%ADD13C,0.120000*%
G04 APERTURE END LIST*
D10*
X133304510Y-96765114D02*
X133518796Y-96836542D01*
X133518796Y-96836542D02*
X133590225Y-96907971D01*
X133590225Y-96907971D02*
X133661653Y-97050828D01*
X133661653Y-97050828D02*
X133661653Y-97265114D01*
X133661653Y-97265114D02*
X133590225Y-97407971D01*
X133590225Y-97407971D02*
X133518796Y-97479400D01*
X133518796Y-97479400D02*
X133375939Y-97550828D01*
X133375939Y-97550828D02*
X132804510Y-97550828D01*
X132804510Y-97550828D02*
X132804510Y-96050828D01*
X132804510Y-96050828D02*
X133304510Y-96050828D01*
X133304510Y-96050828D02*
X133447368Y-96122257D01*
X133447368Y-96122257D02*
X133518796Y-96193685D01*
X133518796Y-96193685D02*
X133590225Y-96336542D01*
X133590225Y-96336542D02*
X133590225Y-96479400D01*
X133590225Y-96479400D02*
X133518796Y-96622257D01*
X133518796Y-96622257D02*
X133447368Y-96693685D01*
X133447368Y-96693685D02*
X133304510Y-96765114D01*
X133304510Y-96765114D02*
X132804510Y-96765114D01*
D11*
X172199541Y-101794128D02*
X172556684Y-101794128D01*
X172128112Y-102008414D02*
X172378112Y-101258414D01*
X172378112Y-101258414D02*
X172628112Y-102008414D01*
X173020969Y-101258414D02*
X173092398Y-101258414D01*
X173092398Y-101258414D02*
X173163826Y-101294128D01*
X173163826Y-101294128D02*
X173199541Y-101329842D01*
X173199541Y-101329842D02*
X173235255Y-101401271D01*
X173235255Y-101401271D02*
X173270969Y-101544128D01*
X173270969Y-101544128D02*
X173270969Y-101722700D01*
X173270969Y-101722700D02*
X173235255Y-101865557D01*
X173235255Y-101865557D02*
X173199541Y-101936985D01*
X173199541Y-101936985D02*
X173163826Y-101972700D01*
X173163826Y-101972700D02*
X173092398Y-102008414D01*
X173092398Y-102008414D02*
X173020969Y-102008414D01*
X173020969Y-102008414D02*
X172949541Y-101972700D01*
X172949541Y-101972700D02*
X172913826Y-101936985D01*
X172913826Y-101936985D02*
X172878112Y-101865557D01*
X172878112Y-101865557D02*
X172842398Y-101722700D01*
X172842398Y-101722700D02*
X172842398Y-101544128D01*
X172842398Y-101544128D02*
X172878112Y-101401271D01*
X172878112Y-101401271D02*
X172913826Y-101329842D01*
X172913826Y-101329842D02*
X172949541Y-101294128D01*
X172949541Y-101294128D02*
X173020969Y-101258414D01*
X174699542Y-101794128D02*
X175056685Y-101794128D01*
X174628113Y-102008414D02*
X174878113Y-101258414D01*
X174878113Y-101258414D02*
X175128113Y-102008414D01*
X175770970Y-102008414D02*
X175342399Y-102008414D01*
X175556684Y-102008414D02*
X175556684Y-101258414D01*
X175556684Y-101258414D02*
X175485256Y-101365557D01*
X175485256Y-101365557D02*
X175413827Y-101436985D01*
X175413827Y-101436985D02*
X175342399Y-101472700D01*
X177199543Y-101794128D02*
X177556686Y-101794128D01*
X177128114Y-102008414D02*
X177378114Y-101258414D01*
X177378114Y-101258414D02*
X177628114Y-102008414D01*
X177842400Y-101329842D02*
X177878114Y-101294128D01*
X177878114Y-101294128D02*
X177949543Y-101258414D01*
X177949543Y-101258414D02*
X178128114Y-101258414D01*
X178128114Y-101258414D02*
X178199543Y-101294128D01*
X178199543Y-101294128D02*
X178235257Y-101329842D01*
X178235257Y-101329842D02*
X178270971Y-101401271D01*
X178270971Y-101401271D02*
X178270971Y-101472700D01*
X178270971Y-101472700D02*
X178235257Y-101579842D01*
X178235257Y-101579842D02*
X177806685Y-102008414D01*
X177806685Y-102008414D02*
X178270971Y-102008414D01*
X179699544Y-101794128D02*
X180056687Y-101794128D01*
X179628115Y-102008414D02*
X179878115Y-101258414D01*
X179878115Y-101258414D02*
X180128115Y-102008414D01*
X180306686Y-101258414D02*
X180770972Y-101258414D01*
X180770972Y-101258414D02*
X180520972Y-101544128D01*
X180520972Y-101544128D02*
X180628115Y-101544128D01*
X180628115Y-101544128D02*
X180699544Y-101579842D01*
X180699544Y-101579842D02*
X180735258Y-101615557D01*
X180735258Y-101615557D02*
X180770972Y-101686985D01*
X180770972Y-101686985D02*
X180770972Y-101865557D01*
X180770972Y-101865557D02*
X180735258Y-101936985D01*
X180735258Y-101936985D02*
X180699544Y-101972700D01*
X180699544Y-101972700D02*
X180628115Y-102008414D01*
X180628115Y-102008414D02*
X180413829Y-102008414D01*
X180413829Y-102008414D02*
X180342401Y-101972700D01*
X180342401Y-101972700D02*
X180306686Y-101936985D01*
X185503696Y-49355704D02*
X185770363Y-49736657D01*
X185960839Y-49355704D02*
X185960839Y-50155704D01*
X185960839Y-50155704D02*
X185656077Y-50155704D01*
X185656077Y-50155704D02*
X185579887Y-50117609D01*
X185579887Y-50117609D02*
X185541792Y-50079514D01*
X185541792Y-50079514D02*
X185503696Y-50003323D01*
X185503696Y-50003323D02*
X185503696Y-49889038D01*
X185503696Y-49889038D02*
X185541792Y-49812847D01*
X185541792Y-49812847D02*
X185579887Y-49774752D01*
X185579887Y-49774752D02*
X185656077Y-49736657D01*
X185656077Y-49736657D02*
X185960839Y-49736657D01*
X185237030Y-50155704D02*
X184703696Y-49355704D01*
X184703696Y-50155704D02*
X185237030Y-49355704D01*
X183294172Y-50155704D02*
X182837029Y-50155704D01*
X183065601Y-49355704D02*
X183065601Y-50155704D01*
X182646553Y-50155704D02*
X182113219Y-49355704D01*
X182113219Y-50155704D02*
X182646553Y-49355704D01*
X125053571Y-59150414D02*
X125053571Y-59757557D01*
X125053571Y-59757557D02*
X125089285Y-59828985D01*
X125089285Y-59828985D02*
X125125000Y-59864700D01*
X125125000Y-59864700D02*
X125196428Y-59900414D01*
X125196428Y-59900414D02*
X125339285Y-59900414D01*
X125339285Y-59900414D02*
X125410714Y-59864700D01*
X125410714Y-59864700D02*
X125446428Y-59828985D01*
X125446428Y-59828985D02*
X125482142Y-59757557D01*
X125482142Y-59757557D02*
X125482142Y-59150414D01*
X125803571Y-59864700D02*
X125910714Y-59900414D01*
X125910714Y-59900414D02*
X126089285Y-59900414D01*
X126089285Y-59900414D02*
X126160714Y-59864700D01*
X126160714Y-59864700D02*
X126196428Y-59828985D01*
X126196428Y-59828985D02*
X126232142Y-59757557D01*
X126232142Y-59757557D02*
X126232142Y-59686128D01*
X126232142Y-59686128D02*
X126196428Y-59614700D01*
X126196428Y-59614700D02*
X126160714Y-59578985D01*
X126160714Y-59578985D02*
X126089285Y-59543271D01*
X126089285Y-59543271D02*
X125946428Y-59507557D01*
X125946428Y-59507557D02*
X125874999Y-59471842D01*
X125874999Y-59471842D02*
X125839285Y-59436128D01*
X125839285Y-59436128D02*
X125803571Y-59364700D01*
X125803571Y-59364700D02*
X125803571Y-59293271D01*
X125803571Y-59293271D02*
X125839285Y-59221842D01*
X125839285Y-59221842D02*
X125874999Y-59186128D01*
X125874999Y-59186128D02*
X125946428Y-59150414D01*
X125946428Y-59150414D02*
X126124999Y-59150414D01*
X126124999Y-59150414D02*
X126232142Y-59186128D01*
X126803571Y-59507557D02*
X126910714Y-59543271D01*
X126910714Y-59543271D02*
X126946428Y-59578985D01*
X126946428Y-59578985D02*
X126982142Y-59650414D01*
X126982142Y-59650414D02*
X126982142Y-59757557D01*
X126982142Y-59757557D02*
X126946428Y-59828985D01*
X126946428Y-59828985D02*
X126910714Y-59864700D01*
X126910714Y-59864700D02*
X126839285Y-59900414D01*
X126839285Y-59900414D02*
X126553571Y-59900414D01*
X126553571Y-59900414D02*
X126553571Y-59150414D01*
X126553571Y-59150414D02*
X126803571Y-59150414D01*
X126803571Y-59150414D02*
X126875000Y-59186128D01*
X126875000Y-59186128D02*
X126910714Y-59221842D01*
X126910714Y-59221842D02*
X126946428Y-59293271D01*
X126946428Y-59293271D02*
X126946428Y-59364700D01*
X126946428Y-59364700D02*
X126910714Y-59436128D01*
X126910714Y-59436128D02*
X126875000Y-59471842D01*
X126875000Y-59471842D02*
X126803571Y-59507557D01*
X126803571Y-59507557D02*
X126553571Y-59507557D01*
X124009523Y-100559819D02*
X123676190Y-100083628D01*
X123438095Y-100559819D02*
X123438095Y-99559819D01*
X123438095Y-99559819D02*
X123819047Y-99559819D01*
X123819047Y-99559819D02*
X123914285Y-99607438D01*
X123914285Y-99607438D02*
X123961904Y-99655057D01*
X123961904Y-99655057D02*
X124009523Y-99750295D01*
X124009523Y-99750295D02*
X124009523Y-99893152D01*
X124009523Y-99893152D02*
X123961904Y-99988390D01*
X123961904Y-99988390D02*
X123914285Y-100036009D01*
X123914285Y-100036009D02*
X123819047Y-100083628D01*
X123819047Y-100083628D02*
X123438095Y-100083628D01*
X124390476Y-100274104D02*
X124866666Y-100274104D01*
X124295238Y-100559819D02*
X124628571Y-99559819D01*
X124628571Y-99559819D02*
X124961904Y-100559819D01*
X125295238Y-100559819D02*
X125295238Y-99559819D01*
X126247618Y-100559819D02*
X125771428Y-100559819D01*
X125771428Y-100559819D02*
X125771428Y-99559819D01*
X126533333Y-100512200D02*
X126676190Y-100559819D01*
X126676190Y-100559819D02*
X126914285Y-100559819D01*
X126914285Y-100559819D02*
X127009523Y-100512200D01*
X127009523Y-100512200D02*
X127057142Y-100464580D01*
X127057142Y-100464580D02*
X127104761Y-100369342D01*
X127104761Y-100369342D02*
X127104761Y-100274104D01*
X127104761Y-100274104D02*
X127057142Y-100178866D01*
X127057142Y-100178866D02*
X127009523Y-100131247D01*
X127009523Y-100131247D02*
X126914285Y-100083628D01*
X126914285Y-100083628D02*
X126723809Y-100036009D01*
X126723809Y-100036009D02*
X126628571Y-99988390D01*
X126628571Y-99988390D02*
X126580952Y-99940771D01*
X126580952Y-99940771D02*
X126533333Y-99845533D01*
X126533333Y-99845533D02*
X126533333Y-99750295D01*
X126533333Y-99750295D02*
X126580952Y-99655057D01*
X126580952Y-99655057D02*
X126628571Y-99607438D01*
X126628571Y-99607438D02*
X126723809Y-99559819D01*
X126723809Y-99559819D02*
X126961904Y-99559819D01*
X126961904Y-99559819D02*
X127104761Y-99607438D01*
X127723809Y-100083628D02*
X127723809Y-100559819D01*
X127390476Y-99559819D02*
X127723809Y-100083628D01*
X127723809Y-100083628D02*
X128057142Y-99559819D01*
X128390476Y-100559819D02*
X128390476Y-99559819D01*
X128390476Y-99559819D02*
X128961904Y-100559819D01*
X128961904Y-100559819D02*
X128961904Y-99559819D01*
X130009523Y-100464580D02*
X129961904Y-100512200D01*
X129961904Y-100512200D02*
X129819047Y-100559819D01*
X129819047Y-100559819D02*
X129723809Y-100559819D01*
X129723809Y-100559819D02*
X129580952Y-100512200D01*
X129580952Y-100512200D02*
X129485714Y-100416961D01*
X129485714Y-100416961D02*
X129438095Y-100321723D01*
X129438095Y-100321723D02*
X129390476Y-100131247D01*
X129390476Y-100131247D02*
X129390476Y-99988390D01*
X129390476Y-99988390D02*
X129438095Y-99797914D01*
X129438095Y-99797914D02*
X129485714Y-99702676D01*
X129485714Y-99702676D02*
X129580952Y-99607438D01*
X129580952Y-99607438D02*
X129723809Y-99559819D01*
X129723809Y-99559819D02*
X129819047Y-99559819D01*
X129819047Y-99559819D02*
X129961904Y-99607438D01*
X129961904Y-99607438D02*
X130009523Y-99655057D01*
X124366667Y-101169819D02*
X125033333Y-101169819D01*
X125033333Y-101169819D02*
X124604762Y-102169819D01*
X125414286Y-101788866D02*
X126176191Y-101788866D01*
X126604762Y-101265057D02*
X126652381Y-101217438D01*
X126652381Y-101217438D02*
X126747619Y-101169819D01*
X126747619Y-101169819D02*
X126985714Y-101169819D01*
X126985714Y-101169819D02*
X127080952Y-101217438D01*
X127080952Y-101217438D02*
X127128571Y-101265057D01*
X127128571Y-101265057D02*
X127176190Y-101360295D01*
X127176190Y-101360295D02*
X127176190Y-101455533D01*
X127176190Y-101455533D02*
X127128571Y-101598390D01*
X127128571Y-101598390D02*
X126557143Y-102169819D01*
X126557143Y-102169819D02*
X127176190Y-102169819D01*
X128033333Y-101503152D02*
X128033333Y-102169819D01*
X127795238Y-101122200D02*
X127557143Y-101836485D01*
X127557143Y-101836485D02*
X128176190Y-101836485D01*
X128414286Y-101169819D02*
X128747619Y-102169819D01*
X128747619Y-102169819D02*
X129080952Y-101169819D01*
D12*
X183158028Y-57604136D02*
X183200885Y-57475564D01*
X183200885Y-57475564D02*
X183243742Y-57432707D01*
X183243742Y-57432707D02*
X183329457Y-57389850D01*
X183329457Y-57389850D02*
X183458028Y-57389850D01*
X183458028Y-57389850D02*
X183543742Y-57432707D01*
X183543742Y-57432707D02*
X183586600Y-57475564D01*
X183586600Y-57475564D02*
X183629457Y-57561279D01*
X183629457Y-57561279D02*
X183629457Y-57904136D01*
X183629457Y-57904136D02*
X182729457Y-57904136D01*
X182729457Y-57904136D02*
X182729457Y-57604136D01*
X182729457Y-57604136D02*
X182772314Y-57518422D01*
X182772314Y-57518422D02*
X182815171Y-57475564D01*
X182815171Y-57475564D02*
X182900885Y-57432707D01*
X182900885Y-57432707D02*
X182986600Y-57432707D01*
X182986600Y-57432707D02*
X183072314Y-57475564D01*
X183072314Y-57475564D02*
X183115171Y-57518422D01*
X183115171Y-57518422D02*
X183158028Y-57604136D01*
X183158028Y-57604136D02*
X183158028Y-57904136D01*
X182729457Y-56832707D02*
X182729457Y-56661279D01*
X182729457Y-56661279D02*
X182772314Y-56575564D01*
X182772314Y-56575564D02*
X182858028Y-56489850D01*
X182858028Y-56489850D02*
X183029457Y-56446993D01*
X183029457Y-56446993D02*
X183329457Y-56446993D01*
X183329457Y-56446993D02*
X183500885Y-56489850D01*
X183500885Y-56489850D02*
X183586600Y-56575564D01*
X183586600Y-56575564D02*
X183629457Y-56661279D01*
X183629457Y-56661279D02*
X183629457Y-56832707D01*
X183629457Y-56832707D02*
X183586600Y-56918422D01*
X183586600Y-56918422D02*
X183500885Y-57004136D01*
X183500885Y-57004136D02*
X183329457Y-57046993D01*
X183329457Y-57046993D02*
X183029457Y-57046993D01*
X183029457Y-57046993D02*
X182858028Y-57004136D01*
X182858028Y-57004136D02*
X182772314Y-56918422D01*
X182772314Y-56918422D02*
X182729457Y-56832707D01*
X182729457Y-55889850D02*
X182729457Y-55718422D01*
X182729457Y-55718422D02*
X182772314Y-55632707D01*
X182772314Y-55632707D02*
X182858028Y-55546993D01*
X182858028Y-55546993D02*
X183029457Y-55504136D01*
X183029457Y-55504136D02*
X183329457Y-55504136D01*
X183329457Y-55504136D02*
X183500885Y-55546993D01*
X183500885Y-55546993D02*
X183586600Y-55632707D01*
X183586600Y-55632707D02*
X183629457Y-55718422D01*
X183629457Y-55718422D02*
X183629457Y-55889850D01*
X183629457Y-55889850D02*
X183586600Y-55975565D01*
X183586600Y-55975565D02*
X183500885Y-56061279D01*
X183500885Y-56061279D02*
X183329457Y-56104136D01*
X183329457Y-56104136D02*
X183029457Y-56104136D01*
X183029457Y-56104136D02*
X182858028Y-56061279D01*
X182858028Y-56061279D02*
X182772314Y-55975565D01*
X182772314Y-55975565D02*
X182729457Y-55889850D01*
X182729457Y-55246993D02*
X182729457Y-54732708D01*
X183629457Y-54989850D02*
X182729457Y-54989850D01*
D11*
X144498935Y-49419800D02*
X144384649Y-49381704D01*
X144384649Y-49381704D02*
X144194173Y-49381704D01*
X144194173Y-49381704D02*
X144117982Y-49419800D01*
X144117982Y-49419800D02*
X144079887Y-49457895D01*
X144079887Y-49457895D02*
X144041792Y-49534085D01*
X144041792Y-49534085D02*
X144041792Y-49610276D01*
X144041792Y-49610276D02*
X144079887Y-49686466D01*
X144079887Y-49686466D02*
X144117982Y-49724561D01*
X144117982Y-49724561D02*
X144194173Y-49762657D01*
X144194173Y-49762657D02*
X144346554Y-49800752D01*
X144346554Y-49800752D02*
X144422744Y-49838847D01*
X144422744Y-49838847D02*
X144460839Y-49876942D01*
X144460839Y-49876942D02*
X144498935Y-49953133D01*
X144498935Y-49953133D02*
X144498935Y-50029323D01*
X144498935Y-50029323D02*
X144460839Y-50105514D01*
X144460839Y-50105514D02*
X144422744Y-50143609D01*
X144422744Y-50143609D02*
X144346554Y-50181704D01*
X144346554Y-50181704D02*
X144156077Y-50181704D01*
X144156077Y-50181704D02*
X144041792Y-50143609D01*
X143698934Y-49381704D02*
X143698934Y-50181704D01*
X143698934Y-50181704D02*
X143508458Y-50181704D01*
X143508458Y-50181704D02*
X143394172Y-50143609D01*
X143394172Y-50143609D02*
X143317982Y-50067419D01*
X143317982Y-50067419D02*
X143279887Y-49991228D01*
X143279887Y-49991228D02*
X143241791Y-49838847D01*
X143241791Y-49838847D02*
X143241791Y-49724561D01*
X143241791Y-49724561D02*
X143279887Y-49572180D01*
X143279887Y-49572180D02*
X143317982Y-49495990D01*
X143317982Y-49495990D02*
X143394172Y-49419800D01*
X143394172Y-49419800D02*
X143508458Y-49381704D01*
X143508458Y-49381704D02*
X143698934Y-49381704D01*
X142937030Y-49610276D02*
X142556077Y-49610276D01*
X143013220Y-49381704D02*
X142746553Y-50181704D01*
X142746553Y-50181704D02*
X142479887Y-49381704D01*
X141641792Y-49419800D02*
X141527506Y-49381704D01*
X141527506Y-49381704D02*
X141337030Y-49381704D01*
X141337030Y-49381704D02*
X141260839Y-49419800D01*
X141260839Y-49419800D02*
X141222744Y-49457895D01*
X141222744Y-49457895D02*
X141184649Y-49534085D01*
X141184649Y-49534085D02*
X141184649Y-49610276D01*
X141184649Y-49610276D02*
X141222744Y-49686466D01*
X141222744Y-49686466D02*
X141260839Y-49724561D01*
X141260839Y-49724561D02*
X141337030Y-49762657D01*
X141337030Y-49762657D02*
X141489411Y-49800752D01*
X141489411Y-49800752D02*
X141565601Y-49838847D01*
X141565601Y-49838847D02*
X141603696Y-49876942D01*
X141603696Y-49876942D02*
X141641792Y-49953133D01*
X141641792Y-49953133D02*
X141641792Y-50029323D01*
X141641792Y-50029323D02*
X141603696Y-50105514D01*
X141603696Y-50105514D02*
X141565601Y-50143609D01*
X141565601Y-50143609D02*
X141489411Y-50181704D01*
X141489411Y-50181704D02*
X141298934Y-50181704D01*
X141298934Y-50181704D02*
X141184649Y-50143609D01*
X140384648Y-49457895D02*
X140422744Y-49419800D01*
X140422744Y-49419800D02*
X140537029Y-49381704D01*
X140537029Y-49381704D02*
X140613220Y-49381704D01*
X140613220Y-49381704D02*
X140727506Y-49419800D01*
X140727506Y-49419800D02*
X140803696Y-49495990D01*
X140803696Y-49495990D02*
X140841791Y-49572180D01*
X140841791Y-49572180D02*
X140879887Y-49724561D01*
X140879887Y-49724561D02*
X140879887Y-49838847D01*
X140879887Y-49838847D02*
X140841791Y-49991228D01*
X140841791Y-49991228D02*
X140803696Y-50067419D01*
X140803696Y-50067419D02*
X140727506Y-50143609D01*
X140727506Y-50143609D02*
X140613220Y-50181704D01*
X140613220Y-50181704D02*
X140537029Y-50181704D01*
X140537029Y-50181704D02*
X140422744Y-50143609D01*
X140422744Y-50143609D02*
X140384648Y-50105514D01*
X139660839Y-49381704D02*
X140041791Y-49381704D01*
X140041791Y-49381704D02*
X140041791Y-50181704D01*
D10*
X132983082Y-93372257D02*
X133697368Y-93372257D01*
X132840225Y-93800828D02*
X133340225Y-92300828D01*
X133340225Y-92300828D02*
X133840225Y-93800828D01*
D12*
X183629457Y-62639850D02*
X183200885Y-62939850D01*
X183629457Y-63154136D02*
X182729457Y-63154136D01*
X182729457Y-63154136D02*
X182729457Y-62811279D01*
X182729457Y-62811279D02*
X182772314Y-62725564D01*
X182772314Y-62725564D02*
X182815171Y-62682707D01*
X182815171Y-62682707D02*
X182900885Y-62639850D01*
X182900885Y-62639850D02*
X183029457Y-62639850D01*
X183029457Y-62639850D02*
X183115171Y-62682707D01*
X183115171Y-62682707D02*
X183158028Y-62725564D01*
X183158028Y-62725564D02*
X183200885Y-62811279D01*
X183200885Y-62811279D02*
X183200885Y-63154136D01*
X183158028Y-62254136D02*
X183158028Y-61954136D01*
X183629457Y-61825564D02*
X183629457Y-62254136D01*
X183629457Y-62254136D02*
X182729457Y-62254136D01*
X182729457Y-62254136D02*
X182729457Y-61825564D01*
X183586600Y-61482707D02*
X183629457Y-61354136D01*
X183629457Y-61354136D02*
X183629457Y-61139850D01*
X183629457Y-61139850D02*
X183586600Y-61054136D01*
X183586600Y-61054136D02*
X183543742Y-61011278D01*
X183543742Y-61011278D02*
X183458028Y-60968421D01*
X183458028Y-60968421D02*
X183372314Y-60968421D01*
X183372314Y-60968421D02*
X183286600Y-61011278D01*
X183286600Y-61011278D02*
X183243742Y-61054136D01*
X183243742Y-61054136D02*
X183200885Y-61139850D01*
X183200885Y-61139850D02*
X183158028Y-61311278D01*
X183158028Y-61311278D02*
X183115171Y-61396993D01*
X183115171Y-61396993D02*
X183072314Y-61439850D01*
X183072314Y-61439850D02*
X182986600Y-61482707D01*
X182986600Y-61482707D02*
X182900885Y-61482707D01*
X182900885Y-61482707D02*
X182815171Y-61439850D01*
X182815171Y-61439850D02*
X182772314Y-61396993D01*
X182772314Y-61396993D02*
X182729457Y-61311278D01*
X182729457Y-61311278D02*
X182729457Y-61096993D01*
X182729457Y-61096993D02*
X182772314Y-60968421D01*
X183158028Y-60582707D02*
X183158028Y-60282707D01*
X183629457Y-60154135D02*
X183629457Y-60582707D01*
X183629457Y-60582707D02*
X182729457Y-60582707D01*
X182729457Y-60582707D02*
X182729457Y-60154135D01*
X182729457Y-59896992D02*
X182729457Y-59382707D01*
X183629457Y-59639849D02*
X182729457Y-59639849D01*
D11*
X151955826Y-101950414D02*
X151705826Y-101593271D01*
X151527255Y-101950414D02*
X151527255Y-101200414D01*
X151527255Y-101200414D02*
X151812969Y-101200414D01*
X151812969Y-101200414D02*
X151884398Y-101236128D01*
X151884398Y-101236128D02*
X151920112Y-101271842D01*
X151920112Y-101271842D02*
X151955826Y-101343271D01*
X151955826Y-101343271D02*
X151955826Y-101450414D01*
X151955826Y-101450414D02*
X151920112Y-101521842D01*
X151920112Y-101521842D02*
X151884398Y-101557557D01*
X151884398Y-101557557D02*
X151812969Y-101593271D01*
X151812969Y-101593271D02*
X151527255Y-101593271D01*
X152277255Y-101557557D02*
X152527255Y-101557557D01*
X152634398Y-101950414D02*
X152277255Y-101950414D01*
X152277255Y-101950414D02*
X152277255Y-101200414D01*
X152277255Y-101200414D02*
X152634398Y-101200414D01*
X153205826Y-101557557D02*
X152955826Y-101557557D01*
X152955826Y-101950414D02*
X152955826Y-101200414D01*
X152955826Y-101200414D02*
X153312969Y-101200414D01*
X154598683Y-101950414D02*
X154348683Y-101593271D01*
X154170112Y-101950414D02*
X154170112Y-101200414D01*
X154170112Y-101200414D02*
X154455826Y-101200414D01*
X154455826Y-101200414D02*
X154527255Y-101236128D01*
X154527255Y-101236128D02*
X154562969Y-101271842D01*
X154562969Y-101271842D02*
X154598683Y-101343271D01*
X154598683Y-101343271D02*
X154598683Y-101450414D01*
X154598683Y-101450414D02*
X154562969Y-101521842D01*
X154562969Y-101521842D02*
X154527255Y-101557557D01*
X154527255Y-101557557D02*
X154455826Y-101593271D01*
X154455826Y-101593271D02*
X154170112Y-101593271D01*
X154884398Y-101914700D02*
X154991541Y-101950414D01*
X154991541Y-101950414D02*
X155170112Y-101950414D01*
X155170112Y-101950414D02*
X155241541Y-101914700D01*
X155241541Y-101914700D02*
X155277255Y-101878985D01*
X155277255Y-101878985D02*
X155312969Y-101807557D01*
X155312969Y-101807557D02*
X155312969Y-101736128D01*
X155312969Y-101736128D02*
X155277255Y-101664700D01*
X155277255Y-101664700D02*
X155241541Y-101628985D01*
X155241541Y-101628985D02*
X155170112Y-101593271D01*
X155170112Y-101593271D02*
X155027255Y-101557557D01*
X155027255Y-101557557D02*
X154955826Y-101521842D01*
X154955826Y-101521842D02*
X154920112Y-101486128D01*
X154920112Y-101486128D02*
X154884398Y-101414700D01*
X154884398Y-101414700D02*
X154884398Y-101343271D01*
X154884398Y-101343271D02*
X154920112Y-101271842D01*
X154920112Y-101271842D02*
X154955826Y-101236128D01*
X154955826Y-101236128D02*
X155027255Y-101200414D01*
X155027255Y-101200414D02*
X155205826Y-101200414D01*
X155205826Y-101200414D02*
X155312969Y-101236128D01*
X155527255Y-101200414D02*
X155955827Y-101200414D01*
X155741541Y-101950414D02*
X155741541Y-101200414D01*
X156705827Y-101200414D02*
X157170113Y-101200414D01*
X157170113Y-101200414D02*
X156920113Y-101486128D01*
X156920113Y-101486128D02*
X157027256Y-101486128D01*
X157027256Y-101486128D02*
X157098685Y-101521842D01*
X157098685Y-101521842D02*
X157134399Y-101557557D01*
X157134399Y-101557557D02*
X157170113Y-101628985D01*
X157170113Y-101628985D02*
X157170113Y-101807557D01*
X157170113Y-101807557D02*
X157134399Y-101878985D01*
X157134399Y-101878985D02*
X157098685Y-101914700D01*
X157098685Y-101914700D02*
X157027256Y-101950414D01*
X157027256Y-101950414D02*
X156812970Y-101950414D01*
X156812970Y-101950414D02*
X156741542Y-101914700D01*
X156741542Y-101914700D02*
X156705827Y-101878985D01*
X157384399Y-101200414D02*
X157634399Y-101950414D01*
X157634399Y-101950414D02*
X157884399Y-101200414D01*
X158062970Y-101200414D02*
X158527256Y-101200414D01*
X158527256Y-101200414D02*
X158277256Y-101486128D01*
X158277256Y-101486128D02*
X158384399Y-101486128D01*
X158384399Y-101486128D02*
X158455828Y-101521842D01*
X158455828Y-101521842D02*
X158491542Y-101557557D01*
X158491542Y-101557557D02*
X158527256Y-101628985D01*
X158527256Y-101628985D02*
X158527256Y-101807557D01*
X158527256Y-101807557D02*
X158491542Y-101878985D01*
X158491542Y-101878985D02*
X158455828Y-101914700D01*
X158455828Y-101914700D02*
X158384399Y-101950414D01*
X158384399Y-101950414D02*
X158170113Y-101950414D01*
X158170113Y-101950414D02*
X158098685Y-101914700D01*
X158098685Y-101914700D02*
X158062970Y-101878985D01*
X159777257Y-101200414D02*
X159420114Y-101200414D01*
X159420114Y-101200414D02*
X159384400Y-101557557D01*
X159384400Y-101557557D02*
X159420114Y-101521842D01*
X159420114Y-101521842D02*
X159491543Y-101486128D01*
X159491543Y-101486128D02*
X159670114Y-101486128D01*
X159670114Y-101486128D02*
X159741543Y-101521842D01*
X159741543Y-101521842D02*
X159777257Y-101557557D01*
X159777257Y-101557557D02*
X159812971Y-101628985D01*
X159812971Y-101628985D02*
X159812971Y-101807557D01*
X159812971Y-101807557D02*
X159777257Y-101878985D01*
X159777257Y-101878985D02*
X159741543Y-101914700D01*
X159741543Y-101914700D02*
X159670114Y-101950414D01*
X159670114Y-101950414D02*
X159491543Y-101950414D01*
X159491543Y-101950414D02*
X159420114Y-101914700D01*
X159420114Y-101914700D02*
X159384400Y-101878985D01*
X160027257Y-101200414D02*
X160277257Y-101950414D01*
X160277257Y-101950414D02*
X160527257Y-101200414D01*
X161741543Y-101236128D02*
X161670115Y-101200414D01*
X161670115Y-101200414D02*
X161562972Y-101200414D01*
X161562972Y-101200414D02*
X161455829Y-101236128D01*
X161455829Y-101236128D02*
X161384400Y-101307557D01*
X161384400Y-101307557D02*
X161348686Y-101378985D01*
X161348686Y-101378985D02*
X161312972Y-101521842D01*
X161312972Y-101521842D02*
X161312972Y-101628985D01*
X161312972Y-101628985D02*
X161348686Y-101771842D01*
X161348686Y-101771842D02*
X161384400Y-101843271D01*
X161384400Y-101843271D02*
X161455829Y-101914700D01*
X161455829Y-101914700D02*
X161562972Y-101950414D01*
X161562972Y-101950414D02*
X161634400Y-101950414D01*
X161634400Y-101950414D02*
X161741543Y-101914700D01*
X161741543Y-101914700D02*
X161777257Y-101878985D01*
X161777257Y-101878985D02*
X161777257Y-101628985D01*
X161777257Y-101628985D02*
X161634400Y-101628985D01*
X162098686Y-101950414D02*
X162098686Y-101200414D01*
X162098686Y-101200414D02*
X162527257Y-101950414D01*
X162527257Y-101950414D02*
X162527257Y-101200414D01*
X162884400Y-101950414D02*
X162884400Y-101200414D01*
X162884400Y-101200414D02*
X163062971Y-101200414D01*
X163062971Y-101200414D02*
X163170114Y-101236128D01*
X163170114Y-101236128D02*
X163241543Y-101307557D01*
X163241543Y-101307557D02*
X163277257Y-101378985D01*
X163277257Y-101378985D02*
X163312971Y-101521842D01*
X163312971Y-101521842D02*
X163312971Y-101628985D01*
X163312971Y-101628985D02*
X163277257Y-101771842D01*
X163277257Y-101771842D02*
X163241543Y-101843271D01*
X163241543Y-101843271D02*
X163170114Y-101914700D01*
X163170114Y-101914700D02*
X163062971Y-101950414D01*
X163062971Y-101950414D02*
X162884400Y-101950414D01*
X164598686Y-101236128D02*
X164527258Y-101200414D01*
X164527258Y-101200414D02*
X164420115Y-101200414D01*
X164420115Y-101200414D02*
X164312972Y-101236128D01*
X164312972Y-101236128D02*
X164241543Y-101307557D01*
X164241543Y-101307557D02*
X164205829Y-101378985D01*
X164205829Y-101378985D02*
X164170115Y-101521842D01*
X164170115Y-101521842D02*
X164170115Y-101628985D01*
X164170115Y-101628985D02*
X164205829Y-101771842D01*
X164205829Y-101771842D02*
X164241543Y-101843271D01*
X164241543Y-101843271D02*
X164312972Y-101914700D01*
X164312972Y-101914700D02*
X164420115Y-101950414D01*
X164420115Y-101950414D02*
X164491543Y-101950414D01*
X164491543Y-101950414D02*
X164598686Y-101914700D01*
X164598686Y-101914700D02*
X164634400Y-101878985D01*
X164634400Y-101878985D02*
X164634400Y-101628985D01*
X164634400Y-101628985D02*
X164491543Y-101628985D01*
X164955829Y-101950414D02*
X164955829Y-101200414D01*
X164955829Y-101200414D02*
X165384400Y-101950414D01*
X165384400Y-101950414D02*
X165384400Y-101200414D01*
X165741543Y-101950414D02*
X165741543Y-101200414D01*
X165741543Y-101200414D02*
X165920114Y-101200414D01*
X165920114Y-101200414D02*
X166027257Y-101236128D01*
X166027257Y-101236128D02*
X166098686Y-101307557D01*
X166098686Y-101307557D02*
X166134400Y-101378985D01*
X166134400Y-101378985D02*
X166170114Y-101521842D01*
X166170114Y-101521842D02*
X166170114Y-101628985D01*
X166170114Y-101628985D02*
X166134400Y-101771842D01*
X166134400Y-101771842D02*
X166098686Y-101843271D01*
X166098686Y-101843271D02*
X166027257Y-101914700D01*
X166027257Y-101914700D02*
X165920114Y-101950414D01*
X165920114Y-101950414D02*
X165741543Y-101950414D01*
X166955829Y-101200414D02*
X167205829Y-101950414D01*
X167205829Y-101950414D02*
X167455829Y-101200414D01*
X167705829Y-101950414D02*
X167705829Y-101200414D01*
X168062972Y-101950414D02*
X168062972Y-101200414D01*
X168062972Y-101200414D02*
X168491543Y-101950414D01*
X168491543Y-101950414D02*
X168491543Y-101200414D01*
X146333333Y-89159580D02*
X146285714Y-89207200D01*
X146285714Y-89207200D02*
X146142857Y-89254819D01*
X146142857Y-89254819D02*
X146047619Y-89254819D01*
X146047619Y-89254819D02*
X145904762Y-89207200D01*
X145904762Y-89207200D02*
X145809524Y-89111961D01*
X145809524Y-89111961D02*
X145761905Y-89016723D01*
X145761905Y-89016723D02*
X145714286Y-88826247D01*
X145714286Y-88826247D02*
X145714286Y-88683390D01*
X145714286Y-88683390D02*
X145761905Y-88492914D01*
X145761905Y-88492914D02*
X145809524Y-88397676D01*
X145809524Y-88397676D02*
X145904762Y-88302438D01*
X145904762Y-88302438D02*
X146047619Y-88254819D01*
X146047619Y-88254819D02*
X146142857Y-88254819D01*
X146142857Y-88254819D02*
X146285714Y-88302438D01*
X146285714Y-88302438D02*
X146333333Y-88350057D01*
X147190476Y-88254819D02*
X147000000Y-88254819D01*
X147000000Y-88254819D02*
X146904762Y-88302438D01*
X146904762Y-88302438D02*
X146857143Y-88350057D01*
X146857143Y-88350057D02*
X146761905Y-88492914D01*
X146761905Y-88492914D02*
X146714286Y-88683390D01*
X146714286Y-88683390D02*
X146714286Y-89064342D01*
X146714286Y-89064342D02*
X146761905Y-89159580D01*
X146761905Y-89159580D02*
X146809524Y-89207200D01*
X146809524Y-89207200D02*
X146904762Y-89254819D01*
X146904762Y-89254819D02*
X147095238Y-89254819D01*
X147095238Y-89254819D02*
X147190476Y-89207200D01*
X147190476Y-89207200D02*
X147238095Y-89159580D01*
X147238095Y-89159580D02*
X147285714Y-89064342D01*
X147285714Y-89064342D02*
X147285714Y-88826247D01*
X147285714Y-88826247D02*
X147238095Y-88731009D01*
X147238095Y-88731009D02*
X147190476Y-88683390D01*
X147190476Y-88683390D02*
X147095238Y-88635771D01*
X147095238Y-88635771D02*
X146904762Y-88635771D01*
X146904762Y-88635771D02*
X146809524Y-88683390D01*
X146809524Y-88683390D02*
X146761905Y-88731009D01*
X146761905Y-88731009D02*
X146714286Y-88826247D01*
X149954819Y-96988094D02*
X148954819Y-96988094D01*
X148954819Y-96988094D02*
X148954819Y-96749999D01*
X148954819Y-96749999D02*
X149002438Y-96607142D01*
X149002438Y-96607142D02*
X149097676Y-96511904D01*
X149097676Y-96511904D02*
X149192914Y-96464285D01*
X149192914Y-96464285D02*
X149383390Y-96416666D01*
X149383390Y-96416666D02*
X149526247Y-96416666D01*
X149526247Y-96416666D02*
X149716723Y-96464285D01*
X149716723Y-96464285D02*
X149811961Y-96511904D01*
X149811961Y-96511904D02*
X149907200Y-96607142D01*
X149907200Y-96607142D02*
X149954819Y-96749999D01*
X149954819Y-96749999D02*
X149954819Y-96988094D01*
X148954819Y-96083332D02*
X148954819Y-95416666D01*
X148954819Y-95416666D02*
X149954819Y-95845237D01*
X168704819Y-83588094D02*
X169514342Y-83588094D01*
X169514342Y-83588094D02*
X169609580Y-83540475D01*
X169609580Y-83540475D02*
X169657200Y-83492856D01*
X169657200Y-83492856D02*
X169704819Y-83397618D01*
X169704819Y-83397618D02*
X169704819Y-83207142D01*
X169704819Y-83207142D02*
X169657200Y-83111904D01*
X169657200Y-83111904D02*
X169609580Y-83064285D01*
X169609580Y-83064285D02*
X169514342Y-83016666D01*
X169514342Y-83016666D02*
X168704819Y-83016666D01*
X169704819Y-82016666D02*
X169704819Y-82588094D01*
X169704819Y-82302380D02*
X168704819Y-82302380D01*
X168704819Y-82302380D02*
X168847676Y-82397618D01*
X168847676Y-82397618D02*
X168942914Y-82492856D01*
X168942914Y-82492856D02*
X168990533Y-82588094D01*
X168704819Y-81397618D02*
X168704819Y-81302380D01*
X168704819Y-81302380D02*
X168752438Y-81207142D01*
X168752438Y-81207142D02*
X168800057Y-81159523D01*
X168800057Y-81159523D02*
X168895295Y-81111904D01*
X168895295Y-81111904D02*
X169085771Y-81064285D01*
X169085771Y-81064285D02*
X169323866Y-81064285D01*
X169323866Y-81064285D02*
X169514342Y-81111904D01*
X169514342Y-81111904D02*
X169609580Y-81159523D01*
X169609580Y-81159523D02*
X169657200Y-81207142D01*
X169657200Y-81207142D02*
X169704819Y-81302380D01*
X169704819Y-81302380D02*
X169704819Y-81397618D01*
X169704819Y-81397618D02*
X169657200Y-81492856D01*
X169657200Y-81492856D02*
X169609580Y-81540475D01*
X169609580Y-81540475D02*
X169514342Y-81588094D01*
X169514342Y-81588094D02*
X169323866Y-81635713D01*
X169323866Y-81635713D02*
X169085771Y-81635713D01*
X169085771Y-81635713D02*
X168895295Y-81588094D01*
X168895295Y-81588094D02*
X168800057Y-81540475D01*
X168800057Y-81540475D02*
X168752438Y-81492856D01*
X168752438Y-81492856D02*
X168704819Y-81397618D01*
X193729104Y-87111905D02*
X193729104Y-86635715D01*
X194014819Y-87207143D02*
X193014819Y-86873810D01*
X193014819Y-86873810D02*
X194014819Y-86540477D01*
X193348152Y-86207143D02*
X194014819Y-86207143D01*
X193443390Y-86207143D02*
X193395771Y-86159524D01*
X193395771Y-86159524D02*
X193348152Y-86064286D01*
X193348152Y-86064286D02*
X193348152Y-85921429D01*
X193348152Y-85921429D02*
X193395771Y-85826191D01*
X193395771Y-85826191D02*
X193491009Y-85778572D01*
X193491009Y-85778572D02*
X194014819Y-85778572D01*
X193348152Y-85445238D02*
X193348152Y-85064286D01*
X193014819Y-85302381D02*
X193871961Y-85302381D01*
X193871961Y-85302381D02*
X193967200Y-85254762D01*
X193967200Y-85254762D02*
X194014819Y-85159524D01*
X194014819Y-85159524D02*
X194014819Y-85064286D01*
X193967200Y-84350000D02*
X194014819Y-84445238D01*
X194014819Y-84445238D02*
X194014819Y-84635714D01*
X194014819Y-84635714D02*
X193967200Y-84730952D01*
X193967200Y-84730952D02*
X193871961Y-84778571D01*
X193871961Y-84778571D02*
X193491009Y-84778571D01*
X193491009Y-84778571D02*
X193395771Y-84730952D01*
X193395771Y-84730952D02*
X193348152Y-84635714D01*
X193348152Y-84635714D02*
X193348152Y-84445238D01*
X193348152Y-84445238D02*
X193395771Y-84350000D01*
X193395771Y-84350000D02*
X193491009Y-84302381D01*
X193491009Y-84302381D02*
X193586247Y-84302381D01*
X193586247Y-84302381D02*
X193681485Y-84778571D01*
X193348152Y-83873809D02*
X194014819Y-83873809D01*
X193443390Y-83873809D02*
X193395771Y-83826190D01*
X193395771Y-83826190D02*
X193348152Y-83730952D01*
X193348152Y-83730952D02*
X193348152Y-83588095D01*
X193348152Y-83588095D02*
X193395771Y-83492857D01*
X193395771Y-83492857D02*
X193491009Y-83445238D01*
X193491009Y-83445238D02*
X194014819Y-83445238D01*
X193348152Y-82969047D02*
X194014819Y-82969047D01*
X193443390Y-82969047D02*
X193395771Y-82921428D01*
X193395771Y-82921428D02*
X193348152Y-82826190D01*
X193348152Y-82826190D02*
X193348152Y-82683333D01*
X193348152Y-82683333D02*
X193395771Y-82588095D01*
X193395771Y-82588095D02*
X193491009Y-82540476D01*
X193491009Y-82540476D02*
X194014819Y-82540476D01*
X194014819Y-81635714D02*
X193491009Y-81635714D01*
X193491009Y-81635714D02*
X193395771Y-81683333D01*
X193395771Y-81683333D02*
X193348152Y-81778571D01*
X193348152Y-81778571D02*
X193348152Y-81969047D01*
X193348152Y-81969047D02*
X193395771Y-82064285D01*
X193967200Y-81635714D02*
X194014819Y-81730952D01*
X194014819Y-81730952D02*
X194014819Y-81969047D01*
X194014819Y-81969047D02*
X193967200Y-82064285D01*
X193967200Y-82064285D02*
X193871961Y-82111904D01*
X193871961Y-82111904D02*
X193776723Y-82111904D01*
X193776723Y-82111904D02*
X193681485Y-82064285D01*
X193681485Y-82064285D02*
X193633866Y-81969047D01*
X193633866Y-81969047D02*
X193633866Y-81730952D01*
X193633866Y-81730952D02*
X193586247Y-81635714D01*
X193729104Y-80445237D02*
X193729104Y-79969047D01*
X194014819Y-80540475D02*
X193014819Y-80207142D01*
X193014819Y-80207142D02*
X194014819Y-79873809D01*
X194014819Y-79540475D02*
X193348152Y-79540475D01*
X193538628Y-79540475D02*
X193443390Y-79492856D01*
X193443390Y-79492856D02*
X193395771Y-79445237D01*
X193395771Y-79445237D02*
X193348152Y-79349999D01*
X193348152Y-79349999D02*
X193348152Y-79254761D01*
X193967200Y-78540475D02*
X194014819Y-78635713D01*
X194014819Y-78635713D02*
X194014819Y-78826189D01*
X194014819Y-78826189D02*
X193967200Y-78921427D01*
X193967200Y-78921427D02*
X193871961Y-78969046D01*
X193871961Y-78969046D02*
X193491009Y-78969046D01*
X193491009Y-78969046D02*
X193395771Y-78921427D01*
X193395771Y-78921427D02*
X193348152Y-78826189D01*
X193348152Y-78826189D02*
X193348152Y-78635713D01*
X193348152Y-78635713D02*
X193395771Y-78540475D01*
X193395771Y-78540475D02*
X193491009Y-78492856D01*
X193491009Y-78492856D02*
X193586247Y-78492856D01*
X193586247Y-78492856D02*
X193681485Y-78969046D01*
X194014819Y-77635713D02*
X193491009Y-77635713D01*
X193491009Y-77635713D02*
X193395771Y-77683332D01*
X193395771Y-77683332D02*
X193348152Y-77778570D01*
X193348152Y-77778570D02*
X193348152Y-77969046D01*
X193348152Y-77969046D02*
X193395771Y-78064284D01*
X193967200Y-77635713D02*
X194014819Y-77730951D01*
X194014819Y-77730951D02*
X194014819Y-77969046D01*
X194014819Y-77969046D02*
X193967200Y-78064284D01*
X193967200Y-78064284D02*
X193871961Y-78111903D01*
X193871961Y-78111903D02*
X193776723Y-78111903D01*
X193776723Y-78111903D02*
X193681485Y-78064284D01*
X193681485Y-78064284D02*
X193633866Y-77969046D01*
X193633866Y-77969046D02*
X193633866Y-77730951D01*
X193633866Y-77730951D02*
X193586247Y-77635713D01*
X152211905Y-83354819D02*
X152211905Y-82354819D01*
X152211905Y-82354819D02*
X152450000Y-82354819D01*
X152450000Y-82354819D02*
X152592857Y-82402438D01*
X152592857Y-82402438D02*
X152688095Y-82497676D01*
X152688095Y-82497676D02*
X152735714Y-82592914D01*
X152735714Y-82592914D02*
X152783333Y-82783390D01*
X152783333Y-82783390D02*
X152783333Y-82926247D01*
X152783333Y-82926247D02*
X152735714Y-83116723D01*
X152735714Y-83116723D02*
X152688095Y-83211961D01*
X152688095Y-83211961D02*
X152592857Y-83307200D01*
X152592857Y-83307200D02*
X152450000Y-83354819D01*
X152450000Y-83354819D02*
X152211905Y-83354819D01*
X153164286Y-82450057D02*
X153211905Y-82402438D01*
X153211905Y-82402438D02*
X153307143Y-82354819D01*
X153307143Y-82354819D02*
X153545238Y-82354819D01*
X153545238Y-82354819D02*
X153640476Y-82402438D01*
X153640476Y-82402438D02*
X153688095Y-82450057D01*
X153688095Y-82450057D02*
X153735714Y-82545295D01*
X153735714Y-82545295D02*
X153735714Y-82640533D01*
X153735714Y-82640533D02*
X153688095Y-82783390D01*
X153688095Y-82783390D02*
X153116667Y-83354819D01*
X153116667Y-83354819D02*
X153735714Y-83354819D01*
X130238095Y-70954819D02*
X130238095Y-71764342D01*
X130238095Y-71764342D02*
X130285714Y-71859580D01*
X130285714Y-71859580D02*
X130333333Y-71907200D01*
X130333333Y-71907200D02*
X130428571Y-71954819D01*
X130428571Y-71954819D02*
X130619047Y-71954819D01*
X130619047Y-71954819D02*
X130714285Y-71907200D01*
X130714285Y-71907200D02*
X130761904Y-71859580D01*
X130761904Y-71859580D02*
X130809523Y-71764342D01*
X130809523Y-71764342D02*
X130809523Y-70954819D01*
X131761904Y-70954819D02*
X131285714Y-70954819D01*
X131285714Y-70954819D02*
X131238095Y-71431009D01*
X131238095Y-71431009D02*
X131285714Y-71383390D01*
X131285714Y-71383390D02*
X131380952Y-71335771D01*
X131380952Y-71335771D02*
X131619047Y-71335771D01*
X131619047Y-71335771D02*
X131714285Y-71383390D01*
X131714285Y-71383390D02*
X131761904Y-71431009D01*
X131761904Y-71431009D02*
X131809523Y-71526247D01*
X131809523Y-71526247D02*
X131809523Y-71764342D01*
X131809523Y-71764342D02*
X131761904Y-71859580D01*
X131761904Y-71859580D02*
X131714285Y-71907200D01*
X131714285Y-71907200D02*
X131619047Y-71954819D01*
X131619047Y-71954819D02*
X131380952Y-71954819D01*
X131380952Y-71954819D02*
X131285714Y-71907200D01*
X131285714Y-71907200D02*
X131238095Y-71859580D01*
X131259524Y-49062295D02*
X131259524Y-49709914D01*
X131259524Y-49709914D02*
X131297619Y-49786104D01*
X131297619Y-49786104D02*
X131335714Y-49824200D01*
X131335714Y-49824200D02*
X131411905Y-49862295D01*
X131411905Y-49862295D02*
X131564286Y-49862295D01*
X131564286Y-49862295D02*
X131640476Y-49824200D01*
X131640476Y-49824200D02*
X131678571Y-49786104D01*
X131678571Y-49786104D02*
X131716667Y-49709914D01*
X131716667Y-49709914D02*
X131716667Y-49062295D01*
X132516666Y-49862295D02*
X132059523Y-49862295D01*
X132288095Y-49862295D02*
X132288095Y-49062295D01*
X132288095Y-49062295D02*
X132211904Y-49176580D01*
X132211904Y-49176580D02*
X132135714Y-49252771D01*
X132135714Y-49252771D02*
X132059523Y-49290866D01*
X133202381Y-49328961D02*
X133202381Y-49862295D01*
X133011905Y-49024200D02*
X132821428Y-49595628D01*
X132821428Y-49595628D02*
X133316667Y-49595628D01*
X142083333Y-88704819D02*
X141607143Y-88704819D01*
X141607143Y-88704819D02*
X141607143Y-87704819D01*
X142940476Y-88704819D02*
X142369048Y-88704819D01*
X142654762Y-88704819D02*
X142654762Y-87704819D01*
X142654762Y-87704819D02*
X142559524Y-87847676D01*
X142559524Y-87847676D02*
X142464286Y-87942914D01*
X142464286Y-87942914D02*
X142369048Y-87990533D01*
X139400954Y-67141959D02*
X139353335Y-67189579D01*
X139353335Y-67189579D02*
X139210478Y-67237198D01*
X139210478Y-67237198D02*
X139115240Y-67237198D01*
X139115240Y-67237198D02*
X138972383Y-67189579D01*
X138972383Y-67189579D02*
X138877145Y-67094340D01*
X138877145Y-67094340D02*
X138829526Y-66999102D01*
X138829526Y-66999102D02*
X138781907Y-66808626D01*
X138781907Y-66808626D02*
X138781907Y-66665769D01*
X138781907Y-66665769D02*
X138829526Y-66475293D01*
X138829526Y-66475293D02*
X138877145Y-66380055D01*
X138877145Y-66380055D02*
X138972383Y-66284817D01*
X138972383Y-66284817D02*
X139115240Y-66237198D01*
X139115240Y-66237198D02*
X139210478Y-66237198D01*
X139210478Y-66237198D02*
X139353335Y-66284817D01*
X139353335Y-66284817D02*
X139400954Y-66332436D01*
X140162859Y-66713388D02*
X140305716Y-66761007D01*
X140305716Y-66761007D02*
X140353335Y-66808626D01*
X140353335Y-66808626D02*
X140400954Y-66903864D01*
X140400954Y-66903864D02*
X140400954Y-67046721D01*
X140400954Y-67046721D02*
X140353335Y-67141959D01*
X140353335Y-67141959D02*
X140305716Y-67189579D01*
X140305716Y-67189579D02*
X140210478Y-67237198D01*
X140210478Y-67237198D02*
X139829526Y-67237198D01*
X139829526Y-67237198D02*
X139829526Y-66237198D01*
X139829526Y-66237198D02*
X140162859Y-66237198D01*
X140162859Y-66237198D02*
X140258097Y-66284817D01*
X140258097Y-66284817D02*
X140305716Y-66332436D01*
X140305716Y-66332436D02*
X140353335Y-66427674D01*
X140353335Y-66427674D02*
X140353335Y-66522912D01*
X140353335Y-66522912D02*
X140305716Y-66618150D01*
X140305716Y-66618150D02*
X140258097Y-66665769D01*
X140258097Y-66665769D02*
X140162859Y-66713388D01*
X140162859Y-66713388D02*
X139829526Y-66713388D01*
X141353335Y-67237198D02*
X140781907Y-67237198D01*
X141067621Y-67237198D02*
X141067621Y-66237198D01*
X141067621Y-66237198D02*
X140972383Y-66380055D01*
X140972383Y-66380055D02*
X140877145Y-66475293D01*
X140877145Y-66475293D02*
X140781907Y-66522912D01*
X146359580Y-92191666D02*
X146407200Y-92239285D01*
X146407200Y-92239285D02*
X146454819Y-92382142D01*
X146454819Y-92382142D02*
X146454819Y-92477380D01*
X146454819Y-92477380D02*
X146407200Y-92620237D01*
X146407200Y-92620237D02*
X146311961Y-92715475D01*
X146311961Y-92715475D02*
X146216723Y-92763094D01*
X146216723Y-92763094D02*
X146026247Y-92810713D01*
X146026247Y-92810713D02*
X145883390Y-92810713D01*
X145883390Y-92810713D02*
X145692914Y-92763094D01*
X145692914Y-92763094D02*
X145597676Y-92715475D01*
X145597676Y-92715475D02*
X145502438Y-92620237D01*
X145502438Y-92620237D02*
X145454819Y-92477380D01*
X145454819Y-92477380D02*
X145454819Y-92382142D01*
X145454819Y-92382142D02*
X145502438Y-92239285D01*
X145502438Y-92239285D02*
X145550057Y-92191666D01*
X145788152Y-91334523D02*
X146454819Y-91334523D01*
X145407200Y-91572618D02*
X146121485Y-91810713D01*
X146121485Y-91810713D02*
X146121485Y-91191666D01*
X141359580Y-100416666D02*
X141407200Y-100464285D01*
X141407200Y-100464285D02*
X141454819Y-100607142D01*
X141454819Y-100607142D02*
X141454819Y-100702380D01*
X141454819Y-100702380D02*
X141407200Y-100845237D01*
X141407200Y-100845237D02*
X141311961Y-100940475D01*
X141311961Y-100940475D02*
X141216723Y-100988094D01*
X141216723Y-100988094D02*
X141026247Y-101035713D01*
X141026247Y-101035713D02*
X140883390Y-101035713D01*
X140883390Y-101035713D02*
X140692914Y-100988094D01*
X140692914Y-100988094D02*
X140597676Y-100940475D01*
X140597676Y-100940475D02*
X140502438Y-100845237D01*
X140502438Y-100845237D02*
X140454819Y-100702380D01*
X140454819Y-100702380D02*
X140454819Y-100607142D01*
X140454819Y-100607142D02*
X140502438Y-100464285D01*
X140502438Y-100464285D02*
X140550057Y-100416666D01*
X140550057Y-100035713D02*
X140502438Y-99988094D01*
X140502438Y-99988094D02*
X140454819Y-99892856D01*
X140454819Y-99892856D02*
X140454819Y-99654761D01*
X140454819Y-99654761D02*
X140502438Y-99559523D01*
X140502438Y-99559523D02*
X140550057Y-99511904D01*
X140550057Y-99511904D02*
X140645295Y-99464285D01*
X140645295Y-99464285D02*
X140740533Y-99464285D01*
X140740533Y-99464285D02*
X140883390Y-99511904D01*
X140883390Y-99511904D02*
X141454819Y-100083332D01*
X141454819Y-100083332D02*
X141454819Y-99464285D01*
X152738095Y-53004819D02*
X152738095Y-53814342D01*
X152738095Y-53814342D02*
X152785714Y-53909580D01*
X152785714Y-53909580D02*
X152833333Y-53957200D01*
X152833333Y-53957200D02*
X152928571Y-54004819D01*
X152928571Y-54004819D02*
X153119047Y-54004819D01*
X153119047Y-54004819D02*
X153214285Y-53957200D01*
X153214285Y-53957200D02*
X153261904Y-53909580D01*
X153261904Y-53909580D02*
X153309523Y-53814342D01*
X153309523Y-53814342D02*
X153309523Y-53004819D01*
X154214285Y-53004819D02*
X154023809Y-53004819D01*
X154023809Y-53004819D02*
X153928571Y-53052438D01*
X153928571Y-53052438D02*
X153880952Y-53100057D01*
X153880952Y-53100057D02*
X153785714Y-53242914D01*
X153785714Y-53242914D02*
X153738095Y-53433390D01*
X153738095Y-53433390D02*
X153738095Y-53814342D01*
X153738095Y-53814342D02*
X153785714Y-53909580D01*
X153785714Y-53909580D02*
X153833333Y-53957200D01*
X153833333Y-53957200D02*
X153928571Y-54004819D01*
X153928571Y-54004819D02*
X154119047Y-54004819D01*
X154119047Y-54004819D02*
X154214285Y-53957200D01*
X154214285Y-53957200D02*
X154261904Y-53909580D01*
X154261904Y-53909580D02*
X154309523Y-53814342D01*
X154309523Y-53814342D02*
X154309523Y-53576247D01*
X154309523Y-53576247D02*
X154261904Y-53481009D01*
X154261904Y-53481009D02*
X154214285Y-53433390D01*
X154214285Y-53433390D02*
X154119047Y-53385771D01*
X154119047Y-53385771D02*
X153928571Y-53385771D01*
X153928571Y-53385771D02*
X153833333Y-53433390D01*
X153833333Y-53433390D02*
X153785714Y-53481009D01*
X153785714Y-53481009D02*
X153738095Y-53576247D01*
X175633333Y-64274819D02*
X175300000Y-63798628D01*
X175061905Y-64274819D02*
X175061905Y-63274819D01*
X175061905Y-63274819D02*
X175442857Y-63274819D01*
X175442857Y-63274819D02*
X175538095Y-63322438D01*
X175538095Y-63322438D02*
X175585714Y-63370057D01*
X175585714Y-63370057D02*
X175633333Y-63465295D01*
X175633333Y-63465295D02*
X175633333Y-63608152D01*
X175633333Y-63608152D02*
X175585714Y-63703390D01*
X175585714Y-63703390D02*
X175538095Y-63751009D01*
X175538095Y-63751009D02*
X175442857Y-63798628D01*
X175442857Y-63798628D02*
X175061905Y-63798628D01*
X175966667Y-63274819D02*
X176585714Y-63274819D01*
X176585714Y-63274819D02*
X176252381Y-63655771D01*
X176252381Y-63655771D02*
X176395238Y-63655771D01*
X176395238Y-63655771D02*
X176490476Y-63703390D01*
X176490476Y-63703390D02*
X176538095Y-63751009D01*
X176538095Y-63751009D02*
X176585714Y-63846247D01*
X176585714Y-63846247D02*
X176585714Y-64084342D01*
X176585714Y-64084342D02*
X176538095Y-64179580D01*
X176538095Y-64179580D02*
X176490476Y-64227200D01*
X176490476Y-64227200D02*
X176395238Y-64274819D01*
X176395238Y-64274819D02*
X176109524Y-64274819D01*
X176109524Y-64274819D02*
X176014286Y-64227200D01*
X176014286Y-64227200D02*
X175966667Y-64179580D01*
X135704819Y-55392857D02*
X135228628Y-55726190D01*
X135704819Y-55964285D02*
X134704819Y-55964285D01*
X134704819Y-55964285D02*
X134704819Y-55583333D01*
X134704819Y-55583333D02*
X134752438Y-55488095D01*
X134752438Y-55488095D02*
X134800057Y-55440476D01*
X134800057Y-55440476D02*
X134895295Y-55392857D01*
X134895295Y-55392857D02*
X135038152Y-55392857D01*
X135038152Y-55392857D02*
X135133390Y-55440476D01*
X135133390Y-55440476D02*
X135181009Y-55488095D01*
X135181009Y-55488095D02*
X135228628Y-55583333D01*
X135228628Y-55583333D02*
X135228628Y-55964285D01*
X135704819Y-54440476D02*
X135704819Y-55011904D01*
X135704819Y-54726190D02*
X134704819Y-54726190D01*
X134704819Y-54726190D02*
X134847676Y-54821428D01*
X134847676Y-54821428D02*
X134942914Y-54916666D01*
X134942914Y-54916666D02*
X134990533Y-55011904D01*
X134704819Y-53821428D02*
X134704819Y-53726190D01*
X134704819Y-53726190D02*
X134752438Y-53630952D01*
X134752438Y-53630952D02*
X134800057Y-53583333D01*
X134800057Y-53583333D02*
X134895295Y-53535714D01*
X134895295Y-53535714D02*
X135085771Y-53488095D01*
X135085771Y-53488095D02*
X135323866Y-53488095D01*
X135323866Y-53488095D02*
X135514342Y-53535714D01*
X135514342Y-53535714D02*
X135609580Y-53583333D01*
X135609580Y-53583333D02*
X135657200Y-53630952D01*
X135657200Y-53630952D02*
X135704819Y-53726190D01*
X135704819Y-53726190D02*
X135704819Y-53821428D01*
X135704819Y-53821428D02*
X135657200Y-53916666D01*
X135657200Y-53916666D02*
X135609580Y-53964285D01*
X135609580Y-53964285D02*
X135514342Y-54011904D01*
X135514342Y-54011904D02*
X135323866Y-54059523D01*
X135323866Y-54059523D02*
X135085771Y-54059523D01*
X135085771Y-54059523D02*
X134895295Y-54011904D01*
X134895295Y-54011904D02*
X134800057Y-53964285D01*
X134800057Y-53964285D02*
X134752438Y-53916666D01*
X134752438Y-53916666D02*
X134704819Y-53821428D01*
X155283333Y-94354819D02*
X154950000Y-93878628D01*
X154711905Y-94354819D02*
X154711905Y-93354819D01*
X154711905Y-93354819D02*
X155092857Y-93354819D01*
X155092857Y-93354819D02*
X155188095Y-93402438D01*
X155188095Y-93402438D02*
X155235714Y-93450057D01*
X155235714Y-93450057D02*
X155283333Y-93545295D01*
X155283333Y-93545295D02*
X155283333Y-93688152D01*
X155283333Y-93688152D02*
X155235714Y-93783390D01*
X155235714Y-93783390D02*
X155188095Y-93831009D01*
X155188095Y-93831009D02*
X155092857Y-93878628D01*
X155092857Y-93878628D02*
X154711905Y-93878628D01*
X155616667Y-93354819D02*
X156283333Y-93354819D01*
X156283333Y-93354819D02*
X155854762Y-94354819D01*
X160283333Y-94354819D02*
X159950000Y-93878628D01*
X159711905Y-94354819D02*
X159711905Y-93354819D01*
X159711905Y-93354819D02*
X160092857Y-93354819D01*
X160092857Y-93354819D02*
X160188095Y-93402438D01*
X160188095Y-93402438D02*
X160235714Y-93450057D01*
X160235714Y-93450057D02*
X160283333Y-93545295D01*
X160283333Y-93545295D02*
X160283333Y-93688152D01*
X160283333Y-93688152D02*
X160235714Y-93783390D01*
X160235714Y-93783390D02*
X160188095Y-93831009D01*
X160188095Y-93831009D02*
X160092857Y-93878628D01*
X160092857Y-93878628D02*
X159711905Y-93878628D01*
X160759524Y-94354819D02*
X160950000Y-94354819D01*
X160950000Y-94354819D02*
X161045238Y-94307200D01*
X161045238Y-94307200D02*
X161092857Y-94259580D01*
X161092857Y-94259580D02*
X161188095Y-94116723D01*
X161188095Y-94116723D02*
X161235714Y-93926247D01*
X161235714Y-93926247D02*
X161235714Y-93545295D01*
X161235714Y-93545295D02*
X161188095Y-93450057D01*
X161188095Y-93450057D02*
X161140476Y-93402438D01*
X161140476Y-93402438D02*
X161045238Y-93354819D01*
X161045238Y-93354819D02*
X160854762Y-93354819D01*
X160854762Y-93354819D02*
X160759524Y-93402438D01*
X160759524Y-93402438D02*
X160711905Y-93450057D01*
X160711905Y-93450057D02*
X160664286Y-93545295D01*
X160664286Y-93545295D02*
X160664286Y-93783390D01*
X160664286Y-93783390D02*
X160711905Y-93878628D01*
X160711905Y-93878628D02*
X160759524Y-93926247D01*
X160759524Y-93926247D02*
X160854762Y-93973866D01*
X160854762Y-93973866D02*
X161045238Y-93973866D01*
X161045238Y-93973866D02*
X161140476Y-93926247D01*
X161140476Y-93926247D02*
X161188095Y-93878628D01*
X161188095Y-93878628D02*
X161235714Y-93783390D01*
X140083333Y-83359580D02*
X140035714Y-83407200D01*
X140035714Y-83407200D02*
X139892857Y-83454819D01*
X139892857Y-83454819D02*
X139797619Y-83454819D01*
X139797619Y-83454819D02*
X139654762Y-83407200D01*
X139654762Y-83407200D02*
X139559524Y-83311961D01*
X139559524Y-83311961D02*
X139511905Y-83216723D01*
X139511905Y-83216723D02*
X139464286Y-83026247D01*
X139464286Y-83026247D02*
X139464286Y-82883390D01*
X139464286Y-82883390D02*
X139511905Y-82692914D01*
X139511905Y-82692914D02*
X139559524Y-82597676D01*
X139559524Y-82597676D02*
X139654762Y-82502438D01*
X139654762Y-82502438D02*
X139797619Y-82454819D01*
X139797619Y-82454819D02*
X139892857Y-82454819D01*
X139892857Y-82454819D02*
X140035714Y-82502438D01*
X140035714Y-82502438D02*
X140083333Y-82550057D01*
X140988095Y-82454819D02*
X140511905Y-82454819D01*
X140511905Y-82454819D02*
X140464286Y-82931009D01*
X140464286Y-82931009D02*
X140511905Y-82883390D01*
X140511905Y-82883390D02*
X140607143Y-82835771D01*
X140607143Y-82835771D02*
X140845238Y-82835771D01*
X140845238Y-82835771D02*
X140940476Y-82883390D01*
X140940476Y-82883390D02*
X140988095Y-82931009D01*
X140988095Y-82931009D02*
X141035714Y-83026247D01*
X141035714Y-83026247D02*
X141035714Y-83264342D01*
X141035714Y-83264342D02*
X140988095Y-83359580D01*
X140988095Y-83359580D02*
X140940476Y-83407200D01*
X140940476Y-83407200D02*
X140845238Y-83454819D01*
X140845238Y-83454819D02*
X140607143Y-83454819D01*
X140607143Y-83454819D02*
X140511905Y-83407200D01*
X140511905Y-83407200D02*
X140464286Y-83359580D01*
X157783333Y-94354819D02*
X157450000Y-93878628D01*
X157211905Y-94354819D02*
X157211905Y-93354819D01*
X157211905Y-93354819D02*
X157592857Y-93354819D01*
X157592857Y-93354819D02*
X157688095Y-93402438D01*
X157688095Y-93402438D02*
X157735714Y-93450057D01*
X157735714Y-93450057D02*
X157783333Y-93545295D01*
X157783333Y-93545295D02*
X157783333Y-93688152D01*
X157783333Y-93688152D02*
X157735714Y-93783390D01*
X157735714Y-93783390D02*
X157688095Y-93831009D01*
X157688095Y-93831009D02*
X157592857Y-93878628D01*
X157592857Y-93878628D02*
X157211905Y-93878628D01*
X158354762Y-93783390D02*
X158259524Y-93735771D01*
X158259524Y-93735771D02*
X158211905Y-93688152D01*
X158211905Y-93688152D02*
X158164286Y-93592914D01*
X158164286Y-93592914D02*
X158164286Y-93545295D01*
X158164286Y-93545295D02*
X158211905Y-93450057D01*
X158211905Y-93450057D02*
X158259524Y-93402438D01*
X158259524Y-93402438D02*
X158354762Y-93354819D01*
X158354762Y-93354819D02*
X158545238Y-93354819D01*
X158545238Y-93354819D02*
X158640476Y-93402438D01*
X158640476Y-93402438D02*
X158688095Y-93450057D01*
X158688095Y-93450057D02*
X158735714Y-93545295D01*
X158735714Y-93545295D02*
X158735714Y-93592914D01*
X158735714Y-93592914D02*
X158688095Y-93688152D01*
X158688095Y-93688152D02*
X158640476Y-93735771D01*
X158640476Y-93735771D02*
X158545238Y-93783390D01*
X158545238Y-93783390D02*
X158354762Y-93783390D01*
X158354762Y-93783390D02*
X158259524Y-93831009D01*
X158259524Y-93831009D02*
X158211905Y-93878628D01*
X158211905Y-93878628D02*
X158164286Y-93973866D01*
X158164286Y-93973866D02*
X158164286Y-94164342D01*
X158164286Y-94164342D02*
X158211905Y-94259580D01*
X158211905Y-94259580D02*
X158259524Y-94307200D01*
X158259524Y-94307200D02*
X158354762Y-94354819D01*
X158354762Y-94354819D02*
X158545238Y-94354819D01*
X158545238Y-94354819D02*
X158640476Y-94307200D01*
X158640476Y-94307200D02*
X158688095Y-94259580D01*
X158688095Y-94259580D02*
X158735714Y-94164342D01*
X158735714Y-94164342D02*
X158735714Y-93973866D01*
X158735714Y-93973866D02*
X158688095Y-93878628D01*
X158688095Y-93878628D02*
X158640476Y-93831009D01*
X158640476Y-93831009D02*
X158545238Y-93783390D01*
X123129580Y-89166666D02*
X123177200Y-89214285D01*
X123177200Y-89214285D02*
X123224819Y-89357142D01*
X123224819Y-89357142D02*
X123224819Y-89452380D01*
X123224819Y-89452380D02*
X123177200Y-89595237D01*
X123177200Y-89595237D02*
X123081961Y-89690475D01*
X123081961Y-89690475D02*
X122986723Y-89738094D01*
X122986723Y-89738094D02*
X122796247Y-89785713D01*
X122796247Y-89785713D02*
X122653390Y-89785713D01*
X122653390Y-89785713D02*
X122462914Y-89738094D01*
X122462914Y-89738094D02*
X122367676Y-89690475D01*
X122367676Y-89690475D02*
X122272438Y-89595237D01*
X122272438Y-89595237D02*
X122224819Y-89452380D01*
X122224819Y-89452380D02*
X122224819Y-89357142D01*
X122224819Y-89357142D02*
X122272438Y-89214285D01*
X122272438Y-89214285D02*
X122320057Y-89166666D01*
X123224819Y-88214285D02*
X123224819Y-88785713D01*
X123224819Y-88499999D02*
X122224819Y-88499999D01*
X122224819Y-88499999D02*
X122367676Y-88595237D01*
X122367676Y-88595237D02*
X122462914Y-88690475D01*
X122462914Y-88690475D02*
X122510533Y-88785713D01*
X122224819Y-82511904D02*
X123034342Y-82511904D01*
X123034342Y-82511904D02*
X123129580Y-82464285D01*
X123129580Y-82464285D02*
X123177200Y-82416666D01*
X123177200Y-82416666D02*
X123224819Y-82321428D01*
X123224819Y-82321428D02*
X123224819Y-82130952D01*
X123224819Y-82130952D02*
X123177200Y-82035714D01*
X123177200Y-82035714D02*
X123129580Y-81988095D01*
X123129580Y-81988095D02*
X123034342Y-81940476D01*
X123034342Y-81940476D02*
X122224819Y-81940476D01*
X122320057Y-81511904D02*
X122272438Y-81464285D01*
X122272438Y-81464285D02*
X122224819Y-81369047D01*
X122224819Y-81369047D02*
X122224819Y-81130952D01*
X122224819Y-81130952D02*
X122272438Y-81035714D01*
X122272438Y-81035714D02*
X122320057Y-80988095D01*
X122320057Y-80988095D02*
X122415295Y-80940476D01*
X122415295Y-80940476D02*
X122510533Y-80940476D01*
X122510533Y-80940476D02*
X122653390Y-80988095D01*
X122653390Y-80988095D02*
X123224819Y-81559523D01*
X123224819Y-81559523D02*
X123224819Y-80940476D01*
X179704819Y-61666666D02*
X179228628Y-61999999D01*
X179704819Y-62238094D02*
X178704819Y-62238094D01*
X178704819Y-62238094D02*
X178704819Y-61857142D01*
X178704819Y-61857142D02*
X178752438Y-61761904D01*
X178752438Y-61761904D02*
X178800057Y-61714285D01*
X178800057Y-61714285D02*
X178895295Y-61666666D01*
X178895295Y-61666666D02*
X179038152Y-61666666D01*
X179038152Y-61666666D02*
X179133390Y-61714285D01*
X179133390Y-61714285D02*
X179181009Y-61761904D01*
X179181009Y-61761904D02*
X179228628Y-61857142D01*
X179228628Y-61857142D02*
X179228628Y-62238094D01*
X179038152Y-60809523D02*
X179704819Y-60809523D01*
X178657200Y-61047618D02*
X179371485Y-61285713D01*
X179371485Y-61285713D02*
X179371485Y-60666666D01*
X158261905Y-64254819D02*
X158261905Y-65064342D01*
X158261905Y-65064342D02*
X158309524Y-65159580D01*
X158309524Y-65159580D02*
X158357143Y-65207200D01*
X158357143Y-65207200D02*
X158452381Y-65254819D01*
X158452381Y-65254819D02*
X158642857Y-65254819D01*
X158642857Y-65254819D02*
X158738095Y-65207200D01*
X158738095Y-65207200D02*
X158785714Y-65159580D01*
X158785714Y-65159580D02*
X158833333Y-65064342D01*
X158833333Y-65064342D02*
X158833333Y-64254819D01*
X159833333Y-65254819D02*
X159261905Y-65254819D01*
X159547619Y-65254819D02*
X159547619Y-64254819D01*
X159547619Y-64254819D02*
X159452381Y-64397676D01*
X159452381Y-64397676D02*
X159357143Y-64492914D01*
X159357143Y-64492914D02*
X159261905Y-64540533D01*
X160166667Y-64254819D02*
X160833333Y-64254819D01*
X160833333Y-64254819D02*
X160404762Y-65254819D01*
X125524819Y-51666666D02*
X125048628Y-51999999D01*
X125524819Y-52238094D02*
X124524819Y-52238094D01*
X124524819Y-52238094D02*
X124524819Y-51857142D01*
X124524819Y-51857142D02*
X124572438Y-51761904D01*
X124572438Y-51761904D02*
X124620057Y-51714285D01*
X124620057Y-51714285D02*
X124715295Y-51666666D01*
X124715295Y-51666666D02*
X124858152Y-51666666D01*
X124858152Y-51666666D02*
X124953390Y-51714285D01*
X124953390Y-51714285D02*
X125001009Y-51761904D01*
X125001009Y-51761904D02*
X125048628Y-51857142D01*
X125048628Y-51857142D02*
X125048628Y-52238094D01*
X124620057Y-51285713D02*
X124572438Y-51238094D01*
X124572438Y-51238094D02*
X124524819Y-51142856D01*
X124524819Y-51142856D02*
X124524819Y-50904761D01*
X124524819Y-50904761D02*
X124572438Y-50809523D01*
X124572438Y-50809523D02*
X124620057Y-50761904D01*
X124620057Y-50761904D02*
X124715295Y-50714285D01*
X124715295Y-50714285D02*
X124810533Y-50714285D01*
X124810533Y-50714285D02*
X124953390Y-50761904D01*
X124953390Y-50761904D02*
X125524819Y-51333332D01*
X125524819Y-51333332D02*
X125524819Y-50714285D01*
X148738095Y-53004819D02*
X148738095Y-53814342D01*
X148738095Y-53814342D02*
X148785714Y-53909580D01*
X148785714Y-53909580D02*
X148833333Y-53957200D01*
X148833333Y-53957200D02*
X148928571Y-54004819D01*
X148928571Y-54004819D02*
X149119047Y-54004819D01*
X149119047Y-54004819D02*
X149214285Y-53957200D01*
X149214285Y-53957200D02*
X149261904Y-53909580D01*
X149261904Y-53909580D02*
X149309523Y-53814342D01*
X149309523Y-53814342D02*
X149309523Y-53004819D01*
X149690476Y-53004819D02*
X150357142Y-53004819D01*
X150357142Y-53004819D02*
X149928571Y-54004819D01*
X183583333Y-67459580D02*
X183535714Y-67507200D01*
X183535714Y-67507200D02*
X183392857Y-67554819D01*
X183392857Y-67554819D02*
X183297619Y-67554819D01*
X183297619Y-67554819D02*
X183154762Y-67507200D01*
X183154762Y-67507200D02*
X183059524Y-67411961D01*
X183059524Y-67411961D02*
X183011905Y-67316723D01*
X183011905Y-67316723D02*
X182964286Y-67126247D01*
X182964286Y-67126247D02*
X182964286Y-66983390D01*
X182964286Y-66983390D02*
X183011905Y-66792914D01*
X183011905Y-66792914D02*
X183059524Y-66697676D01*
X183059524Y-66697676D02*
X183154762Y-66602438D01*
X183154762Y-66602438D02*
X183297619Y-66554819D01*
X183297619Y-66554819D02*
X183392857Y-66554819D01*
X183392857Y-66554819D02*
X183535714Y-66602438D01*
X183535714Y-66602438D02*
X183583333Y-66650057D01*
X183916667Y-66554819D02*
X184583333Y-66554819D01*
X184583333Y-66554819D02*
X184154762Y-67554819D01*
X146261905Y-64254819D02*
X146261905Y-65064342D01*
X146261905Y-65064342D02*
X146309524Y-65159580D01*
X146309524Y-65159580D02*
X146357143Y-65207200D01*
X146357143Y-65207200D02*
X146452381Y-65254819D01*
X146452381Y-65254819D02*
X146642857Y-65254819D01*
X146642857Y-65254819D02*
X146738095Y-65207200D01*
X146738095Y-65207200D02*
X146785714Y-65159580D01*
X146785714Y-65159580D02*
X146833333Y-65064342D01*
X146833333Y-65064342D02*
X146833333Y-64254819D01*
X147833333Y-65254819D02*
X147261905Y-65254819D01*
X147547619Y-65254819D02*
X147547619Y-64254819D01*
X147547619Y-64254819D02*
X147452381Y-64397676D01*
X147452381Y-64397676D02*
X147357143Y-64492914D01*
X147357143Y-64492914D02*
X147261905Y-64540533D01*
X148738095Y-64254819D02*
X148261905Y-64254819D01*
X148261905Y-64254819D02*
X148214286Y-64731009D01*
X148214286Y-64731009D02*
X148261905Y-64683390D01*
X148261905Y-64683390D02*
X148357143Y-64635771D01*
X148357143Y-64635771D02*
X148595238Y-64635771D01*
X148595238Y-64635771D02*
X148690476Y-64683390D01*
X148690476Y-64683390D02*
X148738095Y-64731009D01*
X148738095Y-64731009D02*
X148785714Y-64826247D01*
X148785714Y-64826247D02*
X148785714Y-65064342D01*
X148785714Y-65064342D02*
X148738095Y-65159580D01*
X148738095Y-65159580D02*
X148690476Y-65207200D01*
X148690476Y-65207200D02*
X148595238Y-65254819D01*
X148595238Y-65254819D02*
X148357143Y-65254819D01*
X148357143Y-65254819D02*
X148261905Y-65207200D01*
X148261905Y-65207200D02*
X148214286Y-65159580D01*
X125524819Y-56988094D02*
X124524819Y-56988094D01*
X124524819Y-56988094D02*
X124524819Y-56749999D01*
X124524819Y-56749999D02*
X124572438Y-56607142D01*
X124572438Y-56607142D02*
X124667676Y-56511904D01*
X124667676Y-56511904D02*
X124762914Y-56464285D01*
X124762914Y-56464285D02*
X124953390Y-56416666D01*
X124953390Y-56416666D02*
X125096247Y-56416666D01*
X125096247Y-56416666D02*
X125286723Y-56464285D01*
X125286723Y-56464285D02*
X125381961Y-56511904D01*
X125381961Y-56511904D02*
X125477200Y-56607142D01*
X125477200Y-56607142D02*
X125524819Y-56749999D01*
X125524819Y-56749999D02*
X125524819Y-56988094D01*
X125524819Y-55464285D02*
X125524819Y-56035713D01*
X125524819Y-55749999D02*
X124524819Y-55749999D01*
X124524819Y-55749999D02*
X124667676Y-55845237D01*
X124667676Y-55845237D02*
X124762914Y-55940475D01*
X124762914Y-55940475D02*
X124810533Y-56035713D01*
X154261905Y-64254819D02*
X154261905Y-65064342D01*
X154261905Y-65064342D02*
X154309524Y-65159580D01*
X154309524Y-65159580D02*
X154357143Y-65207200D01*
X154357143Y-65207200D02*
X154452381Y-65254819D01*
X154452381Y-65254819D02*
X154642857Y-65254819D01*
X154642857Y-65254819D02*
X154738095Y-65207200D01*
X154738095Y-65207200D02*
X154785714Y-65159580D01*
X154785714Y-65159580D02*
X154833333Y-65064342D01*
X154833333Y-65064342D02*
X154833333Y-64254819D01*
X155833333Y-65254819D02*
X155261905Y-65254819D01*
X155547619Y-65254819D02*
X155547619Y-64254819D01*
X155547619Y-64254819D02*
X155452381Y-64397676D01*
X155452381Y-64397676D02*
X155357143Y-64492914D01*
X155357143Y-64492914D02*
X155261905Y-64540533D01*
X156690476Y-64254819D02*
X156500000Y-64254819D01*
X156500000Y-64254819D02*
X156404762Y-64302438D01*
X156404762Y-64302438D02*
X156357143Y-64350057D01*
X156357143Y-64350057D02*
X156261905Y-64492914D01*
X156261905Y-64492914D02*
X156214286Y-64683390D01*
X156214286Y-64683390D02*
X156214286Y-65064342D01*
X156214286Y-65064342D02*
X156261905Y-65159580D01*
X156261905Y-65159580D02*
X156309524Y-65207200D01*
X156309524Y-65207200D02*
X156404762Y-65254819D01*
X156404762Y-65254819D02*
X156595238Y-65254819D01*
X156595238Y-65254819D02*
X156690476Y-65207200D01*
X156690476Y-65207200D02*
X156738095Y-65159580D01*
X156738095Y-65159580D02*
X156785714Y-65064342D01*
X156785714Y-65064342D02*
X156785714Y-64826247D01*
X156785714Y-64826247D02*
X156738095Y-64731009D01*
X156738095Y-64731009D02*
X156690476Y-64683390D01*
X156690476Y-64683390D02*
X156595238Y-64635771D01*
X156595238Y-64635771D02*
X156404762Y-64635771D01*
X156404762Y-64635771D02*
X156309524Y-64683390D01*
X156309524Y-64683390D02*
X156261905Y-64731009D01*
X156261905Y-64731009D02*
X156214286Y-64826247D01*
X133974819Y-89166666D02*
X133498628Y-89499999D01*
X133974819Y-89738094D02*
X132974819Y-89738094D01*
X132974819Y-89738094D02*
X132974819Y-89357142D01*
X132974819Y-89357142D02*
X133022438Y-89261904D01*
X133022438Y-89261904D02*
X133070057Y-89214285D01*
X133070057Y-89214285D02*
X133165295Y-89166666D01*
X133165295Y-89166666D02*
X133308152Y-89166666D01*
X133308152Y-89166666D02*
X133403390Y-89214285D01*
X133403390Y-89214285D02*
X133451009Y-89261904D01*
X133451009Y-89261904D02*
X133498628Y-89357142D01*
X133498628Y-89357142D02*
X133498628Y-89738094D01*
X133974819Y-88214285D02*
X133974819Y-88785713D01*
X133974819Y-88499999D02*
X132974819Y-88499999D01*
X132974819Y-88499999D02*
X133117676Y-88595237D01*
X133117676Y-88595237D02*
X133212914Y-88690475D01*
X133212914Y-88690475D02*
X133260533Y-88785713D01*
X125833333Y-54859580D02*
X125785714Y-54907200D01*
X125785714Y-54907200D02*
X125642857Y-54954819D01*
X125642857Y-54954819D02*
X125547619Y-54954819D01*
X125547619Y-54954819D02*
X125404762Y-54907200D01*
X125404762Y-54907200D02*
X125309524Y-54811961D01*
X125309524Y-54811961D02*
X125261905Y-54716723D01*
X125261905Y-54716723D02*
X125214286Y-54526247D01*
X125214286Y-54526247D02*
X125214286Y-54383390D01*
X125214286Y-54383390D02*
X125261905Y-54192914D01*
X125261905Y-54192914D02*
X125309524Y-54097676D01*
X125309524Y-54097676D02*
X125404762Y-54002438D01*
X125404762Y-54002438D02*
X125547619Y-53954819D01*
X125547619Y-53954819D02*
X125642857Y-53954819D01*
X125642857Y-53954819D02*
X125785714Y-54002438D01*
X125785714Y-54002438D02*
X125833333Y-54050057D01*
X126261905Y-53954819D02*
X126261905Y-54764342D01*
X126261905Y-54764342D02*
X126309524Y-54859580D01*
X126309524Y-54859580D02*
X126357143Y-54907200D01*
X126357143Y-54907200D02*
X126452381Y-54954819D01*
X126452381Y-54954819D02*
X126642857Y-54954819D01*
X126642857Y-54954819D02*
X126738095Y-54907200D01*
X126738095Y-54907200D02*
X126785714Y-54859580D01*
X126785714Y-54859580D02*
X126833333Y-54764342D01*
X126833333Y-54764342D02*
X126833333Y-53954819D01*
X127833333Y-54954819D02*
X127261905Y-54954819D01*
X127547619Y-54954819D02*
X127547619Y-53954819D01*
X127547619Y-53954819D02*
X127452381Y-54097676D01*
X127452381Y-54097676D02*
X127357143Y-54192914D01*
X127357143Y-54192914D02*
X127261905Y-54240533D01*
X128690476Y-54288152D02*
X128690476Y-54954819D01*
X128452381Y-53907200D02*
X128214286Y-54621485D01*
X128214286Y-54621485D02*
X128833333Y-54621485D01*
X159711905Y-83354819D02*
X159711905Y-82354819D01*
X159711905Y-82354819D02*
X159950000Y-82354819D01*
X159950000Y-82354819D02*
X160092857Y-82402438D01*
X160092857Y-82402438D02*
X160188095Y-82497676D01*
X160188095Y-82497676D02*
X160235714Y-82592914D01*
X160235714Y-82592914D02*
X160283333Y-82783390D01*
X160283333Y-82783390D02*
X160283333Y-82926247D01*
X160283333Y-82926247D02*
X160235714Y-83116723D01*
X160235714Y-83116723D02*
X160188095Y-83211961D01*
X160188095Y-83211961D02*
X160092857Y-83307200D01*
X160092857Y-83307200D02*
X159950000Y-83354819D01*
X159950000Y-83354819D02*
X159711905Y-83354819D01*
X161188095Y-82354819D02*
X160711905Y-82354819D01*
X160711905Y-82354819D02*
X160664286Y-82831009D01*
X160664286Y-82831009D02*
X160711905Y-82783390D01*
X160711905Y-82783390D02*
X160807143Y-82735771D01*
X160807143Y-82735771D02*
X161045238Y-82735771D01*
X161045238Y-82735771D02*
X161140476Y-82783390D01*
X161140476Y-82783390D02*
X161188095Y-82831009D01*
X161188095Y-82831009D02*
X161235714Y-82926247D01*
X161235714Y-82926247D02*
X161235714Y-83164342D01*
X161235714Y-83164342D02*
X161188095Y-83259580D01*
X161188095Y-83259580D02*
X161140476Y-83307200D01*
X161140476Y-83307200D02*
X161045238Y-83354819D01*
X161045238Y-83354819D02*
X160807143Y-83354819D01*
X160807143Y-83354819D02*
X160711905Y-83307200D01*
X160711905Y-83307200D02*
X160664286Y-83259580D01*
X171754819Y-60238094D02*
X172564342Y-60238094D01*
X172564342Y-60238094D02*
X172659580Y-60190475D01*
X172659580Y-60190475D02*
X172707200Y-60142856D01*
X172707200Y-60142856D02*
X172754819Y-60047618D01*
X172754819Y-60047618D02*
X172754819Y-59857142D01*
X172754819Y-59857142D02*
X172707200Y-59761904D01*
X172707200Y-59761904D02*
X172659580Y-59714285D01*
X172659580Y-59714285D02*
X172564342Y-59666666D01*
X172564342Y-59666666D02*
X171754819Y-59666666D01*
X172754819Y-58666666D02*
X172754819Y-59238094D01*
X172754819Y-58952380D02*
X171754819Y-58952380D01*
X171754819Y-58952380D02*
X171897676Y-59047618D01*
X171897676Y-59047618D02*
X171992914Y-59142856D01*
X171992914Y-59142856D02*
X172040533Y-59238094D01*
X171754819Y-58333332D02*
X171754819Y-57714285D01*
X171754819Y-57714285D02*
X172135771Y-58047618D01*
X172135771Y-58047618D02*
X172135771Y-57904761D01*
X172135771Y-57904761D02*
X172183390Y-57809523D01*
X172183390Y-57809523D02*
X172231009Y-57761904D01*
X172231009Y-57761904D02*
X172326247Y-57714285D01*
X172326247Y-57714285D02*
X172564342Y-57714285D01*
X172564342Y-57714285D02*
X172659580Y-57761904D01*
X172659580Y-57761904D02*
X172707200Y-57809523D01*
X172707200Y-57809523D02*
X172754819Y-57904761D01*
X172754819Y-57904761D02*
X172754819Y-58190475D01*
X172754819Y-58190475D02*
X172707200Y-58285713D01*
X172707200Y-58285713D02*
X172659580Y-58333332D01*
X136359580Y-90191666D02*
X136407200Y-90239285D01*
X136407200Y-90239285D02*
X136454819Y-90382142D01*
X136454819Y-90382142D02*
X136454819Y-90477380D01*
X136454819Y-90477380D02*
X136407200Y-90620237D01*
X136407200Y-90620237D02*
X136311961Y-90715475D01*
X136311961Y-90715475D02*
X136216723Y-90763094D01*
X136216723Y-90763094D02*
X136026247Y-90810713D01*
X136026247Y-90810713D02*
X135883390Y-90810713D01*
X135883390Y-90810713D02*
X135692914Y-90763094D01*
X135692914Y-90763094D02*
X135597676Y-90715475D01*
X135597676Y-90715475D02*
X135502438Y-90620237D01*
X135502438Y-90620237D02*
X135454819Y-90477380D01*
X135454819Y-90477380D02*
X135454819Y-90382142D01*
X135454819Y-90382142D02*
X135502438Y-90239285D01*
X135502438Y-90239285D02*
X135550057Y-90191666D01*
X135454819Y-89858332D02*
X135454819Y-89239285D01*
X135454819Y-89239285D02*
X135835771Y-89572618D01*
X135835771Y-89572618D02*
X135835771Y-89429761D01*
X135835771Y-89429761D02*
X135883390Y-89334523D01*
X135883390Y-89334523D02*
X135931009Y-89286904D01*
X135931009Y-89286904D02*
X136026247Y-89239285D01*
X136026247Y-89239285D02*
X136264342Y-89239285D01*
X136264342Y-89239285D02*
X136359580Y-89286904D01*
X136359580Y-89286904D02*
X136407200Y-89334523D01*
X136407200Y-89334523D02*
X136454819Y-89429761D01*
X136454819Y-89429761D02*
X136454819Y-89715475D01*
X136454819Y-89715475D02*
X136407200Y-89810713D01*
X136407200Y-89810713D02*
X136359580Y-89858332D01*
X150261905Y-64254819D02*
X150261905Y-65064342D01*
X150261905Y-65064342D02*
X150309524Y-65159580D01*
X150309524Y-65159580D02*
X150357143Y-65207200D01*
X150357143Y-65207200D02*
X150452381Y-65254819D01*
X150452381Y-65254819D02*
X150642857Y-65254819D01*
X150642857Y-65254819D02*
X150738095Y-65207200D01*
X150738095Y-65207200D02*
X150785714Y-65159580D01*
X150785714Y-65159580D02*
X150833333Y-65064342D01*
X150833333Y-65064342D02*
X150833333Y-64254819D01*
X151833333Y-65254819D02*
X151261905Y-65254819D01*
X151547619Y-65254819D02*
X151547619Y-64254819D01*
X151547619Y-64254819D02*
X151452381Y-64397676D01*
X151452381Y-64397676D02*
X151357143Y-64492914D01*
X151357143Y-64492914D02*
X151261905Y-64540533D01*
X152214286Y-64350057D02*
X152261905Y-64302438D01*
X152261905Y-64302438D02*
X152357143Y-64254819D01*
X152357143Y-64254819D02*
X152595238Y-64254819D01*
X152595238Y-64254819D02*
X152690476Y-64302438D01*
X152690476Y-64302438D02*
X152738095Y-64350057D01*
X152738095Y-64350057D02*
X152785714Y-64445295D01*
X152785714Y-64445295D02*
X152785714Y-64540533D01*
X152785714Y-64540533D02*
X152738095Y-64683390D01*
X152738095Y-64683390D02*
X152166667Y-65254819D01*
X152166667Y-65254819D02*
X152785714Y-65254819D01*
X132954819Y-82511904D02*
X133764342Y-82511904D01*
X133764342Y-82511904D02*
X133859580Y-82464285D01*
X133859580Y-82464285D02*
X133907200Y-82416666D01*
X133907200Y-82416666D02*
X133954819Y-82321428D01*
X133954819Y-82321428D02*
X133954819Y-82130952D01*
X133954819Y-82130952D02*
X133907200Y-82035714D01*
X133907200Y-82035714D02*
X133859580Y-81988095D01*
X133859580Y-81988095D02*
X133764342Y-81940476D01*
X133764342Y-81940476D02*
X132954819Y-81940476D01*
X132954819Y-81559523D02*
X132954819Y-80940476D01*
X132954819Y-80940476D02*
X133335771Y-81273809D01*
X133335771Y-81273809D02*
X133335771Y-81130952D01*
X133335771Y-81130952D02*
X133383390Y-81035714D01*
X133383390Y-81035714D02*
X133431009Y-80988095D01*
X133431009Y-80988095D02*
X133526247Y-80940476D01*
X133526247Y-80940476D02*
X133764342Y-80940476D01*
X133764342Y-80940476D02*
X133859580Y-80988095D01*
X133859580Y-80988095D02*
X133907200Y-81035714D01*
X133907200Y-81035714D02*
X133954819Y-81130952D01*
X133954819Y-81130952D02*
X133954819Y-81416666D01*
X133954819Y-81416666D02*
X133907200Y-81511904D01*
X133907200Y-81511904D02*
X133859580Y-81559523D01*
X152833333Y-94367319D02*
X152500000Y-93891128D01*
X152261905Y-94367319D02*
X152261905Y-93367319D01*
X152261905Y-93367319D02*
X152642857Y-93367319D01*
X152642857Y-93367319D02*
X152738095Y-93414938D01*
X152738095Y-93414938D02*
X152785714Y-93462557D01*
X152785714Y-93462557D02*
X152833333Y-93557795D01*
X152833333Y-93557795D02*
X152833333Y-93700652D01*
X152833333Y-93700652D02*
X152785714Y-93795890D01*
X152785714Y-93795890D02*
X152738095Y-93843509D01*
X152738095Y-93843509D02*
X152642857Y-93891128D01*
X152642857Y-93891128D02*
X152261905Y-93891128D01*
X153690476Y-93367319D02*
X153500000Y-93367319D01*
X153500000Y-93367319D02*
X153404762Y-93414938D01*
X153404762Y-93414938D02*
X153357143Y-93462557D01*
X153357143Y-93462557D02*
X153261905Y-93605414D01*
X153261905Y-93605414D02*
X153214286Y-93795890D01*
X153214286Y-93795890D02*
X153214286Y-94176842D01*
X153214286Y-94176842D02*
X153261905Y-94272080D01*
X153261905Y-94272080D02*
X153309524Y-94319700D01*
X153309524Y-94319700D02*
X153404762Y-94367319D01*
X153404762Y-94367319D02*
X153595238Y-94367319D01*
X153595238Y-94367319D02*
X153690476Y-94319700D01*
X153690476Y-94319700D02*
X153738095Y-94272080D01*
X153738095Y-94272080D02*
X153785714Y-94176842D01*
X153785714Y-94176842D02*
X153785714Y-93938747D01*
X153785714Y-93938747D02*
X153738095Y-93843509D01*
X153738095Y-93843509D02*
X153690476Y-93795890D01*
X153690476Y-93795890D02*
X153595238Y-93748271D01*
X153595238Y-93748271D02*
X153404762Y-93748271D01*
X153404762Y-93748271D02*
X153309524Y-93795890D01*
X153309524Y-93795890D02*
X153261905Y-93843509D01*
X153261905Y-93843509D02*
X153214286Y-93938747D01*
X160738095Y-53004819D02*
X160738095Y-53814342D01*
X160738095Y-53814342D02*
X160785714Y-53909580D01*
X160785714Y-53909580D02*
X160833333Y-53957200D01*
X160833333Y-53957200D02*
X160928571Y-54004819D01*
X160928571Y-54004819D02*
X161119047Y-54004819D01*
X161119047Y-54004819D02*
X161214285Y-53957200D01*
X161214285Y-53957200D02*
X161261904Y-53909580D01*
X161261904Y-53909580D02*
X161309523Y-53814342D01*
X161309523Y-53814342D02*
X161309523Y-53004819D01*
X161833333Y-54004819D02*
X162023809Y-54004819D01*
X162023809Y-54004819D02*
X162119047Y-53957200D01*
X162119047Y-53957200D02*
X162166666Y-53909580D01*
X162166666Y-53909580D02*
X162261904Y-53766723D01*
X162261904Y-53766723D02*
X162309523Y-53576247D01*
X162309523Y-53576247D02*
X162309523Y-53195295D01*
X162309523Y-53195295D02*
X162261904Y-53100057D01*
X162261904Y-53100057D02*
X162214285Y-53052438D01*
X162214285Y-53052438D02*
X162119047Y-53004819D01*
X162119047Y-53004819D02*
X161928571Y-53004819D01*
X161928571Y-53004819D02*
X161833333Y-53052438D01*
X161833333Y-53052438D02*
X161785714Y-53100057D01*
X161785714Y-53100057D02*
X161738095Y-53195295D01*
X161738095Y-53195295D02*
X161738095Y-53433390D01*
X161738095Y-53433390D02*
X161785714Y-53528628D01*
X161785714Y-53528628D02*
X161833333Y-53576247D01*
X161833333Y-53576247D02*
X161928571Y-53623866D01*
X161928571Y-53623866D02*
X162119047Y-53623866D01*
X162119047Y-53623866D02*
X162214285Y-53576247D01*
X162214285Y-53576247D02*
X162261904Y-53528628D01*
X162261904Y-53528628D02*
X162309523Y-53433390D01*
X136454819Y-97011904D02*
X137264342Y-97011904D01*
X137264342Y-97011904D02*
X137359580Y-96964285D01*
X137359580Y-96964285D02*
X137407200Y-96916666D01*
X137407200Y-96916666D02*
X137454819Y-96821428D01*
X137454819Y-96821428D02*
X137454819Y-96630952D01*
X137454819Y-96630952D02*
X137407200Y-96535714D01*
X137407200Y-96535714D02*
X137359580Y-96488095D01*
X137359580Y-96488095D02*
X137264342Y-96440476D01*
X137264342Y-96440476D02*
X136454819Y-96440476D01*
X137454819Y-95440476D02*
X137454819Y-96011904D01*
X137454819Y-95726190D02*
X136454819Y-95726190D01*
X136454819Y-95726190D02*
X136597676Y-95821428D01*
X136597676Y-95821428D02*
X136692914Y-95916666D01*
X136692914Y-95916666D02*
X136740533Y-96011904D01*
X157211905Y-83354819D02*
X157211905Y-82354819D01*
X157211905Y-82354819D02*
X157450000Y-82354819D01*
X157450000Y-82354819D02*
X157592857Y-82402438D01*
X157592857Y-82402438D02*
X157688095Y-82497676D01*
X157688095Y-82497676D02*
X157735714Y-82592914D01*
X157735714Y-82592914D02*
X157783333Y-82783390D01*
X157783333Y-82783390D02*
X157783333Y-82926247D01*
X157783333Y-82926247D02*
X157735714Y-83116723D01*
X157735714Y-83116723D02*
X157688095Y-83211961D01*
X157688095Y-83211961D02*
X157592857Y-83307200D01*
X157592857Y-83307200D02*
X157450000Y-83354819D01*
X157450000Y-83354819D02*
X157211905Y-83354819D01*
X158640476Y-82688152D02*
X158640476Y-83354819D01*
X158402381Y-82307200D02*
X158164286Y-83021485D01*
X158164286Y-83021485D02*
X158783333Y-83021485D01*
X144511905Y-73704819D02*
X144511905Y-74514342D01*
X144511905Y-74514342D02*
X144559524Y-74609580D01*
X144559524Y-74609580D02*
X144607143Y-74657200D01*
X144607143Y-74657200D02*
X144702381Y-74704819D01*
X144702381Y-74704819D02*
X144892857Y-74704819D01*
X144892857Y-74704819D02*
X144988095Y-74657200D01*
X144988095Y-74657200D02*
X145035714Y-74609580D01*
X145035714Y-74609580D02*
X145083333Y-74514342D01*
X145083333Y-74514342D02*
X145083333Y-73704819D01*
X146083333Y-74704819D02*
X145511905Y-74704819D01*
X145797619Y-74704819D02*
X145797619Y-73704819D01*
X145797619Y-73704819D02*
X145702381Y-73847676D01*
X145702381Y-73847676D02*
X145607143Y-73942914D01*
X145607143Y-73942914D02*
X145511905Y-73990533D01*
X147035714Y-74704819D02*
X146464286Y-74704819D01*
X146750000Y-74704819D02*
X146750000Y-73704819D01*
X146750000Y-73704819D02*
X146654762Y-73847676D01*
X146654762Y-73847676D02*
X146559524Y-73942914D01*
X146559524Y-73942914D02*
X146464286Y-73990533D01*
X179954819Y-56666666D02*
X179478628Y-56999999D01*
X179954819Y-57238094D02*
X178954819Y-57238094D01*
X178954819Y-57238094D02*
X178954819Y-56857142D01*
X178954819Y-56857142D02*
X179002438Y-56761904D01*
X179002438Y-56761904D02*
X179050057Y-56714285D01*
X179050057Y-56714285D02*
X179145295Y-56666666D01*
X179145295Y-56666666D02*
X179288152Y-56666666D01*
X179288152Y-56666666D02*
X179383390Y-56714285D01*
X179383390Y-56714285D02*
X179431009Y-56761904D01*
X179431009Y-56761904D02*
X179478628Y-56857142D01*
X179478628Y-56857142D02*
X179478628Y-57238094D01*
X178954819Y-55761904D02*
X178954819Y-56238094D01*
X178954819Y-56238094D02*
X179431009Y-56285713D01*
X179431009Y-56285713D02*
X179383390Y-56238094D01*
X179383390Y-56238094D02*
X179335771Y-56142856D01*
X179335771Y-56142856D02*
X179335771Y-55904761D01*
X179335771Y-55904761D02*
X179383390Y-55809523D01*
X179383390Y-55809523D02*
X179431009Y-55761904D01*
X179431009Y-55761904D02*
X179526247Y-55714285D01*
X179526247Y-55714285D02*
X179764342Y-55714285D01*
X179764342Y-55714285D02*
X179859580Y-55761904D01*
X179859580Y-55761904D02*
X179907200Y-55809523D01*
X179907200Y-55809523D02*
X179954819Y-55904761D01*
X179954819Y-55904761D02*
X179954819Y-56142856D01*
X179954819Y-56142856D02*
X179907200Y-56238094D01*
X179907200Y-56238094D02*
X179859580Y-56285713D01*
X124738095Y-70954819D02*
X124738095Y-71764342D01*
X124738095Y-71764342D02*
X124785714Y-71859580D01*
X124785714Y-71859580D02*
X124833333Y-71907200D01*
X124833333Y-71907200D02*
X124928571Y-71954819D01*
X124928571Y-71954819D02*
X125119047Y-71954819D01*
X125119047Y-71954819D02*
X125214285Y-71907200D01*
X125214285Y-71907200D02*
X125261904Y-71859580D01*
X125261904Y-71859580D02*
X125309523Y-71764342D01*
X125309523Y-71764342D02*
X125309523Y-70954819D01*
X126214285Y-71288152D02*
X126214285Y-71954819D01*
X125976190Y-70907200D02*
X125738095Y-71621485D01*
X125738095Y-71621485D02*
X126357142Y-71621485D01*
X154711905Y-83354819D02*
X154711905Y-82354819D01*
X154711905Y-82354819D02*
X154950000Y-82354819D01*
X154950000Y-82354819D02*
X155092857Y-82402438D01*
X155092857Y-82402438D02*
X155188095Y-82497676D01*
X155188095Y-82497676D02*
X155235714Y-82592914D01*
X155235714Y-82592914D02*
X155283333Y-82783390D01*
X155283333Y-82783390D02*
X155283333Y-82926247D01*
X155283333Y-82926247D02*
X155235714Y-83116723D01*
X155235714Y-83116723D02*
X155188095Y-83211961D01*
X155188095Y-83211961D02*
X155092857Y-83307200D01*
X155092857Y-83307200D02*
X154950000Y-83354819D01*
X154950000Y-83354819D02*
X154711905Y-83354819D01*
X155616667Y-82354819D02*
X156235714Y-82354819D01*
X156235714Y-82354819D02*
X155902381Y-82735771D01*
X155902381Y-82735771D02*
X156045238Y-82735771D01*
X156045238Y-82735771D02*
X156140476Y-82783390D01*
X156140476Y-82783390D02*
X156188095Y-82831009D01*
X156188095Y-82831009D02*
X156235714Y-82926247D01*
X156235714Y-82926247D02*
X156235714Y-83164342D01*
X156235714Y-83164342D02*
X156188095Y-83259580D01*
X156188095Y-83259580D02*
X156140476Y-83307200D01*
X156140476Y-83307200D02*
X156045238Y-83354819D01*
X156045238Y-83354819D02*
X155759524Y-83354819D01*
X155759524Y-83354819D02*
X155664286Y-83307200D01*
X155664286Y-83307200D02*
X155616667Y-83259580D01*
X156738095Y-53004819D02*
X156738095Y-53814342D01*
X156738095Y-53814342D02*
X156785714Y-53909580D01*
X156785714Y-53909580D02*
X156833333Y-53957200D01*
X156833333Y-53957200D02*
X156928571Y-54004819D01*
X156928571Y-54004819D02*
X157119047Y-54004819D01*
X157119047Y-54004819D02*
X157214285Y-53957200D01*
X157214285Y-53957200D02*
X157261904Y-53909580D01*
X157261904Y-53909580D02*
X157309523Y-53814342D01*
X157309523Y-53814342D02*
X157309523Y-53004819D01*
X157928571Y-53433390D02*
X157833333Y-53385771D01*
X157833333Y-53385771D02*
X157785714Y-53338152D01*
X157785714Y-53338152D02*
X157738095Y-53242914D01*
X157738095Y-53242914D02*
X157738095Y-53195295D01*
X157738095Y-53195295D02*
X157785714Y-53100057D01*
X157785714Y-53100057D02*
X157833333Y-53052438D01*
X157833333Y-53052438D02*
X157928571Y-53004819D01*
X157928571Y-53004819D02*
X158119047Y-53004819D01*
X158119047Y-53004819D02*
X158214285Y-53052438D01*
X158214285Y-53052438D02*
X158261904Y-53100057D01*
X158261904Y-53100057D02*
X158309523Y-53195295D01*
X158309523Y-53195295D02*
X158309523Y-53242914D01*
X158309523Y-53242914D02*
X158261904Y-53338152D01*
X158261904Y-53338152D02*
X158214285Y-53385771D01*
X158214285Y-53385771D02*
X158119047Y-53433390D01*
X158119047Y-53433390D02*
X157928571Y-53433390D01*
X157928571Y-53433390D02*
X157833333Y-53481009D01*
X157833333Y-53481009D02*
X157785714Y-53528628D01*
X157785714Y-53528628D02*
X157738095Y-53623866D01*
X157738095Y-53623866D02*
X157738095Y-53814342D01*
X157738095Y-53814342D02*
X157785714Y-53909580D01*
X157785714Y-53909580D02*
X157833333Y-53957200D01*
X157833333Y-53957200D02*
X157928571Y-54004819D01*
X157928571Y-54004819D02*
X158119047Y-54004819D01*
X158119047Y-54004819D02*
X158214285Y-53957200D01*
X158214285Y-53957200D02*
X158261904Y-53909580D01*
X158261904Y-53909580D02*
X158309523Y-53814342D01*
X158309523Y-53814342D02*
X158309523Y-53623866D01*
X158309523Y-53623866D02*
X158261904Y-53528628D01*
X158261904Y-53528628D02*
X158214285Y-53481009D01*
X158214285Y-53481009D02*
X158119047Y-53433390D01*
X128704819Y-61638094D02*
X127704819Y-61638094D01*
X127704819Y-61638094D02*
X127704819Y-61399999D01*
X127704819Y-61399999D02*
X127752438Y-61257142D01*
X127752438Y-61257142D02*
X127847676Y-61161904D01*
X127847676Y-61161904D02*
X127942914Y-61114285D01*
X127942914Y-61114285D02*
X128133390Y-61066666D01*
X128133390Y-61066666D02*
X128276247Y-61066666D01*
X128276247Y-61066666D02*
X128466723Y-61114285D01*
X128466723Y-61114285D02*
X128561961Y-61161904D01*
X128561961Y-61161904D02*
X128657200Y-61257142D01*
X128657200Y-61257142D02*
X128704819Y-61399999D01*
X128704819Y-61399999D02*
X128704819Y-61638094D01*
X127704819Y-60209523D02*
X127704819Y-60399999D01*
X127704819Y-60399999D02*
X127752438Y-60495237D01*
X127752438Y-60495237D02*
X127800057Y-60542856D01*
X127800057Y-60542856D02*
X127942914Y-60638094D01*
X127942914Y-60638094D02*
X128133390Y-60685713D01*
X128133390Y-60685713D02*
X128514342Y-60685713D01*
X128514342Y-60685713D02*
X128609580Y-60638094D01*
X128609580Y-60638094D02*
X128657200Y-60590475D01*
X128657200Y-60590475D02*
X128704819Y-60495237D01*
X128704819Y-60495237D02*
X128704819Y-60304761D01*
X128704819Y-60304761D02*
X128657200Y-60209523D01*
X128657200Y-60209523D02*
X128609580Y-60161904D01*
X128609580Y-60161904D02*
X128514342Y-60114285D01*
X128514342Y-60114285D02*
X128276247Y-60114285D01*
X128276247Y-60114285D02*
X128181009Y-60161904D01*
X128181009Y-60161904D02*
X128133390Y-60209523D01*
X128133390Y-60209523D02*
X128085771Y-60304761D01*
X128085771Y-60304761D02*
X128085771Y-60495237D01*
X128085771Y-60495237D02*
X128133390Y-60590475D01*
X128133390Y-60590475D02*
X128181009Y-60638094D01*
X128181009Y-60638094D02*
X128276247Y-60685713D01*
D13*
%TO.C,C6*%
X147211252Y-85140000D02*
X145788748Y-85140000D01*
X147211252Y-87860000D02*
X145788748Y-87860000D01*
%TO.C,D7*%
X148650000Y-102510000D02*
X148650000Y-97000000D01*
X145350000Y-102510000D02*
X148650000Y-102510000D01*
X145350000Y-102510000D02*
X145350000Y-97000000D01*
%TO.C,U10*%
X171810000Y-73350000D02*
X171060000Y-73350000D01*
X196560000Y-73350000D02*
X196560000Y-91350000D01*
X190620000Y-91350000D02*
X190620000Y-73350000D01*
X171060000Y-73350000D02*
X171060000Y-74350000D01*
X171810000Y-91350000D02*
X171060000Y-91350000D01*
X171060000Y-91350000D02*
X171060000Y-90350000D01*
X196560000Y-91350000D02*
X189810000Y-91350000D01*
X196560000Y-73350000D02*
X189810000Y-73350000D01*
%TO.C,D2*%
X154000000Y-88360000D02*
X154000000Y-84350000D01*
X152000000Y-88360000D02*
X152000000Y-84350000D01*
X152000000Y-88360000D02*
X154000000Y-88360000D01*
%TO.C,U5*%
X130100000Y-75610000D02*
X131900000Y-75610000D01*
X131900000Y-72390000D02*
X129450000Y-72390000D01*
%TO.C,U14*%
X133750000Y-53250000D02*
X130750000Y-53250000D01*
X133750000Y-50250000D02*
X129750000Y-50250000D01*
%TO.C,L1*%
X137390000Y-91250000D02*
X137390000Y-89250000D01*
X141610000Y-93250000D02*
X141610000Y-89250000D01*
%TO.C,CB1*%
X143337621Y-71182379D02*
G75*
G03*
X143337621Y-71182379I-3270000J0D01*
G01*
X140267621Y-67958379D02*
X140267621Y-74406379D01*
X141828621Y-68466379D02*
X141828621Y-70142379D01*
X142188621Y-72222379D02*
X142188621Y-73632379D01*
X140747621Y-72222379D02*
X140747621Y-74341379D01*
X141468621Y-68266379D02*
X141468621Y-70142379D01*
X140547621Y-67987379D02*
X140547621Y-70142379D01*
X141268621Y-72222379D02*
X141268621Y-74184379D01*
X141268621Y-68180379D02*
X141268621Y-70142379D01*
X140427621Y-67971379D02*
X140427621Y-70142379D01*
X141108621Y-68121379D02*
X141108621Y-70142379D01*
X141068621Y-68108379D02*
X141068621Y-70142379D01*
X141308621Y-68196379D02*
X141308621Y-70142379D01*
X142108621Y-68666379D02*
X142108621Y-70142379D01*
X140467621Y-67976379D02*
X140467621Y-70142379D01*
X141908621Y-72222379D02*
X141908621Y-73846379D01*
X141548621Y-68306379D02*
X141548621Y-70142379D01*
X140427621Y-72222379D02*
X140427621Y-74393379D01*
X142068621Y-68634379D02*
X142068621Y-70142379D01*
X141868621Y-72222379D02*
X141868621Y-73872379D01*
X142148621Y-72222379D02*
X142148621Y-73666379D01*
X140227621Y-67955379D02*
X140227621Y-74409379D01*
X141428621Y-72222379D02*
X141428621Y-74116379D01*
X140707621Y-68015379D02*
X140707621Y-70142379D01*
X141788621Y-68440379D02*
X141788621Y-70142379D01*
X142268621Y-72222379D02*
X142268621Y-73562379D01*
X140467621Y-72222379D02*
X140467621Y-74388379D01*
X143068621Y-69920379D02*
X143068621Y-72444379D01*
X142668621Y-69238379D02*
X142668621Y-73126379D01*
X142468621Y-69000379D02*
X142468621Y-73364379D01*
X141148621Y-72222379D02*
X141148621Y-74229379D01*
X142108621Y-72222379D02*
X142108621Y-73698379D01*
X141948621Y-68546379D02*
X141948621Y-70142379D01*
X143108621Y-70017379D02*
X143108621Y-72347379D01*
X140988621Y-72222379D02*
X140988621Y-74280379D01*
X141028621Y-68096379D02*
X141028621Y-70142379D01*
X140307621Y-72222379D02*
X140307621Y-74404379D01*
X142028621Y-68604379D02*
X142028621Y-70142379D01*
X141508621Y-72222379D02*
X141508621Y-74078379D01*
X142388621Y-68917379D02*
X142388621Y-73447379D01*
X142188621Y-68732379D02*
X142188621Y-70142379D01*
X140347621Y-67964379D02*
X140347621Y-70142379D01*
X140828621Y-68041379D02*
X140828621Y-70142379D01*
X141188621Y-72222379D02*
X141188621Y-74215379D01*
X140908621Y-68061379D02*
X140908621Y-70142379D01*
X141748621Y-68416379D02*
X141748621Y-70142379D01*
X140908621Y-72222379D02*
X140908621Y-74303379D01*
X140067621Y-67952379D02*
X140067621Y-74412379D01*
X140988621Y-68084379D02*
X140988621Y-70142379D01*
X140747621Y-68023379D02*
X140747621Y-70142379D01*
X140587621Y-67993379D02*
X140587621Y-70142379D01*
X141108621Y-72222379D02*
X141108621Y-74243379D01*
X141508621Y-68286379D02*
X141508621Y-70142379D01*
X140507621Y-72222379D02*
X140507621Y-74383379D01*
X143188621Y-70242379D02*
X143188621Y-72122379D01*
X143148621Y-70123379D02*
X143148621Y-72241379D01*
X140667621Y-68007379D02*
X140667621Y-70142379D01*
X142908621Y-69601379D02*
X142908621Y-72763379D01*
X142268621Y-68802379D02*
X142268621Y-70142379D01*
X142828621Y-69468379D02*
X142828621Y-72896379D01*
X141628621Y-72222379D02*
X141628621Y-74016379D01*
X136882380Y-69028379D02*
X136882380Y-69658379D01*
X140788621Y-72222379D02*
X140788621Y-74332379D01*
X141188621Y-68149379D02*
X141188621Y-70142379D01*
X142228621Y-72222379D02*
X142228621Y-73598379D01*
X141988621Y-72222379D02*
X141988621Y-73789379D01*
X140948621Y-68072379D02*
X140948621Y-70142379D01*
X140547621Y-72222379D02*
X140547621Y-74377379D01*
X141588621Y-72222379D02*
X141588621Y-74038379D01*
X141228621Y-68164379D02*
X141228621Y-70142379D01*
X142308621Y-72222379D02*
X142308621Y-73525379D01*
X141428621Y-68248379D02*
X141428621Y-70142379D01*
X140788621Y-68032379D02*
X140788621Y-70142379D01*
X143028621Y-69832379D02*
X143028621Y-72532379D01*
X141028621Y-72222379D02*
X141028621Y-74268379D01*
X142308621Y-68839379D02*
X142308621Y-70142379D01*
X141388621Y-72222379D02*
X141388621Y-74134379D01*
X142548621Y-69090379D02*
X142548621Y-73274379D01*
X142588621Y-69138379D02*
X142588621Y-73226379D01*
X141468621Y-72222379D02*
X141468621Y-74098379D01*
X141348621Y-72222379D02*
X141348621Y-74152379D01*
X140828621Y-72222379D02*
X140828621Y-74323379D01*
X141988621Y-68575379D02*
X141988621Y-70142379D01*
X142508621Y-69045379D02*
X142508621Y-73319379D01*
X141748621Y-72222379D02*
X141748621Y-73948379D01*
X141388621Y-68230379D02*
X141388621Y-70142379D01*
X141708621Y-68392379D02*
X141708621Y-70142379D01*
X140387621Y-67967379D02*
X140387621Y-70142379D01*
X141348621Y-68212379D02*
X141348621Y-70142379D01*
X140387621Y-72222379D02*
X140387621Y-74397379D01*
X142028621Y-72222379D02*
X142028621Y-73760379D01*
X142348621Y-72222379D02*
X142348621Y-73487379D01*
X143268621Y-70549379D02*
X143268621Y-71815379D01*
X141948621Y-72222379D02*
X141948621Y-73818379D01*
X142788621Y-69406379D02*
X142788621Y-72958379D01*
X141868621Y-68492379D02*
X141868621Y-70142379D01*
X142228621Y-68766379D02*
X142228621Y-70142379D01*
X140307621Y-67960379D02*
X140307621Y-70142379D01*
X140868621Y-72222379D02*
X140868621Y-74313379D01*
X141628621Y-68348379D02*
X141628621Y-70142379D01*
X140507621Y-67981379D02*
X140507621Y-70142379D01*
X142988621Y-69750379D02*
X142988621Y-72614379D01*
X141908621Y-68518379D02*
X141908621Y-70142379D01*
X140347621Y-72222379D02*
X140347621Y-74400379D01*
X140667621Y-72222379D02*
X140667621Y-74357379D01*
X142868621Y-69532379D02*
X142868621Y-72832379D01*
X142148621Y-68698379D02*
X142148621Y-70142379D01*
X141228621Y-72222379D02*
X141228621Y-74200379D01*
X142428621Y-68958379D02*
X142428621Y-73406379D01*
X142948621Y-69673379D02*
X142948621Y-72691379D01*
X140587621Y-72222379D02*
X140587621Y-74371379D01*
X141828621Y-72222379D02*
X141828621Y-73898379D01*
X141668621Y-68370379D02*
X141668621Y-70142379D01*
X141308621Y-72222379D02*
X141308621Y-74168379D01*
X140707621Y-72222379D02*
X140707621Y-74349379D01*
X143308621Y-70780379D02*
X143308621Y-71584379D01*
X141788621Y-72222379D02*
X141788621Y-73924379D01*
X136567380Y-69343379D02*
X137197380Y-69343379D01*
X141708621Y-72222379D02*
X141708621Y-73972379D01*
X140187621Y-67954379D02*
X140187621Y-74410379D01*
X143228621Y-70380379D02*
X143228621Y-71984379D01*
X140627621Y-68000379D02*
X140627621Y-70142379D01*
X142348621Y-68877379D02*
X142348621Y-70142379D01*
X141588621Y-68326379D02*
X141588621Y-70142379D01*
X141668621Y-72222379D02*
X141668621Y-73994379D01*
X140627621Y-72222379D02*
X140627621Y-74364379D01*
X142628621Y-69187379D02*
X142628621Y-73177379D01*
X142748621Y-69348379D02*
X142748621Y-73016379D01*
X140107621Y-67952379D02*
X140107621Y-74412379D01*
X141068621Y-72222379D02*
X141068621Y-74256379D01*
X140948621Y-72222379D02*
X140948621Y-74292379D01*
X140147621Y-67952379D02*
X140147621Y-74412379D01*
X140868621Y-68051379D02*
X140868621Y-70142379D01*
X142708621Y-69292379D02*
X142708621Y-73072379D01*
X141148621Y-68135379D02*
X141148621Y-70142379D01*
X141548621Y-72222379D02*
X141548621Y-74058379D01*
X142068621Y-72222379D02*
X142068621Y-73730379D01*
%TO.C,C4*%
X144860000Y-92813748D02*
X144860000Y-94236252D01*
X142140000Y-92813748D02*
X142140000Y-94236252D01*
%TO.C,C2*%
X142140000Y-99236252D02*
X142140000Y-97813748D01*
X144860000Y-99236252D02*
X144860000Y-97813748D01*
%TO.C,Railsync1*%
X131242500Y-90495000D02*
X121822500Y-90495000D01*
X131242500Y-90495000D02*
X131242500Y-92005000D01*
X125132500Y-90495000D02*
X125132500Y-99115000D01*
X121822500Y-90495000D02*
X121822500Y-99115000D01*
X132532500Y-92755000D02*
X132532500Y-93355000D01*
X131932500Y-93055000D02*
X132532500Y-92755000D01*
X132532500Y-93355000D02*
X131932500Y-93055000D01*
X131242500Y-94105000D02*
X131242500Y-95505000D01*
X131242500Y-99115000D02*
X131242500Y-97605000D01*
X121822500Y-99115000D02*
X131242500Y-99115000D01*
%TO.C,U6*%
X155160000Y-57600000D02*
X155160000Y-55800000D01*
X151940000Y-55800000D02*
X151940000Y-58250000D01*
%TO.C,R3*%
X176527064Y-62910000D02*
X175072936Y-62910000D01*
X176527064Y-61090000D02*
X175072936Y-61090000D01*
%TO.C,R10*%
X132977064Y-55660000D02*
X131522936Y-55660000D01*
X132977064Y-53840000D02*
X131522936Y-53840000D01*
%TO.C,R7*%
X156360000Y-91589564D02*
X156360000Y-90135436D01*
X154540000Y-91589564D02*
X154540000Y-90135436D01*
%TO.C,R9*%
X161360000Y-91589564D02*
X161360000Y-90135436D01*
X159540000Y-91589564D02*
X159540000Y-90135436D01*
%TO.C,C5*%
X134240000Y-82740000D02*
X134240000Y-84440000D01*
X134240000Y-88260000D02*
X134240000Y-86560000D01*
X138695563Y-82740000D02*
X134240000Y-82740000D01*
X138695563Y-88260000D02*
X134240000Y-88260000D01*
X139760000Y-83804437D02*
X138695563Y-82740000D01*
X139760000Y-83804437D02*
X139760000Y-84440000D01*
X139760000Y-87195563D02*
X138695563Y-88260000D01*
X139760000Y-87195563D02*
X139760000Y-86560000D01*
X140312500Y-87497500D02*
X140312500Y-86872500D01*
X140625000Y-87185000D02*
X140000000Y-87185000D01*
%TO.C,R8*%
X158860000Y-91589564D02*
X158860000Y-90135436D01*
X157040000Y-91589564D02*
X157040000Y-90135436D01*
%TO.C,C1*%
X125058748Y-87840000D02*
X126481252Y-87840000D01*
X125058748Y-89660000D02*
X126481252Y-89660000D01*
%TO.C,BOOT1*%
X186900000Y-54850000D02*
X186900000Y-58150000D01*
X186600000Y-54850000D02*
X186900000Y-54850000D01*
X184400000Y-54850000D02*
X184100000Y-54850000D01*
X184100000Y-54850000D02*
X184100000Y-58150000D01*
X187220000Y-55500000D02*
X186900000Y-55500000D01*
X187600000Y-56000000D02*
X187220000Y-55500000D01*
X187600000Y-56000000D02*
X187600000Y-57000000D01*
X187600000Y-57000000D02*
X187220000Y-57500000D01*
X187220000Y-57500000D02*
X186900000Y-57500000D01*
X186900000Y-58150000D02*
X186600000Y-58150000D01*
X184100000Y-58150000D02*
X184400000Y-58150000D01*
%TO.C,U2*%
X123720000Y-87250000D02*
X123720000Y-78050000D01*
X127820000Y-85450000D02*
X127820000Y-78050000D01*
%TO.C,R4*%
X182160000Y-60772936D02*
X182160000Y-62227064D01*
X180340000Y-60772936D02*
X180340000Y-62227064D01*
%TO.C,U17*%
X161210000Y-62600000D02*
X161210000Y-60800000D01*
X157990000Y-60800000D02*
X157990000Y-63250000D01*
%TO.C,R2*%
X124160000Y-50772936D02*
X124160000Y-52227064D01*
X122340000Y-50772936D02*
X122340000Y-52227064D01*
%TO.C,U7*%
X151160000Y-57600000D02*
X151160000Y-55800000D01*
X147940000Y-55800000D02*
X147940000Y-58250000D01*
%TO.C,C7*%
X184461252Y-66160000D02*
X183038748Y-66160000D01*
X184461252Y-64340000D02*
X183038748Y-64340000D01*
%TO.C,U15*%
X149210000Y-62600000D02*
X149210000Y-60800000D01*
X145990000Y-60800000D02*
X145990000Y-63250000D01*
%TO.C,D1*%
X124385000Y-53965000D02*
X122115000Y-53965000D01*
X122115000Y-53965000D02*
X122115000Y-57850000D01*
X124385000Y-57850000D02*
X124385000Y-53965000D01*
%TO.C,U16*%
X157210000Y-62600000D02*
X157210000Y-60800000D01*
X153990000Y-60800000D02*
X153990000Y-63250000D01*
%TO.C,R1*%
X131247064Y-89660000D02*
X129792936Y-89660000D01*
X131247064Y-87840000D02*
X129792936Y-87840000D01*
%TO.C,CU14*%
X126090000Y-52211252D02*
X126090000Y-50788748D01*
X127910000Y-52211252D02*
X127910000Y-50788748D01*
%TO.C,CU2*%
X134910000Y-77788748D02*
X134910000Y-79211252D01*
X133090000Y-77788748D02*
X133090000Y-79211252D01*
%TO.C,D5*%
X161450000Y-88360000D02*
X161450000Y-84350000D01*
X159450000Y-88360000D02*
X159450000Y-84350000D01*
X159450000Y-88360000D02*
X161450000Y-88360000D01*
%TO.C,JUSB1*%
X126300000Y-60600000D02*
X126300000Y-61050000D01*
X124450000Y-60600000D02*
X126300000Y-60600000D01*
X121900000Y-60600000D02*
X122150000Y-60600000D01*
X126850000Y-62800000D02*
X126400000Y-62800000D01*
X126850000Y-62800000D02*
X126850000Y-63250000D01*
X126300000Y-68400000D02*
X126300000Y-67950000D01*
X124450000Y-68400000D02*
X126300000Y-68400000D01*
X121900000Y-68400000D02*
X122150000Y-68400000D01*
%TO.C,U13*%
X177300000Y-57500000D02*
X173300000Y-57500000D01*
X177300000Y-60500000D02*
X174300000Y-60500000D01*
%TO.C,C3*%
X135090000Y-93986252D02*
X135090000Y-92563748D01*
X136910000Y-93986252D02*
X136910000Y-92563748D01*
%TO.C,U12*%
X153160000Y-62600000D02*
X153160000Y-60800000D01*
X149940000Y-60800000D02*
X149940000Y-63250000D01*
%TO.C,U3*%
X128470000Y-87250000D02*
X128470000Y-78050000D01*
X132570000Y-85450000D02*
X132570000Y-78050000D01*
%TO.C,R6*%
X153910000Y-91602064D02*
X153910000Y-90147936D01*
X152090000Y-91602064D02*
X152090000Y-90147936D01*
%TO.C,CU10*%
X187538748Y-69090000D02*
X188961252Y-69090000D01*
X187538748Y-70910000D02*
X188961252Y-70910000D01*
%TO.C,U9*%
X163160000Y-57600000D02*
X163160000Y-55800000D01*
X159940000Y-55800000D02*
X159940000Y-58250000D01*
%TO.C,RESET1*%
X186900000Y-59850000D02*
X186900000Y-63150000D01*
X186600000Y-59850000D02*
X186900000Y-59850000D01*
X184400000Y-59850000D02*
X184100000Y-59850000D01*
X184100000Y-59850000D02*
X184100000Y-63150000D01*
X187220000Y-60500000D02*
X186900000Y-60500000D01*
X187600000Y-61000000D02*
X187220000Y-60500000D01*
X187600000Y-61000000D02*
X187600000Y-62000000D01*
X187600000Y-62000000D02*
X187220000Y-62500000D01*
X187220000Y-62500000D02*
X186900000Y-62500000D01*
X186900000Y-63150000D02*
X186600000Y-63150000D01*
X184100000Y-63150000D02*
X184400000Y-63150000D01*
%TO.C,U1*%
X137940000Y-96000000D02*
X137940000Y-97800000D01*
X137940000Y-96000000D02*
X137940000Y-95200000D01*
X141060000Y-96000000D02*
X141060000Y-96800000D01*
X141060000Y-96000000D02*
X141060000Y-95200000D01*
%TO.C,D4*%
X158950000Y-88360000D02*
X158950000Y-84350000D01*
X156950000Y-88360000D02*
X156950000Y-84350000D01*
X156950000Y-88360000D02*
X158950000Y-88360000D01*
%TO.C,U11*%
X146910000Y-81910000D02*
X146910000Y-80650000D01*
X146910000Y-75090000D02*
X146910000Y-76350000D01*
X143150000Y-81910000D02*
X146910000Y-81910000D01*
X140900000Y-75090000D02*
X146910000Y-75090000D01*
%TO.C,CU13*%
X176511252Y-56910000D02*
X175088748Y-56910000D01*
X176511252Y-55090000D02*
X175088748Y-55090000D01*
%TO.C,R5*%
X182160000Y-55772936D02*
X182160000Y-57227064D01*
X180340000Y-55772936D02*
X180340000Y-57227064D01*
%TO.C,U4*%
X126400000Y-72390000D02*
X124600000Y-72390000D01*
X124600000Y-75610000D02*
X127050000Y-75610000D01*
%TO.C,D3*%
X154450000Y-88360000D02*
X156450000Y-88360000D01*
X154450000Y-88360000D02*
X154450000Y-84350000D01*
X156450000Y-88360000D02*
X156450000Y-84350000D01*
%TO.C,U8*%
X159160000Y-57600000D02*
X159160000Y-55800000D01*
X155940000Y-55800000D02*
X155940000Y-58250000D01*
%TO.C,D6*%
X127250000Y-66860000D02*
X129250000Y-66860000D01*
X127250000Y-66860000D02*
X127250000Y-62850000D01*
X129250000Y-66860000D02*
X129250000Y-62850000D01*
%TD*%
M02*
